<svg width="159" height="71" viewBox="0 0 159 71" fill="none" xmlns="http://www.w3.org/2000/svg">
<path d="M8.43552 66.9938C8.43552 67.8471 8.17952 68.5725 7.66752 69.2338C7.24085 69.7885 6.64352 70.2151 5.93952 70.4925C5.27952 70.7471 4.49018 70.8765 3.57285 70.8765C2.44218 70.8765 1.33285 70.6418 0.24485 70.1511L0.138184 69.9805C0.287517 69.3831 0.37285 68.5511 0.37285 67.4631L0.43685 67.3778H0.970184L1.03418 67.4631V67.6338C1.03418 67.9325 1.07685 68.2951 1.14085 68.7645C1.33285 69.1058 1.67418 69.3831 2.18618 69.6178C2.69818 69.8738 3.25285 69.9805 3.82885 69.9805C4.89552 69.9805 5.61952 69.6391 6.04618 68.9351C6.25952 68.5725 6.36618 68.1885 6.36618 67.8045C6.36618 67.1431 6.06752 66.6738 5.49285 66.3965C5.19418 66.2471 4.74618 66.1405 4.10618 66.0551C2.65552 65.8418 1.71685 65.5658 1.24752 65.2671C0.564851 64.7751 0.223517 64.0298 0.223517 63.0271C0.223517 61.9818 0.607517 61.1285 1.35418 60.5098C2.14352 59.8498 3.23152 59.5285 4.63952 59.5285C5.89685 59.5285 6.92085 59.7205 7.71018 60.1045L7.75285 60.2978C7.62485 60.8938 7.53952 61.6405 7.51818 62.4938L7.43285 62.5578H6.92085L6.83552 62.4938C6.83552 61.8751 6.79285 61.4698 6.77152 61.2991C6.60085 61.0431 6.30218 60.8511 5.87552 60.6805C5.44885 60.5098 4.98085 60.4031 4.51152 60.4031C3.76485 60.4031 3.21018 60.5951 2.78352 60.9578C2.37818 61.2991 2.18618 61.7471 2.18618 62.2805C2.18618 62.8778 2.42085 63.3045 2.86885 63.5818C3.14618 63.7738 3.85018 63.9445 4.93818 64.0938C5.04485 64.1151 5.36485 64.1578 5.87552 64.2431C6.19552 64.3071 6.49418 64.3711 6.77152 64.4778C7.30485 64.6698 7.71018 64.9671 7.98752 65.3738C8.28618 65.7991 8.43552 66.3325 8.43552 66.9938ZM31.8755 70.5138L31.7902 70.5778C31.2568 70.5565 30.4248 70.5351 29.2955 70.5351C28.1435 70.5351 27.3115 70.5565 26.7995 70.5778L26.7142 70.5138V70.0018L26.8208 69.9165C27.3755 69.8951 27.6742 69.8525 27.7595 69.8311C27.9088 69.8098 28.0155 69.7031 28.0368 69.5538C28.1008 69.1911 28.1435 68.4018 28.1435 67.1858V65.3298C27.8662 65.3085 26.9915 65.2885 25.5195 65.2885C24.1542 65.2885 23.2595 65.3085 22.8328 65.3298V67.1858C22.8328 68.4018 22.8542 69.1911 22.9395 69.5538C22.9608 69.7031 23.0462 69.8098 23.2168 69.8311C23.2808 69.8525 23.6008 69.8951 24.1542 69.9165L24.2395 70.0018V70.5138L24.1542 70.5778C23.6222 70.5565 22.7902 70.5351 21.6595 70.5351C20.5075 70.5351 19.6755 70.5565 19.1635 70.5778L19.0995 70.5138V70.0018L19.1635 69.9165C19.7182 69.8951 20.0382 69.8525 20.1235 69.8311C20.2729 69.8098 20.3582 69.7031 20.4009 69.5538C20.4648 69.1911 20.5075 68.4018 20.5075 67.1858V63.1125C20.5075 61.8965 20.4648 61.1071 20.4009 60.7445C20.3582 60.5951 20.2729 60.4885 20.1235 60.4458C20.0382 60.4245 19.7182 60.4031 19.1635 60.3831L19.0995 60.2978V59.7845L19.1635 59.6991C19.6968 59.7431 20.5289 59.7645 21.6595 59.7645C22.8328 59.7645 23.6648 59.7431 24.1542 59.6991L24.2395 59.7845V60.2978L24.1542 60.3831C23.6008 60.4031 23.2808 60.4245 23.2168 60.4458C23.0462 60.4885 22.9608 60.5951 22.9395 60.7445C22.8542 61.1071 22.8328 61.8965 22.8328 63.1125V64.3711C23.3875 64.4125 24.1968 64.4125 25.1995 64.4125C26.7782 64.4125 27.7595 64.4125 28.1435 64.3711V63.1125C28.1435 61.8965 28.1008 61.1071 28.0368 60.7445C28.0155 60.5951 27.9088 60.4885 27.7595 60.4458C27.6742 60.4245 27.3755 60.4031 26.8208 60.3831L26.7142 60.2978V59.7845L26.7995 59.6991C27.3328 59.7431 28.1648 59.7645 29.2955 59.7645C30.4888 59.7645 31.2995 59.7431 31.7902 59.6991L31.8755 59.7845V60.2978L31.8115 60.3831C31.2355 60.4031 30.9155 60.4245 30.8515 60.4458C30.7022 60.4885 30.5955 60.5951 30.5742 60.7445C30.5102 61.1071 30.4675 61.8965 30.4675 63.1125V67.1858C30.4675 68.4018 30.5102 69.1911 30.5742 69.5538C30.5955 69.7031 30.7022 69.8098 30.8515 69.8311C30.9368 69.8525 31.2568 69.8951 31.7902 69.9165L31.8755 70.0018V70.5138ZM54.1862 70.5138L54.1008 70.5778C52.9062 70.5565 52.1808 70.5351 51.9248 70.5351C50.9435 70.5351 50.0262 70.5565 49.1515 70.5778L49.0875 70.5138V70.0231L49.1728 69.9378L49.8769 69.8951C50.1755 69.8951 50.3248 69.7885 50.3248 69.5965C50.3248 69.4898 50.2395 69.2551 50.0902 68.8925L49.4289 67.2498H47.1475H45.2702L44.9075 68.1885C44.6515 68.9138 44.5022 69.3618 44.5022 69.5325C44.5022 69.7245 44.6302 69.8525 44.8862 69.8738C45.0355 69.8951 45.3129 69.9165 45.7182 69.9378L45.8035 70.0231V70.5138L45.7182 70.5778C44.7155 70.5565 44.0755 70.5351 43.7768 70.5351C43.5635 70.5351 43.0088 70.5565 42.1342 70.5778L42.0702 70.5138V70.0231L42.1555 69.9378C42.7102 69.9165 43.0515 69.8098 43.1795 69.6178C43.3075 69.4471 43.7768 68.3805 44.6088 66.4178L46.7208 61.4058C46.8702 61.0218 47.1262 60.4458 47.4248 59.6578H48.5755L52.8848 69.2338C53.0555 69.5965 53.2048 69.7885 53.3328 69.8311C53.5035 69.8951 53.7595 69.9378 54.1008 69.9378L54.1862 70.0231V70.5138ZM49.0448 66.3751L47.2968 62.3445L45.6329 66.3751C46.0808 66.3965 46.6568 66.3965 47.3608 66.3965C48.0635 66.3965 48.6182 66.3965 49.0448 66.3751ZM73.2742 67.9751C73.1675 68.7218 73.1035 69.5751 73.1035 70.5138L73.0182 70.5778L67.1315 70.5351C66.1515 70.5351 65.4475 70.5565 65.0422 70.5778L64.9568 70.5138V70.2991L64.9995 70.1938C65.4048 69.9591 65.6182 69.8098 65.6608 69.7458C65.7035 69.6605 65.7248 69.3191 65.7462 68.7218L65.7675 67.0151V63.1125C65.7675 61.8965 65.7248 61.1071 65.6608 60.7445C65.6395 60.5951 65.5542 60.4885 65.3835 60.4458C65.2982 60.4245 64.9995 60.4031 64.4448 60.3831L64.3595 60.2978V59.7845L64.4448 59.6991C64.9995 59.7431 65.8102 59.7645 66.8968 59.7645C68.0062 59.7645 68.8382 59.7431 69.4142 59.6991L69.4995 59.7845V60.2978L69.4142 60.3831C68.8808 60.4031 68.5608 60.4245 68.4755 60.4458C68.3262 60.4885 68.2195 60.5951 68.1982 60.7445C68.1342 61.1071 68.0915 61.8965 68.0915 63.1125V67.6978C68.0915 68.3805 68.1128 69.0205 68.1342 69.6605H69.2435C70.8222 69.6605 71.7822 69.5965 72.1448 69.4898C72.1875 69.4685 72.2515 69.4258 72.2728 69.4045C72.3155 69.3191 72.3782 69.1698 72.4222 68.9351L72.6128 67.9751L72.6982 67.8898H73.1888L73.2742 67.9751ZM88.9728 70.5138L88.8875 70.5778C88.3542 70.5565 87.5222 70.5351 86.3915 70.5351C85.2608 70.5351 84.4302 70.5565 83.8968 70.5778L83.8115 70.5138V70.0018L83.8968 69.9165C84.4515 69.8951 84.7702 69.8525 84.8555 69.8311C85.0048 69.8098 85.0902 69.7031 85.1328 69.5538C85.1968 69.1911 85.2395 68.4018 85.2395 67.1858V63.1125C85.2395 61.8965 85.1968 61.1071 85.1328 60.7445C85.0902 60.5951 85.0048 60.4885 84.8555 60.4458C84.7702 60.4245 84.4515 60.4031 83.8968 60.3831L83.8115 60.2978V59.7845L83.8968 59.6991C84.4302 59.7431 85.2608 59.7645 86.3915 59.7645C87.5435 59.7645 88.3755 59.7431 88.8875 59.6991L88.9728 59.7845V60.2978L88.8875 60.3831C88.3328 60.4031 88.0128 60.4245 87.9488 60.4458C87.7782 60.4885 87.6928 60.5951 87.6715 60.7445C87.5862 61.1071 87.5648 61.8965 87.5648 63.1125V67.1858C87.5648 68.4018 87.5862 69.1911 87.6715 69.5538C87.6928 69.7031 87.7782 69.8098 87.9488 69.8311C88.0128 69.8525 88.3328 69.8951 88.8875 69.9165L88.9728 70.0018V70.5138ZM114.909 70.5138L114.824 70.5778C114.29 70.5565 113.458 70.5351 112.328 70.5351C111.176 70.5351 110.344 70.5565 109.832 70.5778L109.768 70.5138V70.0018L109.832 69.9165C110.386 69.8951 110.706 69.8525 110.792 69.8311C110.941 69.8098 111.048 69.7031 111.069 69.5538C111.133 69.1911 111.176 68.4018 111.176 67.1858V61.9818L109.362 65.5005C109.256 65.6925 108.914 66.3965 108.297 67.6551L106.825 70.7058H106.27C105.993 70.0871 105.63 69.2765 105.14 68.3165L104.009 66.0338L101.877 61.8538V67.1858C101.877 68.4018 101.92 69.1911 101.984 69.5538C102.005 69.7031 102.112 69.8098 102.261 69.8311C102.346 69.8525 102.666 69.8951 103.22 69.9165L103.284 70.0018V70.5138L103.22 70.5778C102.581 70.5565 102.005 70.5351 101.472 70.5351C100.853 70.5351 100.234 70.5565 99.5942 70.5778L99.5302 70.5138V70.0018L99.5942 69.9165C100.149 69.8951 100.469 69.8525 100.554 69.8311C100.704 69.8098 100.789 69.7031 100.832 69.5538C100.896 69.1911 100.938 68.4018 100.938 67.1858V63.1125C100.938 61.8965 100.896 61.1071 100.832 60.7445C100.789 60.5951 100.704 60.4885 100.554 60.4458C100.469 60.4245 100.149 60.4031 99.5942 60.3831L99.5302 60.2978V59.7845L99.5942 59.6991C100.17 59.7431 100.874 59.7645 101.728 59.7645C102.389 59.7645 102.964 59.7431 103.454 59.6991C103.646 60.1045 103.902 60.6378 104.222 61.3418L104.734 62.4085L107.316 67.5058L108.553 65.1378L110.493 61.2138C110.728 60.7445 110.941 60.2325 111.154 59.6991C111.773 59.7431 112.178 59.7645 112.392 59.7645C113.458 59.7645 114.269 59.7431 114.824 59.6991L114.909 59.7845V60.2978L114.824 60.3831C114.269 60.4031 113.949 60.4245 113.885 60.4458C113.714 60.4885 113.629 60.5951 113.608 60.7445C113.522 61.1071 113.501 61.8965 113.501 63.1125V67.1858C113.501 68.4018 113.522 69.1911 113.608 69.5538C113.629 69.7031 113.714 69.8098 113.885 69.8311C113.949 69.8525 114.269 69.8951 114.824 69.9165L114.909 70.0018V70.5138ZM137.261 70.5138L137.197 70.5778C136.002 70.5565 135.277 70.5351 135.021 70.5351C134.04 70.5351 133.102 70.5565 132.249 70.5778L132.185 70.5138V70.0231L132.27 69.9378L132.974 69.8951C133.273 69.8951 133.4 69.7885 133.4 69.5965C133.4 69.4898 133.336 69.2551 133.188 68.8925L132.526 67.2498H130.244H128.366L128.004 68.1885C127.726 68.9138 127.598 69.3618 127.598 69.5325C127.598 69.7245 127.726 69.8525 127.982 69.8738C128.132 69.8951 128.387 69.9165 128.814 69.9378L128.878 70.0231V70.5138L128.814 70.5778C127.812 70.5565 127.172 70.5351 126.874 70.5351C126.661 70.5351 126.106 70.5565 125.232 70.5778L125.146 70.5138V70.0231L125.232 69.9378C125.808 69.9165 126.128 69.8098 126.277 69.6178C126.384 69.4471 126.874 68.3805 127.684 66.4178L129.817 61.4058C129.966 61.0218 130.201 60.4458 130.521 59.6578H131.673L135.981 69.2338C136.13 69.5965 136.28 69.7885 136.429 69.8311C136.6 69.8951 136.856 69.9378 137.197 69.9378L137.261 70.0231V70.5138ZM132.121 66.3751L130.393 62.3445L128.729 66.3751C129.177 66.3965 129.753 66.3965 130.457 66.3965C131.14 66.3965 131.694 66.3965 132.121 66.3751ZM158.546 70.5138L158.461 70.5778H158.162C157.417 70.5565 156.948 70.5351 156.777 70.5351C156.499 70.5351 156.052 70.5565 155.454 70.5778C155.433 70.4711 155.326 70.2578 155.156 69.9805L153.129 66.8018L152.233 65.5005C152.126 65.3298 151.956 65.1818 151.764 65.0311L151.849 64.7551C151.977 64.7751 152.062 64.7751 152.126 64.7751C152.66 64.7751 153.065 64.6898 153.364 64.5418C153.641 64.3925 153.897 64.1365 154.132 63.7738C154.366 63.4325 154.473 63.0058 154.473 62.4938C154.473 61.6405 154.153 61.0431 153.47 60.7445C153.129 60.6165 152.66 60.5311 152.041 60.5311C151.764 60.5311 151.509 60.5525 151.274 60.5951C151.21 61.1071 151.189 61.9605 151.189 63.1551V67.1858C151.189 68.4018 151.232 69.1911 151.296 69.5538C151.317 69.7031 151.402 69.8098 151.572 69.8311C151.657 69.8525 151.956 69.8951 152.51 69.9165L152.596 70.0018V70.5138L152.532 70.5778C151.977 70.5565 151.146 70.5351 150.037 70.5351C148.864 70.5351 148.032 70.5565 147.541 70.5778L147.456 70.5138V70.0018L147.541 69.9165C148.074 69.8951 148.394 69.8525 148.48 69.8311C148.629 69.8098 148.714 69.7031 148.757 69.5538C148.821 69.1911 148.864 68.4018 148.864 67.1858V63.1125C148.864 61.8965 148.821 61.1071 148.757 60.7445C148.714 60.5951 148.629 60.4885 148.48 60.4458C148.394 60.4245 148.074 60.4031 147.541 60.3831L147.456 60.2978V59.7845L147.541 59.6991C148.053 59.7431 148.885 59.7645 150.037 59.7645C150.677 59.7645 151.232 59.7431 151.636 59.7205C152.446 59.6991 153.065 59.6791 153.47 59.6791C154.388 59.6791 155.092 59.7645 155.518 59.9125C156.116 60.1271 156.5 60.5098 156.713 61.0005C156.798 61.2565 156.841 61.5551 156.841 61.8965C156.841 63.3045 156.03 64.2858 154.366 64.8605C154.644 65.2885 154.921 65.7365 155.241 66.1618L156.478 67.9965C157.204 69.0631 157.693 69.6818 157.949 69.8311C158.077 69.8951 158.247 69.9378 158.461 69.9378L158.546 70.0231V70.5138Z" fill="black"/>
<path fill-rule="evenodd" clip-rule="evenodd" d="M2.4209 57.9507C27.7809 45.4307 55.8702 43.404 78.2449 43.448C101.344 43.468 131.097 45.7507 154.985 57.908C129.177 34.4467 32.3022 32.548 2.4209 57.9507Z" fill="#BC923A"/>
<path fill-rule="evenodd" clip-rule="evenodd" d="M71.5753 17.6592V42.8325H85.4779L85.3713 0.435188H83.4993V7.05919H79.5246V21.6339H76.8753V25.6085H75.5499V17.6592H71.5753Z" fill="#BC923A"/>
</svg>
