<svg width="86" height="98" viewBox="0 0 86 98" fill="none" xmlns="http://www.w3.org/2000/svg">
<path d="M9.32133 53.9873H6.396V49.8887H9.05067C11.0653 49.8887 11.884 50.4332 11.884 51.8214C11.884 53.2653 11.1933 53.9873 9.32133 53.9873ZM10.244 45.055H0V64.3992H6.396V58.6144H11.1613C14.8267 58.6144 18.208 56.2101 18.208 51.9936C18.208 47.0526 14.4467 45.055 10.244 45.055Z" fill="#07509B"/>
<path d="M20.6543 64.3983H27.3103V45.074H20.6543V64.3983Z" fill="#07509B"/>
<path d="M67.125 45.0735V50.2437H72.8277V64.3992H79.4783V50.2252H85.161V45.0735H67.125Z" fill="#07509B"/>
<path d="M37.9934 45.0735H31.332V64.3992H44.268V59.3774H37.9934V45.0735Z" fill="#07509B"/>
<path d="M55.5386 59.1922C52.7412 59.1922 51.1732 57.376 51.1732 54.7373C51.1732 52.0084 52.9546 50.2956 55.5386 50.2956C58.2932 50.2956 59.9172 52.1224 59.9172 54.7532C59.9172 57.5045 58.1932 59.1922 55.5386 59.1922ZM55.6252 44.7399C49.8119 44.7399 44.7959 48.5815 44.7959 54.7227C44.7959 60.6639 49.3359 64.7465 55.6252 64.7465C61.6052 64.7465 66.3652 60.9566 66.3652 54.7704C66.3652 48.8425 61.8212 44.7399 55.6252 44.7399Z" fill="#07509B"/>
<path d="M34.3633 34.7202H52.1393V22.194C46.0366 28.616 40.4046 31.5568 34.3633 33.9452V34.7202Z" fill="#07509B"/>
<path d="M34.3701 33.1721C45.1461 28.6709 49.9074 21.1679 48.9394 17.6045C48.3514 15.4652 46.3621 14.22 41.6368 15.4903C39.5741 16.052 36.9501 17.4588 34.3701 19.1862V33.1721Z" fill="#07509B"/>
<path d="M26.2068 23.8398C30.6228 18.2417 41.7055 7.47341 51.2722 7.47341C57.1962 7.47341 56.9388 11.6461 56.1388 14.8532C59.0268 11.6819 59.8548 8.17151 59.8548 6.52891C59.8548 4.22928 58.1988 0.903014 53.6722 0.903014C43.0295 0.904339 29.9882 16.1063 26.2068 22.931C25.1962 24.7233 24.8308 25.5923 26.2068 23.8398Z" fill="#07509B"/>
<path d="M15.419 78.5678L15.4203 77.9597C15.5403 78.1863 15.687 78.3611 15.8563 78.4843C16.015 78.6062 16.183 78.6711 16.3603 78.6671C16.7123 78.6671 17.0177 78.4697 17.2577 78.0869C17.5097 77.7067 17.635 77.157 17.635 76.4377C17.639 75.7475 17.5123 75.223 17.271 74.8507C17.031 74.4825 16.723 74.2983 16.3577 74.2944C16.0137 74.2983 15.715 74.4838 15.475 74.8772L15.467 72.8015L14.6763 72.8001L14.667 78.5678H15.419ZM15.655 75.4548C15.7883 75.2415 15.9443 75.1382 16.1417 75.1382C16.339 75.1382 16.4963 75.2455 16.6243 75.4574C16.7523 75.6707 16.819 76.0191 16.819 76.496C16.819 76.9477 16.7523 77.2736 16.6243 77.4868C16.4963 77.6908 16.3497 77.8021 16.1737 77.7955C15.9403 77.7968 15.7497 77.6537 15.611 77.3517C15.511 77.1464 15.459 76.8258 15.463 76.3927C15.4617 75.9701 15.527 75.6535 15.655 75.4548Z" fill="#231F20"/>
<path d="M19.1453 78.5707L18.3467 78.5668L18.348 74.3914L19.1013 74.3954L19.0973 74.9782C19.2267 74.7014 19.34 74.5172 19.4387 74.4338C19.532 74.3463 19.6573 74.2947 19.7787 74.2987C19.9587 74.2987 20.1387 74.3689 20.3 74.508L20.0573 75.4763C19.9213 75.3505 19.796 75.2882 19.6867 75.2935C19.572 75.2882 19.4733 75.3385 19.4 75.422C19.3213 75.5081 19.268 75.6551 19.2173 75.8843C19.172 76.1121 19.152 76.5692 19.152 77.2779L19.1453 78.5707Z" fill="#231F20"/>
<path d="M20.7669 77.6484C20.8976 77.9836 21.0869 78.2313 21.3416 78.4088C21.5909 78.5863 21.8616 78.6711 22.1376 78.6711C22.5843 78.6751 22.9576 78.4591 23.2509 78.0472C23.5509 77.6299 23.6949 77.1093 23.6989 76.4814C23.7029 75.8469 23.5496 75.3263 23.2589 74.9183C22.9643 74.501 22.5909 74.3036 22.1323 74.2957C21.8336 74.3036 21.5683 74.3924 21.3216 74.5672C21.0869 74.7593 20.9029 75.0137 20.7709 75.362C20.6363 75.7025 20.5763 76.0535 20.5723 76.4271C20.5723 76.9079 20.6323 77.3133 20.7669 77.6484ZM21.6083 75.5329C21.7563 75.313 21.9283 75.2097 22.1323 75.2057C22.3469 75.2057 22.5176 75.313 22.6656 75.5382C22.8109 75.7555 22.8776 76.0641 22.8776 76.4814C22.8776 76.9026 22.8069 77.2179 22.6603 77.4352C22.5229 77.6564 22.3483 77.761 22.1376 77.761C21.9283 77.765 21.7456 77.659 21.6056 77.4352C21.4603 77.2153 21.3963 76.8987 21.3896 76.4867C21.3936 76.0747 21.4603 75.7555 21.6083 75.5329Z" fill="#231F20"/>
<path d="M26.4255 78.5678L26.4322 77.9545C26.3149 78.1704 26.1775 78.3492 25.9962 78.4817C25.8189 78.6062 25.6269 78.6751 25.4309 78.6672C25.2202 78.6751 25.0429 78.6062 24.8882 78.4844C24.7242 78.3612 24.6082 78.1863 24.5295 77.9691C24.4629 77.7452 24.4282 77.4352 24.4229 77.0352L24.4255 74.3911L25.2335 74.3951V76.3159C25.2269 76.904 25.2429 77.267 25.2762 77.3981C25.3055 77.5346 25.3629 77.6339 25.4402 77.716C25.5149 77.7916 25.6042 77.8286 25.7309 77.8286C25.8655 77.8286 25.9869 77.7743 26.0922 77.6776C26.2015 77.5703 26.2815 77.4485 26.3175 77.2869C26.3509 77.1319 26.3775 76.7596 26.3749 76.1582L26.3775 74.3964L27.1722 74.3951L27.1775 78.5718L26.4255 78.5678Z" fill="#231F20"/>
<path d="M28.0192 78.9726C28.0192 79.3501 28.1312 79.6588 28.3472 79.9012C28.5658 80.1449 28.9258 80.2628 29.4445 80.2681C29.7125 80.2628 29.9418 80.2284 30.1178 80.1476C30.3072 80.0708 30.4472 79.9608 30.5485 79.8191C30.6605 79.6813 30.7405 79.4905 30.7992 79.2495C30.8592 79.0031 30.8912 78.6414 30.8965 78.1433L30.8952 74.3985H30.1418L30.1485 74.9787C29.9005 74.5323 29.5898 74.3031 29.2152 74.2978C28.8472 74.3058 28.5418 74.4925 28.2912 74.8608C28.0512 75.2264 27.9258 75.7589 27.9258 76.4597C27.9232 77.028 28.0192 77.489 28.2085 77.8638C28.4445 78.3354 28.7712 78.5712 29.1752 78.5712C29.5445 78.5712 29.8418 78.35 30.0872 77.8983L30.0898 78.509C30.0872 78.754 30.0698 78.9196 30.0512 79.011C30.0098 79.1448 29.9592 79.2375 29.8832 79.2945C29.7818 79.3819 29.6178 79.423 29.4112 79.4177C29.2405 79.423 29.1138 79.3846 29.0378 79.3011C28.9832 79.2415 28.9552 79.1435 28.9325 78.9845L28.0218 78.8362C28.0218 78.8997 28.0218 78.9382 28.0192 78.9726ZM28.9325 75.4543C29.0592 75.2476 29.2218 75.1496 29.4178 75.1403C29.6138 75.1483 29.7658 75.2489 29.9005 75.4622C30.0325 75.6715 30.0952 75.9934 30.1005 76.4266C30.1005 76.8385 30.0298 77.1498 29.8965 77.3671C29.7578 77.5737 29.5938 77.6797 29.4032 77.6797C29.2112 77.6797 29.0645 77.5751 28.9325 77.3697C28.8085 77.1578 28.7458 76.8452 28.7445 76.3948C28.7445 75.9722 28.8085 75.6609 28.9325 75.4543Z" fill="#231F20"/>
<path d="M32.5826 72.8083L32.5852 74.9424C32.8479 74.5198 33.1559 74.3052 33.5146 74.3105C33.7026 74.3052 33.8693 74.3609 34.0119 74.4523C34.1692 74.5437 34.2719 74.6669 34.3479 74.8126C34.4266 74.9596 34.4839 75.1199 34.5079 75.3014C34.5386 75.4762 34.5492 75.7518 34.5519 76.1227L34.5466 78.58H33.7426L33.7479 76.3717C33.7439 75.9266 33.7359 75.6524 33.7026 75.5332C33.6692 75.4219 33.6146 75.3199 33.5412 75.2484C33.4626 75.1875 33.3652 75.1517 33.2572 75.149C33.1092 75.149 32.9932 75.1954 32.8906 75.2828C32.7852 75.3689 32.7079 75.5014 32.6586 75.6855C32.6079 75.867 32.5853 76.132 32.5919 76.4843L32.5826 78.58H31.7812L31.7879 72.8097L32.5826 72.8083Z" fill="#231F20"/>
<path d="M36.8807 74.3982L36.874 75.2738H36.33L36.3247 76.9694C36.3247 77.3151 36.3314 77.5125 36.342 77.5641C36.3487 77.6224 36.3767 77.6688 36.41 77.7112C36.4514 77.7443 36.494 77.7695 36.5394 77.7589C36.6207 77.7695 36.7234 77.7257 36.866 77.6595L36.9274 78.51C36.7394 78.6212 36.5327 78.6755 36.2994 78.6755C36.1594 78.6755 36.022 78.6464 35.9114 78.5709C35.7954 78.51 35.7127 78.4199 35.6594 78.3165C35.606 78.2053 35.5647 78.0649 35.546 77.8821C35.534 77.7562 35.5207 77.4913 35.5207 77.1005L35.5274 75.2738H35.1514L35.158 74.3968L35.5274 74.3982V73.557L36.3314 72.9211L36.3247 74.3982H36.8807Z" fill="#231F20"/>
<path d="M41.1543 74.4044L41.161 75.2774L40.6036 75.2814L40.6076 76.9703C40.6036 77.3148 40.613 77.5161 40.6236 77.5717C40.629 77.6221 40.6556 77.6764 40.6943 77.7148C40.729 77.7506 40.7716 77.7651 40.8223 77.7651C40.893 77.7651 41.0023 77.7294 41.141 77.6605L41.2116 78.5176C41.021 78.6235 40.809 78.6752 40.581 78.6818C40.433 78.6818 40.3103 78.6447 40.1956 78.5772C40.0743 78.5149 39.997 78.4195 39.941 78.3202C39.8823 78.2116 39.8423 78.0566 39.829 77.8844C39.813 77.7559 39.805 77.4949 39.8036 77.1068V75.2734H39.4436L39.4316 74.3952L39.8036 74.3978L39.8076 73.5725L40.6076 72.9208L40.6036 74.3978L41.1543 74.4044Z" fill="#231F20"/>
<path d="M41.8162 77.6634C41.9455 77.9946 42.1335 78.2463 42.3869 78.4211C42.6429 78.5934 42.9055 78.6808 43.1789 78.6848C43.6322 78.6848 43.9989 78.4688 44.3002 78.0542C44.5909 77.6436 44.7455 77.1163 44.7429 76.4884C44.7429 75.8619 44.6015 75.3386 44.3082 74.9319C44.0109 74.5226 43.6389 74.3093 43.1775 74.3093C42.8842 74.3093 42.6149 74.4008 42.3669 74.5836C42.1322 74.7637 41.9455 75.0313 41.8229 75.377C41.6855 75.7162 41.6242 76.0645 41.6162 76.4368C41.6215 76.9163 41.6829 77.3217 41.8162 77.6634ZM42.6549 75.5492C42.7935 75.3227 42.9709 75.2101 43.1775 75.2221C43.3975 75.2168 43.5682 75.3254 43.7095 75.5479C43.8522 75.7665 43.9229 76.0804 43.9255 76.4924C43.9229 76.9031 43.8522 77.2223 43.7042 77.4422C43.5682 77.6648 43.3922 77.7813 43.1789 77.776C42.9709 77.7813 42.7882 77.6701 42.6535 77.4462C42.5082 77.225 42.4362 76.9084 42.4362 76.4964C42.4362 76.0804 42.5095 75.7705 42.6549 75.5492Z" fill="#231F20"/>
<path d="M47.668 78.5941L47.676 72.837L48.52 72.8344L48.5173 78.5941H47.668Z" fill="#231F20"/>
<path d="M52.181 78.5967H51.3823V76.4666C51.3823 76.0149 51.3597 75.7248 51.3303 75.5871C51.2957 75.4559 51.241 75.3566 51.1623 75.2824C51.0823 75.2082 50.9943 75.1685 50.885 75.1645C50.7437 75.1738 50.6183 75.2214 50.505 75.3287C50.397 75.436 50.3223 75.5738 50.2837 75.7487C50.237 75.9182 50.2223 76.2335 50.221 76.7038L50.2117 78.5994L49.417 78.5967L49.4183 74.4174L50.1637 74.4147L50.169 75.0333C50.433 74.5657 50.7663 74.3326 51.1623 74.3273C51.3383 74.3326 51.501 74.3736 51.653 74.4584C51.7983 74.5538 51.9037 74.6611 51.9783 74.7936C52.0597 74.9353 52.113 75.0903 52.141 75.2625C52.1677 75.4334 52.185 75.6838 52.185 75.999L52.181 78.5967Z" fill="#231F20"/>
<path d="M55.8897 72.837L55.0857 72.8397L55.079 74.9062C54.8324 74.5286 54.5404 74.3326 54.1937 74.3326C53.835 74.3326 53.519 74.5167 53.2844 74.8797C53.035 75.2466 52.915 75.7924 52.915 76.5037C52.915 77.1912 53.0377 77.7238 53.2844 78.1172C53.5377 78.5013 53.8377 78.6974 54.183 78.6974C54.3644 78.6974 54.531 78.6404 54.6977 78.5212C54.867 78.406 55.0084 78.2218 55.131 77.9821L55.1364 78.5994H55.8804L55.8897 72.837ZM53.9257 75.485C54.0617 75.2744 54.2177 75.1685 54.411 75.1724C54.6164 75.1724 54.767 75.2744 54.9017 75.485C55.031 75.7023 55.0937 76.0533 55.0937 76.5329C55.0897 76.9647 55.0257 77.2879 54.8964 77.5025C54.7657 77.7171 54.6097 77.8284 54.419 77.835C54.183 77.8284 53.9937 77.6867 53.8684 77.3939C53.7804 77.1952 53.7324 76.876 53.7324 76.4256C53.7364 76.0083 53.7977 75.701 53.9257 75.485Z" fill="#231F20"/>
<path d="M56.7722 78.6033L56.7695 74.4239H57.5695V78.5966L56.7722 78.6033ZM56.7722 73.857L56.7695 72.837H57.5722V73.8623L56.7722 73.857Z" fill="#231F20"/>
<path d="M59.3124 75.2943C59.3938 75.2082 59.5018 75.1724 59.6404 75.1724C59.8578 75.1724 59.9978 75.2214 60.0764 75.3155C60.1458 75.4042 60.1884 75.5592 60.1898 75.7685L60.1884 75.8785C60.0498 75.9686 59.7871 76.052 59.4191 76.1527C59.1324 76.2242 58.9204 76.3156 58.7764 76.4097C58.6244 76.5077 58.5151 76.6455 58.4311 76.8309C58.3538 77.0217 58.3058 77.231 58.3018 77.4615C58.3018 77.8205 58.4018 78.1238 58.5738 78.349C58.7498 78.5795 58.9964 78.7027 59.3044 78.6987C59.4858 78.7053 59.6538 78.6537 59.8111 78.5636C59.9631 78.4682 60.1124 78.3344 60.2458 78.1476C60.2498 78.1688 60.2604 78.2112 60.2724 78.2775C60.2991 78.4232 60.3284 78.5252 60.3564 78.6033H61.1418C61.0764 78.406 61.0284 78.2112 61.0098 78.0403C60.9764 77.8681 60.9644 77.6019 60.9671 77.231L60.9738 75.9394C60.9738 75.4665 60.9378 75.1367 60.8711 74.9525C60.7991 74.7724 60.6738 74.6293 60.5018 74.5008C60.3258 74.3895 60.0618 74.3326 59.6991 74.3366C59.3124 74.3326 59.0084 74.4319 58.8138 74.6253C58.6124 74.8201 58.4778 75.1194 58.3898 75.5288L59.1111 75.6996C59.1604 75.5076 59.2204 75.3685 59.3124 75.2943ZM60.1884 76.8177C60.1898 77.0853 60.1778 77.2628 60.1644 77.3555C60.1311 77.5065 60.0671 77.6204 59.9631 77.7238C59.8418 77.8536 59.6991 77.9225 59.5538 77.9225C59.4311 77.9225 59.3204 77.8681 59.2391 77.7555C59.1564 77.6403 59.1071 77.5065 59.1071 77.3449C59.1111 77.1939 59.1604 77.0667 59.2698 76.9568C59.3351 76.9011 59.4844 76.8309 59.6991 76.766C59.9311 76.7024 60.0884 76.6455 60.1898 76.5938L60.1884 76.8177Z" fill="#231F20"/>
<path d="M64.8144 78.6059V77.9953C64.9371 78.2231 65.0797 78.4059 65.2464 78.5225C65.4197 78.6457 65.5891 78.7066 65.7664 78.7066C66.1144 78.7066 66.4131 78.5092 66.6611 78.1237C66.9051 77.7409 67.0344 77.1925 67.0291 76.4811C67.0344 75.783 66.9104 75.2624 66.6731 74.8955C66.4317 74.5246 66.1171 74.3378 65.7517 74.3352C65.4144 74.3378 65.1104 74.5299 64.8717 74.9167L64.8704 72.8409H64.0717L64.0664 78.6046L64.8144 78.6059ZM65.0517 75.4863C65.1771 75.2823 65.3451 75.179 65.5371 75.1737C65.7331 75.179 65.8997 75.2823 66.0264 75.4956C66.1531 75.7075 66.2131 76.0573 66.2131 76.5408C66.2131 76.9806 66.1477 77.3144 66.0264 77.521C65.8997 77.7303 65.7451 77.835 65.5651 77.8376C65.3371 77.8429 65.1517 77.6906 65.0091 77.3912C64.9117 77.1832 64.8651 76.8733 64.8664 76.4295C64.8664 76.0109 64.9291 75.689 65.0517 75.4863Z" fill="#231F20"/>
<path d="M67.3945 74.4322H68.2545L68.9785 77.3929L69.6692 74.4322H70.4945L69.4359 78.4499L69.2425 79.1745C69.1852 79.4223 69.1105 79.609 69.0452 79.7309C68.9825 79.8594 68.9065 79.9627 68.8239 80.0449C68.7479 80.1243 68.6425 80.1919 68.5225 80.2303C68.4012 80.2793 68.2625 80.2992 68.1119 80.2992C67.9625 80.2992 67.8092 80.2793 67.6665 80.2303L67.5919 79.3746C67.7159 79.405 67.8319 79.4289 67.9239 79.4289C68.1119 79.4223 68.2585 79.3468 68.3412 79.1918C68.4345 79.0421 68.4985 78.8473 68.5479 78.6155L67.3945 74.4322Z" fill="#231F20"/>
<path fill-rule="evenodd" clip-rule="evenodd" d="M70.491 97.3022V82.6155L14.667 82.5864V97.2664L70.491 97.3022Z" fill="#E91C24"/>
<path d="M26.2046 85.6686L22.2793 94.218H28.0553L28.9553 92.2615H25.6966L28.5593 85.6686H26.2046Z" fill="white"/>
<path d="M31.3619 88.0356L28.5059 94.2166H34.8619L37.7885 88.0065H35.4285L33.4379 92.2613H31.7859L33.6592 88.0065L31.3619 88.0356Z" fill="white"/>
<path d="M45.8034 92.2774L44.818 91.4852L46.3594 90.6758L47.6194 88.0358L42.6914 90.04L39.8314 88.2808L38.9047 90.2307L40.1634 91.1554L37.618 92.2774H36.298L35.29 94.2167H38.4874L42.326 92.5754L44.6794 94.218H45.9447L46.9367 92.2774H45.8034Z" fill="white"/>
<path d="M49.6421 92.2377H51.5488L52.5568 90.0653H50.6754L49.6421 92.2377ZM57.2101 88.0359L56.3741 89.8719H55.0248L52.8661 94.185H46.3848L49.3874 88.0359H57.2101Z" fill="white"/>
<path d="M58.4255 86.6117H60.4068L59.7642 88.0357H61.9855L60.2415 92.2614H62.8775L62.0402 94.1835H57.0975L59.0935 89.9512H56.8682L58.4255 86.6117Z" fill="white"/>
</svg>
