<svg width="127" height="87" viewBox="0 0 127 87" fill="none" xmlns="http://www.w3.org/2000/svg">
<path d="M48.1372 5.89255L55.9292 13.634V33.214L50.2825 27.6053V12.5981L48.1372 5.89255Z" fill="#002D74"/>
<path d="M78.8252 5.89255L71.0332 13.634V33.214L76.6799 27.6053V12.5981L78.8252 5.89255Z" fill="#002D74"/>
<path d="M66.1379 43.3659L60.9712 38.2182V0.560333L66.1379 5.70802V43.3659Z" fill="#0C9B48"/>
<path d="M18.0851 49.3315V50.5939H10.9984V68.7804H7.70643V50.5939H0.621094V49.3315H18.0851Z" fill="#002D74"/>
<path d="M24.5957 58.6599H26.4997C27.2384 58.6599 27.9197 58.5618 28.545 58.3658C29.169 58.1711 29.7104 57.8955 30.169 57.5379C30.6264 57.1815 30.9837 56.7484 31.2384 56.2397C31.4944 55.7323 31.6224 55.1601 31.6224 54.5242C31.6224 53.9374 31.5224 53.3996 31.3197 52.9108C31.1184 52.422 30.833 52.0034 30.4637 51.6563C30.0944 51.3092 29.657 51.039 29.1504 50.843C28.6424 50.6469 28.089 50.5489 27.489 50.5489H24.5957V58.6599ZM21.3037 49.3315H28.0944C29.265 49.3315 30.2944 49.456 31.1797 49.7064C32.0664 49.9554 32.8037 50.3051 33.3944 50.7542C33.985 51.2046 34.4304 51.7398 34.7304 52.361C35.0304 52.981 35.181 53.6592 35.181 54.3918C35.181 54.9985 35.065 55.5654 34.833 56.094C34.6024 56.6212 34.277 57.0981 33.8597 57.5233C33.441 57.9485 32.937 58.3155 32.3464 58.6228C31.7557 58.9314 31.1064 59.1738 30.397 59.35L37.5277 68.7804H33.7037L26.8984 59.6428H24.5957V68.7804H21.3037V49.3315Z" fill="#002D74"/>
<path d="M40.1997 49.3308H43.4917V68.7799H40.1997V49.3308Z" fill="#002D74"/>
<path d="M52.1138 67.3577H55.6124C56.7151 67.3577 57.7524 67.1762 58.7271 66.8146C59.7018 66.4529 60.5511 65.9151 61.2738 65.2024C61.9978 64.4871 62.5684 63.6102 62.9871 62.569C63.4044 61.5278 63.6138 60.3223 63.6138 58.954C63.6138 57.7511 63.4164 56.649 63.0231 55.6462C62.6298 54.6435 62.0791 53.7811 61.3698 53.0578C60.6618 52.3345 59.8178 51.7716 58.8378 51.3702C57.8591 50.9701 56.7884 50.7688 55.6271 50.7688H52.1138V67.3577ZM48.8218 49.3315H55.3471C57.3538 49.3315 59.0818 49.5183 60.5284 49.8892C61.9751 50.2614 63.1804 50.8575 64.1458 51.6788C65.2471 52.618 66.0764 53.6937 66.6324 54.9057C67.1884 56.1178 67.4671 57.4425 67.4671 58.8798C67.4671 60.2495 67.2191 61.5344 66.7218 62.7372C66.2244 63.94 65.4964 64.9892 64.5364 65.8833C63.5778 66.7788 62.3911 67.4849 60.9791 68.0028C59.5658 68.5208 57.9498 68.7804 56.1298 68.7804H48.8218V49.3315Z" fill="#002D74"/>
<path d="M85.5067 49.3315V50.5939H75.188V57.5458H82.0973V58.8069H75.188V67.518H85.5067V68.7804H71.896V49.3315H85.5067Z" fill="#002D74"/>
<path d="M89.3755 49.3312H91.2208L104.049 63.5582H104.197V49.3312H105.643V69.2344H104.877L90.9848 53.4231H90.8662V68.7801H89.3755V49.3312Z" fill="#002D74"/>
<path d="M126.341 49.3315V50.5939H119.255V68.7804H115.963V50.5939H108.876V49.3315H126.341Z" fill="#002D74"/>
<path d="M36.9019 80.7075H37.9272C38.3245 80.7075 38.6912 80.6545 39.0272 80.5499C39.3632 80.4439 39.6552 80.2956 39.9019 80.1035C40.1472 79.9114 40.3405 79.6796 40.4779 79.4054C40.6152 79.1312 40.6845 78.8238 40.6845 78.4821C40.6845 78.1655 40.6299 77.8767 40.5219 77.6131C40.4125 77.3508 40.2592 77.1243 40.0605 76.9375C39.8619 76.7521 39.6259 76.605 39.3539 76.5004C39.0805 76.3944 38.7819 76.3427 38.4592 76.3427H36.9019V80.7075ZM35.1299 75.687H38.7845C39.4152 75.687 39.9685 75.7546 40.4459 75.8884C40.9219 76.0222 41.3192 76.2103 41.6379 76.4527C41.9552 76.6951 42.1952 76.9825 42.3565 77.3177C42.5179 77.6515 42.5992 78.0158 42.5992 78.4105C42.5992 78.7364 42.5365 79.0424 42.4125 79.3259C42.2872 79.6107 42.1126 79.8677 41.8886 80.0955C41.6632 80.3247 41.3912 80.5221 41.0739 80.6877C40.7552 80.8533 40.4059 80.9831 40.0245 81.0784L43.8632 86.1546H41.8045L38.1419 81.2361H36.9019V86.1546H35.1299V75.687Z" fill="#0C9B48"/>
<path d="M52.627 75.687V76.3652H47.0723V80.1075H50.791V80.787H47.0723V85.4764H52.627V86.1546H45.3003V75.687H52.627Z" fill="#0C9B48"/>
<path d="M56.1705 81.9862H60.0559L58.1412 77.8426L56.1705 81.9862ZM58.8319 75.4502L63.7905 86.1536H61.9865L60.3825 82.6658H55.8612L54.1999 86.1536H53.3105L58.3879 75.4502H58.8319Z" fill="#0C9B48"/>
<path d="M65.2534 75.687H67.0254V85.4764H72.3321V86.1546H65.2534V75.687Z" fill="#0C9B48"/>
<path d="M81.446 75.687V76.3652H77.6327V86.1546H75.8607V76.3652H72.0474V75.687H81.446Z" fill="#0C9B48"/>
<path d="M83.5762 75.687L87.2308 80.9923L90.8708 75.687H91.8322L87.7482 81.6308V86.1546H85.9762V81.7977L81.7642 75.687H83.5762Z" fill="#0C9B48"/>
</svg>
