<svg width="182" height="68" viewBox="0 0 182 68" fill="none" xmlns="http://www.w3.org/2000/svg">
<path fill-rule="evenodd" clip-rule="evenodd" d="M15.3501 34.6182L4.04214 23.3915C4.04214 23.3915 1.24214 21.435 0.688806 16.9881L0.65814 16.7218C0.57814 15.9363 0.56214 15.0871 0.65014 14.1612L0.672806 13.8936C0.688806 13.736 0.712806 13.5717 0.736806 13.4061C0.847473 12.6047 0.958139 11.851 1.06881 11.1356L1.10881 10.8694C1.26614 9.87057 1.42481 8.97509 1.57547 8.16571L1.62214 7.90608C1.85147 6.67413 2.05681 5.68327 2.23147 4.92158L2.29414 4.654C2.53947 3.57836 2.69814 3.04452 2.69814 3.04452C2.69814 3.04452 3.14881 2.9094 4.05814 2.69878L4.32614 2.64314C5.07014 2.46961 6.06614 2.25766 7.32347 2.02319L7.59281 1.9755C8.39947 1.82581 9.30881 1.66818 10.3128 1.51187L10.5821 1.4655C11.3728 1.34628 12.2181 1.22176 13.1275 1.09592C13.2075 1.08797 13.2781 1.07207 13.3501 1.06413L13.6261 1.03233C14.5755 0.930334 15.4448 0.930335 16.2435 0.993919L16.5128 1.02439C21.1461 1.51187 23.1781 4.37979 23.1781 4.37979L34.4781 15.6144L32.9528 17.1298L31.4261 18.6465L21.9528 9.23473C18.4341 5.73891 15.4288 9.14862 7.23681 7.54576L7.22881 7.55371C8.73147 12.1729 4.86481 18.9525 8.73947 22.3623L18.2128 31.7754L15.3501 34.6182Z" fill="#088C6A"/>
<path fill-rule="evenodd" clip-rule="evenodd" d="M15.3501 15.6144L26.6501 4.37979C26.6501 4.37979 28.6194 1.59797 33.0954 1.04823L33.3634 1.01644C34.1541 0.93828 35.0088 0.923713 35.9421 1.00982L36.2101 1.03366C36.3688 1.04823 36.5341 1.07207 36.7008 1.09592C37.5074 1.20587 38.2661 1.31582 38.9861 1.42576L39.2554 1.4655C40.2594 1.62181 41.1608 1.77945 41.9754 1.92782L42.2368 1.97551C43.4781 2.20335 44.4741 2.40735 45.2408 2.58088L45.5101 2.64314C46.5928 2.88688 47.1314 3.04452 47.1314 3.04452C47.1314 3.04452 47.2661 3.49226 47.4794 4.39569L47.5341 4.66195C47.7088 5.40112 47.9221 6.39065 48.1594 7.63982L48.2061 7.9074C48.3568 8.70883 48.5154 9.61226 48.6728 10.6097L48.7208 10.8773C48.8394 11.6629 48.9661 12.5027 49.0928 13.4061C49.0994 13.4856 49.1154 13.5558 49.1234 13.6274L49.1554 13.9016C49.2581 14.8447 49.2581 15.7084 49.1954 16.5019L49.1634 16.7695C48.6728 21.3727 45.7861 23.3929 45.7861 23.3929L34.4781 34.6182L32.9528 33.1027L31.4261 31.586L40.8994 22.1742C44.4181 18.6783 40.9861 15.6925 42.5994 7.55371L42.5914 7.54576C37.9421 9.03867 31.1181 5.19711 27.6861 9.04662L18.2128 18.4584L15.3501 15.6144Z" fill="#E95E2E"/>
<path fill-rule="evenodd" clip-rule="evenodd" d="M15.3501 34.6184L26.6501 45.853C26.6501 45.853 28.6194 48.6348 33.0954 49.1846L33.3634 49.2164C34.1541 49.2945 35.0088 49.3104 35.9421 49.223L36.2101 49.2005C36.3688 49.1846 36.5341 49.1607 36.7008 49.1369C37.5074 49.0269 38.2661 48.917 38.9861 48.807L39.2554 48.7686C40.2594 48.611 41.1608 48.4533 41.9754 48.305L42.2368 48.2573C43.4781 48.0294 44.4741 47.8254 45.2408 47.6519L45.5101 47.5897C46.5928 47.3459 47.1314 47.1883 47.1314 47.1883C47.1314 47.1883 47.2661 46.7405 47.4794 45.8371L47.5341 45.5708C47.7088 44.8317 47.9221 43.8421 48.1594 42.593L48.2061 42.3254C48.3568 41.524 48.5154 40.6205 48.6728 39.6231L48.7208 39.3568C48.8394 38.5699 48.9661 37.7301 49.0928 36.8267C49.0994 36.7472 49.1154 36.677 49.1234 36.6054L49.1554 36.3312C49.2581 35.3894 49.2581 34.5244 49.1954 33.7309L49.1634 33.4633C48.6728 28.8601 45.7861 26.8413 45.7861 26.8413L34.4781 15.6146L32.9528 17.1301L31.4261 18.6468L40.8994 28.0586C44.4181 31.5545 40.9861 34.5403 42.5994 42.6791L42.5914 42.687C37.9421 41.1941 31.1181 45.0357 27.6861 41.1862L18.2128 31.7757L15.3501 34.6184Z" fill="#F19636"/>
<path fill-rule="evenodd" clip-rule="evenodd" d="M15.3501 15.6141L4.04214 26.8407C4.04214 26.8407 1.24214 28.7972 0.688806 33.2442L0.65814 33.5104C0.57814 34.296 0.56214 35.1451 0.65014 36.071L0.672806 36.3386C0.688806 36.4963 0.712806 36.6605 0.736806 36.8261C0.847473 37.6275 0.958139 38.3813 1.06881 39.0966L1.10881 39.3642C1.26614 40.3617 1.42481 41.2571 1.57547 42.0665L1.62214 42.3262C1.85147 43.5594 2.05681 44.549 2.23147 45.3106L2.29414 45.5782C2.53947 46.6539 2.69814 47.1877 2.69814 47.1877C2.69814 47.1877 3.14881 47.3228 4.05814 47.5348L4.32614 47.5891C5.07014 47.7626 6.06614 47.9746 7.32347 48.209L7.59281 48.2567C8.39947 48.4064 9.30881 48.5641 10.3128 48.7204L10.5821 48.7681C11.3728 48.886 12.2181 49.0105 13.1275 49.1376C13.2075 49.1443 13.2781 49.1602 13.3501 49.1681L13.6261 49.1999C14.5755 49.3019 15.4448 49.3019 16.2435 49.2383L16.5128 49.2078C21.1461 48.7204 23.1781 45.8524 23.1781 45.8524L34.4781 34.6179L32.9528 33.1024L31.4261 31.5857L21.9528 40.9975C18.4341 44.4933 15.4288 41.0849 7.23681 42.6865L7.22881 42.6785C8.73147 38.0594 4.86481 31.2797 8.73947 27.87L18.2128 18.4581L15.3501 15.6141Z" fill="#0D80AA"/>
<path d="M160.163 41.579H157.111L160.67 34.3979L155.909 22.6215H159.191L161.571 29.2992C161.713 29.7086 161.831 30.1166 161.934 30.5405C162.038 30.9644 162.125 31.3896 162.187 31.8214C162.314 31.3737 162.591 30.6504 163.042 29.6609L163.113 29.5032L166.307 22.6215H169.526L160.163 41.579ZM150.951 29.0237C150.951 27.6898 150.634 26.6512 150.01 25.9134C149.385 25.1676 148.515 24.79 147.393 24.79C146.27 24.79 145.383 25.1755 144.743 25.9452C144.103 26.7068 143.778 27.7759 143.778 29.1336C143.778 30.502 144.087 31.5618 144.703 32.3009C145.329 33.0467 146.206 33.4243 147.337 33.4243C148.405 33.4243 149.274 33.0163 149.939 32.2069C150.611 31.4055 150.951 30.3444 150.951 29.0237ZM153.837 35.5067H150.863V33.8402C150.342 34.5794 149.717 35.1371 149.014 35.4987C148.302 35.8604 147.495 36.0405 146.578 36.0405C144.751 36.0405 143.305 35.4192 142.253 34.1701C141.193 32.9209 140.671 31.216 140.671 29.0489C140.671 26.9983 141.209 25.3318 142.285 24.0747C143.359 22.811 144.767 22.1738 146.499 22.1738C147.558 22.1738 148.467 22.3937 149.219 22.8335C149.97 23.2733 150.523 23.9025 150.863 24.7185V22.6215H153.837V35.5067ZM133.025 36.2922L130.027 29.5827C129.806 29.0634 129.615 28.6078 129.466 28.1998C129.323 27.7997 129.189 27.3983 129.07 27.0128C128.865 27.6023 128.691 28.1057 128.533 28.5296C128.382 28.9455 128.263 29.2688 128.169 29.4728L125.093 36.2922L118.363 22.6215H121.534L124.445 28.8356C124.563 29.0952 124.682 29.4569 124.793 29.9126C124.911 30.3762 125.006 30.8782 125.093 31.428C125.101 31.1061 125.149 30.7604 125.251 30.4067C125.354 30.0543 125.527 29.6211 125.757 29.1032L128.935 22.15H129.181L132.415 29.1032C132.605 29.543 132.755 29.943 132.858 30.3206C132.953 30.6901 133.009 31.0597 133.025 31.428C133.111 30.9418 133.214 30.4782 133.341 30.045C133.467 29.6052 133.609 29.2131 133.783 28.8594L136.638 22.6215H139.77L133.025 36.2922ZM114.441 27.5162C114.322 26.5969 113.967 25.8895 113.374 25.41C112.781 24.9238 111.966 24.6801 110.938 24.6801C109.966 24.6801 109.182 24.9159 108.59 25.3875C107.997 25.8577 107.585 26.5664 107.347 27.5162H114.441ZM117.517 29.4953H107.158C107.23 30.706 107.585 31.6413 108.242 32.3248C108.882 32.9991 109.743 33.3382 110.827 33.3382C111.785 33.3382 112.583 33.1408 113.215 32.7407C113.857 32.3394 114.41 31.6956 114.885 30.808L117.383 32.191C116.655 33.4865 115.754 34.4535 114.67 35.0894C113.595 35.7186 112.33 36.0405 110.883 36.0405C108.803 36.0405 107.15 35.4033 105.917 34.1475C104.691 32.8891 104.074 31.2081 104.074 29.1032C104.074 27.0844 104.707 25.4259 105.979 24.1224C107.253 22.8255 108.89 22.1738 110.883 22.1738C112.97 22.1738 114.599 22.7712 115.77 23.9568C116.941 25.1437 117.517 26.8088 117.517 28.9389V29.4953ZM97.234 35.5067V25.206H94.9647V22.6215H97.234V14.6549H100.199V22.6215H102.469V25.206H100.199V35.5067H97.234ZM89.5554 29.0237C89.5554 27.6898 89.2394 26.6512 88.6154 25.9134C87.99 25.1676 87.1207 24.79 85.9967 24.79C84.874 24.79 83.9887 25.1755 83.3487 25.9452C82.7074 26.7068 82.3834 27.7759 82.3834 29.1336C82.3834 30.502 82.6914 31.5618 83.3087 32.3009C83.934 33.0467 84.8114 33.4243 85.942 33.4243C87.01 33.4243 87.8794 33.0163 88.5434 32.2069C89.2154 31.4055 89.5554 30.3444 89.5554 29.0237ZM92.442 35.5067H89.4687V33.8402C88.9474 34.5794 88.322 35.1371 87.618 35.4987C86.906 35.8604 86.1007 36.0405 85.1834 36.0405C83.3567 36.0405 81.9087 35.4192 80.858 34.1701C79.798 32.9209 79.2754 31.216 79.2754 29.0489C79.2754 26.9983 79.814 25.3318 80.8887 24.0747C81.9647 22.811 83.3714 22.1738 85.1034 22.1738C86.1634 22.1738 87.0727 22.3937 87.8234 22.8335C88.5754 23.2733 89.1287 23.9025 89.4687 24.7185V22.6215H92.442V35.5067ZM69.0754 25.3239H76.998C76.998 25.4577 77.006 25.6471 77.014 25.8895C77.038 26.5346 77.054 26.9665 77.054 27.1943C77.054 29.9907 76.2474 32.1672 74.634 33.7144C73.0207 35.2616 70.7434 36.0405 67.81 36.0405C66.1727 36.0405 64.71 35.7968 63.4207 35.3172C62.1394 34.839 61.0087 34.1158 60.0447 33.1408C59.1034 32.1831 58.3674 31.0518 57.87 29.7549C57.3554 28.4594 57.1021 27.0764 57.1021 25.5994C57.1021 24.0986 57.3634 22.7076 57.8781 21.4346C58.3914 20.1709 59.158 19.0555 60.1714 18.0806C61.1434 17.1294 62.29 16.4075 63.6034 15.9041C64.9154 15.41 66.3234 15.1583 67.81 15.1583C69.3834 15.1583 70.7994 15.4484 72.0407 16.022C73.29 16.5876 74.3967 17.4593 75.3767 18.6382L73.0047 20.4213C72.3247 19.6437 71.5661 19.0621 70.7114 18.6859C69.8661 18.3005 68.9167 18.1123 67.8727 18.1123C65.698 18.1123 63.9274 18.8038 62.5594 20.1868C61.1834 21.5698 60.4954 23.3607 60.4954 25.5676C60.4954 27.8222 61.1834 29.645 62.5594 31.0438C63.9274 32.4427 65.7061 33.1408 67.8967 33.1408C69.7554 33.1408 71.2261 32.709 72.2861 31.8532C73.3527 30.9882 73.89 29.8185 73.89 28.3335V28.0501H69.0754V25.3239Z" fill="#58595A"/>
<path fill-rule="evenodd" clip-rule="evenodd" d="M107.894 17.5936C107.894 17.9473 107.791 18.2533 107.586 18.5129C107.395 18.7487 107.158 18.9209 106.858 19.0388C106.589 19.1408 106.265 19.1965 105.886 19.1965C105.411 19.1965 104.953 19.0945 104.502 18.8905L104.462 18.8189C104.526 18.5752 104.557 18.2374 104.557 17.7897L104.589 17.7592H104.802L104.834 17.7897V17.8612C104.834 17.9791 104.85 18.1354 104.873 18.3315C104.953 18.4653 105.102 18.5752 105.309 18.6772C105.522 18.7805 105.751 18.8269 105.989 18.8269C106.423 18.8269 106.731 18.6851 106.906 18.395C106.993 18.2454 107.033 18.089 107.033 17.9314C107.033 17.6559 106.914 17.4678 106.677 17.3499C106.558 17.2942 106.367 17.2479 106.099 17.2081C105.506 17.122 105.11 17.0121 104.929 16.8783C104.643 16.6822 104.502 16.3762 104.502 15.9669C104.502 15.5351 104.651 15.1893 104.961 14.9297C105.285 14.6634 105.743 14.5296 106.321 14.5296C106.85 14.5296 107.269 14.6078 107.594 14.7654L107.617 14.8436C107.562 15.0873 107.53 15.3933 107.522 15.7391L107.483 15.7709H107.269L107.238 15.7391C107.23 15.4887 107.222 15.3231 107.206 15.2516C107.135 15.1496 107.017 15.0635 106.842 14.9933C106.661 14.9217 106.463 14.89 106.265 14.89C105.965 14.89 105.727 14.9615 105.554 15.1112C105.395 15.2516 105.309 15.441 105.309 15.6609C105.309 15.9047 105.403 16.0769 105.585 16.1948C105.711 16.2663 105.997 16.3365 106.447 16.4067C106.494 16.4147 106.621 16.4305 106.834 16.4703C106.969 16.4928 107.087 16.518 107.206 16.5643C107.427 16.6425 107.602 16.7604 107.713 16.926C107.838 17.1061 107.894 17.326 107.894 17.5936ZM117.597 19.0388L117.565 19.0706C117.343 19.0627 117.003 19.0547 116.529 19.0547C116.054 19.0547 115.706 19.0627 115.501 19.0706L115.462 19.0468V18.8269L115.501 18.803C115.73 18.7871 115.865 18.7805 115.897 18.7633C115.959 18.7487 115.999 18.709 116.007 18.6534C116.039 18.497 116.054 18.1751 116.054 17.6718V16.9101C115.935 16.9021 115.581 16.8942 114.963 16.8942C114.402 16.8942 114.03 16.9021 113.849 16.9101V17.6718C113.849 18.1751 113.865 18.497 113.895 18.6534C113.903 18.709 113.943 18.7487 114.006 18.7633C114.046 18.7805 114.173 18.7871 114.402 18.803L114.434 18.8269V19.0388L114.402 19.0706C114.181 19.0627 113.841 19.0547 113.374 19.0547C112.891 19.0547 112.543 19.0627 112.338 19.0706L112.306 19.0468V18.8269L112.338 18.803C112.567 18.7871 112.702 18.7805 112.734 18.7633C112.797 18.7487 112.837 18.709 112.845 18.6534C112.875 18.497 112.891 18.1751 112.891 17.6718V15.9987C112.891 15.4967 112.875 15.1734 112.845 15.0251C112.837 14.9615 112.797 14.9217 112.734 14.9072C112.702 14.8992 112.567 14.89 112.338 14.8754L112.306 14.8436V14.6316L112.338 14.5998C112.551 14.6078 112.899 14.6157 113.374 14.6157C113.857 14.6157 114.205 14.6078 114.402 14.5998L114.434 14.6316V14.8436L114.402 14.8754C114.173 14.89 114.046 14.8992 114.006 14.9072C113.943 14.9217 113.903 14.9615 113.895 15.0251C113.865 15.1734 113.849 15.4967 113.849 15.9987V16.5246C114.086 16.5325 114.418 16.5405 114.829 16.5405C115.485 16.5405 115.889 16.5325 116.054 16.5246V15.9987C116.054 15.4967 116.039 15.1734 116.007 15.0251C115.999 14.9615 115.959 14.9217 115.897 14.9072C115.865 14.8992 115.73 14.89 115.501 14.8754L115.462 14.8436V14.6316L115.501 14.5998C115.714 14.6078 116.062 14.6157 116.529 14.6157C117.019 14.6157 117.367 14.6078 117.565 14.5998L117.597 14.6316V14.8436L117.573 14.8754C117.335 14.89 117.201 14.8992 117.178 14.9072C117.106 14.9217 117.075 14.9615 117.059 15.0251C117.027 15.1734 117.019 15.4967 117.019 15.9987V17.6718C117.019 18.1751 117.027 18.497 117.059 18.6534C117.075 18.709 117.106 18.7487 117.178 18.7633C117.209 18.7805 117.335 18.7871 117.565 18.803L117.597 18.8269V19.0388ZM126.833 19.0388L126.801 19.0706C126.303 19.0627 126.002 19.0547 125.899 19.0547C125.489 19.0547 125.109 19.0627 124.753 19.0706L124.722 19.0388V18.8428L124.753 18.811L125.046 18.7951C125.173 18.7871 125.235 18.7487 125.235 18.6693C125.235 18.6308 125.203 18.5288 125.141 18.3712L124.871 17.7036H123.923H123.139L122.998 18.089C122.887 18.3871 122.823 18.5673 122.823 18.6388C122.823 18.7169 122.879 18.7726 122.982 18.7871C123.045 18.7951 123.155 18.803 123.33 18.811L123.361 18.8428V19.0388L123.33 19.0706C122.91 19.0627 122.65 19.0547 122.531 19.0547C122.437 19.0547 122.207 19.0627 121.851 19.0706L121.811 19.0468V18.8428L121.851 18.811C122.081 18.7951 122.222 18.7554 122.278 18.6772C122.326 18.607 122.523 18.1672 122.863 17.3658L123.741 15.2993C123.805 15.1416 123.907 14.8992 124.042 14.5773H124.515L126.295 18.5129C126.358 18.6626 126.422 18.7487 126.485 18.7633C126.557 18.7951 126.659 18.803 126.801 18.803L126.833 18.8428V19.0388ZM124.706 17.3419L123.986 15.6848L123.298 17.3419C123.479 17.3499 123.717 17.3499 124.01 17.3499C124.294 17.3499 124.523 17.3499 124.706 17.3419ZM134.741 18.0016C134.685 18.3089 134.662 18.6534 134.662 19.0388L134.63 19.0706L132.194 19.0547C131.783 19.0547 131.498 19.0627 131.333 19.0706L131.293 19.0388V18.9527L131.309 18.913C131.474 18.8189 131.57 18.7554 131.578 18.7328C131.601 18.6931 131.617 18.5527 131.617 18.3089L131.625 17.6016V15.9987C131.625 15.4967 131.617 15.1734 131.585 15.0251C131.57 14.9615 131.538 14.9217 131.467 14.9072C131.435 14.8992 131.309 14.89 131.079 14.8754L131.047 14.8436V14.6316L131.079 14.5998C131.309 14.6078 131.649 14.6157 132.091 14.6157C132.55 14.6157 132.898 14.6078 133.143 14.5998L133.175 14.6316V14.8436L133.143 14.8754C132.914 14.89 132.779 14.8992 132.747 14.9072C132.685 14.9217 132.645 14.9615 132.637 15.0251C132.606 15.1734 132.59 15.4967 132.59 15.9987V17.8917C132.59 18.1672 132.598 18.4335 132.606 18.6931H133.065C133.713 18.6931 134.115 18.6693 134.266 18.6229C134.29 18.607 134.306 18.599 134.322 18.5831C134.337 18.5527 134.361 18.4891 134.385 18.395L134.463 18.0016L134.495 17.9711H134.701L134.741 18.0016ZM141.233 19.0388L141.201 19.0706C140.979 19.0627 140.631 19.0547 140.165 19.0547C139.698 19.0547 139.351 19.0627 139.129 19.0706L139.098 19.0388V18.8269L139.137 18.803C139.358 18.7871 139.493 18.7805 139.525 18.7633C139.587 18.7487 139.627 18.709 139.643 18.6534C139.667 18.497 139.683 18.1751 139.683 17.6718V15.9987C139.683 15.4967 139.667 15.1734 139.643 15.0251C139.627 14.9615 139.587 14.9217 139.525 14.9072C139.493 14.8992 139.358 14.89 139.137 14.8754L139.098 14.8436V14.6316L139.137 14.5998C139.351 14.6078 139.691 14.6157 140.165 14.6157C140.639 14.6157 140.979 14.6078 141.193 14.5998L141.233 14.6316V14.8436L141.193 14.8754C140.963 14.89 140.838 14.8992 140.806 14.9072C140.734 14.9217 140.703 14.9615 140.687 15.0251C140.663 15.1734 140.647 15.4967 140.647 15.9987V17.6718C140.647 18.1751 140.663 18.497 140.687 18.6534C140.703 18.709 140.734 18.7487 140.806 18.7633C140.838 18.7805 140.963 18.7871 141.193 18.803L141.233 18.8269V19.0388ZM151.963 19.0388L151.931 19.0706C151.71 19.0627 151.37 19.0547 150.895 19.0547C150.422 19.0547 150.074 19.0627 149.867 19.0706L149.837 19.0468V18.8269L149.867 18.803C150.097 18.7871 150.231 18.7805 150.263 18.7633C150.326 18.7487 150.366 18.709 150.374 18.6534C150.406 18.497 150.422 18.1751 150.422 17.6718V15.5351L149.67 16.9803C149.63 17.0598 149.481 17.3578 149.235 17.8612L148.618 19.1249H148.397C148.278 18.8653 148.121 18.5355 147.922 18.1354L147.457 17.2002L146.578 15.4794V17.6718C146.578 18.1751 146.594 18.497 146.618 18.6534C146.634 18.709 146.665 18.7487 146.729 18.7633C146.769 18.7805 146.894 18.7871 147.123 18.803L147.155 18.8269V19.0468L147.123 19.0706C146.871 19.0627 146.626 19.0547 146.413 19.0547C146.151 19.0547 145.89 19.0627 145.63 19.0706L145.598 19.0468V18.8269L145.63 18.803C145.859 18.7871 145.993 18.7805 146.025 18.7633C146.089 18.7487 146.127 18.709 146.135 18.6534C146.167 18.497 146.183 18.1751 146.183 17.6718V15.9987C146.183 15.4967 146.167 15.1734 146.135 15.0251C146.127 14.9615 146.089 14.9217 146.025 14.9072C145.993 14.8992 145.859 14.89 145.63 14.8754L145.598 14.8436V14.6316L145.63 14.5998C145.866 14.6078 146.159 14.6157 146.515 14.6157C146.791 14.6157 147.029 14.6078 147.227 14.5998C147.306 14.7575 147.409 14.9853 147.543 15.2754L147.757 15.7086L148.825 17.8135L149.338 16.8319L150.145 15.2211C150.231 15.0251 150.326 14.8197 150.414 14.5998C150.666 14.6078 150.841 14.6157 150.927 14.6157C151.362 14.6157 151.702 14.6078 151.931 14.5998L151.963 14.6316V14.8436L151.931 14.8754C151.702 14.89 151.575 14.8992 151.545 14.9072C151.473 14.9217 151.442 14.9615 151.426 15.0251C151.394 15.1734 151.378 15.4967 151.378 15.9987V17.6718C151.378 18.1751 151.394 18.497 151.426 18.6534C151.442 18.709 151.473 18.7487 151.545 18.7633C151.575 18.7805 151.702 18.7871 151.931 18.803L151.963 18.8269V19.0388ZM161.223 19.0388L161.191 19.0706C160.694 19.0627 160.393 19.0547 160.29 19.0547C159.879 19.0547 159.499 19.0627 159.143 19.0706L159.119 19.0388V18.8428L159.151 18.811L159.443 18.7951C159.562 18.7871 159.626 18.7487 159.626 18.6693C159.626 18.6308 159.594 18.5288 159.531 18.3712L159.262 17.7036H158.313H157.538L157.387 18.089C157.277 18.3871 157.222 18.5673 157.222 18.6388C157.222 18.7169 157.27 18.7726 157.381 18.7871C157.435 18.7951 157.546 18.803 157.721 18.811L157.751 18.8428V19.0388L157.721 19.0706C157.309 19.0627 157.041 19.0547 156.922 19.0547C156.834 19.0547 156.605 19.0627 156.242 19.0706L156.21 19.0468V18.8428L156.242 18.811C156.478 18.7951 156.613 18.7554 156.669 18.6772C156.723 18.607 156.922 18.1672 157.262 17.3658L158.139 15.2993C158.202 15.1416 158.298 14.8992 158.431 14.5773H158.906L160.686 18.5129C160.757 18.6626 160.819 18.7487 160.875 18.7633C160.946 18.7951 161.057 18.803 161.191 18.803L161.223 18.8428V19.0388ZM159.097 17.3419L158.377 15.6848L157.689 17.3419C157.87 17.3499 158.115 17.3499 158.409 17.3499C158.693 17.3499 158.922 17.3499 159.097 17.3419ZM170.033 19.0388L169.993 19.0706H169.866C169.566 19.0627 169.369 19.0547 169.297 19.0547C169.178 19.0547 168.997 19.0627 168.751 19.0706C168.743 19.0229 168.703 18.9368 168.625 18.8189L167.794 17.5141L167.423 16.9803C167.375 16.918 167.305 16.8478 167.225 16.7842L167.257 16.6822H167.375C167.589 16.6822 167.763 16.6504 167.89 16.5882C168.009 16.5246 168.111 16.4226 168.206 16.2729C168.301 16.1312 168.349 15.951 168.349 15.747C168.349 15.3933 168.206 15.1496 167.929 15.0317C167.794 14.9694 167.597 14.9376 167.335 14.9376C167.225 14.9376 167.122 14.9456 167.019 14.9615C166.995 15.1734 166.981 15.5271 166.981 16.0212V17.6718C166.981 18.1751 166.995 18.497 167.027 18.6534C167.035 18.709 167.075 18.7487 167.138 18.7633C167.178 18.7726 167.305 18.7871 167.534 18.803L167.565 18.8269V19.0388L167.534 19.0706C167.313 19.0627 166.973 19.0547 166.506 19.0547C166.023 19.0547 165.675 19.0627 165.47 19.0706L165.438 19.0468V18.8269L165.47 18.803C165.699 18.7871 165.834 18.7726 165.865 18.7633C165.929 18.7487 165.967 18.709 165.975 18.6534C166.007 18.497 166.023 18.1751 166.023 17.6718V15.9987C166.023 15.4967 166.007 15.1734 165.975 15.0251C165.967 14.9615 165.929 14.9217 165.865 14.9072C165.834 14.8992 165.699 14.89 165.47 14.8754L165.438 14.8436V14.6316L165.47 14.5998C165.691 14.6078 166.031 14.6157 166.506 14.6157C166.774 14.6157 166.995 14.6157 167.17 14.6078C167.51 14.5919 167.755 14.5919 167.929 14.5919C168.309 14.5919 168.593 14.6237 168.775 14.6873C169.021 14.7734 169.186 14.9217 169.266 15.135C169.305 15.237 169.329 15.3615 169.329 15.5033C169.329 16.0769 168.989 16.4782 168.301 16.7207C168.411 16.8942 168.53 17.0743 168.657 17.2558L169.17 18.0016C169.479 18.4494 169.685 18.701 169.779 18.7633C169.835 18.7951 169.906 18.811 169.993 18.811L170.033 18.8428V19.0388Z" fill="#3F3F41"/>
<path d="M147.465 55.6429C147.465 55.6495 147.466 55.6561 147.466 55.6641L147.441 55.6548L147.437 55.6429C147.443 55.6402 147.454 55.6402 147.465 55.6429ZM142.021 60.2951C142.011 60.3508 142.005 60.4117 141.999 60.4766C141.993 60.576 141.995 60.6449 142.006 60.6965C141.969 60.7296 141.955 60.7747 141.955 60.8091C141.955 60.8237 141.957 60.8369 141.958 60.8502C141.951 60.8793 141.957 60.9085 141.97 60.935C141.974 60.9442 141.979 60.9522 141.986 60.9601C141.975 60.9813 141.965 61.0065 141.954 61.033C141.943 61.0237 141.933 61.0158 141.921 61.0092C141.889 60.9946 141.853 60.9919 141.819 61.0025C141.806 61.0078 141.785 61.0171 141.766 61.0343L141.77 61.0211C141.774 60.9999 141.778 60.9813 141.783 60.9654C141.813 60.9615 141.842 60.9469 141.862 60.923C141.874 60.9164 141.886 60.9098 141.897 60.9019C141.931 60.8754 141.982 60.8144 141.942 60.6926L141.91 60.6011C141.906 60.5892 141.902 60.568 141.901 60.5283C141.906 60.5243 141.911 60.5177 141.917 60.5124C141.958 60.466 141.991 60.3958 142.021 60.2951ZM142.642 57.3504C142.646 57.3464 142.649 57.3424 142.651 57.3371C142.705 57.2484 142.741 57.1689 142.761 57.0987C142.773 57.108 142.786 57.1146 142.799 57.1199C142.786 57.1808 142.771 57.2457 142.754 57.3173C142.742 57.3173 142.73 57.3199 142.718 57.3239L142.665 57.3411C142.657 57.3438 142.65 57.3464 142.642 57.3504ZM169.45 50.0726L169.502 50.0554L169.529 50.0766L169.562 50.066C169.554 50.0792 169.543 50.0898 169.535 50.0938C169.497 50.1071 169.457 50.0859 169.45 50.0726ZM169.571 50.0395L169.573 50.0329C169.571 50.0289 169.57 50.0289 169.569 50.0249L169.578 50.013C169.578 50.0223 169.574 50.0302 169.571 50.0395ZM180.642 47.4458L180.631 47.467L180.629 47.4604C180.629 47.4564 180.627 47.4524 180.626 47.4484C180.631 47.4471 180.637 47.4471 180.642 47.4458ZM157.835 57.0961C157.837 57.0947 157.838 57.0934 157.837 57.0921H157.839C157.838 57.0934 157.837 57.0947 157.835 57.0961ZM143.501 54.7779C143.499 54.7845 143.498 54.7898 143.497 54.7951C143.497 54.7911 143.497 54.7885 143.497 54.7845L143.501 54.7779ZM144.943 51.3417C144.921 51.4105 144.913 51.4702 144.918 51.5218C144.819 51.5867 144.799 51.7258 144.791 51.7762C144.791 51.7854 144.79 51.7947 144.791 51.8053C144.783 51.8371 144.786 51.8742 144.798 51.9205C144.797 51.9205 144.795 51.9219 144.794 51.9232C144.69 51.9947 144.654 52.1047 144.695 52.2252C144.698 52.2332 144.705 52.2544 144.67 52.2981C144.595 52.3829 144.535 52.4756 144.489 52.5802C144.475 52.5498 144.451 52.5246 144.422 52.5127C144.519 52.1974 144.619 51.8901 144.721 51.5867C145.899 48.7453 146.406 47.8763 146.61 47.6259C146.53 47.8154 146.362 48.1969 146.017 48.9559L145.142 50.7429C145.093 50.9072 145.071 51.0463 145.077 51.1628C145.029 51.1907 144.977 51.2436 144.943 51.3417ZM141.565 52.3272L141.555 52.3285C141.555 52.3259 141.555 52.3246 141.555 52.3219L141.565 52.3272ZM141.782 55.6853C141.763 55.676 141.743 55.6707 141.723 55.6707C141.726 55.6681 141.727 55.6654 141.73 55.6614C141.733 55.6561 141.735 55.6508 141.738 55.6469C141.798 55.6548 141.865 55.6031 141.874 55.5356L141.891 55.415C141.895 55.3952 141.893 55.374 141.886 55.3554L141.878 55.3289C141.875 55.3223 141.873 55.3157 141.87 55.3104C141.887 55.2958 141.903 55.2786 141.918 55.2574C141.913 55.3236 141.902 55.415 141.886 55.5422C141.873 55.6469 141.862 55.7263 141.854 55.786C141.853 55.7767 141.85 55.7687 141.847 55.7608C141.837 55.7277 141.813 55.6998 141.782 55.6853ZM141.699 56.6669L141.666 56.6947C141.626 56.7291 141.61 56.7848 141.627 56.8338C141.631 56.8444 141.646 56.908 141.613 57.149C141.609 57.1941 141.607 57.2312 141.609 57.2616C141.559 57.3292 141.527 57.5279 141.455 58.2446C141.433 58.4923 141.407 58.7214 141.382 58.9321C141.361 59.0963 141.347 59.2235 141.342 59.3043C141.322 59.3016 141.302 59.303 141.282 59.3096C141.545 57.4007 141.509 56.9715 141.457 56.8166C141.474 56.8152 141.49 56.8126 141.506 56.8073C141.541 56.7954 141.602 56.7649 141.619 56.6828C141.637 56.6775 141.654 56.6682 141.669 56.6563C141.709 56.6218 141.723 56.5675 141.707 56.5172L141.682 56.443C141.722 56.3993 141.755 56.333 141.786 56.2377C141.745 56.5119 141.715 56.6231 141.699 56.6669ZM140.825 62.918C140.813 62.926 140.802 62.9339 140.793 62.9432C140.795 62.922 140.798 62.8995 140.801 62.8769C140.807 62.8902 140.815 62.9034 140.825 62.918ZM140.825 62.6743C140.827 62.6491 140.83 62.6239 140.833 62.5974C140.838 62.616 140.845 62.6359 140.853 62.657C140.842 62.661 140.833 62.6676 140.825 62.6743ZM140.953 62.1855C140.949 62.2345 140.943 62.2663 140.939 62.2861C140.93 62.2861 140.921 62.2888 140.911 62.2914C140.897 62.2954 140.882 62.3047 140.867 62.3153C140.879 62.2239 140.89 62.1325 140.902 62.0397C140.903 62.0477 140.905 62.057 140.905 62.0649C140.909 62.1007 140.926 62.1338 140.955 62.155L140.953 62.1855ZM141.374 55.7581C141.374 55.7634 141.375 55.7661 141.375 55.7714C141.371 55.774 141.367 55.7793 141.362 55.7807L141.349 55.7674L141.346 55.7608C141.355 55.7568 141.365 55.7581 141.374 55.7581ZM142.265 52.0663C142.263 52.0649 142.262 52.0636 142.261 52.0623C142.241 52.0477 142.218 52.0384 142.194 52.0371C142.195 52.0292 142.197 52.0225 142.198 52.0146C142.217 51.8437 142.234 51.7179 142.247 51.6265C142.265 51.6225 142.283 51.6145 142.298 51.6026C142.303 51.6 142.309 51.596 142.313 51.592C142.311 51.6251 142.309 51.6569 142.307 51.6887C142.289 51.8424 142.275 51.9669 142.265 52.0663ZM141.298 56.7238C141.297 56.7238 141.294 56.7238 141.291 56.7238C141.293 56.7198 141.293 56.7172 141.294 56.7132C141.295 56.7172 141.297 56.7198 141.298 56.7238ZM141.341 64.1473L141.335 64.2003C141.333 64.1897 141.33 64.1765 141.325 64.1632C141.325 64.1592 141.323 64.1566 141.323 64.1539C141.326 64.1539 141.329 64.1526 141.331 64.1513C141.335 64.15 141.338 64.1486 141.341 64.1473ZM141.807 55.4654C141.807 55.4694 141.807 55.4747 141.806 55.4773L141.802 55.468L141.807 55.4654ZM142.17 52.5802C142.163 52.5776 142.157 52.5749 142.15 52.5723C142.19 52.5551 142.219 52.5259 142.242 52.4888C142.243 52.4955 142.246 52.5008 142.247 52.5061C142.253 52.5206 142.259 52.5339 142.269 52.5458C142.255 52.5975 142.245 52.6359 142.239 52.665C142.238 52.6624 142.237 52.6597 142.235 52.6557C142.225 52.624 142.202 52.5961 142.17 52.5802ZM140.958 61.6185C140.958 61.6079 140.961 61.5973 140.962 61.5867C140.963 61.592 140.965 61.5986 140.967 61.6039C140.963 61.6092 140.961 61.6132 140.958 61.6185ZM141.934 54.4666C141.918 54.46 141.902 54.4573 141.885 54.4573C141.878 54.4573 141.87 54.4573 141.862 54.4586C141.862 54.456 141.863 54.452 141.863 54.448C141.902 54.4639 141.947 54.4613 141.983 54.4401C141.99 54.4348 141.997 54.4308 142.002 54.4255C141.999 54.4467 142.001 54.4679 142.007 54.4878C142.021 54.5262 142.027 54.5673 142.027 54.6123C142.027 54.6255 142.029 54.6401 142.034 54.6534L142.035 54.6573C142.031 54.8163 142.009 54.8693 142.005 54.8786C142.006 54.8362 142.007 54.7898 142.006 54.7408L142.015 54.5937C142.018 54.5381 141.986 54.4864 141.934 54.4666ZM142.007 54.15L141.963 54.1063C141.962 54.1049 141.961 54.1036 141.958 54.1023C141.977 54.097 141.994 54.0864 142.007 54.0718L142.03 54.0506C142.034 54.0453 142.039 54.04 142.043 54.0334C142.047 54.0705 142.057 54.1129 142.074 54.1619C142.093 54.2467 142.097 54.2944 142.098 54.3209L142.09 54.3235C142.073 54.3301 142.057 54.3394 142.043 54.35C142.045 54.3434 142.046 54.3368 142.046 54.3301V54.2427C142.046 54.2083 142.033 54.1751 142.007 54.15ZM141.555 52.3285H141.563L141.561 52.3338C141.558 52.3325 141.558 52.3312 141.555 52.3299V52.3285ZM140.745 64.5089C140.683 64.5381 140.649 64.6017 140.613 64.7739C140.634 64.4997 140.659 64.2096 140.69 63.9049C140.711 63.9499 140.741 63.9751 140.771 63.9897C140.773 64.0466 140.787 64.1155 140.815 64.2003C140.834 64.2546 140.859 64.293 140.887 64.3195C140.875 64.3208 140.862 64.3248 140.85 64.3288C140.77 64.3553 140.727 64.4308 140.745 64.5089ZM140.905 64.5301C140.905 64.5354 140.905 64.5394 140.905 64.5447C140.902 64.5421 140.899 64.5381 140.897 64.5354L140.905 64.5301ZM141.582 52.2292C141.583 52.2279 141.585 52.2279 141.587 52.2279C141.586 52.2332 141.585 52.2398 141.585 52.2464L141.581 52.2477L141.577 52.2345C141.578 52.2318 141.581 52.2305 141.582 52.2292ZM140.755 60.0898C140.758 60.0859 140.762 60.0806 140.765 60.0779L140.783 60.1309C140.781 60.1309 140.778 60.1322 140.775 60.1322L140.755 60.0898ZM142.497 61.4344C142.469 61.4715 142.451 61.5205 142.438 61.5695C142.419 61.6384 142.406 61.7139 142.399 61.7934C142.391 61.8821 142.398 61.9536 142.418 62.0146C142.419 62.0186 142.422 62.0239 142.425 62.0292L141.905 64.0254C141.839 64.2586 141.775 64.4825 141.714 64.6944L142.454 60.7906C142.966 57.9187 143.582 55.2852 144.289 52.9485C144.297 52.9498 144.306 52.9511 144.315 52.9511C144.337 52.9498 144.367 52.9432 144.387 52.93C144.373 53.0267 144.367 53.1313 144.369 53.2413C144.246 53.3128 144.175 53.485 144.143 53.7751C144.027 54.1778 143.993 54.3566 143.987 54.4454C143.869 54.5182 143.827 54.6441 143.877 54.7885C143.881 54.803 143.885 54.815 143.889 54.8269C143.815 54.8878 143.755 55.0375 143.677 55.4508C143.658 55.5594 143.653 55.6469 143.659 55.7184C143.597 55.7621 143.59 55.8164 143.594 55.8535C143.59 55.8747 143.591 55.8972 143.598 55.9184C143.603 55.9343 143.611 55.9582 143.625 55.9833C143.61 56.0098 143.593 56.0429 143.571 56.0853C143.415 56.4549 143.413 56.6073 143.435 56.692C143.433 56.7159 143.421 56.7914 143.361 57.0113L143.345 57.0682C143.297 57.3186 143.234 57.5425 143.153 57.7584L142.994 58.642C142.847 59.6355 142.782 59.9786 142.753 60.0859C142.627 60.311 142.585 60.5402 142.626 60.7508C142.627 60.7628 142.627 60.772 142.627 60.78C142.519 60.8701 142.494 61.0635 142.486 61.2304C142.482 61.3006 142.486 61.3681 142.497 61.4344ZM148.241 52.4054C148.249 52.4054 148.257 52.4107 148.263 52.4133C148.266 52.4226 148.267 52.4319 148.269 52.4411C148.263 52.4438 148.259 52.4491 148.253 52.4504C148.249 52.4517 148.245 52.4531 148.241 52.4544V52.4054ZM148.247 53.3035L148.258 53.2823C148.262 53.281 148.263 53.2783 148.267 53.277L148.271 53.2876L148.247 53.3035L148.263 53.3115L148.258 53.3207L148.247 53.3035ZM147.838 51.0383C147.833 51.0396 147.829 51.041 147.825 51.0436C147.823 51.0317 147.822 51.0198 147.821 51.0078C147.825 51.0198 147.83 51.0304 147.838 51.0383ZM147.925 51.2821C147.925 51.2821 147.903 51.286 147.877 51.2728L147.881 51.2635C147.885 51.2635 147.887 51.2662 147.891 51.2662C147.903 51.2648 147.91 51.2675 147.919 51.2688L147.925 51.2821ZM147.759 50.7482C147.755 50.7336 147.749 50.7204 147.741 50.7098C147.753 50.6886 147.762 50.6648 147.769 50.6369C147.774 50.6131 147.778 50.5932 147.782 50.5787C147.79 50.5495 147.793 50.5137 147.791 50.4661C147.789 50.421 147.782 50.3786 147.769 50.3415C147.761 50.3164 147.75 50.2952 147.738 50.278C147.738 50.2766 147.738 50.2766 147.739 50.2753C147.762 50.2925 147.79 50.3084 147.821 50.3217C147.802 50.4356 147.803 50.5204 147.825 50.584C147.829 50.5959 147.834 50.6078 147.842 50.6184C147.838 50.6277 147.835 50.6369 147.833 50.6475C147.825 50.6952 147.843 50.7416 147.882 50.7707L147.885 50.7747L147.881 50.78C147.842 50.8436 147.815 50.8966 147.813 50.9482C147.803 50.8873 147.793 50.8462 147.782 50.8158L147.759 50.7482ZM147.753 52.5551C147.754 52.5471 147.754 52.5378 147.754 52.5299C147.761 52.5325 147.766 52.5352 147.773 52.5392C147.767 52.5445 147.761 52.5511 147.753 52.5551ZM147.858 52.8743C147.849 52.8121 147.838 52.7657 147.829 52.7352C147.871 52.6968 147.893 52.6385 147.882 52.5749C147.879 52.5551 147.881 52.5458 147.881 52.5418C147.886 52.5008 147.881 52.4584 147.866 52.4133C147.857 52.3855 147.838 52.359 147.813 52.3391C147.837 51.9153 147.843 51.6106 147.841 51.3894C147.857 51.392 147.873 51.3907 147.887 51.3867C147.905 51.3947 147.923 51.3986 147.943 51.3986C147.969 51.7377 147.981 51.9921 147.981 52.159V52.4451C147.963 52.5167 147.951 52.6624 147.957 52.9922C147.914 53.0386 147.879 53.0796 147.854 53.1207C147.854 53.1181 147.854 53.1167 147.855 53.1154L147.865 53.0425C147.871 52.9988 147.87 52.9445 147.858 52.8743ZM148.353 58.381C148.35 58.3717 148.346 58.3624 148.341 58.3545L148.27 58.2326C148.267 58.2273 148.263 58.222 148.259 58.2167C148.335 58.1002 148.289 57.8445 148.114 57.3239C148.105 57.2987 148.089 57.2762 148.069 57.2616C148.097 57.2351 148.114 57.1967 148.111 57.1557L147.831 53.2956C147.845 53.3247 147.87 53.3525 147.897 53.3658C147.917 53.3764 147.946 53.3803 147.967 53.3803C147.993 54.0029 148.058 55.0243 148.194 56.7132L148.257 57.5597C148.331 58.0167 148.389 58.3757 148.435 58.6592L148.353 58.381ZM150.67 58.5572C150.655 58.5678 150.639 58.585 150.627 58.6075C150.879 57.7584 151.293 56.4099 151.862 54.5831C150.979 57.7041 150.734 58.4287 150.67 58.5572ZM150.534 58.9268C150.555 58.8513 150.579 58.7718 150.603 58.6857C150.601 58.7122 150.602 58.7426 150.607 58.7771C150.618 58.8221 150.607 58.8552 150.57 58.8897C150.557 58.9029 150.545 58.9148 150.534 58.9268ZM152.11 52.2054C152.127 52.1895 152.141 52.1696 152.149 52.1457L152.394 51.3523C152.694 50.3084 152.761 50.1269 152.775 50.0978C152.786 50.074 152.787 50.0395 152.783 50.0104C152.791 49.9561 152.855 49.7295 153.237 48.8062C152.939 49.711 152.467 51.2118 151.699 53.7062C151.73 53.5631 151.774 53.3777 151.835 53.1366C152.019 52.4173 152.089 52.2464 152.11 52.2054ZM155.054 53.8228C155.102 53.8069 155.135 53.7671 155.142 53.7181L155.143 53.7102C155.145 53.7128 155.145 53.7155 155.146 53.7195C155.195 53.9115 155.213 53.995 155.218 54.0321C155.203 54.1076 155.247 54.2387 155.326 54.4758C155.385 54.6481 155.409 54.7302 155.418 54.7673C155.406 54.7964 155.401 54.8309 155.401 54.8719C155.401 54.9289 155.409 54.9832 155.425 55.0296C155.463 55.1422 155.509 55.2057 155.557 55.2415C155.559 55.2852 155.567 55.3329 155.579 55.3833C155.573 55.3846 155.566 55.3846 155.561 55.3859L155.382 55.0878C155.362 54.958 155.297 54.7183 155.17 54.2586C155.119 54.0745 155.081 53.9327 155.054 53.8228ZM155.021 53.4227C155.021 53.4227 155.021 53.4227 155.019 53.4214C155.025 53.4188 155.029 53.4148 155.033 53.4108C155.073 53.3737 155.085 53.3154 155.062 53.2651L154.973 53.0664C155.079 52.9684 155.002 52.7379 154.943 52.5617C154.913 52.4729 154.899 52.4186 154.894 52.3868C154.927 52.367 154.959 52.3338 154.974 52.2835C154.982 52.2557 154.985 52.2226 154.985 52.1842C154.985 52.1683 154.981 52.1524 154.975 52.1378L154.89 51.9272C154.878 51.8901 154.87 51.8623 154.866 51.8437C154.875 51.8344 154.882 51.8238 154.887 51.8146C154.915 51.7589 154.902 51.7033 154.894 51.6755C154.902 51.6543 154.903 51.6318 154.899 51.6092C154.886 51.543 154.878 51.498 154.871 51.4662C154.914 51.4026 154.898 51.3099 154.871 51.2211C154.889 51.1907 154.893 51.1522 154.881 51.1165C154.87 51.0834 154.861 51.0555 154.854 51.0343C154.854 51.033 154.855 51.0317 154.855 51.0304C154.882 50.9787 154.873 50.9231 154.857 50.8701C154.897 50.8356 154.926 50.7734 154.894 50.678L154.885 50.6475C154.889 50.6422 154.893 50.6343 154.895 50.6277L154.914 50.5932C154.934 50.5522 154.931 50.5045 154.906 50.4661L154.874 50.4144C154.889 50.372 154.885 50.3203 154.859 50.2303C154.871 50.2157 154.882 50.1985 154.891 50.1799C154.906 50.1495 154.909 50.1137 154.898 50.0806L154.863 49.9772C154.859 49.968 154.858 49.96 154.857 49.9561C154.865 49.9349 154.87 49.9044 154.873 49.8435C154.874 49.8461 154.877 49.8474 154.878 49.8488C154.905 49.8792 154.947 49.8938 154.981 49.8938C154.962 49.907 154.945 49.9269 154.934 49.9468C154.917 49.9812 154.917 50.017 154.922 50.0475C154.917 50.0978 154.926 50.1773 154.958 50.3283L155.001 50.6277C155.023 50.8237 155.03 50.9151 155.033 50.9562C154.981 51.0489 154.995 51.2198 155.041 51.4834C155.051 51.5828 155.049 51.592 155.049 51.5894C155.041 51.6145 155.034 51.6357 155.029 51.6543C155.018 51.6954 155.018 51.7311 155.025 51.7444C155.025 51.7523 155.025 51.7669 155.023 51.7841C155.011 51.8265 155.017 51.8596 155.023 51.8768C155.026 51.8888 155.038 51.9364 155.057 52.0133C155.053 52.0146 155.049 52.0172 155.045 52.0186C154.994 52.0504 154.971 52.1126 154.99 52.1696L155.042 52.3272C155.046 52.3365 155.05 52.3458 155.057 52.355L155.098 52.42C155.07 52.4994 155.073 52.5908 155.106 52.6902C155.107 52.6942 155.109 52.6981 155.11 52.7008C155.102 52.7114 155.094 52.722 155.089 52.7339C155.073 52.763 155.059 52.8121 155.089 52.8942C155.071 52.9088 155.058 52.9273 155.049 52.9485C155.035 52.9843 155.038 53.0253 155.058 53.0598L155.118 53.1578L155.122 53.1697C155.058 53.2373 155.065 53.3644 155.098 53.5261L155.021 53.4227ZM154.838 48.8486C154.853 48.8168 154.855 48.7811 154.843 48.7479C154.843 48.7466 154.842 48.7281 154.849 48.6671C154.858 48.5824 154.853 48.5108 154.825 48.4327L154.781 48.3413C154.801 48.3241 154.821 48.3002 154.833 48.2644C154.87 48.4499 154.891 48.7056 154.897 49.0248C154.903 49.4447 154.902 49.5957 154.898 49.6514C154.89 49.6607 154.882 49.6712 154.874 49.6818C154.874 49.605 154.871 49.5057 154.867 49.3758C154.858 49.0685 154.847 48.9228 154.838 48.8486ZM159.785 55.2587L159.761 55.2561C159.715 55.2495 159.671 55.2654 159.642 55.3011C159.622 55.325 159.611 55.3541 159.613 55.3846C159.599 55.3872 159.575 55.3885 159.559 55.3952C159.566 55.3501 159.559 55.3024 159.546 55.2601C159.541 55.2468 159.534 55.2336 159.525 55.2216C159.574 55.1422 159.645 55.0296 159.75 54.8706C159.847 54.7236 159.921 54.6176 159.974 54.5408C159.985 54.55 159.997 54.558 160.009 54.5646C160.039 54.5792 160.089 54.5924 160.155 54.5686C160.271 54.5302 160.313 54.3977 160.326 54.354C160.33 54.3421 160.331 54.3288 160.331 54.3156C160.331 54.3129 160.331 54.3103 160.331 54.3076L160.343 54.3036C160.385 54.2904 160.419 54.2692 160.446 54.244L160.231 54.6428C159.989 55.0945 159.849 55.223 159.785 55.2587ZM159.287 55.6641C159.286 55.6614 159.285 55.6588 159.285 55.6561C159.311 55.6455 159.333 55.6336 159.353 55.6177C159.371 55.6111 159.389 55.6031 159.405 55.5952L159.403 55.6084C159.399 55.6363 159.405 55.6628 159.417 55.6866C159.366 55.7436 159.322 55.7899 159.283 55.8283C159.279 55.8257 159.275 55.823 159.27 55.8217C159.261 55.8164 159.251 55.8124 159.242 55.8098C159.287 55.7754 159.307 55.7316 159.287 55.6641ZM160.194 54.0427C160.195 54.04 160.197 54.0374 160.199 54.0334C160.201 54.0361 160.201 54.0387 160.202 54.04L160.194 54.0427ZM162.239 50.7204C162.234 50.7429 162.229 50.7694 162.222 50.7999C162.111 50.984 161.986 51.1986 161.837 51.4503C161.094 52.7154 160.89 53.0624 160.843 53.1843C160.83 53.1909 160.817 53.1989 160.806 53.2108L160.718 53.2969C160.705 53.3115 160.693 53.3287 160.687 53.3485L160.643 53.4784C160.625 53.5327 160.645 53.591 160.69 53.6241C160.735 53.6572 160.798 53.6559 160.843 53.6228C160.878 53.5989 160.906 53.5711 160.929 53.538L160.967 53.4823C160.983 53.4598 161.002 53.4267 161.023 53.3856C161.031 53.3684 161.037 53.3485 161.037 53.3287C161.045 53.3247 161.055 53.3154 161.067 53.3048C161.037 53.3565 161.019 53.4015 161.021 53.4452C160.998 53.4731 160.977 53.5088 160.957 53.5486C160.894 53.6744 160.807 53.7923 160.702 53.8983C160.687 53.9115 160.666 53.9314 160.65 53.9592C160.646 53.9592 160.642 53.9619 160.638 53.9632C160.606 53.9738 160.581 53.995 160.565 54.0241L160.507 54.1301C160.515 54.0904 160.511 54.0467 160.495 54.0016C160.491 53.987 160.483 53.9738 160.474 53.9619L160.397 53.8652C160.398 53.8559 160.402 53.84 160.41 53.8188C160.431 53.7632 160.471 53.6784 160.527 53.5645C160.565 53.5208 160.642 53.4015 160.875 53.0015C160.971 52.8266 161.078 52.6425 161.198 52.4491L161.895 51.2781C161.973 51.1602 162.087 50.9747 162.239 50.7204ZM165.809 49.2182L165.829 49.2076L165.837 49.2156C165.831 49.2182 165.822 49.2195 165.809 49.2182ZM165.739 49.156C165.741 49.1546 165.745 49.1507 165.75 49.148L165.746 49.1758C165.743 49.1692 165.741 49.1626 165.739 49.156ZM164.207 53.6267L164.194 53.6307C164.195 53.6254 164.197 53.6188 164.198 53.6135C164.199 53.6148 164.202 53.6161 164.203 53.6175L164.207 53.6267ZM164.237 53.5804L164.234 53.5764H164.235L164.237 53.5804ZM164.205 53.6704C164.202 53.6665 164.199 53.6638 164.197 53.6585C164.194 53.6519 164.194 53.644 164.194 53.6373L164.211 53.64L164.229 53.689C164.219 53.6863 164.211 53.6797 164.205 53.6704ZM163.17 54.9766C163.157 55.0176 163.155 55.0627 163.167 55.1117C163.166 55.1143 163.163 55.1183 163.159 55.1223C163.147 54.9236 163.166 54.4679 163.302 53.4347C163.439 52.3868 163.681 51.3668 164.021 50.4038C164.193 49.9137 164.339 49.5825 164.457 49.4182L164.501 49.3917C164.514 49.3997 164.534 49.4143 164.563 49.4368C164.561 49.454 164.561 49.4699 164.563 49.4871L164.621 49.7441C164.665 49.8766 164.821 49.9269 165.155 49.911C164.969 50.5217 164.982 50.5601 164.998 50.6065C165.011 50.6475 165.039 50.6807 165.077 50.6992C165.099 50.7098 165.139 50.7151 165.171 50.7111C165.141 50.8025 165.105 50.9045 165.062 51.0211C165.053 51.0105 165.039 51.0012 165.026 50.9946C164.995 50.9787 164.959 50.9774 164.926 50.988C164.805 51.0277 164.761 51.1721 164.738 51.2768C164.701 51.449 164.702 51.5112 164.718 51.5563C164.719 51.5589 164.719 51.5616 164.721 51.5642C164.687 51.5722 164.658 51.5934 164.639 51.6265C164.569 51.7523 164.534 51.8371 164.53 51.9047C164.517 51.91 164.505 51.9192 164.495 51.9285C164.429 51.9947 164.394 52.053 164.386 52.1126C164.381 52.1563 164.378 52.1895 164.381 52.2133C164.383 52.2451 164.387 52.2689 164.394 52.2862C164.409 52.3325 164.431 52.3842 164.485 52.4094C164.515 52.4239 164.555 52.4279 164.587 52.4173L164.601 52.4133C164.611 52.4094 164.621 52.4054 164.629 52.4001C164.609 52.4531 164.586 52.5114 164.559 52.5763C164.553 52.5643 164.545 52.5524 164.534 52.5431L164.491 52.4981C164.459 52.4676 164.413 52.4544 164.37 52.465C164.326 52.4743 164.291 52.5061 164.277 52.5484L164.049 53.1936C163.79 53.7565 163.701 53.9062 163.673 53.946C163.611 53.9804 163.541 54.0996 163.291 54.8388L163.273 54.8454C163.239 54.856 163.213 54.8785 163.198 54.909C163.189 54.9249 163.179 54.9488 163.17 54.9766ZM164.961 52.7048C164.958 52.7061 164.957 52.7061 164.955 52.7074C164.957 52.7048 164.958 52.7008 164.958 52.6981C164.959 52.7008 164.959 52.7021 164.961 52.7048ZM166.073 51.8755C166.058 51.8808 166.042 51.8782 166.027 51.8715C166.025 51.8689 166.021 51.8676 166.019 51.8636L166.055 51.853L166.073 51.8755L166.063 51.849L166.105 51.8358C166.105 51.8424 166.102 51.8477 166.101 51.8543L166.073 51.8755ZM170.682 50.829C170.707 50.8555 170.742 50.8661 170.778 50.8661C170.777 50.8952 170.773 50.9244 170.767 50.9535C170.766 50.9628 170.765 50.9708 170.763 50.9761C170.738 50.992 170.706 51.0158 170.683 51.0449C170.679 51.0012 170.677 50.9549 170.674 50.9098L170.659 50.8065L170.682 50.829ZM171.254 45.276C171.185 47.1676 171.151 48.4274 171.142 49.2712C171.113 48.1479 171.15 46.8139 171.254 45.276ZM171.663 40.9032C171.798 39.8726 171.853 39.5613 171.875 39.4739C171.906 39.4275 171.947 39.3229 172.019 39.0288C171.929 39.503 171.813 40.115 171.663 40.9032ZM171.359 43.8387C171.375 43.6268 171.394 43.4201 171.411 43.2188C171.39 43.4943 171.373 43.6943 171.359 43.8387ZM172.446 40.5177C172.443 40.523 172.441 40.5297 172.438 40.5363C172.438 40.5403 172.437 40.5429 172.437 40.5456C172.414 40.5562 172.397 40.5707 172.382 40.5879C172.387 40.5416 172.395 40.4886 172.403 40.429C172.405 40.4343 172.406 40.4383 172.407 40.4422L172.417 40.4687C172.422 40.4873 172.433 40.5045 172.446 40.5177ZM172.434 40.2449L172.425 40.2859C172.439 40.1945 172.455 40.0912 172.477 39.9733C172.473 40.0515 172.479 40.0938 172.49 40.1256L172.499 40.1508C172.501 40.1535 172.501 40.1574 172.502 40.1601C172.469 40.1773 172.443 40.2078 172.434 40.2449ZM172.503 40.3853C172.498 40.3813 172.494 40.3786 172.49 40.3747C172.49 40.3561 172.495 40.3376 172.505 40.3243L172.518 40.3628C172.513 40.3707 172.509 40.3773 172.503 40.3853ZM172.615 41.8689C172.615 41.8689 172.599 41.8822 172.538 41.902C172.526 41.906 172.514 41.9126 172.503 41.9206C172.499 41.9179 172.497 41.9166 172.491 41.9153C172.498 41.8941 172.506 41.8702 172.514 41.8424C172.543 41.8557 172.577 41.857 172.607 41.8464C172.618 41.8437 172.629 41.8398 172.639 41.8331C172.633 41.8437 172.625 41.857 172.615 41.8689ZM172.774 40.4277C172.806 40.4171 172.846 40.3813 172.862 40.3522C172.89 40.2965 172.886 40.2276 172.851 40.1203C172.85 40.1164 172.847 40.1124 172.846 40.1071C172.893 40.0726 172.926 39.9706 173.007 39.5176C173.039 39.5269 173.083 39.5269 173.11 39.5176C173.131 39.511 173.151 39.5004 173.167 39.4871C173.174 39.503 173.185 39.5189 173.197 39.5309C173.193 39.5375 173.187 39.5441 173.185 39.552C173.175 39.5706 173.171 39.5891 173.169 39.6064C173.047 39.6739 173.03 39.7759 173.055 39.8501C173.059 39.862 173.066 39.8753 173.074 39.8859C173.041 39.9548 173.034 40.0342 173.058 40.119C172.985 40.2184 172.929 40.3681 172.887 40.576C172.877 40.682 172.879 40.7535 172.895 40.8065C172.861 40.8754 172.822 40.992 172.763 41.1973C172.737 41.2702 172.718 41.3152 172.703 41.343L172.687 41.339C172.677 41.3364 172.665 41.3337 172.654 41.3337C172.65 41.3337 172.647 41.3337 172.645 41.3351C172.773 40.7204 172.786 40.5191 172.774 40.4277ZM173.158 39.3375C173.151 39.352 173.145 39.36 173.145 39.3613L173.138 39.3414L173.157 39.3348C173.157 39.3361 173.158 39.3361 173.158 39.3375ZM173.249 38.997C173.201 39.0156 173.169 39.0619 173.166 39.1123V39.1255C173.165 39.1242 173.163 39.1242 173.162 39.1229C173.143 39.1136 173.125 39.1096 173.103 39.1096C173.095 39.1096 173.086 39.1109 173.077 39.1123C173.094 39.0116 173.111 38.9016 173.131 38.7798C173.173 38.7996 173.218 38.7996 173.258 38.7864C173.269 38.7837 173.277 38.7798 173.286 38.7745C173.293 38.7798 173.301 38.7837 173.309 38.7877L173.343 38.8049C173.351 38.8089 173.358 38.8116 173.366 38.8142C173.358 38.8804 173.35 38.9414 173.342 38.9957C173.313 38.9851 173.278 38.9851 173.249 38.997ZM173.179 37.4193H173.181C173.269 37.3889 173.282 37.2988 173.294 37.2034L173.298 36.9994C173.298 36.9875 173.298 36.9782 173.295 36.9663L173.274 36.8775C173.338 36.8444 173.351 36.7729 173.393 36.545C173.426 36.3596 173.427 36.2311 173.397 36.137C173.39 36.1185 173.379 36.1013 173.366 36.0867L173.362 36.084C173.373 36.0549 173.385 36.0085 173.406 35.9238C173.43 35.8257 173.465 35.6986 173.51 35.5462C173.519 35.5131 173.529 35.4813 173.538 35.4482C173.55 35.6853 173.571 35.7767 173.589 35.8271C173.589 35.8284 173.589 35.8284 173.59 35.8297C173.574 35.843 173.562 35.8589 173.553 35.8774C173.538 35.9105 173.538 35.9489 173.554 35.982C173.581 36.0443 173.61 36.1105 173.654 36.149C173.655 36.1675 173.657 36.1874 173.657 36.2059C173.563 36.2483 173.517 36.3662 173.479 36.6378C173.441 36.9371 173.451 37.0299 173.47 37.0855C173.483 37.1252 173.515 37.1557 173.555 37.1676L173.543 37.2882C173.501 37.3054 173.474 37.3319 173.458 37.3544C173.385 37.4432 173.362 37.5452 173.397 37.6472L173.405 37.6737C173.411 37.6909 173.421 37.7055 173.431 37.7187C173.351 37.7584 173.334 37.8631 173.317 38.022C173.299 38.1664 173.301 38.2393 173.307 38.2843C173.298 38.2976 173.29 38.3108 173.283 38.3241C173.255 38.3108 173.221 38.3095 173.189 38.3188C173.178 38.3227 173.166 38.328 173.154 38.3347C173.155 38.2313 173.149 38.189 173.142 38.1638C173.163 38.1267 173.171 38.0843 173.163 38.0366C173.161 38.0181 173.162 38.0075 173.162 38.0035C173.166 37.9744 173.165 37.9452 173.158 37.9147C173.211 37.8816 173.245 37.826 173.25 37.7571C173.255 37.7028 173.245 37.6392 173.218 37.5611C173.206 37.5279 173.183 37.5015 173.153 37.4856L173.047 37.4339C173.03 37.4259 173.01 37.4206 172.991 37.4206C172.995 37.3995 172.999 37.3783 173.005 37.3571C173.069 37.4498 173.158 37.4259 173.179 37.4193ZM172.651 39.258C172.653 39.2606 172.654 39.2619 172.654 39.2646C172.627 39.2898 172.605 39.3295 172.583 39.3944C172.602 39.303 172.621 39.205 172.642 39.1017C172.635 39.197 172.643 39.2315 172.651 39.258ZM171.898 36.9398C171.89 36.904 171.869 36.8749 171.839 36.8563C171.945 36.7941 172.078 36.6656 172.035 36.4179C172.058 36.4046 172.077 36.3861 172.089 36.3622C172.109 36.3238 172.121 36.2894 172.127 36.2602C172.145 36.2337 172.153 36.2019 172.149 36.1702C172.15 36.1635 172.15 36.1569 172.15 36.1503L172.153 36.1317C172.157 36.1119 172.154 36.0893 172.147 36.0708C172.146 36.0655 172.139 36.0509 172.127 36.035C172.178 35.9993 172.215 35.9648 172.243 35.9317C172.226 36.0205 172.206 36.1238 172.182 36.2404C172.047 36.8908 172.007 37.0564 171.997 37.0974C171.973 37.1332 171.947 37.1809 171.919 37.2498C171.946 37.165 171.921 37.0444 171.898 36.9398ZM170.731 45.9595C170.738 45.9675 170.742 45.9767 170.746 45.9847C170.75 46.0006 170.749 46.0085 170.747 46.0059L170.731 45.9595ZM170.479 48.0194C170.479 48.0181 170.478 48.0167 170.478 48.0154C170.495 47.9876 170.507 47.9492 170.506 47.8949C170.505 47.867 170.505 47.8419 170.505 47.822C170.507 47.7955 170.507 47.7544 170.506 47.7015C170.505 47.6803 170.505 47.6591 170.503 47.6392C170.519 47.6154 170.527 47.5849 170.525 47.5544L170.511 47.4286C170.509 47.4047 170.501 47.3835 170.486 47.3637L170.446 47.3107C170.447 47.3067 170.449 47.3027 170.45 47.2988C170.458 47.2749 170.467 47.2458 170.477 47.21C170.486 47.1769 170.497 47.1318 170.507 47.0842L170.521 47.0365C170.545 46.9477 170.546 46.8682 170.522 46.8007C170.507 46.7543 170.481 46.7265 170.457 46.7079C170.471 46.647 170.486 46.5649 170.505 46.4523C170.519 46.3768 170.53 46.3264 170.538 46.2933C170.547 46.2841 170.557 46.2721 170.563 46.2589L170.581 46.2244C170.59 46.2059 170.595 46.186 170.595 46.1662C170.626 46.1768 170.662 46.1781 170.698 46.1662C170.726 46.1582 170.749 46.1397 170.765 46.1171C170.711 46.7583 170.683 47.1265 170.682 47.2378C170.675 47.5173 170.671 47.8008 170.669 48.0869C170.657 48.0883 170.643 48.0896 170.631 48.0936L170.578 48.1108C170.577 48.1121 170.577 48.1134 170.575 48.1134C170.571 48.1121 170.57 48.1095 170.566 48.1068C170.546 48.0962 170.523 48.0909 170.502 48.0869L170.479 48.0194ZM171.577 38.1744C171.573 38.1731 171.567 38.1704 171.563 38.1691C171.571 38.1227 171.582 38.0591 171.597 37.9611C171.615 37.8644 171.627 37.7452 171.635 37.5982C171.638 37.5385 171.659 37.4498 171.802 37.365C171.813 37.3597 171.821 37.3518 171.829 37.3451C171.869 37.3306 171.895 37.3054 171.91 37.2723C171.821 37.5054 171.707 37.9585 171.562 38.9016C171.543 38.8977 171.523 38.895 171.503 38.895C171.493 38.8645 171.47 38.838 171.439 38.8235C171.434 38.8195 171.427 38.8182 171.419 38.8155C171.425 38.7824 171.43 38.7493 171.435 38.7149C171.454 38.5956 171.491 38.5082 171.538 38.4605L171.617 38.3916C171.65 38.3612 171.666 38.3161 171.658 38.2724C171.65 38.2274 171.619 38.1903 171.577 38.1744ZM170.597 44.7183C170.597 44.713 170.595 44.7077 170.595 44.7037C170.626 44.6878 170.655 44.6653 170.673 44.6309C170.687 44.6004 170.69 44.5593 170.679 44.5262C170.675 44.5169 170.671 44.5077 170.666 44.4997L170.635 44.4533C170.671 44.4083 170.701 44.3328 170.662 44.2136C170.647 44.1738 170.657 44.1579 170.659 44.1526C170.665 44.1407 170.669 44.1288 170.671 44.1169C170.693 43.9963 170.705 43.8957 170.707 43.8149L170.711 43.7274C170.71 43.6811 170.711 43.6453 170.713 43.6201C170.719 43.6188 170.725 43.6175 170.731 43.6162C170.765 43.6056 170.801 43.5751 170.817 43.5446C170.833 43.5128 170.834 43.4665 170.823 43.4347C170.819 43.4214 170.813 43.4095 170.805 43.3989L170.766 43.3486C170.753 43.285 170.739 43.1009 170.807 42.5776C170.861 42.1617 170.898 42.0173 170.915 41.9709C170.966 41.9471 171.005 41.9153 171.031 41.8742C171.051 41.8424 171.063 41.8212 171.065 41.8199C171.081 41.7894 171.083 41.7311 171.073 41.6967C171.069 41.6848 171.038 41.6053 170.945 41.5894C170.947 41.5656 170.947 41.5444 170.946 41.5245C170.986 41.4821 170.995 41.4145 171.006 41.3457C171.009 41.3178 171.015 41.3152 171.025 41.3125C171.061 41.3006 171.09 41.2728 171.105 41.2384C171.11 41.2225 171.114 41.2066 171.114 41.1893C171.159 41.1562 171.177 41.0979 171.159 41.045L171.138 40.98C171.131 40.9602 171.121 40.943 171.106 40.9284C171.095 40.9165 171.083 40.9059 171.071 40.8966C171.097 40.8529 171.111 40.8025 171.122 40.7615C171.147 40.6648 171.165 40.5588 171.174 40.4475C171.178 40.4038 171.179 40.3654 171.179 40.331C171.187 40.3283 171.195 40.327 171.203 40.3243C171.237 40.3137 171.278 40.2766 171.294 40.2462C171.329 40.1786 171.31 40.0991 171.286 40.0316C171.279 40.0077 171.266 39.9865 171.247 39.9706C171.243 39.9137 171.247 39.8051 171.279 39.609C171.302 39.3745 171.346 39.2977 171.366 39.2752L171.475 39.2805C171.486 39.2818 171.497 39.2805 171.506 39.2792C171.405 39.9865 171.29 40.9244 171.158 42.167L171.141 42.3723C171.015 43.5036 170.911 44.5262 170.83 45.4071L170.809 45.6058C170.803 45.6681 170.798 45.729 170.793 45.7873C170.758 45.7555 170.709 45.7462 170.665 45.7608C170.621 45.7754 170.583 45.8019 170.551 45.8403C170.569 45.7383 170.582 45.5926 170.593 45.3819C170.618 44.8706 170.607 44.762 170.597 44.7183ZM175.091 49.5798C175.085 49.5957 175.078 49.6103 175.071 49.6262C175.07 49.6249 175.07 49.6249 175.07 49.6249L175.049 49.5997C175.065 49.5944 175.078 49.5878 175.091 49.5798ZM174.223 52.0027C174.214 52.0053 174.207 52.0053 174.201 52.0027C174.198 52.0014 174.194 51.9961 174.19 51.9868L174.21 51.9735L174.223 52.0027L174.215 51.9775L174.241 51.9894C174.234 51.9934 174.231 52 174.223 52.0027ZM174.201 51.9696L174.19 51.9868C174.186 51.9802 174.183 51.9709 174.179 51.959L174.197 51.9245L174.205 51.9497L174.179 51.959L174.201 51.9696ZM174.227 51.9285L174.215 51.947L174.207 51.9497L174.198 51.9205L174.214 51.8901C174.225 51.8861 174.234 51.8914 174.242 51.9033L174.214 51.8901L174.227 51.9285ZM176.73 38.5612L176.738 38.3082C176.754 38.2618 176.761 38.2128 176.754 38.1598C176.766 38.1585 176.778 38.1558 176.791 38.1519C176.791 38.1519 176.806 38.1466 176.811 38.1452C176.913 38.1121 176.991 38.0115 176.942 37.8644C176.934 37.8379 176.917 37.8141 176.893 37.7982L176.821 37.7492C176.819 37.7319 176.818 37.7068 176.819 37.675C176.822 37.675 176.826 37.6763 176.829 37.6763C176.881 37.6816 176.927 37.6591 176.954 37.618C176.999 37.5491 177.023 37.4617 177.027 37.361C177.03 37.3001 176.99 37.2445 176.93 37.2299C176.915 37.2259 176.902 37.2246 176.887 37.2259C176.89 37.2113 176.894 37.1968 176.897 37.1809C176.969 36.8775 176.983 36.6802 176.942 36.5583C176.939 36.5503 176.937 36.5437 176.933 36.5371C176.942 36.5278 176.95 36.5172 176.957 36.504C176.962 36.492 176.971 36.4815 176.995 36.4735C177.131 36.4285 177.166 36.3331 177.15 36.2417C177.159 36.2033 177.151 36.1635 177.127 36.1317C177.15 36.1158 177.169 36.0907 177.177 36.0615C177.186 36.0244 177.194 35.9887 177.198 35.9529C177.202 35.9317 177.207 35.9092 177.218 35.8853C177.242 35.8231 177.246 35.7688 177.231 35.7224C177.221 35.6893 177.197 35.6628 177.166 35.6469C177.151 35.639 177.135 35.635 177.119 35.6337C177.121 35.6337 177.122 35.6337 177.123 35.6323L177.149 35.6244C177.326 35.5648 177.354 35.4363 177.322 35.3409C177.31 35.3065 177.281 35.2588 177.214 35.2243C177.21 35.223 177.207 35.2217 177.203 35.2204C177.203 35.2084 177.203 35.1965 177.201 35.1846C177.235 35.178 177.266 35.1581 177.285 35.129C177.307 35.0958 177.313 35.0548 177.301 35.0164C177.299 35.0137 177.298 35.0111 177.298 35.0084C177.33 34.9965 177.369 34.9607 177.383 34.9316C177.418 34.864 177.399 34.7885 177.379 34.7289C177.361 34.6759 177.313 34.6428 177.259 34.6415C177.259 34.6057 177.259 34.5686 177.258 34.5276L177.267 34.3368C177.267 34.3328 177.267 34.3275 177.267 34.3236C177.29 34.2931 177.307 34.2573 177.318 34.2163C177.339 34.1659 177.355 34.1196 177.366 34.0758C177.382 34.0785 177.398 34.0758 177.414 34.0705C177.503 34.0414 177.518 33.9473 177.521 33.9156C177.555 33.7924 177.575 33.7195 177.582 33.6996C177.589 33.6784 177.605 33.6162 177.725 33.0545C177.783 32.8744 177.838 32.7101 177.889 32.5631C177.89 32.579 177.893 32.5962 177.898 32.6107C177.898 32.6107 177.901 32.624 177.894 32.6598C177.881 32.6836 177.87 32.7127 177.867 32.7538C177.867 32.7578 177.866 32.7763 177.85 32.8227C177.833 32.8744 177.821 32.9234 177.818 32.9552C177.794 33.0426 177.769 33.1115 177.743 33.1618C177.738 33.1751 177.734 33.187 177.731 33.2016C177.695 33.2453 177.679 33.3089 177.706 33.387C177.711 33.4016 177.713 33.4109 177.714 33.4109C177.71 33.4254 177.706 33.44 177.703 33.4532C177.643 33.5672 177.574 33.901 177.421 34.9766L177.325 35.7847C177.31 35.9993 177.287 36.0814 177.277 36.1092C177.222 36.1357 177.194 36.1728 177.179 36.2006C177.163 36.2351 177.147 36.2907 177.173 36.3649C177.182 36.394 177.202 36.4192 177.229 36.4351C177.227 36.4616 177.223 36.4947 177.215 36.5371C177.206 36.602 177.198 36.6232 177.198 36.6232C177.181 36.6563 177.167 36.7027 177.137 37.0034C177.117 37.2034 177.087 37.4485 177.049 37.7439C176.859 39.6064 176.799 40.0329 176.779 40.1137C176.771 40.1296 176.766 40.1482 176.765 40.1667L176.518 45.0362C176.509 45.1647 176.493 45.3025 176.471 45.4469L176.457 45.2574C176.453 45.1952 176.403 45.1448 176.342 45.1382H176.338C176.338 45.1223 176.339 45.1064 176.339 45.0905C176.339 45.0534 176.341 45.0256 176.343 45.0044C176.37 44.9925 176.391 44.9713 176.405 44.9448L176.422 44.9104C176.445 44.864 176.438 44.8084 176.405 44.7699L176.391 44.7541C176.395 44.7461 176.398 44.7395 176.402 44.7315C176.415 44.6931 176.41 44.6521 176.389 44.6176L176.342 44.5461C176.345 44.5368 176.355 44.5169 176.389 44.4825C176.418 44.4533 176.431 44.411 176.425 44.3699C176.422 44.354 176.417 44.3394 176.409 44.3262C176.434 44.3103 176.461 44.2864 176.471 44.2639C176.485 44.2374 176.498 44.1937 176.483 44.1301C176.495 44.0838 176.482 44.0348 176.447 44.0016C176.443 43.999 176.439 43.9963 176.437 43.9937C176.419 43.9116 176.405 43.7844 176.398 43.5923C176.425 43.5883 176.45 43.5764 176.47 43.5565C176.507 43.5208 176.542 43.4532 176.502 43.3353C176.478 43.2638 176.437 43.228 176.395 43.2135C176.399 42.9419 176.414 42.5922 176.443 42.1418C176.447 42.0239 176.447 41.9351 176.446 41.8689C176.474 41.8716 176.501 41.8649 176.526 41.8504C176.577 41.8186 176.599 41.7563 176.581 41.6994C176.543 41.5894 176.529 41.5603 176.498 41.5285C176.485 41.5165 176.466 41.5073 176.445 41.4993C176.447 41.4834 176.451 41.4649 176.455 41.4463C176.491 41.2728 176.494 41.1986 176.482 41.1496C176.482 41.1324 176.483 41.0966 176.489 41.0224C176.494 41.0238 176.501 41.0238 176.507 41.0251C176.566 41.0238 176.611 40.992 176.631 40.9403L176.693 40.7747C176.717 40.7111 176.691 40.6303 176.629 40.6038C176.591 40.5879 176.553 40.5866 176.522 40.6012C176.541 40.3733 176.57 40.0541 176.611 39.6103C176.613 39.6037 176.613 39.5984 176.613 39.5918C176.669 39.5971 176.719 39.5693 176.743 39.5203L176.761 39.4858C176.774 39.4606 176.777 39.4328 176.773 39.405L176.737 39.2143C176.735 39.2037 176.733 39.1944 176.729 39.1851L176.631 38.9665C176.709 38.9069 176.727 38.7718 176.73 38.5612ZM176.674 49.5361C176.734 49.5322 176.737 49.5467 176.741 49.556C176.757 49.601 176.755 49.6567 176.738 49.7229C176.709 49.8368 176.711 49.9455 176.745 50.0488C176.762 50.0965 176.777 50.1415 176.789 50.1826C176.781 50.1786 176.774 50.1759 176.766 50.1746C176.717 49.9852 176.665 49.7759 176.613 49.5441L176.674 49.5361ZM177.234 41.0807L177.093 42.7246L176.93 43.5049C176.949 43.1936 176.973 42.8399 177.003 42.4465C177.098 41.2198 177.233 39.8686 177.403 38.4287C177.469 37.8883 177.533 37.3716 177.598 36.8802C177.529 37.7174 177.407 39.1202 177.234 41.0807ZM178.835 36.6431C178.822 36.6311 178.806 36.6232 178.789 36.6179C178.825 36.6046 178.853 36.5755 178.866 36.5384L178.953 36.2774C178.966 36.2364 178.959 36.1927 178.934 36.1596C179.005 36.1145 179.045 35.99 179.109 35.4694C179.111 35.4707 179.114 35.4734 179.118 35.476C179.161 35.5091 179.17 35.5277 179.17 35.5277C179.175 35.5423 179.195 35.631 179.129 35.9662L179.083 36.084C179.033 36.1198 178.991 36.1755 178.963 36.251C178.943 36.3013 178.958 36.3596 178.999 36.3953C179.022 36.4139 179.05 36.4258 179.078 36.4271C179.021 36.496 179.003 36.6033 178.998 36.6868C178.965 36.8153 178.942 36.8709 178.93 36.8947L178.907 36.9027C178.885 36.9093 178.866 36.9226 178.85 36.9398L178.879 36.7623C178.886 36.7172 178.87 36.6722 178.835 36.6431ZM178.027 40.5058C178.027 40.5071 178.029 40.5071 178.03 40.5071C178.027 40.5138 178.023 40.5191 178.019 40.5244C178.022 40.5191 178.025 40.5124 178.027 40.5058ZM178.902 33.4691L178.939 33.5804C178.929 33.599 178.923 33.6175 178.921 33.6334C178.917 33.6678 178.921 33.6996 178.965 33.8268C178.987 33.893 179.059 33.9447 179.159 33.9116C179.266 33.8758 179.327 33.8559 179.293 32.5935C179.301 32.5843 179.307 32.5737 179.314 32.5631C179.329 32.5326 179.342 32.4836 179.319 32.416C179.317 32.4067 179.311 32.3975 179.306 32.3882L179.293 32.3683C179.298 32.3577 179.302 32.3458 179.305 32.3339C179.314 32.2981 179.311 32.2624 179.297 32.22C179.294 32.212 179.29 32.2027 179.285 32.1948L179.255 32.1471C179.259 32.1418 179.262 32.1365 179.263 32.1312C179.275 32.1021 179.277 32.0716 179.266 32.0425C179.323 31.9762 179.294 31.865 179.273 31.8C179.273 31.6861 179.306 31.5457 179.377 31.3735C179.385 31.4782 179.391 31.6252 179.394 31.8292C179.407 32.2677 179.429 32.3816 179.442 32.4226C179.446 32.4452 179.447 32.4955 179.447 32.575C179.418 32.6902 179.417 32.7816 179.441 32.8558C179.445 32.8677 179.451 32.8797 179.459 32.8903C179.431 32.9459 179.415 33.024 179.401 33.126C179.399 33.1366 179.399 33.1486 179.401 33.1578C179.407 33.2333 179.402 33.3526 179.382 33.5195C179.333 34.2653 179.343 34.4891 179.365 34.5819C179.274 34.6666 179.25 34.8071 179.239 34.864C179.229 34.9435 179.245 35.0495 179.294 35.1978C179.258 35.1978 179.215 35.2031 179.174 35.2164C179.161 35.2217 179.147 35.227 179.135 35.2349C179.171 34.8759 179.161 34.7686 179.141 34.7117C179.131 34.6839 179.114 34.6613 179.091 34.6454L179.097 34.6441C179.145 34.6282 179.178 34.5872 179.186 34.5395L179.194 34.4785C179.197 34.4587 179.195 34.4388 179.189 34.4203L179.162 34.3408C179.139 34.2732 179.067 34.2361 178.998 34.2586C178.955 34.2732 178.921 34.3037 178.901 34.3421C178.863 34.4176 178.885 34.5037 178.907 34.5699C178.914 34.5911 178.926 34.6097 178.941 34.6229C178.923 34.6203 178.906 34.6229 178.889 34.6296C178.758 34.6719 178.783 34.8309 178.801 34.9382C178.829 35.2257 178.822 35.3462 178.815 35.3939L178.81 35.3952C178.742 35.4177 178.705 35.4919 178.727 35.5582C178.754 35.6363 178.757 35.7039 178.737 35.7648C178.699 35.88 178.694 35.982 178.723 36.0682L178.733 36.0933C178.737 36.1066 178.743 36.1198 178.751 36.1304C178.654 36.1887 178.626 36.3251 178.613 36.455V36.4973C178.613 36.5543 178.65 36.6046 178.703 36.6205C178.521 36.6815 178.486 36.6947 178.461 36.7477C178.445 36.7782 178.442 36.8351 178.453 36.8683C178.462 36.9 178.485 36.9265 178.513 36.9411L178.525 37.157C178.525 37.1637 178.526 37.169 178.527 37.1743C178.487 37.1915 178.431 37.2312 178.403 37.3213C178.383 37.3862 178.387 37.4577 178.414 37.5359C178.425 37.5677 178.447 37.5942 178.478 37.6101L178.513 37.6273C178.545 37.6432 178.581 37.6458 178.614 37.6339C178.654 37.6207 178.726 37.5809 178.75 37.4697C178.757 37.4299 178.763 37.4008 178.766 37.3769L178.775 37.3173C178.779 37.2869 178.773 37.2564 178.757 37.2312C178.762 37.2246 178.767 37.2166 178.771 37.2087L178.815 37.1213C178.821 37.1093 178.825 37.0974 178.827 37.0842L178.829 37.0736C178.838 37.0974 178.855 37.1173 178.877 37.1319C178.918 37.2551 178.945 37.3292 178.962 37.3769C178.889 37.4418 178.818 37.6127 178.731 38.1545C178.722 38.1545 178.711 38.1572 178.702 38.1598C178.667 38.1717 178.641 38.1903 178.621 38.2155C178.622 38.2128 178.622 38.2115 178.622 38.2088C178.631 38.1426 178.587 38.079 178.521 38.0644C178.455 38.0499 178.387 38.0896 178.369 38.1545L178.305 38.3704C178.271 38.5148 178.246 38.5718 178.235 38.5917C178.097 38.646 178.101 38.7321 178.119 38.789L178.129 38.8208C178.138 38.8473 178.155 38.8698 178.179 38.8857L178.158 38.9692C178.151 38.993 178.153 39.0169 178.159 39.0394C178.117 39.0818 178.083 39.1613 178.134 39.3123C178.145 39.3454 178.169 39.3719 178.199 39.3878C178.231 39.4024 178.266 39.405 178.299 39.3931L178.325 39.3851C178.366 39.3706 178.397 39.3375 178.409 39.2964L178.435 39.1997C178.446 39.1599 178.437 39.1162 178.41 39.0844C178.421 39.0738 178.431 39.0606 178.438 39.0473C178.461 39.0023 178.477 38.9612 178.485 38.9242C178.489 38.9043 178.495 38.8831 178.503 38.8606C178.513 38.8354 178.526 38.7864 178.558 38.6129C178.562 38.5903 178.566 38.5691 178.569 38.5466C178.57 38.5493 178.57 38.5532 178.57 38.5559C178.575 38.6076 178.61 38.6499 178.658 38.6658C178.641 38.7811 178.595 38.9997 178.481 39.4156L178.409 39.7335C178.381 39.7137 178.353 39.7004 178.323 39.6938L178.321 39.6739C178.317 39.6143 178.27 39.5653 178.209 39.556C178.15 39.5494 178.09 39.5825 178.069 39.6408C178.066 39.6488 178.063 39.6567 178.061 39.662C178.029 39.6514 177.99 39.6448 177.949 39.658C177.946 39.6593 177.943 39.6607 177.941 39.6607C177.942 39.605 177.943 39.5441 177.945 39.4792C177.955 38.9983 178.022 38.3519 178.141 37.5518C178.229 36.6735 178.353 35.8509 178.51 35.0998C178.693 34.0003 178.821 33.3022 178.91 32.8598C178.906 32.9764 178.897 33.0784 178.882 33.1645C178.853 33.2426 178.858 33.3406 178.902 33.4691ZM177.749 35.8006C177.761 35.7198 177.773 35.6403 177.785 35.5635C177.785 35.574 177.787 35.5833 177.79 35.5939C177.798 35.6151 177.798 35.6403 177.793 35.6628C177.775 35.7277 177.761 35.7714 177.749 35.8006ZM177.718 50.2435C177.719 50.2501 177.721 50.2568 177.722 50.2621L177.697 50.2554C177.681 50.2091 177.683 50.1746 177.698 50.1481C177.702 50.168 177.706 50.1879 177.71 50.2064L177.697 50.2554L177.718 50.2435ZM176.37 45.7224C176.398 45.7118 176.419 45.6932 176.435 45.6681C176.423 45.729 176.411 45.7899 176.398 45.8522C176.387 45.8178 176.378 45.7727 176.37 45.7224ZM180.454 48.1889C180.447 48.2022 180.441 48.2181 180.434 48.2313L180.441 48.1863C180.445 48.1876 180.45 48.1889 180.454 48.1889ZM180.674 47.7001C180.666 47.7187 180.658 47.7372 180.65 47.7558C180.657 47.7359 180.663 47.7187 180.667 47.7001H180.674ZM181.885 45.6601C181.885 45.6588 181.881 45.6363 181.898 45.5687C181.923 45.4681 181.907 45.3356 181.85 45.1621C181.827 45.0958 181.754 45.0574 181.686 45.0812C181.618 45.1024 181.578 45.166 181.539 45.2535C181.506 45.329 181.483 45.427 181.473 45.533C181.378 45.9145 181.219 46.3821 180.999 46.9305C180.962 46.9199 180.922 46.9239 180.89 46.9451C180.851 46.9702 180.829 47.0139 180.83 47.0603L180.834 47.1597C180.835 47.1716 180.837 47.1835 180.841 47.1941C180.849 47.2166 180.858 47.2352 180.867 47.2524C180.847 47.3014 180.826 47.3504 180.805 47.4008C180.793 47.3729 180.77 47.3491 180.743 47.3358L180.707 47.3173C180.67 47.2988 180.626 47.2988 180.589 47.3173C180.586 47.3199 180.583 47.3213 180.581 47.3226C180.554 47.2882 180.514 47.2709 180.466 47.2736C180.406 47.2789 180.358 47.3252 180.35 47.3835C180.33 47.5186 180.318 47.5981 180.318 47.6074L180.307 47.6259C180.258 47.667 180.23 47.7266 180.213 47.7743C180.185 47.8472 180.175 47.9094 180.183 47.9651C180.167 47.9757 180.154 47.9902 180.145 48.0075C180.117 47.9955 180.083 47.9929 180.053 48.0022C179.962 48.0313 179.923 48.1267 179.901 48.2194L179.871 48.2764C179.863 48.2923 179.859 48.3082 179.858 48.3241L179.855 48.3227C179.809 48.3108 179.759 48.3241 179.727 48.3585C179.694 48.3929 179.682 48.4433 179.698 48.4883L179.725 48.5665C179.73 48.5837 179.739 48.6009 179.753 48.6142C179.689 48.6499 179.613 48.7546 179.421 49.1957C178.931 50.168 178.793 50.3124 178.773 50.3283L178.721 50.3455C178.663 50.3641 178.629 50.4184 178.633 50.4753C178.63 50.4833 178.623 50.4978 178.61 50.523C178.571 50.6012 178.467 50.7495 178.197 51.0277C178.191 51.0145 178.186 50.9986 178.179 50.98C178.071 50.6568 177.961 50.1826 177.85 49.5679C177.806 49.3573 177.794 49.2553 177.791 49.2063C177.886 49.152 177.981 49.042 178.002 48.8182C178.002 48.7188 177.977 48.5797 177.925 48.3943C177.905 48.3254 177.891 47.9849 178.183 46.3384C178.201 46.2165 178.205 46.1556 178.203 46.1198C178.214 46.0867 178.231 46.0483 178.257 46.0085C178.315 45.9145 178.333 45.827 178.309 45.7582C178.307 45.7476 178.302 45.6787 178.345 45.3396C178.394 44.9779 178.447 44.6388 178.502 44.3235C178.534 44.3341 178.581 44.3355 178.61 44.3262C178.659 44.3116 178.695 44.2679 178.699 44.2162L178.713 44.0811C178.717 44.0427 178.703 44.0043 178.675 43.9778L178.631 43.9341C178.617 43.9182 178.599 43.9089 178.579 43.9023C178.602 43.7844 178.626 43.6705 178.65 43.5618C178.691 43.3472 178.721 43.2664 178.734 43.2386C178.834 43.1909 178.966 42.9975 179.245 41.3735C179.703 38.6923 180.037 35.9158 180.233 33.1234C180.327 31.8053 180.317 30.9946 180.199 30.6436L180.189 30.6145C180.203 30.6039 180.214 30.5893 180.222 30.5734L180.241 30.539C180.255 30.5085 180.258 30.4727 180.247 30.4396C180.23 30.3879 180.185 30.3257 180.017 30.1786C179.894 30.0713 179.763 29.9786 179.63 29.9018C179.454 29.7998 179.361 29.7706 179.279 29.7971C179.262 29.8038 179.221 29.821 179.199 29.8673C179.117 29.8859 179.033 29.9084 178.949 29.9362C178.907 29.9495 178.859 29.9468 178.803 29.927C178.691 29.8859 178.545 29.8952 178.357 29.9574C178.346 29.9614 178.337 29.9654 178.329 29.972C178.077 30.127 178.027 30.1535 178.027 30.1535C177.994 30.1654 177.958 30.1866 177.915 30.2224C177.821 30.2965 177.837 30.433 177.865 30.5482C177.861 30.6383 177.823 30.8026 177.675 31.0966C177.505 31.4517 177.387 31.8279 177.326 32.2412C177.329 32.3259 177.321 32.4399 177.263 32.4981C177.229 32.5326 177.217 32.5829 177.233 32.6293C177.25 32.6823 177.249 32.7366 177.226 32.8015C177.174 32.9803 177.125 33.2386 177.074 33.5923C176.973 34.211 176.981 34.2732 176.995 34.3143C176.949 34.4348 176.902 34.7104 176.831 35.3793C176.622 36.3357 176.658 36.443 176.678 36.5C176.682 36.5132 176.689 36.5252 176.695 36.5358C176.637 36.6219 176.587 36.8418 176.523 37.4803C176.491 37.7359 176.497 37.8684 176.51 37.9439C176.474 37.9611 176.446 37.9942 176.438 38.034C176.43 38.0724 176.415 38.1611 176.397 38.4804C176.378 38.7718 176.381 38.8566 176.387 38.8937C176.377 38.9083 176.369 38.9242 176.365 38.9427C176.31 39.1772 176.31 39.2884 176.323 39.3533L176.31 39.4487C176.307 39.4699 176.309 39.4898 176.315 39.507L176.323 39.5335C176.33 39.5534 176.341 39.5693 176.354 39.5825L176.118 41.4463C176.117 41.4583 176.117 41.4702 176.118 41.4821L176.145 41.6477C176.149 41.6676 176.155 41.6848 176.167 41.702L176.069 42.1007C176.066 42.11 176.065 42.1193 176.065 42.1285L175.991 45.0455L175.989 47.1915L175.967 47.3425C175.963 47.369 175.969 47.3941 175.979 47.418C175.883 47.7319 175.774 47.9902 175.657 48.1876C175.647 48.2022 175.642 48.2194 175.639 48.2366C175.634 48.2525 175.614 48.3095 175.538 48.4896L175.302 49.0884C175.293 49.1109 175.283 49.1334 175.274 49.156C175.165 48.9692 175.021 48.9904 174.955 49.0116C174.87 49.0394 174.807 49.1162 174.765 49.2447C174.758 49.2659 174.755 49.2884 174.759 49.3096C174.73 49.3242 174.707 49.3494 174.695 49.3811C174.694 49.3851 174.693 49.3891 174.691 49.3944C174.63 49.4288 174.565 49.4924 174.535 49.613C174.417 49.9905 174.135 50.5336 173.699 51.2304C173.498 51.5629 173.433 51.6185 173.438 51.6185C173.426 51.6225 173.402 51.6331 173.366 51.6516C173.301 51.6861 173.263 51.7589 173.238 51.8954C173.213 52.0014 173.189 52.0331 173.194 52.0331C173.118 52.0596 173.082 52.1047 173.065 52.1378C173.059 52.1484 173.054 52.1616 173.05 52.1762C172.954 52.2265 172.851 52.3113 172.738 52.4345C172.575 52.6107 172.425 52.7233 172.27 52.7723C172.269 52.7723 172.249 52.7617 172.226 52.6942C172.222 52.6849 172.218 52.6743 172.211 52.665L172.159 52.5829C172.039 52.2173 171.939 51.6251 171.863 50.8197C171.785 49.9971 171.733 49.2262 171.711 48.5281C171.681 47.5942 171.707 47.3941 171.719 47.3557L172.222 45.8337C172.755 44.6136 173.241 43.2373 173.665 41.7378C173.77 41.3231 173.941 40.3747 174.169 38.9215C174.57 36.7371 174.613 35.1475 174.294 34.2004C174.166 33.8189 174.006 33.5725 173.806 33.4479C173.598 33.3195 173.402 33.285 173.219 33.3446C173.075 33.3936 173.019 33.3738 173.002 33.3632C172.894 33.2996 172.763 33.2943 172.613 33.3433C172.294 33.4493 172.234 33.6241 172.243 33.7592C172.221 33.9235 172.125 34.2454 171.958 34.717C171.681 35.4985 171.697 35.5449 171.715 35.6111C171.691 35.6602 171.669 35.7118 171.683 35.7661C171.522 36.2284 171.507 36.3768 171.521 36.4523C171.518 36.4603 171.513 36.4735 171.502 36.4947C171.471 36.5887 171.459 36.6523 171.463 36.7013C171.422 36.7106 171.387 36.7384 171.37 36.7782C171.35 36.8259 171.361 36.8815 171.398 36.9186L171.415 36.9358C171.417 36.9491 171.417 36.961 171.417 36.9769C171.33 37.0047 171.274 37.0723 171.261 37.1623C171.258 37.1809 171.259 37.2021 171.266 37.2206L171.294 37.3054C171.275 37.3624 171.273 37.414 171.289 37.4604C171.295 37.4829 171.301 37.5147 171.27 37.5664C171.214 37.6578 171.185 37.7704 171.181 37.8989C171.181 37.9147 171.183 37.9293 171.187 37.9439C171.189 37.9452 171.189 37.9465 171.189 37.9479C171.175 37.9651 171.167 37.9863 171.165 38.0088C171.015 39.2302 170.923 39.6024 170.881 39.7163C170.841 39.7163 170.802 39.7349 170.778 39.768C170.75 39.8051 170.745 39.8567 170.765 39.8991L170.817 40.0117C170.825 40.0276 170.834 40.0409 170.846 40.0528C170.857 40.0726 170.869 40.0965 170.885 40.123C170.817 40.1945 170.801 40.3217 170.794 40.4409C170.793 40.4753 170.791 40.5032 170.789 40.5257C170.781 40.527 170.771 40.5297 170.763 40.5323C170.73 40.5429 170.694 40.5747 170.678 40.6052C170.647 40.6648 170.663 40.731 170.681 40.7827C170.685 40.7933 170.689 40.8025 170.694 40.8105L170.718 40.8449C170.726 40.8635 170.739 40.8913 170.758 40.9191C170.705 40.9814 170.677 41.0754 170.674 41.2026C170.657 41.2662 170.643 41.3006 170.635 41.3178C170.566 41.3563 170.539 41.4834 170.465 42.3683C170.37 43.4903 170.321 43.8122 170.299 43.9036C170.234 43.95 170.209 44.0268 170.235 44.1089C170.266 44.199 170.291 44.4229 170.247 44.9832C170.193 45.8509 170.221 45.9357 170.237 45.982L170.245 46.0059C170.167 46.084 170.153 46.2668 170.181 46.6629L170.17 46.7411C170.166 46.7649 170.17 46.7888 170.179 46.8099C170.17 46.859 170.166 46.9225 170.161 47.006C170.15 47.161 170.157 47.2643 170.179 47.3345C170.183 47.3438 170.187 47.3531 170.193 47.3623C170.183 47.3955 170.179 47.4352 170.174 47.4749C170.165 47.5584 170.165 47.6485 170.175 47.7531L170.217 47.9598C170.19 47.973 170.159 47.9969 170.141 48.0339C170.125 48.0644 170.121 48.1161 170.131 48.1492C170.138 48.1691 170.151 48.185 170.166 48.1995C170.162 48.2022 170.158 48.2048 170.155 48.2088C170.13 48.2327 170.118 48.2644 170.117 48.2976C170.01 48.3558 169.953 48.5042 169.934 48.7771C169.927 48.7784 169.919 48.7797 169.913 48.7824C169.849 48.8036 169.805 48.8566 169.794 48.9255C169.793 48.9361 169.793 48.9467 169.794 48.9572C169.795 48.9718 169.795 48.9851 169.797 48.9943C169.714 49.0235 169.638 49.1149 169.693 49.2725C169.693 49.2725 169.687 49.2871 169.655 49.3096C169.642 49.3189 169.63 49.3308 169.621 49.3441C169.534 49.4792 169.507 49.5944 169.541 49.6938L169.55 49.7203C169.567 49.7732 169.618 49.8077 169.671 49.809C169.661 49.8368 169.65 49.8647 169.638 49.8925C169.633 49.8872 169.626 49.8805 169.619 49.8752C169.571 49.8395 169.51 49.8289 169.453 49.8488C169.415 49.862 169.387 49.8779 169.365 49.9004C169.323 49.9415 169.309 50.0011 169.326 50.0567C169.334 50.0806 169.35 50.1018 169.37 50.1177L169.449 50.1786C169.47 50.1945 169.497 50.2038 169.522 50.2051C169.518 50.217 169.514 50.2276 169.51 50.2382C169.49 50.2859 169.471 50.3283 169.454 50.368C169.435 50.3508 169.411 50.3402 169.385 50.3362L169.325 50.327C169.279 50.319 169.234 50.3442 169.205 50.3786C169.185 50.4038 169.173 50.4382 169.174 50.4714C169.159 50.4846 169.146 50.4992 169.133 50.5151C169.106 50.5495 169.098 50.5945 169.113 50.6356L169.121 50.6595C169.114 50.6714 169.103 50.6912 169.081 50.7244L169.027 50.829C169.015 50.8529 169.011 50.8807 169.015 50.9058C168.986 50.9456 168.971 50.9946 168.963 51.0436C168.953 51.0622 168.945 51.0834 168.943 51.1045V51.1244C168.857 51.1721 168.822 51.2913 168.799 51.4172C168.774 51.4834 168.761 51.5483 168.763 51.604C168.722 51.596 168.679 51.6092 168.649 51.6397C168.614 51.6742 168.602 51.7245 168.618 51.7722C168.625 51.7947 168.622 51.8252 168.605 51.8689C168.526 52.1087 168.487 52.1285 168.487 52.1285C168.395 52.159 168.309 52.2464 168.326 52.4014C168.317 52.4239 168.31 52.4478 168.305 52.469C168.241 52.51 168.206 52.5908 168.185 52.6584C168.086 52.8399 167.983 52.9949 167.87 53.1313C167.694 53.4002 167.639 53.5221 167.637 53.6016C167.583 53.6214 167.523 53.6506 167.457 53.689C167.455 53.6903 167.453 53.6903 167.451 53.6916C167.438 53.6585 167.419 53.6069 167.393 53.5274C167.323 53.3207 167.265 52.9167 167.219 52.3272C167.201 52.0981 167.202 51.9802 167.206 51.9205C167.234 51.8596 167.242 51.7497 167.231 51.5046C167.231 50.5296 167.31 49.499 167.466 48.4406C167.583 47.5822 167.546 47.3332 167.503 47.206C167.441 47.0722 167.365 47.0351 167.299 47.0338C167.274 46.9636 167.246 46.9172 167.198 46.8934C167.166 46.8775 167.131 46.8749 167.098 46.8855C167.041 46.904 166.986 46.9318 166.934 46.9689L166.943 46.8841C166.946 46.8656 166.945 46.8457 166.938 46.8285C166.923 46.7861 166.874 46.6894 166.71 46.6894H166.705C166.63 46.6894 166.534 46.7093 166.41 46.7517C166.35 46.7715 166.285 46.8007 166.215 46.8391C166.153 46.8762 166.097 46.9093 166.046 46.9411C165.991 46.9755 165.89 47.0404 165.925 47.1491C165.934 47.1742 165.946 47.1968 165.963 47.2126L165.967 47.2458C165.947 47.2948 165.935 47.3425 165.934 47.3902C165.933 47.4352 165.933 47.4696 165.934 47.4895C165.935 47.5094 165.939 47.5292 165.943 47.5504C165.939 47.5981 165.926 47.6392 165.903 47.6763C165.898 47.6842 165.894 47.6935 165.89 47.7028L165.825 47.8988C165.809 47.9478 165.823 47.9995 165.858 48.0339L165.861 48.0525C165.831 48.124 165.813 48.1465 165.817 48.1465C165.719 48.1916 165.679 48.287 165.711 48.3823C165.711 48.3837 165.717 48.4194 165.679 48.5387C165.646 48.6433 165.607 48.7413 165.565 48.8261L165.558 48.8407C165.418 48.7042 165.297 48.6022 165.187 48.5294C164.801 48.275 164.546 48.1439 164.386 48.1134C164.222 48.083 163.99 48.1187 163.677 48.2234C163.298 48.3492 163.102 48.4406 163.098 48.5757C163.041 48.5983 163.015 48.6486 163.005 48.6685C162.99 48.7003 162.982 48.7241 162.981 48.7374L163.102 48.7771L162.963 48.7758C162.922 48.8976 162.845 49.0579 162.729 49.2606C162.675 49.2897 162.629 49.3282 162.591 49.3838C162.493 49.5375 162.465 49.6328 162.491 49.711L162.499 49.7375C162.503 49.7481 162.509 49.756 162.515 49.7653C162.511 49.7732 162.509 49.7812 162.506 49.7891C162.417 49.8779 162.162 50.2409 161.051 51.9245C160.625 52.5789 160.501 52.7365 160.466 52.7736C160.445 52.7842 160.421 52.8001 160.401 52.8253C160.374 52.8147 160.343 52.8121 160.314 52.8227C160.269 52.8372 160.211 52.877 160.19 52.9829C160.186 53.0041 160.178 53.0227 160.167 53.0399C160.155 53.0584 160.147 53.0704 160.142 53.077H160.091C160.039 53.077 159.991 53.1088 159.971 53.1578C159.951 53.2055 159.962 53.2611 159.999 53.2969L160.005 53.3022C160.002 53.326 159.994 53.3644 159.979 53.4227L159.927 53.5274C159.902 53.5777 159.913 53.6387 159.953 53.6784C159.898 53.7579 159.835 53.8466 159.763 53.9433L159.315 54.55C159.259 54.6428 159.219 54.6918 159.194 54.7169L159.155 54.6984C159.125 54.6825 159.09 54.6798 159.057 54.6904C158.998 54.7103 158.915 54.7607 158.609 55.1448C158.335 55.4853 158.25 55.5237 158.242 55.5276C158.182 55.5462 158.147 55.6045 158.154 55.6641C158.114 55.6985 158.042 55.7568 157.907 55.8641C157.722 56.0098 157.431 56.1516 157.041 56.2867L156.911 56.0853C156.906 56.0761 156.898 56.0681 156.89 56.0602C156.833 56.0085 156.782 55.933 156.735 55.835C156.686 55.7277 156.577 55.4243 156.415 54.9435C156.211 54.1526 156.175 53.9433 156.173 53.8956C156.173 53.8533 156.165 53.7433 156.087 53.273C155.947 52.6028 156.006 52.4822 156.01 52.4729C156.019 52.465 156.035 52.4372 156.041 52.4253C156.055 52.3948 156.058 52.359 156.047 52.3272C156.041 52.306 156.029 52.2888 156.014 52.2742L155.729 48.3347C155.763 48.3055 155.799 48.2446 155.757 48.1187C155.747 48.1028 155.735 48.0803 155.719 48.0578L155.577 46.7636C155.577 46.7556 155.574 46.7464 155.571 46.7371C155.435 46.3331 155.409 46.2907 155.395 46.2682C155.365 46.2205 155.329 46.1834 155.289 46.1582C155.267 46.145 155.239 46.1224 155.191 46.084C155.025 45.9728 154.907 45.937 154.811 45.9688C154.802 45.9714 154.793 45.9754 154.785 45.9807L154.599 46.0906C154.594 46.0906 154.587 46.0893 154.581 46.088L154.607 45.9648C154.614 45.9264 154.605 45.8866 154.581 45.8562C154.555 45.827 154.518 45.8098 154.479 45.8098H154.391C154.378 45.8098 154.365 45.8111 154.351 45.8164C154.307 45.8297 154.267 45.8509 154.233 45.88H154.23C154.17 45.8615 154.106 45.8906 154.078 45.9463C154.03 46.043 153.962 46.1039 153.873 46.1344C153.841 46.145 153.814 46.1688 153.798 46.1993C153.77 46.2549 153.782 46.3145 153.818 46.4205C153.818 46.4205 153.833 46.4695 153.735 46.6298C153.659 46.7927 153.619 46.9119 153.614 47.0034C153.554 47.0471 153.498 47.1212 153.443 47.2312C153.325 47.467 153.213 47.7491 153.115 48.0578L153.023 48.279C152.977 48.328 152.949 48.4075 152.922 48.5135C152.871 48.6989 152.834 48.7347 152.834 48.736C152.822 48.744 152.811 48.7559 152.802 48.7705C152.749 48.8539 152.629 49.1414 152.175 50.6303L151.481 52.9021C151.383 53.1816 151.357 53.2465 151.358 53.2479C151.335 53.277 151.326 53.2889 151.006 54.505L150.455 56.5119C150.361 56.8245 150.321 56.8841 150.321 56.8868C150.299 56.904 150.285 56.9278 150.278 56.9543C150.057 57.8591 149.995 58.1253 149.985 58.2207C149.969 58.3068 149.939 58.3677 149.885 58.4181C149.701 58.6194 149.706 58.7916 149.754 58.9148C149.623 59.0129 149.642 59.1215 149.655 59.1639C149.677 59.2275 149.678 59.2751 149.659 59.3136C149.654 59.3215 149.65 59.3295 149.646 59.3374C149.61 59.3056 149.549 59.2804 149.45 59.3136C149.434 59.3189 149.419 59.3268 149.406 59.3387L149.395 59.3467C149.386 59.3242 149.375 59.2963 149.363 59.2606C149.322 59.1374 149.279 58.9771 149.237 58.7797C149.254 58.7678 149.267 58.7519 149.277 58.7334C149.306 58.679 149.298 58.6314 149.227 58.4207C149.215 58.3836 149.186 58.3545 149.151 58.3413C149.123 58.1823 149.094 58.0061 149.066 57.8167C149.066 57.814 149.065 57.8127 149.065 57.8114C149.106 57.7915 149.134 57.7504 149.137 57.7028L149.142 57.6299C149.143 57.6127 149.141 57.5955 149.135 57.5796C149.119 57.5358 149.098 57.5027 149.074 57.4789C149.086 57.463 149.094 57.4431 149.097 57.4219L149.105 57.361C149.109 57.3358 149.105 57.3107 149.094 57.2881C149.067 57.2338 149.033 57.1596 148.975 57.1305C148.969 57.0656 148.965 57.0153 148.962 56.9755C148.977 56.9715 148.99 56.9649 149.003 56.957C149.05 56.9238 149.07 56.8642 149.051 56.8099C148.978 56.59 148.943 56.4854 148.93 56.4403C148.953 56.4046 148.969 56.3569 148.986 56.3026C148.99 56.2893 148.995 56.2562 148.995 56.243C149.007 56.2218 149.011 56.1953 149.009 56.1714L148.982 55.9184C148.979 55.888 148.965 55.8601 148.942 55.8389C148.946 55.8323 148.949 55.8257 148.951 55.8177C148.971 55.7634 148.973 55.7065 148.954 55.6522C148.947 55.631 148.926 55.5661 148.861 55.5343C148.858 55.5329 148.853 55.5316 148.849 55.5303C148.799 54.7355 148.827 54.5805 148.837 54.554C148.862 54.5037 148.857 54.448 148.846 54.399C148.839 54.3646 148.833 54.3089 148.825 54.2427C148.825 54.2109 148.823 54.1751 148.819 54.1328C148.817 54.093 148.809 54.0374 148.797 53.9725C148.781 53.8572 148.778 53.795 148.779 53.7645C148.893 53.6996 148.862 53.5936 148.857 53.579C148.85 53.5605 148.843 53.542 148.835 53.5247C148.879 53.3605 148.837 52.7975 148.638 50.6568C148.462 48.7665 148.311 47.6498 148.175 47.2471C148.163 47.2113 148.138 47.1822 148.105 47.165C148.074 47.1504 148.013 47.1491 147.979 47.1597C147.963 47.165 147.949 47.1729 147.935 47.1848C147.918 47.1623 147.899 47.1411 147.878 47.1186C147.787 47.0259 147.658 46.9729 147.49 46.9623C147.381 46.9557 147.297 46.9318 147.241 46.8947C147.094 46.7927 146.927 46.7689 146.757 46.8258C146.278 46.9835 145.73 47.7836 145.081 49.2699C144.607 50.3548 144.251 51.3377 144.025 52.1775C144.013 52.208 144.003 52.2213 144.006 52.2226C143.921 52.2504 143.883 52.2954 143.519 53.7274C143.449 53.9274 143.395 54.0996 143.362 54.2414C143.346 54.3116 143.334 54.3619 143.325 54.3924C143.242 54.4639 143.221 54.6216 143.245 54.9276C143.243 54.9276 143.243 54.9289 143.243 54.9289C143.131 55.1819 143.047 55.4005 142.997 55.5767C142.994 55.5846 142.993 55.5926 142.991 55.6005C142.927 55.6522 142.921 55.7568 142.917 55.9105C142.917 55.925 142.919 55.9396 142.923 55.9529C142.931 55.9767 142.935 56.0006 142.933 56.0244C142.89 56.0668 142.857 56.1396 142.861 56.2589L142.853 56.3966C142.806 56.4377 142.771 56.4973 142.746 56.5781C142.723 56.6655 142.707 56.741 142.699 56.8046L142.663 56.7861C142.633 56.7715 142.597 56.7689 142.563 56.7795C142.362 56.8457 142.385 57.1345 142.393 57.2298C142.393 57.2404 142.395 57.2497 142.398 57.2603L142.417 57.3133C142.433 57.361 142.475 57.3954 142.526 57.4007C142.553 57.4034 142.581 57.3968 142.603 57.3848C142.587 57.4047 142.578 57.4299 142.577 57.4564L142.567 57.6034C142.565 57.663 142.601 57.716 142.657 57.7346L142.595 57.9889C142.535 58.0114 142.49 58.0617 142.457 58.1386C142.426 58.2128 142.425 58.2922 142.451 58.3757C142.482 58.4658 142.494 58.5227 142.499 58.5572C142.373 58.6022 142.343 58.7691 142.331 58.9413C142.329 58.9771 142.329 59.0129 142.331 59.0473C142.281 59.0645 142.246 59.1122 142.243 59.1665L142.239 59.3281C142.238 59.3679 142.255 59.4036 142.285 59.4288C142.283 59.4315 142.281 59.4354 142.279 59.4394C142.157 59.6845 142.145 59.7666 142.167 59.8342C142.181 59.8726 142.181 59.907 142.169 59.9415C142.114 59.9997 142.074 60.0819 142.045 60.1892C142.043 60.1547 142.029 60.1216 142.003 60.0991C141.982 60.0792 141.957 60.0686 141.93 60.0647C141.951 59.866 141.989 59.5931 142.047 59.2235C142.126 58.6658 142.166 58.3201 142.165 58.1836L142.71 54.5911C143.155 51.604 143.275 51.0317 143.307 50.9549C143.313 50.9429 143.317 50.931 143.318 50.9178L143.423 50.0554C143.603 48.5665 143.701 47.1822 143.711 45.9423C143.726 45.2389 143.681 44.7408 143.573 44.4176C143.541 44.3249 143.495 44.2427 143.437 44.1738C143.378 44.105 143.298 44.044 143.201 43.9963L143.095 43.9434C143.087 43.9394 143.079 43.9367 143.071 43.9341C143.041 43.9261 143.007 43.9155 142.97 43.9049C142.955 43.8996 142.943 43.897 142.951 43.9049C142.933 43.8864 142.91 43.8745 142.886 43.8665C142.838 43.8228 142.763 43.8228 142.714 43.8665L142.681 43.8957C142.669 43.8652 142.646 43.8387 142.615 43.8255C142.571 43.8043 142.519 43.8029 142.461 43.8241C142.445 43.8294 142.429 43.8374 142.417 43.8493C142.325 43.9301 142.23 43.9871 142.131 44.0281C142.115 44.0242 142.097 44.0202 142.075 44.0189C142.067 44.0109 142.058 44.0043 142.049 44.0003C142.018 43.9857 141.982 43.9831 141.949 43.9937C141.929 44.0003 141.91 44.0096 141.895 44.0215C141.875 44.0215 141.854 44.0242 141.83 44.0321C141.798 44.044 141.771 44.0665 141.755 44.097C141.678 44.2507 141.645 44.358 141.649 44.4401C141.637 44.5077 141.641 44.5712 141.661 44.6309C141.687 44.7117 141.741 44.7527 141.797 44.766C141.789 44.8613 141.797 44.9501 141.823 45.0269C141.851 45.113 141.843 45.1422 141.843 45.1422C141.837 45.1568 141.831 45.1726 141.83 45.1885L141.373 50.3031C141.009 54.2401 140.869 55.3554 140.814 55.6336C140.675 55.6959 140.689 55.9131 140.769 56.3211C140.777 56.345 140.782 56.3635 140.783 56.3675C140.783 56.3768 140.783 56.3913 140.785 56.4125C140.779 56.4218 140.777 56.4337 140.774 56.443C140.771 56.4642 140.771 56.4841 140.774 56.5039C140.773 56.5622 140.779 56.6152 140.794 56.6602C140.81 56.7079 140.831 56.741 140.854 56.7622C140.833 56.7795 140.819 56.8033 140.813 56.8311C140.754 57.0974 140.709 57.3663 140.679 57.6286C140.674 57.6723 140.693 57.7147 140.726 57.7425C140.734 57.7491 140.742 57.7531 140.75 57.7584C140.737 57.8167 140.731 57.8485 140.73 57.867C140.631 57.8988 140.597 57.9823 140.571 58.43C140.518 58.7956 140.514 58.9638 140.526 59.0566C140.447 59.1043 140.421 59.2301 140.417 59.6765C140.409 59.7679 140.402 59.8448 140.398 59.903C140.393 59.9746 140.387 59.9931 140.387 59.9944C140.375 60.0276 140.37 60.0488 140.369 60.0607L140.362 60.0885C140.354 60.115 140.351 60.1481 140.351 60.1892C140.351 60.2157 140.359 60.2408 140.373 60.2607C140.335 60.3031 140.305 60.3733 140.315 60.4899C140.333 60.5747 140.342 60.629 140.349 60.6621C140.31 60.7018 140.275 60.7628 140.267 60.8595C140.259 60.9363 140.269 61.0224 140.295 61.1217C140.171 61.3787 140.097 61.9762 140.069 62.9445C140.054 63.122 140.057 63.2492 140.075 63.3379L140.063 63.3419C140.014 63.3578 139.979 63.4028 139.977 63.4545L139.933 64.0612C139.887 64.5513 139.85 64.9501 139.822 65.2773C139.803 65.2746 139.783 65.2773 139.766 65.2839C139.715 65.3011 139.681 65.3408 139.662 65.4018C139.653 65.4256 139.646 65.4468 139.642 65.4654C139.635 65.4905 139.631 65.5197 139.629 65.5515C139.627 65.5793 139.626 65.6031 139.626 65.619C139.626 65.6468 139.63 65.672 139.638 65.6945C139.658 65.7541 139.718 65.7899 139.779 65.782C139.706 66.6814 139.725 66.7344 139.742 66.7834L139.802 66.9C139.791 66.9702 139.805 67.0603 139.845 67.1795C139.869 67.2523 139.909 67.3265 139.961 67.3981C140.015 67.4736 140.074 67.5319 140.138 67.5729C140.213 67.6206 140.27 67.6524 140.335 67.6312C140.369 67.6206 140.397 67.5968 140.413 67.565L140.421 67.5504C140.426 67.5663 140.434 67.5848 140.441 67.606C140.451 67.6378 140.475 67.6656 140.507 67.6802C140.538 67.6961 140.574 67.6974 140.607 67.6855C140.631 67.6776 140.666 67.6471 140.687 67.6206C140.751 67.6643 140.826 67.6961 140.91 67.712C140.966 67.7239 140.999 67.7306 140.99 67.7253C141.01 67.7359 141.033 67.7412 141.063 67.7504C141.086 67.761 141.109 67.7637 141.129 67.7637C141.159 67.7637 141.185 67.7557 141.197 67.7518C141.278 67.7253 141.378 67.6524 141.509 67.5266C141.63 67.4087 141.734 67.2802 141.818 67.1437C141.921 66.9781 141.951 66.8536 141.918 66.7516C141.898 66.6947 141.857 66.6549 141.805 66.6417C141.811 66.5847 141.839 66.4496 141.957 66.1502C142.002 66.0482 142.121 65.6336 142.617 63.1935C143.105 60.9098 143.258 60.2395 143.295 60.1057C143.314 60.0872 143.327 60.0686 143.337 60.0488C143.362 59.9984 143.35 59.9375 143.311 59.9004C143.319 59.7335 143.413 59.1414 143.843 57.1702C143.929 56.7795 144.003 56.4456 144.071 56.1608C144.103 56.1847 144.147 56.1926 144.187 56.1794C144.234 56.1648 144.283 56.1052 144.291 56.0562C144.293 56.0443 144.294 56.0164 144.294 55.982C144.294 55.982 144.297 55.9727 144.311 55.9515C144.322 55.9356 144.33 55.9158 144.333 55.8959C144.346 55.8005 144.383 55.6416 144.439 55.4336C144.497 55.276 144.545 55.1077 144.582 54.9368C144.618 54.7726 144.659 54.6163 144.705 54.4705C144.802 54.1606 144.798 54.1089 144.782 54.0599C144.781 54.0546 144.778 54.0506 144.775 54.0453C144.817 54.0135 144.841 53.9526 144.886 53.8281C144.925 53.7208 144.938 53.6307 144.927 53.5525C144.965 53.5367 144.993 53.5022 145.001 53.4611C145.01 53.4161 145.05 53.281 145.194 52.8876C145.238 52.7498 145.259 52.6213 145.257 52.5008C145.271 52.4941 145.286 52.4849 145.298 52.4729L145.342 52.4292C145.365 52.4067 145.378 52.3749 145.379 52.3431L145.383 52.2252C145.383 52.2199 145.383 52.2146 145.383 52.2093C145.431 52.1643 145.459 52.0861 145.483 51.9868C145.617 51.6622 145.673 51.5775 145.689 51.5563C145.715 51.539 145.735 51.5152 145.745 51.4847L145.889 51.0476C146.025 50.6568 146.035 50.5508 146.022 50.4912C146.095 50.4647 146.143 50.3866 146.23 50.1521C146.327 49.8819 146.561 49.4341 146.929 48.8155C146.942 48.8327 146.958 48.8473 146.978 48.8566L147.013 48.8751C147.026 48.8804 147.039 48.8844 147.051 48.8857C147.045 48.899 147.038 48.9109 147.03 48.9215L147.011 48.9572C146.981 49.0182 147.002 49.091 147.061 49.1268C147.079 49.1374 147.099 49.1427 147.118 49.144C147.173 49.3626 147.245 49.9216 147.31 51.298C147.357 52.4438 147.377 53.1114 147.367 53.2916L147.377 54.4056C147.377 54.4189 147.381 54.4335 147.383 54.4454C147.391 54.4679 147.41 54.5686 147.434 55.0243C147.402 55.0123 147.351 55.0163 147.321 55.0282C147.253 55.0508 147.217 55.1223 147.239 55.1898L147.274 55.2945C147.286 55.3276 147.309 55.3541 147.339 55.37L147.375 55.3872C147.399 55.3978 147.425 55.4031 147.45 55.3991C147.453 55.4482 147.455 55.4958 147.458 55.5435C147.431 55.5396 147.403 55.5488 147.381 55.5621C147.298 55.6151 147.266 55.7038 147.297 55.7952C147.307 55.8283 147.342 55.8668 147.373 55.8827C147.411 55.9012 147.451 55.9012 147.481 55.8959C147.487 55.9979 147.494 56.0946 147.501 56.1887C147.451 56.1966 147.409 56.2324 147.395 56.2814L147.37 56.3781C147.361 56.4138 147.366 56.4509 147.386 56.4814L147.446 56.5768C147.467 56.6086 147.499 56.6298 147.535 56.6351C147.591 57.308 147.651 57.7412 147.714 57.9465C147.714 57.9478 147.714 57.9491 147.715 57.9505C147.626 58.0101 147.661 58.1545 147.759 58.5585C147.806 58.789 147.867 59.0129 147.941 59.2328C148.129 59.703 148.307 60.0329 148.486 60.2422C148.741 60.5376 148.817 60.5945 148.895 60.5667C148.978 60.5548 149.057 60.5588 149.131 60.5813C149.214 60.6064 149.298 60.6409 149.378 60.6846C149.473 60.7349 149.571 60.7787 149.671 60.8118C149.793 60.8542 149.921 60.8528 150.053 60.8078C150.386 60.6979 150.61 60.4117 150.719 59.9468C150.722 59.9295 150.723 59.915 150.726 59.903C150.814 59.8739 150.885 59.8501 151.289 58.4525C151.614 57.3252 151.665 57.1014 151.662 57.0258C151.673 56.9503 151.769 56.5423 152.265 54.7461L152.422 54.1712C152.991 52.061 153.165 51.5152 153.215 51.3933C153.259 51.3629 153.299 51.3006 153.271 51.1999C153.277 51.1721 153.301 51.0767 153.426 50.784C153.563 50.3905 153.646 50.1124 153.678 49.9349C153.707 49.7759 153.743 49.7441 153.742 49.7441C153.775 49.7335 153.802 49.7136 153.818 49.6832C153.834 49.6527 153.837 49.6209 153.826 49.5878C153.826 49.5851 153.822 49.5348 153.902 49.3586L154.038 49.0659C154.047 49.0447 154.051 49.0208 154.049 48.9983C154.054 48.9758 154.078 48.8884 154.206 48.6115C154.215 48.5916 154.225 48.5731 154.233 48.5545C154.238 48.5784 154.245 48.6022 154.253 48.6261C154.275 48.838 154.293 49.0778 154.303 49.3467C154.295 49.348 154.287 49.3494 154.281 49.3507C154.166 49.3904 154.167 49.5004 154.19 49.8382C154.211 50.2011 154.227 50.2488 154.235 50.2713C154.247 50.3097 154.275 50.3376 154.311 50.3508C154.305 50.9986 154.322 51.6914 154.361 52.4147C154.403 53.1843 154.543 53.9261 154.777 54.6216C154.998 55.2826 155.349 55.8721 155.819 56.3754C155.817 56.3953 155.818 56.4165 155.825 56.4364C155.842 56.488 155.874 56.5331 156.142 56.6788C156.169 56.7106 156.214 56.7543 156.273 56.7662C156.398 56.8709 156.554 56.9729 156.754 57.0788C157.113 57.1914 157.359 57.2285 157.522 57.1954C157.538 57.2153 157.555 57.2325 157.575 57.2457C157.666 57.3133 157.79 57.2842 157.887 57.2524C157.939 57.2351 157.975 57.1861 157.975 57.1318C157.975 57.112 157.971 57.0921 157.963 57.0749L158.13 57.0523C158.142 57.051 158.154 57.0484 158.165 57.0431L158.305 56.9821C158.317 56.9782 158.326 56.9729 158.334 56.9689C158.346 56.9742 158.359 56.9795 158.373 56.9848C158.422 57.0007 158.469 57.0007 158.513 56.9874C158.609 56.9543 158.667 56.8881 158.674 56.802C159.018 56.6775 159.53 56.1675 160.239 55.2442C160.643 54.7209 161.155 53.9394 161.762 52.9286C161.747 53.032 161.735 53.134 161.729 53.2267C161.666 53.6625 161.631 53.991 161.625 54.2175C161.537 54.766 161.563 55.2561 161.705 55.6747C161.831 56.0522 162.026 56.3211 162.283 56.4721C162.53 56.6192 162.774 56.7013 163.009 56.7185C163.094 56.7251 163.169 56.7278 163.234 56.7278C163.35 56.7278 163.437 56.7185 163.499 56.6973C163.75 56.6139 163.962 56.4682 164.133 56.2589C164.474 55.8018 164.809 55.1978 165.13 54.4626C165.385 53.8811 165.593 53.334 165.75 52.8293L165.863 53.2704C165.878 53.326 165.926 53.3644 165.982 53.3671C165.995 53.4042 166.011 53.4492 166.029 53.5009C166.102 53.7195 166.183 53.9009 166.273 54.0414C166.325 54.1248 166.435 54.2944 166.573 54.2798C166.589 54.293 166.622 54.3288 166.678 54.4083C166.766 54.5143 166.865 54.607 166.97 54.6825C167.082 54.7646 167.178 54.7977 167.266 54.7885C167.27 54.7911 167.275 54.7924 167.279 54.7951C167.374 54.8772 167.537 54.9514 167.782 54.8838C167.858 54.8693 167.963 54.8388 168.105 54.7924C168.433 54.6838 168.694 54.5553 168.883 54.4096C169.078 54.2613 169.258 54.0228 169.434 53.681C169.601 53.3565 169.798 52.8796 170.019 52.2636C170.227 51.7192 170.326 51.5033 170.379 51.4066C170.439 51.7589 170.514 52.0689 170.603 52.3325C170.723 52.6915 170.897 53.0227 171.115 53.3154C171.343 53.6201 171.653 53.8321 172.037 53.95C172.187 53.995 172.353 54.0175 172.529 54.0175C172.797 54.0175 173.094 53.9645 173.415 53.8585C173.79 53.734 174.159 53.3671 174.545 52.7405C174.91 52.1431 175.261 51.4662 175.583 50.7283C175.811 50.2091 176.014 49.715 176.189 49.2527C176.217 49.6911 176.229 49.7971 176.237 49.8342C176.266 50.1283 176.334 50.4303 176.434 50.7323C176.802 51.8252 177.602 52.3497 178.806 52.2848L179.099 52.2464C179.107 52.2451 179.117 52.2438 179.123 52.2411C179.778 52.0239 180.314 51.3297 180.762 50.119C180.803 50.0766 180.869 50.0024 180.866 49.9137L180.923 49.7415L180.929 49.7401C180.997 49.7176 181.034 49.6501 181.011 49.5825C181.01 49.5772 181.006 49.5255 181.067 49.3401L181.105 49.3123C181.133 49.2924 181.15 49.2619 181.155 49.2275L181.173 49.1056C181.177 49.0831 181.174 49.0619 181.166 49.0407C181.189 49.0142 181.203 48.9798 181.207 48.9387C181.21 48.9109 181.207 48.8817 181.201 48.8486C181.241 48.7612 181.309 48.5784 181.435 48.1346C181.645 47.4206 181.626 47.3676 181.609 47.3173C181.605 47.3054 181.598 47.2921 181.59 47.2815C181.605 47.2802 181.619 47.2762 181.633 47.2723C181.675 47.2577 181.707 47.2219 181.718 47.1782C181.725 47.1504 181.721 47.1226 181.71 47.0974C181.729 47.0842 181.745 47.0669 181.755 47.0457C181.771 47.0153 181.774 46.9795 181.762 46.9477C181.754 46.9199 181.741 46.8311 181.823 46.5728C181.853 46.4271 181.881 46.2801 181.909 46.1304C181.941 45.9595 181.933 45.8005 181.885 45.6601Z" fill="#58595A"/>
</svg>
