<svg width="182" height="65" viewBox="0 0 182 65" fill="none" xmlns="http://www.w3.org/2000/svg">
<path d="M0.192383 49.3137V16.1067C0.192383 7.70698 7.04572 0.898143 15.5004 0.898143H166.135C174.59 0.898143 181.443 7.70698 181.443 16.1067V49.3137C181.443 57.7122 174.59 64.521 166.135 64.521H15.499C7.04572 64.521 0.192383 57.7122 0.192383 49.3137Z" fill="#BEE4F0"/>
<path d="M169.799 60.3939H11.8352C7.7005 60.3939 4.34717 57.0624 4.34717 52.9545V12.4658C4.34717 8.35801 7.7005 5.02645 11.8352 5.02645H169.799C173.935 5.02645 177.287 8.35801 177.287 12.4658V52.9545C177.287 57.0624 173.935 60.3939 169.799 60.3939Z" fill="#105981"/>
<path d="M11.8358 5.50234C7.97181 5.50234 4.82781 8.62592 4.82781 12.4662V52.9535C4.82781 56.7938 7.97181 59.9174 11.8358 59.9174H169.8C173.664 59.9174 176.808 56.7938 176.808 52.9535V12.4662C176.808 8.62592 173.664 5.50234 169.8 5.50234H11.8358ZM169.8 60.8698H11.8358C7.44247 60.8698 3.86914 57.3184 3.86914 52.9535V12.4662C3.86914 8.10003 7.44247 4.54989 11.8358 4.54989H169.8C174.193 4.54989 177.766 8.10003 177.766 12.4662V52.9535C177.766 57.3184 174.193 60.8698 169.8 60.8698Z" fill="#092237"/>
<path d="M38.7413 31.2787L44.7559 20.3727L43.4959 18.5804H38.0826L32.7066 28.5141C32.2559 29.2983 31.5413 29.3738 30.5639 29.3738H29.9439V22.9121C29.9439 21.908 29.6959 21.2218 29.1466 20.8191C29.0186 20.4349 28.8106 20.1382 28.5173 19.9223C28.2079 19.003 27.4519 18.5804 26.1279 18.5804H21.3159V22.7253L23.7599 24.5176V45.0977L25.0199 46.8914H29.9439V35.3124H31.5239C32.1599 35.3124 32.7133 35.3283 33.1519 35.5283L36.9559 43.1187C37.1959 43.5969 37.4386 43.9598 37.7039 44.238C37.9066 44.6089 38.1119 44.9017 38.3346 45.1348C39.1613 46.6503 40.0359 46.8914 41.9373 46.8914H44.7559V42.7451L43.4959 40.9515H42.7826C42.3293 40.9515 41.9412 40.929 41.6172 40.7965L38.7786 35.1256C38.5266 34.6368 38.2679 34.2765 38.0306 34.0115C37.8159 33.6314 37.6012 33.3386 37.3999 33.1147C37.3812 33.0816 37.3639 33.0485 37.3453 33.0167C37.6679 32.761 38.2119 32.2351 38.7413 31.2787Z" fill="#092237"/>
<path d="M103.078 26.834C103.078 29.486 101.611 31.0173 99.1299 31.0173H96.4805V24.5184H100.466C101.417 24.5184 102.219 24.7555 102.843 25.2006C102.995 25.6815 103.078 26.2259 103.078 26.834ZM109.958 40.9523H109.469C109.015 40.9523 108.619 40.9245 108.286 40.7748L106.255 36.769C106.085 36.4326 105.875 36.1676 105.673 35.9663L105.625 35.8722C105.506 35.6377 105.369 35.4377 105.226 35.2695C106.542 34.8138 109.375 32.791 109.375 28.3653C109.375 20.2132 103.046 18.5799 99.8072 18.5799H87.8525V22.7248L90.2965 24.5184V45.0973L91.5552 46.8909H96.4805V36.9929H98.9619C99.7339 36.9929 100.251 37.0512 100.655 37.2817L103.642 43.1182C103.879 43.5792 104.117 43.9315 104.377 44.2071C104.579 44.5753 104.785 44.8694 105.006 45.1039C105.838 46.6127 106.711 46.8909 108.623 46.8909H111.217V42.7446L109.958 40.9523Z" fill="#092237"/>
<path d="M159.014 35.0191C158.826 34.7012 158.617 34.4018 158.385 34.1223C156.172 30.3629 150.588 29.4634 148.05 27.5851C148.029 27.4632 148.018 27.3373 148.018 27.2075C148.018 25.5265 149.672 24.3687 151.928 24.3687C152.745 24.3687 153.56 24.5463 154.201 24.8575V25.8259L155.461 27.6182H159.897V25.153C159.897 19.4847 153.257 18.1308 150.705 18.1308C145.556 18.1308 141.796 21.3061 141.796 25.6007C141.796 27.3917 142.388 28.7759 143.313 29.8913C143.498 30.2092 143.709 30.5073 143.942 30.7894C146.121 34.4959 151.75 35.5848 154.31 37.5665C154.337 37.7056 154.352 37.8513 154.352 38.001C154.352 40.0556 152.548 41.1391 150.518 41.1391C146.796 41.1391 144.052 38.001 144.052 38.001L141.269 41.4372C141.269 41.4372 145.8 47.3386 151.702 47.3386C157.304 47.3386 160.574 43.7541 160.574 39.5323C160.574 37.6155 159.965 36.165 159.014 35.0191Z" fill="#092237"/>
<path d="M64.8103 38.5242H60.3369V40.1297C60.3369 40.653 60.0356 40.9523 59.5089 40.9523H53.7769V35.6113H62.4236V31.465L61.1636 29.6714H53.7769V24.5184H59.3583V25.1529L60.6183 26.9466H65.0929V22.9116C65.0929 19.1296 62.5769 18.5799 61.2769 18.5799H45.1489V22.7248L47.5916 24.5184V42.5579C47.5916 45.4589 50.0823 46.8909 51.4089 46.8909H63.5129C65.2809 46.8909 66.0703 46.1438 66.0703 44.3501V40.3178L64.8103 38.5242Z" fill="#092237"/>
<path d="M86.5378 38.5242H82.0645V40.1297C82.0645 40.653 81.7631 40.9523 81.2365 40.9523H75.5045V35.6113H84.1511V31.465L82.8911 29.6714H75.5045V24.5184H81.0858V25.1529L82.3458 26.9466H86.8205V22.9116C86.8205 19.1296 84.3045 18.5799 83.0045 18.5799H66.8765V22.7248L69.3191 24.5184V42.5579C69.3191 45.4589 71.8098 46.8909 73.1365 46.8909H85.2405C87.0085 46.8909 87.7978 46.1438 87.7978 44.3501V40.3178L86.5378 38.5242Z" fill="#092237"/>
<path d="M126.404 24.4813C128.922 24.4813 131.181 25.5464 132.765 27.2883C133.442 28.568 133.828 30.0503 133.828 31.6518C133.828 36.9558 129.956 40.9895 125.144 40.9895C122.677 40.9895 120.458 39.9271 118.881 38.1798C118.144 36.8048 117.72 35.1953 117.72 33.4454C117.72 28.3653 121.592 24.4813 126.404 24.4813ZM136.812 24.2985C134.408 20.563 130.169 18.1322 125.144 18.1322C117.286 18.1322 111.348 24.0694 111.348 31.6518C111.348 34.9251 112.394 37.8937 114.186 40.241C114.385 40.5483 114.596 40.8477 114.817 41.1378C117.234 44.9025 121.434 47.3386 126.404 47.3386C134.261 47.3386 140.201 41.2517 140.201 33.4454C140.201 30.3126 139.185 27.4632 137.441 25.1953C137.244 24.8867 137.034 24.5873 136.812 24.2985Z" fill="#092237"/>
<path d="M144.051 38.0006C144.051 38.0006 146.795 41.1388 150.518 41.1388C152.547 41.1388 154.351 40.0552 154.351 38.0006C154.351 33.4809 141.795 33.8557 141.795 25.6004C141.795 21.3058 145.555 18.1305 150.706 18.1305C153.826 18.1305 158.638 19.5877 158.638 23.3603V25.8256H154.202V24.6294C154.202 23.3974 152.435 22.5748 150.667 22.5748C148.412 22.5748 146.758 23.7326 146.758 25.4149C146.758 29.9334 159.314 29.0366 159.314 37.7397C159.314 41.9601 156.043 45.5447 150.442 45.5447C144.54 45.5447 141.27 41.4369 141.27 41.4369L144.051 38.0006ZM125.143 40.9891C129.955 40.9891 133.827 36.9542 133.827 31.6515C133.827 26.5727 129.955 22.6874 125.143 22.6874C120.331 22.6874 116.459 26.5727 116.459 31.6515C116.459 36.9542 120.331 40.9891 125.143 40.9891ZM125.143 18.1305C133 18.1305 138.94 24.069 138.94 31.6515C138.94 39.4578 133 45.5447 125.143 45.5447C117.286 45.5447 111.347 39.4578 111.347 31.6515C111.347 24.069 117.286 18.1305 125.143 18.1305ZM99.1297 31.017C101.611 31.017 103.078 29.4856 103.078 26.8336C103.078 24.2187 101.611 22.7245 99.2044 22.7245H95.2204V31.017H99.1297ZM90.2951 22.7245H87.8524V18.5796H99.8071C104.694 18.5796 108.115 21.5667 108.115 26.5727C108.115 31.3521 104.807 33.3325 103.679 33.5564V33.6305C103.679 33.6305 104.506 34.0041 104.995 34.9751L107.588 40.0923C108.002 40.8765 108.642 40.952 109.468 40.952H109.956V45.0969H107.363C105.371 45.0969 104.506 44.7976 103.642 43.1179L100.22 36.4322C99.6564 35.3857 99.0924 35.199 97.7017 35.199H95.2204V45.0969H90.2951V22.7245ZM69.3191 22.7245H66.8764V18.5796H83.0031C84.7711 18.5796 85.5604 19.3638 85.5604 21.119V25.1526H81.0857V23.5458C81.0857 23.0239 80.7857 22.7245 80.2591 22.7245H74.2444V29.6711H82.8911V33.8173H74.2444V40.1294C74.2444 40.6526 74.5444 40.952 75.0711 40.952H81.2364C81.7631 40.952 82.0644 40.6526 82.0644 40.1294V38.5239H86.5377V42.5575C86.5377 44.3498 85.7484 45.0969 83.9817 45.0969H71.8764C70.0711 45.0969 69.3191 44.3498 69.3191 42.5575V22.7245ZM47.5924 22.7245H45.1484V18.5796H61.2764C63.0431 18.5796 63.8324 19.3638 63.8324 21.119V25.1526H59.3591V23.5458C59.3591 23.0239 59.0577 22.7245 58.5324 22.7245H52.5164V29.6711H61.1631V33.8173H52.5164V40.1294C52.5164 40.6526 52.8177 40.952 53.3444 40.952H59.5097C60.0351 40.952 60.3364 40.6526 60.3364 40.1294V38.5239H64.8097V42.5575C64.8097 44.3498 64.0204 45.0969 62.2537 45.0969H50.1484C48.3444 45.0969 47.5924 44.3498 47.5924 42.5575V22.7245ZM23.7591 23.5458C23.7591 23.0239 23.4591 22.7245 22.9324 22.7245H21.3164V18.5796H26.1284C27.9324 18.5796 28.6844 19.3638 28.6844 21.119V29.373H30.5644C31.5417 29.373 32.2551 29.2989 32.7071 28.5133L38.0831 18.5796H43.4964L37.4817 29.4856C36.6537 30.9785 35.7897 31.4276 35.7897 31.4276V31.5018C35.7897 31.5018 36.6911 31.7257 37.5191 33.3325L40.9017 40.0923C41.2777 40.8765 41.9177 40.952 42.7817 40.952H43.4964V45.0969H40.6764C38.6844 45.0969 37.8191 44.836 36.9551 43.1179L32.5937 34.4148C32.1431 33.5564 31.3151 33.5193 30.2631 33.5193H28.6844V45.0969H23.7591V23.5458Z" fill="#BEE4F0"/>
</svg>
