<svg width="138" height="49" viewBox="0 0 138 49" fill="none" xmlns="http://www.w3.org/2000/svg">
<path fill-rule="evenodd" clip-rule="evenodd" d="M8.27412 34.8775C8.85679 36.4202 9.65945 37.7429 10.6915 38.8362C11.7168 39.9309 12.9341 40.7709 14.3421 41.3495C15.7488 41.9322 17.2795 42.2229 18.9341 42.2229C20.5435 42.2229 22.0515 41.9202 23.4595 41.3149C24.8728 40.7149 26.1008 39.8629 27.1488 38.7695C28.1981 37.6762 29.0168 36.3695 29.5995 34.8442C30.1768 33.3242 30.4688 31.6309 30.4688 29.7522V0.784191H37.5115V47.7189H30.5355V43.3615C28.9715 45.0162 27.1261 46.2895 25.0008 47.1855C22.8821 48.0775 20.5888 48.5269 18.1328 48.5269C15.6261 48.5269 13.2928 48.0895 11.1221 47.2202C8.95812 46.3455 7.07945 45.1055 5.49279 43.4962C3.90612 41.8869 2.65546 39.9522 1.73546 37.6989C0.822122 35.4375 0.362122 32.9269 0.362122 30.1509V0.784191H7.40479V29.7522C7.40479 31.6309 7.69145 33.3362 8.27412 34.8775Z" fill="#010202"/>
<path fill-rule="evenodd" clip-rule="evenodd" d="M50.4146 35.3158C51.0199 36.7452 51.8559 37.9958 52.9319 39.0732C54.0039 40.1438 55.2546 40.9958 56.6839 41.6185C58.1133 42.2465 59.6559 42.5612 61.3106 42.5612C62.9199 42.5612 64.4386 42.2465 65.8693 41.6185C67.2986 40.9958 68.544 40.1438 69.5919 39.0732C70.6413 38.0025 71.4826 36.7452 72.1039 35.3158C72.7319 33.8865 73.0466 32.3438 73.0466 30.6892C73.0466 29.0358 72.7319 27.4825 72.1039 26.0305C71.4826 24.5772 70.6413 23.3158 69.5919 22.2385C68.544 21.1678 67.3039 20.3332 65.8693 19.7265C64.4386 19.1212 62.9199 18.8238 61.3106 18.8238C59.7013 18.8238 58.1813 19.1212 56.7506 19.7265C55.3213 20.3332 54.0706 21.1678 52.9999 22.2385C51.9226 23.3158 51.0759 24.5772 50.4479 26.0305C49.8253 27.4825 49.5119 29.0358 49.5119 30.6892C49.5119 32.3438 49.8146 33.8865 50.4146 35.3158ZM49.6466 0.785168V17.8825C51.2106 16.3172 53.0226 15.0785 55.0746 14.1638C57.1319 13.2452 59.3693 12.7852 61.7813 12.7852C64.2826 12.7852 66.632 13.2558 68.8239 14.1985C71.0106 15.1345 72.9119 16.4065 74.5213 18.0158C76.1306 19.6252 77.4039 21.5265 78.34 23.7198C79.2826 25.9065 79.7533 28.2332 79.7533 30.6892C79.7533 33.1505 79.2826 35.4612 78.34 37.6318C77.4039 39.7958 76.1306 41.6852 74.5213 43.2945C72.9119 44.9038 71.0106 46.1772 68.8239 47.1198C66.632 48.0558 64.2826 48.5278 61.7813 48.5278C59.3693 48.5278 57.1213 48.0665 55.0413 47.1532C52.9666 46.2332 51.1439 44.9945 49.5786 43.4292V47.7198H42.8719V0.785168H49.6466Z" fill="#010202"/>
<path fill-rule="evenodd" clip-rule="evenodd" d="M92.9925 21.1341C91.0912 22.7208 89.8299 24.8355 89.2019 27.4701H110.057C109.479 24.8355 108.234 22.7208 106.338 21.1341C104.438 19.5475 102.211 18.7568 99.6659 18.7568C97.1139 18.7568 94.8939 19.5475 92.9925 21.1341ZM83.5725 23.7861C84.4632 21.6381 85.6965 19.7488 87.2619 18.1168C88.8259 16.4861 90.6819 15.2021 92.8245 14.2648C94.9725 13.3235 97.2939 12.8528 99.8005 12.8528C102.257 12.8528 104.538 13.3008 106.635 14.1981C108.738 15.0888 110.55 16.3288 112.07 17.9155C113.589 19.5021 114.773 21.3808 115.625 23.5515C116.471 25.7155 116.898 28.0768 116.898 30.6221V32.8368H89.0725C89.2912 34.2221 89.7405 35.5061 90.4125 36.6901C91.0805 37.8781 91.9219 38.9048 92.9259 39.7728C93.9285 40.6488 95.0725 41.3275 96.3459 41.8208C97.6192 42.3141 98.9699 42.5608 100.401 42.5608C104.471 42.5608 107.757 40.8848 110.258 37.5301L115.154 41.1475C113.454 43.4301 111.351 45.2181 108.851 46.5141C106.35 47.8088 103.529 48.4595 100.401 48.4595C97.8539 48.4595 95.4765 48.0115 93.2619 47.1195C91.0472 46.2221 89.1285 44.9715 87.4965 43.3621C85.8659 41.7528 84.5752 39.8635 83.6392 37.6995C82.7032 35.5288 82.2312 33.1741 82.2312 30.6221C82.2312 28.2115 82.6805 25.9288 83.5725 23.7861Z" fill="#010202"/>
<path fill-rule="evenodd" clip-rule="evenodd" d="M129.571 21.9076C128.141 23.4716 127.423 25.5916 127.423 28.2769V47.7183H120.649V13.5236H127.356V17.7463C128.208 16.3609 129.313 15.2689 130.676 14.4609C132.039 13.6583 133.659 13.2556 135.537 13.2556H137.881V19.5583H135.067C132.835 19.5583 131 20.3436 129.571 21.9076Z" fill="#010202"/>
</svg>
