<svg width="204" height="50" viewBox="0 0 204 50" fill="none" xmlns="http://www.w3.org/2000/svg">
<path d="M153.549 23.9867H153.536V24.6135C153.536 24.644 153.536 24.6767 153.536 24.7112C153.536 24.7681 153.536 24.823 153.536 24.88C153.536 25.0575 153.55 25.2361 153.552 25.4149C153.552 25.5831 153.552 25.7556 153.566 25.9278C153.579 26.112 153.59 26.2986 153.603 26.4867C153.618 26.6483 153.624 26.8134 153.638 26.975C153.658 27.1631 153.681 27.3516 153.701 27.541C153.721 27.6999 153.736 27.8614 153.756 28.0151C153.783 28.2072 153.817 28.3993 153.848 28.5914C153.871 28.7437 153.892 28.8989 153.919 29.0539C153.952 29.246 153.996 29.4407 154.034 29.6328C154.064 29.7811 154.092 29.9334 154.125 30.0778C154.167 30.2699 154.217 30.4582 154.264 30.6476C154.301 30.7986 154.336 30.9469 154.376 31.0952C154.427 31.2873 154.485 31.475 154.543 31.6644C154.569 31.7519 154.594 31.8435 154.62 31.9309H154.583L155.007 33.0926C155.147 33.4767 155.295 33.8543 155.451 34.2252C156.306 36.2532 157.428 38.1399 158.795 39.8712H158.687L160.023 41.3272C164.712 46.4272 171.385 49.3516 178.333 49.3516C181.959 49.3516 185.509 48.5533 188.744 47.0683C191.704 45.7065 194.404 43.7659 196.645 41.3272L197.984 39.8712H197.876C197.984 39.7334 198.1 39.5957 198.208 39.454C198.588 38.948 198.944 38.4257 199.283 37.8971C199.836 37.0308 200.335 36.1381 200.775 35.2122C201.102 34.522 201.399 33.8172 201.66 33.0926L202.084 31.9309H202.051C202.078 31.8435 202.101 31.7558 202.125 31.667C202.183 31.4749 202.244 31.2873 202.295 31.0952C202.335 30.9429 202.37 30.7915 202.407 30.6405C202.454 30.4511 202.502 30.2672 202.546 30.0778C202.579 29.9162 202.61 29.7544 202.644 29.5888C202.678 29.4113 202.719 29.2327 202.749 29.0539C202.779 28.8883 202.803 28.7201 202.831 28.5558C202.858 28.377 202.888 28.1978 202.912 28.019C202.935 27.8574 202.95 27.6961 202.97 27.5345C202.99 27.3464 203.014 27.1591 203.031 26.975C203.044 26.8134 203.054 26.6522 203.064 26.4906C203.078 26.3011 203.095 26.112 203.105 25.9278C203.119 25.7556 203.119 25.5832 203.119 25.4123C203.119 25.2335 203.132 25.0548 203.132 24.88C203.132 24.823 203.132 24.7681 203.132 24.7112C203.132 24.6767 203.132 24.644 203.132 24.6135V23.9867H203.119C202.736 10.7334 191.763 0.0701256 178.331 0.0701256C164.899 0.0701256 153.929 10.7334 153.543 23.9867M178.331 1.80941C190.8 1.80941 200.987 11.6937 201.369 23.9867H195.709C195.327 14.7922 187.68 7.42829 178.331 7.42829C168.983 7.42829 161.336 14.7922 160.952 23.9867H155.292C155.679 11.6937 165.863 1.80941 178.331 1.80941ZM178.331 9.16628C186.714 9.16628 193.578 15.7499 193.96 23.9867H188.504C188.128 18.7384 183.71 14.5762 178.331 14.5762C172.95 14.5762 168.535 18.7384 168.159 23.9867H162.701C163.081 15.7499 169.946 9.16628 178.331 9.16628ZM178.331 16.3155C182.747 16.3155 186.377 19.6948 186.751 23.9867H182.739C182.39 21.8805 180.548 20.2669 178.331 20.2669C176.114 20.2669 174.272 21.8805 173.923 23.9867H169.911C170.281 19.6948 173.916 16.3155 178.331 16.3155ZM178.331 22.0023C179.579 22.0023 180.633 22.8449 180.952 23.9867H175.709C176.028 22.8449 177.08 22.0023 178.331 22.0023ZM174.788 25.7247H201.356C201.356 25.7459 201.356 25.7657 201.356 25.7855C201.356 25.8836 201.343 25.9805 201.339 26.0785C201.326 26.2905 201.312 26.4998 201.295 26.7131C201.282 26.8296 201.271 26.9477 201.257 27.0656C201.237 27.255 201.218 27.4467 201.194 27.6348C201.18 27.7593 201.159 27.8841 201.143 28.0099C201.115 28.1914 201.088 28.3731 201.058 28.552C201.034 28.6791 201.014 28.8071 200.99 28.9316C200.956 29.1105 200.919 29.2897 200.881 29.4685C200.853 29.593 200.827 29.7172 200.8 29.8417C200.759 30.0245 200.712 30.2061 200.664 30.3876C200.634 30.5055 200.607 30.6235 200.572 30.7414C200.519 30.9361 200.46 31.1346 200.4 31.3307C200.37 31.4327 200.342 31.5295 200.311 31.6276C200.282 31.7282 200.244 31.8289 200.209 31.9309H192.709H163.954H156.456C156.422 31.8289 156.384 31.7282 156.351 31.6276C156.32 31.5295 156.293 31.4332 156.265 31.3378C156.205 31.1391 156.144 30.9402 156.09 30.7388C156.059 30.6236 156.028 30.5054 155.998 30.3902C155.954 30.2087 155.907 30.0245 155.863 29.8417C155.835 29.7172 155.808 29.5956 155.784 29.4711C155.744 29.2922 155.71 29.1105 155.676 28.9316C155.652 28.8045 155.628 28.6791 155.608 28.552C155.578 28.3731 155.547 28.1914 155.523 28.0099C155.503 27.8841 155.486 27.7594 155.47 27.6309C155.446 27.4468 155.425 27.2576 155.404 27.0695C155.391 26.9516 155.382 26.8297 155.371 26.7092C155.354 26.5039 155.34 26.2981 155.327 26.0915C155.313 25.9881 155.313 25.8836 155.307 25.7816C155.307 25.7618 155.307 25.7459 155.307 25.7247H174.709C174.723 25.7247 174.727 25.7247 174.736 25.7247C174.753 25.7247 174.771 25.7247 174.788 25.7247ZM160.61 39.3557C160.535 39.2656 160.464 39.1741 160.389 39.0827C160.24 38.9013 160.091 38.712 159.948 38.5239C159.864 38.4153 159.786 38.3079 159.704 38.1966C159.576 38.0217 159.447 37.8431 159.322 37.6656C159.243 37.5503 159.166 37.4322 159.087 37.3169C158.966 37.1355 158.85 36.9539 158.735 36.7684C158.66 36.6532 158.588 36.5371 158.518 36.4179C158.399 36.2231 158.287 36.0242 158.175 35.8215C158.113 35.7168 158.054 35.6099 157.995 35.5052C157.854 35.2429 157.72 34.9766 157.588 34.7064C157.564 34.66 157.542 34.6163 157.518 34.5686C157.375 34.2732 157.243 33.9697 157.114 33.6663H163.954H192.709H199.552C199.423 33.9723 199.287 34.2732 199.145 34.5686C199.124 34.6123 199.102 34.6556 199.08 34.6993C198.948 34.9695 198.809 35.2389 198.667 35.5052C198.609 35.6099 198.552 35.7143 198.491 35.8189C198.379 36.0203 198.263 36.223 198.144 36.4217C198.074 36.537 198.003 36.6505 197.931 36.7684C197.816 36.9499 197.698 37.1355 197.575 37.3169C197.5 37.4322 197.423 37.5504 197.341 37.6617C197.216 37.8432 197.09 38.0217 196.958 38.2005C196.876 38.3078 196.799 38.4153 196.718 38.5239C196.571 38.712 196.422 38.9012 196.27 39.0866C196.199 39.174 196.127 39.2657 196.052 39.3531C195.907 39.5306 195.751 39.7003 195.597 39.8712H181.888H174.774H161.064C160.912 39.703 160.759 39.5305 160.61 39.3557ZM163.648 42.3614C163.618 42.3336 163.584 42.3071 163.554 42.2793C163.312 42.0819 163.075 41.8754 162.841 41.6674C162.82 41.6462 162.8 41.6304 162.78 41.6105H174.774H181.888H193.883C193.861 41.6304 193.839 41.6501 193.818 41.6713C193.587 41.8793 193.353 42.0819 193.112 42.2793C193.079 42.3071 193.044 42.3375 193.007 42.364C192.756 42.5694 192.505 42.7721 192.244 42.9682C192.244 42.9682 192.231 42.9678 192.231 42.9811C191.974 43.1732 191.708 43.3617 191.444 43.5445C191.409 43.5683 191.374 43.591 191.339 43.6188C191.082 43.7911 190.824 43.9592 190.559 44.1208C190.512 44.1512 190.464 44.1815 190.416 44.212C190.156 44.3696 189.891 44.5248 189.623 44.6732C189.579 44.6996 189.532 44.7236 189.484 44.7501C189.21 44.8985 188.931 45.0464 188.653 45.1841C188.623 45.2014 188.592 45.2148 188.566 45.2294C188.28 45.3672 187.992 45.5052 187.704 45.6337C187.687 45.6469 187.669 45.6465 187.653 45.6531C187.361 45.7816 187.067 45.9026 186.768 46.0205C186.724 46.0377 186.68 46.0549 186.632 46.0748C186.347 46.1821 186.056 46.2866 185.764 46.3846C185.713 46.4045 185.659 46.4218 185.608 46.4377C185.314 46.5357 185.021 46.6272 184.723 46.7106C184.679 46.7252 184.632 46.7381 184.584 46.7514C184.276 46.8388 183.967 46.9197 183.655 46.9939C183.638 46.9939 183.617 47.0069 183.597 47.0069C183.288 47.0784 182.978 47.1446 182.666 47.2028C182.635 47.2161 182.6 47.2163 182.569 47.2229C182.261 47.2799 181.949 47.3319 181.633 47.3743C181.583 47.3875 181.532 47.3909 181.478 47.3975C181.172 47.4426 180.864 47.4757 180.556 47.5062C180.501 47.5194 180.447 47.5197 180.394 47.5237C180.082 47.5502 179.766 47.5738 179.454 47.5871C179.41 47.5871 179.368 47.5874 179.324 47.6006C178.996 47.6139 178.664 47.6233 178.331 47.6233C177.999 47.6233 177.667 47.6099 177.338 47.6006C177.294 47.6006 177.252 47.6003 177.208 47.5871C176.893 47.5738 176.582 47.5502 176.27 47.5237C176.215 47.5104 176.162 47.5102 176.103 47.5062C175.795 47.4757 175.489 47.4426 175.181 47.3975C175.129 47.3843 175.079 47.3848 175.026 47.3743C174.714 47.3319 174.402 47.2799 174.092 47.2229C174.059 47.2096 174.028 47.2095 173.998 47.2028C173.682 47.1446 173.374 47.0784 173.066 47.0069C173.044 46.9936 173.024 46.9939 173.004 46.9939C172.692 46.9197 172.383 46.8388 172.077 46.7514C172.031 46.7381 171.983 46.7252 171.936 46.7106C171.64 46.6272 171.346 46.5357 171.054 46.4377C171.003 46.4218 170.95 46.4045 170.895 46.3846C170.603 46.2866 170.315 46.1821 170.027 46.0748C169.983 46.0549 169.939 46.0377 169.895 46.0205C169.596 45.9026 169.302 45.7816 169.01 45.6531C168.992 45.6398 168.975 45.6397 168.959 45.6291C168.667 45.5007 168.381 45.3672 168.097 45.2294C168.069 45.2148 168.04 45.2014 168.01 45.1841C167.728 45.0464 167.454 44.8985 167.179 44.7501C167.131 44.7236 167.083 44.6996 167.039 44.6732C166.771 44.5248 166.507 44.3697 166.246 44.2081C166.199 44.1816 166.151 44.1512 166.103 44.1208C165.842 43.9592 165.582 43.7905 165.323 43.6143C165.29 43.5905 165.255 43.5683 165.222 43.5445C164.951 43.3617 164.685 43.1693 164.424 42.9746C164.163 42.7759 163.906 42.5733 163.651 42.3653M39.1309 35.7381H41.8776L44.0602 30.4833H50.5682C50.8055 31.0728 51.0389 31.6406 51.2669 32.1864C51.4936 32.7335 51.7041 33.2382 51.9041 33.7032C52.0975 34.1681 52.2708 34.5766 52.4228 34.9263C52.5762 35.28 52.6948 35.5526 52.7788 35.7381H55.5256C55.4242 35.4983 55.2416 35.0746 54.9762 34.4612C54.7122 33.8453 54.3963 33.1034 54.0229 32.2278C53.6509 31.3522 53.2402 30.3914 52.7895 29.3462C52.3415 28.3064 51.8843 27.2415 51.4189 26.1671C50.9549 25.0889 50.4936 24.0236 50.0456 22.9732C49.5989 21.9214 49.1909 20.9613 48.8255 20.0923C48.4629 19.2273 48.1509 18.4827 47.8856 17.8588C47.6216 17.2362 47.4415 16.8042 47.3402 16.5684L39.1309 35.7381ZM47.0615 23.2636C47.0789 23.2292 47.1188 23.1112 47.1868 22.9085C47.2548 22.7071 47.3055 22.5218 47.3402 22.3535C47.3735 22.5218 47.4215 22.7071 47.4788 22.9085C47.5402 23.1112 47.5776 23.2292 47.5949 23.2636C47.6616 23.4477 47.7643 23.7004 47.8989 24.021C48.0349 24.3403 48.1949 24.7114 48.3669 25.1432C48.5469 25.5711 48.7403 26.0425 48.9536 26.5578C49.1643 27.0731 49.3909 27.6056 49.6283 28.1606H45.0269L47.0615 23.2636ZM127.272 17.9727C126.133 18.4721 125.136 19.1466 124.282 20.0049C123.427 20.8647 122.752 21.8606 122.264 22.9958C121.768 24.1324 121.524 25.3315 121.524 26.5979C121.524 27.8921 121.768 29.1038 122.264 30.2298C122.752 31.3584 123.427 32.3482 124.282 33.2013C125.136 34.0504 126.133 34.7183 127.272 35.2057C128.404 35.6945 129.626 35.9405 130.928 35.9405C132.22 35.9405 133.431 35.6945 134.576 35.2057C135.723 34.7183 136.72 34.0504 137.574 33.2013C138.432 32.3482 139.107 31.3584 139.608 30.2298C140.107 29.1038 140.358 27.8921 140.358 26.5979C140.358 25.3315 140.107 24.1324 139.608 22.9958C139.107 21.8606 138.432 20.8647 137.574 20.0049C136.72 19.1466 135.723 18.4721 134.576 17.9727C133.431 17.4786 132.22 17.2282 130.928 17.2282C129.626 17.2282 128.404 17.4786 127.272 17.9727ZM128.388 32.808C127.574 32.4543 126.862 31.9749 126.252 31.3695C125.642 30.7628 125.163 30.051 124.818 29.2363C124.471 28.4203 124.295 27.5478 124.295 26.6219C124.295 25.6959 124.471 24.8225 124.818 23.9932C125.163 23.1679 125.637 22.4544 126.237 21.8477C126.841 21.2423 127.547 20.7629 128.364 20.4092C129.175 20.0555 130.039 19.8801 130.955 19.8801C131.867 19.8801 132.728 20.0555 133.536 20.4092C134.339 20.7629 135.048 21.2423 135.655 21.8477C136.266 22.4544 136.743 23.1655 137.092 23.9841C137.439 24.7988 137.615 25.672 137.615 26.5979C137.615 27.5384 137.439 28.4203 137.092 29.2363C136.743 30.051 136.272 30.7628 135.668 31.3695C135.068 31.9749 134.367 32.4543 133.559 32.808C132.756 33.1604 131.895 33.3364 130.982 33.3364C130.063 33.3364 129.202 33.1604 128.388 32.808ZM110.155 17.9332C108.991 18.4048 107.982 19.0655 107.116 19.9066C106.251 20.7465 105.573 21.7468 105.071 22.9085C104.573 24.0716 104.322 25.3405 104.322 26.7221C104.322 27.966 104.532 29.1476 104.956 30.2563C105.38 31.369 105.991 32.3458 106.787 33.1883C107.584 34.0308 108.554 34.6967 109.696 35.1921C110.84 35.6902 112.132 35.9405 113.572 35.9405C114.251 35.9405 114.888 35.8866 115.488 35.7859C116.092 35.6879 116.639 35.5592 117.13 35.4082C117.622 35.2558 118.05 35.0941 118.415 34.9153C118.778 34.7405 119.063 34.5762 119.265 34.4199L118.096 31.9219C118.046 31.9921 117.886 32.0927 117.628 32.2278C117.364 32.3629 117.031 32.4937 116.635 32.6288C116.235 32.7626 115.794 32.8806 115.302 32.9826C114.811 33.0873 114.299 33.134 113.776 33.134C112.792 33.134 111.891 32.9525 111.071 32.5816C110.245 32.2107 109.544 31.7127 108.962 31.0888C108.375 30.4662 107.916 29.7586 107.588 28.9704C107.259 28.1783 107.092 27.3528 107.092 26.497C107.092 25.6214 107.266 24.7793 107.615 23.9712C107.96 23.1618 108.439 22.4501 109.049 21.8341C109.66 21.2248 110.385 20.736 111.223 20.3717C112.06 20.0114 112.969 19.8258 113.952 19.8258C114.224 19.8258 114.526 19.8457 114.858 19.8801C115.187 19.9132 115.512 19.9652 115.831 20.0328C116.156 20.099 116.465 20.1798 116.764 20.2818C117.059 20.3864 117.316 20.5098 117.536 20.6621C117.707 20.3588 117.841 20.1161 117.944 19.928C118.045 19.7452 118.138 19.5807 118.226 19.439C118.307 19.2933 118.388 19.1556 118.465 19.0205C118.54 18.8867 118.646 18.7173 118.782 18.516C118.599 18.3477 118.331 18.1821 117.984 18.0205C117.635 17.8655 117.235 17.7238 116.787 17.6072C116.336 17.488 115.859 17.3979 115.35 17.3304C114.844 17.2628 114.343 17.2282 113.851 17.2282C112.548 17.2282 111.315 17.4656 110.155 17.9332ZM91.9455 35.7381H94.7161V17.4287H91.9455V35.7381ZM75.1696 17.4287V20.0554H79.7202V35.7381H82.4909V20.0554H87.1401V17.4287H75.1696ZM59.3376 17.4287V35.7381H62.1309V29.1955H64.7215H65.231C65.539 29.6671 65.8643 30.1796 66.2109 30.7214C66.5563 31.2711 66.9121 31.8265 67.2788 32.3895C67.6415 32.9551 68.0043 33.5242 68.3709 34.0939C68.7336 34.6661 69.0869 35.2161 69.4256 35.7381H72.7549C71.9455 34.5088 71.1375 33.2489 70.3415 31.9613C69.5441 30.675 68.8082 29.5025 68.1296 28.4375C68.6389 28.1712 69.0696 27.8347 69.4256 27.444C69.7816 27.0466 70.0735 26.6178 70.3042 26.1568C70.5309 25.6892 70.6975 25.2092 70.7988 24.7112C70.9002 24.2197 70.9508 23.7178 70.9508 23.2131C70.9508 22.2885 70.7882 21.4673 70.4696 20.7533C70.1442 20.0353 69.6936 19.4286 69.1069 18.9345C68.5229 18.4351 67.8282 18.0614 67.0242 17.8084C66.2176 17.5554 65.3322 17.4287 64.3656 17.4287H59.3376ZM62.1309 20.0049H64.6748C65.3321 20.0049 65.8883 20.1162 66.3363 20.3348C66.7869 20.5507 67.1468 20.8278 67.4175 21.1537C67.6895 21.4809 67.8789 21.8343 67.9883 22.2158C68.0989 22.592 68.1535 22.943 68.1535 23.2636C68.1535 23.5828 68.0989 23.9363 67.9883 24.3231C67.8789 24.7072 67.6921 25.0759 67.4321 25.4097C67.1668 25.7462 66.8069 26.0279 66.3496 26.2571C65.8949 26.4836 65.3228 26.5979 64.6468 26.5979H62.1309V20.0049ZM32.5242 17.4287V25.2066H23.2975V17.4287H20.5269V35.7381H23.2975V27.8308H32.5242V35.7381H35.2949V34.5117V32.3759V29.6367C35.2949 28.6365 35.2949 27.6189 35.3083 26.5843C35.3083 25.5471 35.3216 24.5297 35.3216 23.5256V20.7863V18.6538V17.4287H32.5269H32.5242ZM0.933594 17.4287V35.7381H6.47493C7.72693 35.7381 8.91356 35.5291 10.0322 35.1184C11.1509 34.7038 12.1349 34.1114 12.9829 33.3364C13.8269 32.5655 14.4948 31.6249 14.9868 30.5228C15.4775 29.418 15.7256 28.1848 15.7256 26.8243C15.7256 25.7116 15.5429 24.5964 15.1763 23.4783C14.8136 22.3577 14.2269 21.3495 13.4229 20.4461C12.6189 19.5466 11.5723 18.8194 10.2869 18.2631C8.99761 17.708 7.42415 17.4287 5.55615 17.4287H0.933594ZM3.70426 20.0793H6.32292C7.13358 20.0793 7.93349 20.2103 8.72282 20.4739C9.50949 20.7362 10.2189 21.1376 10.8429 21.686C11.4696 22.2318 11.9789 22.9149 12.3722 23.7442C12.7589 24.5695 12.9549 25.537 12.9549 26.6458C12.9549 27.6936 12.7789 28.6128 12.4336 29.4116C12.0869 30.213 11.6028 30.8845 10.9855 31.429C10.3642 31.9787 9.63486 32.3931 8.79753 32.6819C7.96019 32.9693 7.0482 33.1101 6.0682 33.1101H3.70426V20.0793Z" fill="url(#paint0_linear_26_1077)"/>
<defs>
<linearGradient id="paint0_linear_26_1077" x1="0.936927" y1="24.7106" x2="203.141" y2="24.7106" gradientUnits="userSpaceOnUse">
<stop stop-color="#927040"/>
<stop offset="0.359223" stop-color="#D7AA6C"/>
<stop offset="0.371508" stop-color="#D7AA6C"/>
<stop offset="0.963308" stop-color="#927040"/>
<stop offset="1" stop-color="#927040"/>
</linearGradient>
</defs>
</svg>
