<svg width="133" height="91" viewBox="0 0 133 91" fill="none" xmlns="http://www.w3.org/2000/svg">
<path fill-rule="evenodd" clip-rule="evenodd" d="M20.021 70.0055L19.2263 45.642H15.257L10.1743 61.358L5.05964 45.642H1.05697L0.327637 70.0055H4.2343L4.6463 53.9107L8.5223 66.3136H11.7943L15.6063 53.9107L16.0823 70.0055H20.021ZM37.429 58.865C37.429 64.1981 37.2383 66.7865 33.3316 66.7865C29.4236 66.7865 29.201 64.1981 29.201 58.865V56.7826C29.201 51.4812 29.4236 48.861 33.3316 48.861C37.2383 48.861 37.429 51.4812 37.429 56.7826V58.865ZM41.4303 56.7508C41.4303 50.1234 40.4783 45.2645 33.3316 45.2645C26.1516 45.2645 25.2303 50.1234 25.2303 56.7508V58.8967C25.2303 65.5241 26.1516 70.3843 33.3316 70.3843C40.4783 70.3843 41.4303 65.5241 41.4303 58.8967V56.7508ZM46.8636 45.642V70.0055H53.9783C60.9983 70.0055 61.793 66.0911 61.793 58.8967V56.719C61.793 50.2493 61.253 45.642 54.0423 45.642H46.8636ZM50.7703 49.2399H53.8836C57.5996 49.2399 57.7916 51.1646 57.7916 56.7508V58.8345C57.7916 64.2935 57.569 66.4077 53.8516 66.4077H50.7703V49.2399ZM67.193 70.0055H79.8676V66.4077H71.0996V59.2756H78.9143V55.6778H71.0996V49.2399H79.8676V45.642H67.193V70.0055ZM96.5756 70.0055H101.056L96.2263 60.7275C98.705 59.8439 99.4663 57.3509 99.4663 53.3742C99.4663 48.3881 98.4503 45.642 92.9543 45.642H85.2036V70.0055H89.1116V61.0745H91.9703L96.5756 70.0055ZM95.5596 53.3742C95.5596 56.5931 95.0503 57.4767 92.9223 57.4767H89.1116V49.2399H93.0183C95.0503 49.2399 95.5596 50.028 95.5596 53.3742ZM117.097 70.0055H121.448V45.642H117.669V63.3795L109.822 45.642H105.438V70.0055H109.25V52.6165L117.097 70.0055Z" fill="#411412"/>
<path fill-rule="evenodd" clip-rule="evenodd" d="M73.482 74.8968H100.261C101.341 74.8968 102.23 75.6227 102.23 76.4745V89.0032C102.23 89.8563 101.341 90.5809 100.261 90.5809H73.482C72.402 90.5809 71.5127 89.8563 71.5127 89.0032V76.4745C71.5127 75.6227 72.402 74.8968 73.482 74.8968Z" fill="#E11577"/>
<path fill-rule="evenodd" clip-rule="evenodd" d="M75.6423 81.2087H76.5316V80.0085L76.9769 79.5038L78.2156 81.2087H79.2636L77.5796 78.9368L79.2009 77.2333H78.1516L76.5316 78.9686V77.2333H75.6423V81.2087ZM80.3116 81.2087H81.1689V79.5038C81.1689 79.0945 81.3916 78.9051 81.7409 78.9051C82.0596 78.9051 82.2503 79.0945 82.2503 79.5038V81.2087H83.1076V79.2521C83.1076 78.558 82.7263 78.1155 82.0916 78.1155C81.6463 78.1155 81.3916 78.3368 81.1689 78.5885V78.1791H80.3116V81.2087ZM85.9663 81.2722C86.9196 81.2722 87.6489 80.5768 87.6489 79.6946C87.6489 78.8097 86.9196 78.1155 85.9983 78.1155C85.0449 78.1155 84.3143 78.8097 84.3143 79.6946C84.3143 80.5768 85.0129 81.2722 85.9663 81.2722ZM85.9983 80.5463C85.5223 80.5463 85.1729 80.1357 85.1729 79.6946C85.1729 79.2521 85.4889 78.8415 85.9663 78.8415C86.4436 78.8415 86.7916 79.2521 86.7916 79.6946C86.7916 80.1675 86.4743 80.5463 85.9983 80.5463ZM89.3969 81.2405H90.1916L90.7956 79.378L91.3663 81.2405H92.1596L93.1129 78.1791H92.2556L91.7463 80.0085L91.1769 78.1473H90.4129L89.8423 80.0085L89.3343 78.1791H88.4756L89.3969 81.2405ZM76.5636 88.0254H77.4529V84.8701H78.6596V84.0488H75.3569V84.8701H76.5636V88.0254ZM79.8036 88.0254H80.6929V86.3206C80.6929 85.9113 80.8836 85.7218 81.2329 85.7218C81.5516 85.7218 81.7409 85.9113 81.7409 86.3206V88.0254H82.6316V86.0371C82.6316 85.343 82.2503 84.9323 81.5823 84.9323C81.1383 84.9323 80.8836 85.1535 80.6929 85.4066V83.8911H79.8036V88.0254ZM84.6316 88.9408C85.1396 88.9408 85.3943 88.7196 85.6169 88.089L86.7916 84.9641H85.9023L85.2356 87.0478L84.5369 84.9641H83.6156L84.8223 88.0254C84.7276 88.1831 84.6636 88.2453 84.5049 88.2453C84.4089 88.2453 84.2503 88.1831 84.1556 88.1208L83.8383 88.7514C84.0596 88.8772 84.3143 88.9408 84.6316 88.9408ZM88.8889 88.089C89.5236 88.089 90.0316 87.7724 90.0316 87.1114V87.0796C90.0316 86.5418 89.5556 86.3206 89.1116 86.1961C88.7943 86.0689 88.5063 85.9748 88.5063 85.8172C88.5063 85.69 88.6023 85.596 88.8263 85.596C89.0476 85.596 89.3343 85.7218 89.6503 85.8795L89.9689 85.2794C89.6503 85.0595 89.2383 84.9323 88.8263 84.9323C88.2209 84.9323 87.7129 85.2794 87.7129 85.9113C87.7129 86.51 88.1903 86.7008 88.6343 86.8266C88.9529 86.9207 89.2689 86.9842 89.2689 87.1737C89.2689 87.3313 89.1423 87.4267 88.8889 87.4267C88.6023 87.4267 88.2529 87.2995 87.9369 87.0478L87.5543 87.6148C87.9689 87.9314 88.4449 88.089 88.8889 88.089ZM92.7329 88.089C93.2729 88.089 93.6849 87.8678 93.9703 87.5194L93.4623 87.0796C93.2409 87.2995 93.0183 87.3936 92.7329 87.3936C92.3516 87.3936 92.0663 87.2041 91.9703 86.7948H94.0983C94.1303 86.7312 94.1303 86.6372 94.1303 86.5749C94.1303 85.7218 93.6529 84.9323 92.6356 84.9323C91.7463 84.9323 91.1116 85.6278 91.1116 86.51C91.1116 87.4572 91.8116 88.089 92.7329 88.089ZM91.9703 86.2583C92.0329 85.8795 92.2556 85.6278 92.6356 85.6278C92.9863 85.6278 93.2409 85.8795 93.2729 86.2583H91.9703ZM95.3996 88.0254H96.2569V83.8911H95.3996V88.0254ZM97.8463 88.0254H98.7049V85.7218H99.4023V85.0264H98.7049V84.9019C98.7049 84.6806 98.7996 84.5535 99.0209 84.5535C99.1489 84.5535 99.2756 84.5853 99.4023 84.6488V83.9229C99.2449 83.8593 99.0543 83.8289 98.7996 83.8289C98.4823 83.8289 98.2276 83.9229 98.0689 84.0806C97.9103 84.2382 97.8463 84.4912 97.8463 84.8065V84.9959H97.4649V85.7218H97.8463V88.0254Z" fill="white"/>
<path fill-rule="evenodd" clip-rule="evenodd" d="M103.596 0.670025C91.525 0.670025 81.709 9.94805 81.709 21.3721C81.709 31.6621 89.7143 40.2447 100.165 41.7919C100.165 41.4767 100.165 41.1601 100.133 40.8448C90.2543 39.2671 82.6943 31.1243 82.6943 21.3721C82.6943 10.4845 92.097 1.61717 103.596 1.61717C115.126 1.61717 124.497 10.4845 124.497 21.3721C124.497 30.0195 118.589 37.3741 110.361 40.0553C110.234 40.4037 110.076 40.7825 109.917 41.1919C118.938 38.6048 125.514 30.715 125.514 21.3721C125.514 9.94805 115.698 0.670025 103.596 0.670025Z" fill="#411412"/>
<path fill-rule="evenodd" clip-rule="evenodd" d="M109.156 30.683H108.456C107.821 33.0502 106.773 35.6068 105.438 38.3515C104.74 34.7537 100.897 27.6217 97.4648 25.8227C99.4662 28.443 102.612 35.8267 102.548 42.0447C102.929 42.0752 103.31 42.0752 103.66 42.0752C104.994 42.0752 106.264 41.9494 107.504 41.7281C109.694 36.648 110.33 33.082 110.33 30.683H109.156Z" fill="#411412"/>
<path fill-rule="evenodd" clip-rule="evenodd" d="M107.218 30.2724C107.218 30.2724 113.983 36.048 121.798 24.5922C117.89 22.8873 111.982 19.7001 106.646 29.3252C108.488 27.7793 111.856 24.8121 115.699 24.8439C110.584 25.9804 108.33 29.1994 107.218 30.2724Z" fill="#21AF59"/>
<path fill-rule="evenodd" clip-rule="evenodd" d="M109.504 20.7734C109.504 20.7734 115.572 24.1182 119.892 16.2616C117.002 15.2191 112.618 13.1049 109.156 20.3005C110.394 19.1017 112.714 16.8285 115.508 16.7027C111.856 17.7121 110.267 19.9521 109.504 20.7734Z" fill="#4F8ECB"/>
<path fill-rule="evenodd" clip-rule="evenodd" d="M106.074 17.5534C106.074 17.5534 112.3 17.9323 112.554 9.98024C109.853 10.2637 105.597 10.3273 105.693 17.3004C106.201 15.8817 107.121 13.1992 109.25 11.999C106.804 14.2404 106.36 16.6076 106.074 17.5534Z" fill="#E11577"/>
<path fill-rule="evenodd" clip-rule="evenodd" d="M94.1615 21.5302C94.1615 21.5302 89.5562 24.2763 86.1255 16.7018C88.6028 16.1017 92.4148 14.777 94.6068 21.0573C93.6855 19.9526 92.0028 17.8384 89.7135 17.4595C92.6375 18.6583 93.6215 20.7725 94.1615 21.5302Z" fill="#21AF59"/>
<path fill-rule="evenodd" clip-rule="evenodd" d="M102.103 23.1088C102.103 23.1088 93.8445 24.9713 93.1445 12.3789C96.9579 12.6942 103.089 12.6942 102.738 22.7617C102.041 20.7111 100.801 16.8908 97.7832 15.219C101.055 17.9651 101.722 21.7523 102.103 23.1088Z" fill="#E11577"/>
<path fill-rule="evenodd" clip-rule="evenodd" d="M97.5606 28.4422C97.5606 28.4422 92.3833 34.3119 84.6006 25.0338C87.7446 23.1091 92.4459 19.6371 97.9419 27.5587C96.2259 26.3903 93.0819 24.1503 89.8113 24.5914C94.2899 25.0338 96.5139 27.6209 97.5606 28.4422Z" fill="#F08F22"/>
<path fill-rule="evenodd" clip-rule="evenodd" d="M99.7835 11.2747C99.6249 10.1713 98.8302 8.65451 95.4635 7.92991C95.3689 9.63345 95.3355 12.5676 99.4035 12.8206C99.4649 12.7266 99.8795 11.9675 99.7835 11.2747Z" fill="#BA8A2D"/>
<path fill-rule="evenodd" clip-rule="evenodd" d="M101.119 25.0967C100.896 24.4344 100.197 23.519 97.9414 23.4236C98.0694 24.5284 98.3867 26.4227 101.056 26.1697C101.087 26.0756 101.277 25.5391 101.119 25.0967Z" fill="#BA8A2D"/>
<path fill-rule="evenodd" clip-rule="evenodd" d="M104.645 15.092C105.218 13.8932 105.375 11.7472 102.358 8.81306C101.119 10.4848 99.1805 13.5143 103.215 16.4803C103.374 16.418 104.263 15.8815 104.645 15.092Z" fill="#4F8ECB"/>
<path fill-rule="evenodd" clip-rule="evenodd" d="M104.518 29.7993C105.66 29.2946 107.059 27.9368 106.772 24.1495C104.93 24.5602 101.754 25.4424 102.739 29.8615C102.866 29.9264 103.787 30.1145 104.518 29.7993Z" fill="#F08F22"/>
<path fill-rule="evenodd" clip-rule="evenodd" d="M108.901 21.8465C108.678 20.6146 107.63 18.8806 103.724 18.2487C103.692 20.2039 103.852 23.5819 108.552 23.6759C108.646 23.5514 109.028 22.6665 108.901 21.8465Z" fill="#E33F47"/>
<path fill-rule="evenodd" clip-rule="evenodd" d="M8.74449 86.227C8.74449 83.1961 7.76049 82.4397 5.18716 81.6502C3.28183 81.0514 2.58183 80.8302 2.58183 79.0949C2.58183 77.7689 2.99516 77.1701 4.61649 77.1701C5.79116 77.1701 6.96716 77.4218 8.10983 77.7689L8.33249 75.3394C7.15649 75.0864 5.72716 74.897 4.61649 74.897C1.18449 74.897 0.104492 76.5701 0.104492 79.4102C0.104492 82.3457 1.24849 83.0398 3.62983 83.7021C5.56849 84.3327 6.23516 84.5539 6.23516 86.3846C6.23516 87.9318 5.82183 88.4988 4.01116 88.4988C2.77383 88.4988 1.43916 88.214 0.389826 87.8046L0.104492 90.1414C1.18449 90.5189 2.58183 90.8037 3.98049 90.8037C7.37916 90.8037 8.74449 89.3519 8.74449 86.227ZM15.6378 77.2019C16.6218 77.2019 17.8938 77.39 18.9098 77.6749L19.1325 75.3712C18.1472 75.0864 16.8765 74.897 15.5738 74.897C11.2232 74.897 10.5232 77.6113 10.5232 82.1549V83.5127C10.5232 87.9623 10.9045 90.7719 15.7325 90.7719C17.0685 90.7719 18.3058 90.552 19.1645 90.2977L18.9418 87.9941C17.9885 88.2789 16.7485 88.4988 15.7325 88.4988C13.1925 88.4988 13.0338 87.2999 13.0338 83.4491V82.2185C13.0338 78.3054 13.4472 77.2019 15.6378 77.2019ZM30.8218 90.5189V75.15H28.3765V81.5244H23.6432V75.15H21.1645V90.5189H23.6432V83.7975H28.3765V90.5189H30.8218ZM40.8925 83.4809C40.8925 86.8575 40.7645 88.4988 38.2872 88.4988C35.8405 88.4988 35.6832 86.8575 35.6832 83.4809V82.1867C35.6832 78.8419 35.8405 77.1701 38.2872 77.1701C40.7645 77.1701 40.8925 78.8419 40.8925 82.1867V83.4809ZM43.4005 82.1549C43.4005 77.9901 42.8298 74.897 38.2872 74.897C33.7752 74.897 33.1725 77.9901 33.1725 82.1549V83.5127C33.1725 87.6788 33.7752 90.7719 38.2872 90.7719C42.8298 90.7719 43.4005 87.6788 43.4005 83.5127V82.1549ZM53.2165 83.4809C53.2165 86.8575 53.0578 88.4988 50.6125 88.4988C48.1338 88.4988 48.0072 86.8575 48.0072 83.4809V82.1867C48.0072 78.8419 48.1338 77.1701 50.6125 77.1701C53.0578 77.1701 53.2165 78.8419 53.2165 82.1867V83.4809ZM55.7258 82.1549C55.7258 77.9901 55.1218 74.897 50.6125 74.897C46.0698 74.897 45.4978 77.9901 45.4978 82.1549V83.5127C45.4978 87.6788 46.0698 90.7719 50.6125 90.7719C55.1218 90.7719 55.7258 87.6788 55.7258 83.5127V82.1549ZM60.5232 75.15H58.0765V90.5189H65.6365V88.2471H60.5232V75.15Z" fill="#411412"/>
<path fill-rule="evenodd" clip-rule="evenodd" d="M124.243 39.9606L125.642 38.5406L125.26 38.1617L124.275 39.1075L123.482 38.3525L124.339 37.4676L123.958 37.0887L123.099 37.9418L122.368 37.2159L123.354 36.2674L122.942 35.8594L121.544 37.2464L124.243 39.9606ZM126.499 35.7323C127.135 36.2052 127.198 36.6781 126.69 37.3417C126.467 37.6252 126.214 37.8464 125.959 38.0041L125.546 37.5934C125.8 37.4676 126.055 37.2464 126.244 36.9947C126.499 36.6476 126.467 36.49 126.15 36.237C125.8 35.9853 125.642 36.0793 125.228 36.331C124.752 36.7112 124.434 36.837 123.862 36.3641C123.291 35.9535 123.132 35.4806 123.64 34.8169C123.831 34.597 124.084 34.3427 124.307 34.1546L124.752 34.5652C124.498 34.7533 124.275 34.9428 124.084 35.164C123.862 35.4806 123.895 35.6369 124.18 35.8594C124.498 36.1111 124.656 36.0157 125.07 35.7323C125.608 35.3534 125.927 35.2898 126.499 35.7323ZM128.055 35.3216L128.406 34.8169L125.674 33.0498L126.15 32.3239L125.674 32.0086L124.403 33.9334L124.879 34.2486L125.355 33.5227L128.055 35.3216ZM125.674 32.0404L129.167 33.5863L129.644 32.6074C130.088 31.598 129.58 31.2509 128.532 30.778L128.214 30.619C127.292 30.2097 126.594 29.9885 126.15 30.9979L125.674 32.0404ZM126.435 31.6933L126.658 31.2509C126.882 30.7449 127.166 30.8402 127.991 31.1873L128.278 31.3463C129.072 31.6933 129.358 31.851 129.103 32.3875L128.914 32.7968L126.435 31.6933ZM130.978 29.452L131.423 27.8425L130.915 27.6849L130.756 28.2214L127.579 27.3378L127.451 27.7789L127.706 28.6638L128.246 28.6943L128.087 28.0637L130.596 28.7883L130.438 29.2943L130.978 29.452ZM130.596 25.1905C131.199 25.3177 131.486 25.4753 131.358 26.0754C131.327 26.2648 131.264 26.4542 131.138 26.6755L131.678 26.8331C131.772 26.6119 131.866 26.3271 131.931 26.1072C132.122 25.1282 131.519 24.7507 130.342 24.5295L130.024 24.4659C129.008 24.246 128.278 24.2129 128.087 25.1905C127.928 25.98 128.308 26.3271 129.072 26.4847C129.866 26.6423 130.279 26.4224 130.406 25.7919C130.438 25.5694 130.438 25.3495 130.375 25.1282L130.596 25.1905ZM129.866 25.6329C129.803 25.9482 129.644 26.0118 129.199 25.9164C128.691 25.8224 128.532 25.6647 128.595 25.2859C128.691 24.813 129.04 24.8765 129.739 25.0024L129.866 25.0329C129.898 25.1905 129.93 25.4448 129.866 25.6329ZM128.914 23.7704L129.008 22.3835L132.216 23.834L132.248 23.2353L128.976 21.7516L128.532 21.7198L128.372 23.74L128.914 23.7704ZM130.883 19.7315C131.519 19.6997 131.835 19.7951 131.866 20.3938C131.866 20.5846 131.866 20.8058 131.804 21.0562H132.344C132.376 20.8363 132.439 20.5515 132.407 20.3316C132.376 19.3209 131.708 19.0996 130.502 19.1314L130.183 19.1632C129.135 19.195 128.436 19.3209 128.468 20.3316C128.5 21.1198 128.976 21.3728 129.739 21.341C130.564 21.3092 130.883 21.027 130.85 20.3634C130.85 20.1422 130.787 19.9209 130.691 19.7315H130.883ZM130.311 20.3316C130.311 20.6469 130.183 20.7422 129.739 20.774C129.199 20.774 129.008 20.6786 129.008 20.2998C128.976 19.8269 129.326 19.7951 130.024 19.762H130.152C130.215 19.8905 130.311 20.1422 130.311 20.3316Z" fill="#411412"/>
</svg>
