<svg width="149" height="57" viewBox="0 0 149 57" fill="none" xmlns="http://www.w3.org/2000/svg">
<path fill-rule="evenodd" clip-rule="evenodd" d="M21.5486 21.4576C20.1046 20.4866 18.5419 19.6097 16.8953 19.0229C15.5126 18.5314 14.0726 18.2532 12.6019 18.2532C10.4899 18.2532 8.54193 18.8069 6.96859 20.2416C5.50326 21.5768 4.81526 23.2353 4.81526 25.2051C4.81526 26.6663 5.17659 28.0373 6.16993 29.1421C7.48459 30.6019 10.6446 31.9981 12.4246 32.7452C12.7153 32.8618 13.0033 32.9823 13.2939 33.0989C15.7113 34.0725 19.2086 35.6423 20.9873 37.5975C21.8966 38.5963 22.6019 39.7223 23.0753 40.986C23.5633 42.2868 23.7913 43.6393 23.7913 45.0263C23.7913 48.2863 22.6686 51.0933 20.2513 53.3148C17.7566 55.6078 14.6593 56.5443 11.2899 56.5443C9.44459 56.5443 7.63926 56.2277 5.89526 55.6237C3.99393 54.9653 2.20859 54.0049 0.551261 52.875L0.308594 52.7094V47.3895L1.20859 48.0823C2.82459 49.3222 4.60859 50.4958 6.49526 51.2893C7.99526 51.9212 9.59393 52.3212 11.2313 52.3212C13.3979 52.3212 15.5006 51.8205 17.1166 50.3183C18.6726 48.8718 19.2446 46.9616 19.2446 44.8792C19.2446 43.3519 18.8539 41.9358 17.8113 40.7886C16.3979 39.2321 12.7726 37.6703 10.8499 36.8769C8.19526 35.7813 4.63793 34.1083 2.71259 31.9239C1.08459 30.0786 0.445928 27.7988 0.445928 25.3734C0.445928 22.2153 1.51526 19.4759 3.86726 17.3193C6.32326 15.0674 9.42193 14.2064 12.7193 14.2064C14.3406 14.2064 15.9379 14.4289 17.4939 14.874C19.1353 15.3442 20.6913 16.0635 22.1499 16.9392L22.4206 17.1008V22.0431L21.5486 21.4576ZM42.9393 18.4294V33.234H60.9699V36.9298H42.9393V52.1464H62.0339V55.9575H38.5713V14.7349H61.5713V18.4294H42.9393ZM49.5033 11.9703H45.5913L52.2806 0.873485H58.1193L49.5033 11.9703ZM94.1713 35.2766C94.5633 35.5588 94.9366 35.8635 95.2913 36.1933C95.9299 36.7868 96.4966 37.4571 96.9846 38.1843L108.661 55.9575H103.659L97.0619 45.8476C96.0113 44.2381 94.9273 42.6458 93.7886 41.0973C93.1499 40.2283 92.4219 39.2414 91.6566 38.4797C90.9526 37.7803 90.0419 37.3604 89.0859 37.1179C87.5633 36.7298 85.6286 36.694 84.0619 36.694H81.3113V55.9575H76.9419V14.7349H87.3246C90.8046 14.7349 94.6819 15.2886 97.5246 17.4425C100.102 19.3964 101.174 22.1412 101.174 25.323C101.174 27.6757 100.609 29.9263 99.1339 31.802C97.8553 33.43 96.0819 34.5295 94.1713 35.2766ZM127.923 34.099L111.622 14.7349H117.09L130.139 30.28L143.187 14.7349H148.655L132.353 34.099V55.9575H127.923V34.099ZM81.3113 18.5473V32.8233H83.2353C85.2446 32.8233 87.5659 32.8565 89.5579 32.6034C90.5113 32.4816 91.5139 32.267 92.3953 31.8735C93.6486 31.3145 94.7419 30.5197 95.4819 29.354C96.2473 28.1472 96.5086 26.7325 96.5086 25.323C96.5086 23.3069 95.8566 21.5994 94.2326 20.3502C92.3659 18.9116 89.7966 18.5473 87.5006 18.5473H81.3113Z" fill="#231F20"/>
</svg>
