<svg width="139" height="73" viewBox="0 0 139 73" fill="none" xmlns="http://www.w3.org/2000/svg">
<path d="M68.2065 2.37384C68.2065 3.05472 68.6439 3.61403 69.2345 3.76901L66.7719 8.56579C66.4292 9.21621 65.5892 9.37104 65.0292 8.87561L61.6319 5.87375C62.0053 5.65518 62.2559 5.25397 62.2559 4.79033C62.2559 4.07898 61.6919 3.51999 61.0079 3.51999C60.3226 3.51999 59.7625 4.07898 59.7625 4.79033C59.7625 5.50434 60.3226 6.05938 61.0079 6.05938C61.0719 6.05938 61.1639 6.05945 61.2585 6.02898L61.0719 9.24624C61.0385 10.0516 60.2279 10.5471 59.5119 10.2397L56.6466 8.939C56.7999 8.78534 56.9252 8.53476 56.9252 8.28572C56.9252 7.75982 56.5212 7.36013 56.0225 7.36013C55.5239 7.36013 55.1172 7.75982 55.1172 8.28572C55.1172 8.78512 55.5239 9.18544 56.0225 9.18544C56.1785 9.18544 56.3012 9.15647 56.4265 9.09553L60.1666 14.8522H69.6412H79.0812L82.8212 9.09553C82.9772 9.21608 83.1639 9.31027 83.3853 9.31027C83.8839 9.31027 84.2865 8.87555 84.2865 8.38145C84.2865 7.85555 83.8839 7.45004 83.3853 7.45004C82.8826 7.45004 82.4799 7.85555 82.4799 8.38145C82.4799 8.56558 82.5745 8.78534 82.6652 8.939L79.7359 10.2397C79.0199 10.5471 78.2105 10.0516 78.1798 9.24624L78.0238 6.08978C78.1492 6.12025 78.2705 6.15317 78.4265 6.15317C79.1118 6.15317 79.6746 5.59418 79.6746 4.88283C79.6746 4.16883 79.1118 3.61378 78.4265 3.61378C77.7425 3.61378 77.1825 4.16883 77.1825 4.88283C77.1825 5.28421 77.3385 5.62471 77.6172 5.87375L74.2226 8.87561C73.6599 9.37104 72.8186 9.21621 72.4759 8.56579L70.0146 3.76901C70.6079 3.61403 71.0412 3.05472 71.0412 2.37384C71.0412 1.5989 70.4212 0.952785 69.6412 0.952785C68.8612 0.952785 68.2065 1.5989 68.2065 2.37384ZM74.3439 15.8431H70.3559V31.3233H74.3439L78.0545 27.793V30.053L74.3439 34.699V32.7489H70.3559V46.6489L81.7945 31.4481V22.0351H78.0852L74.3439 25.8422V19.8993H81.7945V15.8431H74.3439ZM64.8398 15.8431H57.3625V19.8993H64.8398V21.1062V25.8422V32.7489V34.7294L61.2892 30.2716V22.0655H57.3625V31.4481H57.3932L68.7999 46.6489V33.5503H68.8306V15.8431H64.8398Z" fill="url(#paint0_linear_26_1794)"/>
<path d="M108.658 57.2974C107.068 58.8777 106.288 60.9841 106.288 63.5844C106.288 66.3398 107.068 68.4763 108.658 69.9918C110.215 71.5112 112.118 72.2834 114.392 72.2834C116.634 72.2834 118.536 71.5112 120.123 69.9918C121.683 68.4763 122.463 66.3398 122.463 63.5844C122.463 60.9841 121.683 58.8777 120.123 57.2974C118.536 55.6866 116.634 54.9158 114.392 54.9158C112.118 54.9158 110.215 55.6866 108.658 57.2974ZM111.182 67.7324C110.276 66.7416 109.842 65.3502 109.842 63.5844C109.842 61.8186 110.276 60.4584 111.182 59.4345C112.083 58.4436 113.144 57.9481 114.392 57.9481C115.607 57.9481 116.664 58.4436 117.57 59.4345C118.472 60.4584 118.91 61.8186 118.91 63.5844C118.91 65.3502 118.472 66.7416 117.57 67.7324C116.664 68.7524 115.607 69.2473 114.392 69.2473C113.144 69.2473 112.083 68.7524 111.182 67.7324ZM93.9789 56.3388C92.8869 57.2979 92.327 58.4742 92.327 59.8691C92.327 61.2309 92.8869 62.3752 93.9789 63.2442C95.0709 64.1105 96.315 64.7002 97.719 64.9466C99.1537 65.2261 100.12 65.5647 100.648 65.9356C101.147 66.3105 101.426 66.8061 101.426 67.3916C101.426 67.9175 101.178 68.3519 100.679 68.691C100.18 69.0619 99.4963 69.2473 98.6549 69.2473C97.2203 69.2473 96.0029 68.6012 95.0403 67.3004L91.9536 68.5073C92.4523 69.5922 93.2936 70.5182 94.4776 71.2932C95.6603 72.0681 97.0336 72.4678 98.6549 72.4678C100.523 72.4678 102.05 71.9735 103.202 71.0131C104.388 70.0222 104.979 68.7524 104.979 67.237C104.979 65.6911 104.388 64.4812 103.202 63.5844C102.05 62.7154 100.584 62.1289 98.903 61.9144C97.811 61.6945 97.0336 61.4493 96.5656 61.2003C96.1283 60.9194 95.8803 60.4891 95.8803 59.8691C95.8803 59.3432 96.0977 58.9083 96.535 58.5069C96.9697 58.1334 97.5323 57.9481 98.2483 57.9481C99.4963 57.9481 100.492 58.4132 101.272 59.4041L104.48 58.1033C103.142 55.9679 101.052 54.9158 98.2483 54.9158C96.471 54.9158 95.0403 55.3784 93.9789 56.3388ZM79.831 56.3388C78.739 57.2979 78.1803 58.4742 78.1803 59.8691C78.1803 61.2309 78.739 62.3752 79.831 63.2442C80.923 64.1105 82.1683 64.7002 83.571 64.9466C85.003 65.2261 85.999 65.5647 86.5016 65.9356C87.0003 66.3105 87.2776 66.8061 87.2776 67.3916C87.2776 67.9175 87.031 68.3519 86.5323 68.691C86.0336 69.0619 85.379 69.2473 84.5043 69.2473C83.0736 69.2473 81.8563 68.6012 80.8896 67.3004L77.807 68.5073C78.3056 69.5922 79.1469 70.5182 80.3296 71.2932C81.5136 72.0681 82.9176 72.4678 84.5043 72.4678C86.3763 72.4678 87.9016 71.9735 89.0549 71.0131C90.2389 70.0222 90.8323 68.7524 90.8323 67.237C90.8323 65.6911 90.2389 64.4812 89.0549 63.5844C87.9016 62.7154 86.467 62.1289 84.755 61.9144C83.663 61.6945 82.8829 61.4493 82.4189 61.2003C81.9816 60.9194 81.731 60.4891 81.731 59.8691C81.731 59.3432 81.9509 58.9083 82.3843 58.5069C82.8216 58.1334 83.3856 57.9481 84.1003 57.9481C85.3456 57.9481 86.3457 58.4132 87.1217 59.4041L90.3643 58.1033C88.9936 55.9679 86.9056 54.9158 84.1003 54.9158C82.3243 54.9158 80.923 55.3784 79.831 56.3388ZM56.4269 57.2974C54.8696 58.8777 54.091 60.9841 54.091 63.5844C54.091 66.3398 54.8696 68.4763 56.4269 69.9918C58.0176 71.5112 59.9163 72.2834 62.1616 72.2834C64.4056 72.2834 66.3389 71.5112 67.8949 69.9918C69.4856 68.4763 70.2656 66.3398 70.2656 63.5844C70.2656 60.9841 69.4856 58.8777 67.8949 57.2974C66.3389 55.6866 64.4056 54.9158 62.1616 54.9158C59.9163 54.9158 58.0176 55.6866 56.4269 57.2974ZM58.983 67.7324C58.0777 66.7416 57.6443 65.3502 57.6443 63.5844C57.6443 61.8186 58.0777 60.4584 58.983 59.4345C59.855 58.4436 60.947 57.9481 62.1616 57.9481C63.4083 57.9481 64.467 58.4436 65.3723 59.4345C66.2736 60.4584 66.7123 61.8186 66.7123 63.5844C66.7123 65.3502 66.2736 66.7416 65.3723 67.7324C64.467 68.7524 63.4083 69.2473 62.1616 69.2473C60.947 69.2473 59.855 68.7524 58.983 67.7324ZM22.3976 56.3388C21.307 57.2979 20.7776 58.4742 20.7776 59.8691C20.7776 61.2309 21.307 62.3752 22.4283 63.2442C23.5203 64.1105 24.735 64.7002 26.139 64.9466C27.603 65.2261 28.567 65.5647 29.099 65.9356C29.5976 66.3105 29.8443 66.8061 29.8443 67.3916C29.8443 67.9175 29.5976 68.3519 29.099 68.691C28.631 69.0619 27.9456 69.2473 27.1016 69.2473C25.671 69.2473 24.4536 68.6012 23.487 67.3004L20.3709 68.5073C20.8683 69.5922 21.7137 70.5182 22.8963 71.2932C24.0803 72.0681 25.4843 72.4678 27.1016 72.4678C28.9736 72.4678 30.4683 71.9735 31.6523 71.0131C32.8056 70.0222 33.3989 68.7524 33.3989 67.237C33.3989 65.6911 32.8056 64.4812 31.6523 63.5844C30.4683 62.7154 29.0349 62.1289 27.3216 61.9144C26.2296 61.6945 25.4496 61.4493 25.0163 61.2003C24.5483 60.9194 24.331 60.4891 24.331 59.8691C24.331 59.3432 24.5483 58.9083 24.9856 58.5069C25.3896 58.1334 25.9829 57.9481 26.6976 57.9481C27.9123 57.9481 28.9083 58.4132 29.6883 59.4041L32.931 58.1033C31.5603 55.9679 29.4723 54.9158 26.6976 54.9158C24.9216 54.9158 23.487 55.3784 22.3976 56.3388ZM135.396 55.1015V66.2765L128.011 55.1015H124.331V72.068H127.886V60.829L135.332 72.068H138.947V55.1015H135.396ZM72.1336 72.068H75.6869V55.1015H72.1336V72.068ZM39.5056 55.1015V72.068H46.8003C48.6376 72.068 50.0377 71.6028 51.035 70.6729C52.0323 69.7469 52.5309 68.5072 52.5309 67.0209C52.5309 65.4101 51.7843 64.1714 50.2896 63.2746C51.503 62.4096 52.127 61.2306 52.127 59.7443C52.127 58.5375 51.6896 57.4524 50.7576 56.5225C49.8523 55.5661 48.543 55.1015 46.8003 55.1015H39.5056ZM43.0589 58.1337H46.2069C46.7656 58.1337 47.2029 58.319 47.6069 58.6635C47.9829 59.033 48.2003 59.4675 48.2003 59.9603C48.2003 60.4584 47.9829 60.8888 47.6069 61.2637C47.2029 61.6041 46.7656 61.7578 46.2069 61.7578H43.0589V58.1337ZM43.0589 64.7914H46.8003C47.4203 64.7914 47.9189 64.9752 48.3563 65.4097C48.7603 65.8111 48.9803 66.3106 48.9803 66.8961C48.9803 67.4856 48.7603 67.9811 48.3563 68.4116C47.9189 68.817 47.4203 69.0332 46.8003 69.0332H43.0589V64.7914ZM10.7123 55.1015V65.1956C10.7123 66.5561 10.4003 67.5768 9.74699 68.2273C9.09232 68.9108 8.28163 69.2473 7.3763 69.2473C6.44297 69.2473 5.66427 68.8766 5.0096 68.1361C4.35494 67.4221 4.01229 66.2152 4.01229 64.6057H0.458984V64.6653C0.489651 67.2364 1.14299 69.1561 2.48299 70.396C3.85632 71.6333 5.47764 72.2834 7.3763 72.2834C9.27897 72.2834 10.8989 71.6333 12.2389 70.396C13.6083 69.1561 14.2629 67.5466 14.2629 65.5954V55.1015H10.7123Z" fill="url(#paint1_linear_26_1794)"/>
<defs>
<linearGradient id="paint0_linear_26_1794" x1="-76.3206" y1="25.671" x2="177.338" y2="22.3837" gradientUnits="userSpaceOnUse">
<stop stop-color="#987F2F"/>
<stop offset="0.28" stop-color="#A6822E"/>
<stop offset="1" stop-color="#98782D"/>
</linearGradient>
<linearGradient id="paint1_linear_26_1794" x1="-75.8037" y1="65.5106" x2="177.855" y2="62.2232" gradientUnits="userSpaceOnUse">
<stop stop-color="#987F2F"/>
<stop offset="0.28" stop-color="#A6822E"/>
<stop offset="1" stop-color="#98782D"/>
</linearGradient>
</defs>
</svg>
