<svg width="160" height="65" viewBox="0 0 160 65" fill="none" xmlns="http://www.w3.org/2000/svg">
<path fill-rule="evenodd" clip-rule="evenodd" d="M1.10645 0.89889H158.741V64.5215H1.10645V0.89889Z" fill="#373435" stroke="#373435" stroke-width="0.666667" stroke-miterlimit="2.613"/>
<path fill-rule="evenodd" clip-rule="evenodd" d="M22.1155 22.2759C12.0208 30.2756 19.0795 42.8242 22.0261 44.0059C18.8115 40.3868 17.4688 31.0068 23.9461 25.8366C24.9435 25.0405 26.1101 24.3185 27.3941 23.6814L27.4928 19.049C25.5901 19.8928 23.7781 20.9592 22.1155 22.2759Z" fill="#60AB50"/>
<path fill-rule="evenodd" clip-rule="evenodd" d="M31.4123 27.7376H38.547C40.455 27.7376 43.175 27.2117 43.175 25.2843C43.175 23.443 40.455 22.4799 38.547 22.4799H31.4123V27.7376ZM31.4123 19.0901H38.547C41.479 19.0901 42.4323 18.0687 42.4323 16.9004C42.4323 15.9652 41.515 14.3875 38.547 14.3875H31.4123V19.0901ZM47.0603 16.8116C47.0603 18.3893 46.1416 19.9087 43.8456 20.7552C46.743 21.4864 47.8016 24.0285 47.8016 25.3134C47.8016 29.8703 43.6696 31.3301 38.547 31.3301H26.8203V10.8811H38.547C43.4216 10.8811 47.0603 12.6932 47.0603 16.8116Z" fill="white"/>
<path fill-rule="evenodd" clip-rule="evenodd" d="M65.7078 24.1153C65.7078 26.8614 68.0038 28.4974 70.8651 28.4974C77.6464 28.4974 77.6464 19.7625 70.8651 19.7625C68.0038 19.7625 65.7078 21.3693 65.7078 24.1153ZM76.1638 16.929H80.2958V31.3308H76.2344L76.0224 29.2273C75.0331 30.9215 72.3131 31.7402 70.3704 31.7693C65.2131 31.7971 61.3984 29.169 61.3984 24.1153C61.3984 19.1491 65.3891 16.5501 70.4758 16.5793C72.8078 16.5793 75.0331 17.9278 76.0224 19.3584L76.1638 16.929Z" fill="white"/>
<path fill-rule="evenodd" clip-rule="evenodd" d="M96.7591 31.3306V23.7945C96.7591 20.6669 93.8084 19.0535 88.3177 21.3823C88.1884 21.4366 88.1044 21.5505 88.1044 21.671V31.3306H83.8311V16.8995H87.6817L87.9631 19.2999C89.7297 17.8679 91.4964 16.6955 93.6857 16.6955C97.7831 16.6955 101.068 19.2376 101.068 23.7653V31.3306H96.7591Z" fill="white"/>
<path fill-rule="evenodd" clip-rule="evenodd" d="M103.731 20.1719H112.142V23.4438H104.17C104.305 21.5615 103.731 20.1719 103.731 20.1719Z" fill="white"/>
<path fill-rule="evenodd" clip-rule="evenodd" d="M121.781 21.4588C121.887 24.8182 124.077 28.4107 129.905 28.4107C135.733 28.4107 137.924 24.7891 137.995 21.4297C138.065 17.9816 135.733 14.1268 129.905 14.1268C124.077 14.1268 121.675 18.0107 121.781 21.4588ZM142.587 21.3714C142.516 26.6582 138.595 31.9463 129.905 31.9463C121.216 31.9463 117.189 26.7748 117.189 21.4005C117.189 16.025 121.357 10.6203 129.905 10.6203C138.419 10.6203 142.657 16.025 142.587 21.3714Z" fill="white"/>
<path fill-rule="evenodd" clip-rule="evenodd" d="M55.6226 29.3269C55.308 30.4211 52.8986 30.5721 52.3213 29.4461C53.0546 29.7495 54.616 29.9151 55.6226 29.3269Z" fill="#5EAC50"/>
<path fill-rule="evenodd" clip-rule="evenodd" d="M134.917 38.523C135.378 38.6409 135.83 38.7668 136.264 38.9006C137.99 39.7589 140.033 41.4545 140.094 41.5022C139.993 41.3115 139.632 40.6703 139.052 39.9749C139.08 39.9868 139.108 39.9987 139.134 40.012C139.072 39.9497 139 39.8941 138.933 39.8345C138.045 38.8092 136.698 37.7269 135.021 37.8262C132.837 37.1427 130.072 36.7016 126.882 36.4539C128.448 36.2459 130.137 34.7358 130.266 34.3847C130.474 34.3212 131.033 34.0178 132.948 33.5581C130.884 33.9635 127.394 34.8735 126.049 35.8008C126.516 34.9067 130.077 34.1357 130.152 34.1172C129.644 34.0602 125.573 33.676 125.537 36.2168C125.658 36.2896 125.784 36.3439 125.914 36.3863C123.558 36.2353 120.993 36.181 118.272 36.2115C120.49 35.8141 122.81 33.7277 122.992 33.2336C123.297 33.1409 124.108 32.6998 126.892 32.0308C123.89 32.6189 118.817 33.9423 116.86 35.2908C117.538 33.9913 122.718 32.8706 122.826 32.8428C122.088 32.7594 116.169 32.203 116.116 35.8949C116.402 36.0684 116.709 36.1757 117.028 36.2313C114.881 36.2711 112.649 36.3598 110.353 36.487C112.396 35.5505 114.133 33.3767 114.224 32.868C114.532 32.7262 115.316 32.1407 118.166 31.0426C115.068 32.0825 109.894 34.1953 108.056 35.9187C108.536 34.4192 113.862 32.5116 113.973 32.4666C113.168 32.4772 106.734 32.6653 107.376 36.6738C104.714 36.8553 101.99 37.0831 99.2437 37.3454C101.808 36.8089 104.256 33.8257 104.366 33.2045C104.688 33.0574 105.504 32.4467 108.476 31.3022C105.246 32.3858 99.853 34.5901 97.937 36.3863C98.437 34.8232 103.989 32.8349 104.105 32.7872C103.265 32.7978 96.5584 32.9938 97.2277 37.1719C97.605 37.3388 97.993 37.4182 98.385 37.4275C95.7424 37.6872 93.0824 37.9773 90.4397 38.2872C92.6317 37.0248 94.2957 34.3159 94.3224 33.7211C94.6464 33.5277 95.4384 32.7792 98.477 31.2307C95.1517 32.7395 89.6544 35.6882 87.849 37.8395C88.1624 36.0869 93.8624 33.3568 93.9797 33.2919C93.081 33.3886 85.9744 34.2774 87.1757 38.6807C84.7357 38.9827 82.325 39.298 79.969 39.6199C82.2157 38.2727 83.9077 35.5107 83.9344 34.8974C84.2744 34.6947 85.1064 33.9092 88.2917 32.2851C84.805 33.8668 79.0424 36.9599 77.149 39.2145C77.4784 37.3759 83.453 34.5132 83.577 34.447C82.6344 34.549 75.169 35.4816 76.4464 40.11C73.8304 40.4809 71.3077 40.8518 68.9157 41.2134C71.8677 39.8477 74.189 36.1227 74.2224 35.3465C74.6197 35.1093 75.5877 34.1966 79.2984 32.3037C75.237 34.1476 68.5237 37.7494 66.317 40.3762C66.701 38.2342 73.6624 34.9 73.8064 34.8232C72.701 34.9411 63.9064 36.0379 65.521 41.5102C65.705 41.5711 65.8877 41.6135 66.0717 41.6466C62.3664 42.2175 59.0597 42.7448 56.3304 43.1766C59.5557 41.738 62.1037 37.6527 62.141 36.8076C62.569 36.5532 63.6144 35.5663 67.6184 33.525C63.2357 35.5147 55.993 39.4 53.6117 42.2348C54.025 39.9245 61.5357 36.3267 61.6917 36.2419C60.4997 36.3704 51.0104 37.5534 52.753 43.4588C52.993 43.5382 53.2317 43.5899 53.4704 43.627C53.021 43.6959 52.589 43.7634 52.193 43.8231C49.3304 44.2575 46.689 44.4006 44.2504 44.3211C47.6797 43.1514 50.6517 39.0476 50.7504 38.1879C51.197 37.9561 52.3117 37.0261 56.465 35.1954C51.937 36.9546 44.413 40.4597 41.829 43.162C42.4064 40.8836 50.1784 37.6792 50.3397 37.6037C49.1584 37.6686 39.877 38.3535 40.8344 44.0522C37.809 43.6601 35.153 42.9024 32.8464 41.9076C36.769 41.9115 41.3597 37.7984 41.681 36.9016C42.1744 36.748 43.4904 36.022 48.017 34.908C43.1344 35.8935 34.889 38.0952 31.7184 40.3087C32.8077 38.1839 41.229 36.3135 41.4064 36.2671C40.237 36.1426 31.129 35.3332 30.545 40.7763C26.385 38.4753 23.601 35.4206 22.0264 32.7143C23.4024 36.5108 25.5197 39.2238 28.133 41.1393C28.0397 41.1605 27.9464 41.179 27.853 41.2055C26.1464 48.1455 37.4984 49.9881 38.9237 50.1947C38.7344 50.0874 29.5837 45.4657 28.9504 42.6997C31.9544 46.1783 40.8037 51.1313 46.137 53.6972C41.2504 51.0863 39.9477 49.8662 39.4237 49.5443C39.361 48.8899 37.9504 46.5572 35.8944 44.4947C37.553 44.8656 39.2824 45.0961 41.057 45.2206C40.9424 52.2824 52.3304 52.4123 53.7597 52.4043C53.5517 52.3261 43.645 49.1112 42.4424 46.4618C46.109 49.4635 55.793 53.0521 61.5397 54.7993C56.2197 52.9408 54.6904 51.9248 54.1104 51.6837C53.8264 50.771 50.1504 46.8857 46.253 45.3213C47.717 45.2842 49.189 45.2034 50.6557 45.0934C51.2277 45.0524 51.909 44.9808 52.6877 44.8854C52.677 44.8921 52.665 44.8974 52.653 44.904C53.2944 52.0572 64.673 51.228 66.093 51.1008C65.8784 51.0399 55.685 48.6528 54.181 46.1068C58.1677 48.7999 68.1837 51.5777 74.0824 52.8454C68.593 51.432 66.9584 50.5445 66.3557 50.3511C65.9264 49.3695 60.977 45.1159 56.5677 44.3463C58.8544 44.0006 61.5464 43.5661 64.5504 43.0786C65.6744 50.008 76.7944 48.8542 78.193 48.6833C77.9757 48.6303 67.7024 46.5532 66.093 44.0496C70.1864 46.6234 80.2997 49.0979 86.2397 50.1855C80.701 48.939 79.0317 48.1004 78.4224 47.9256C77.9757 47.0089 73.361 43.276 69.109 42.3421C71.309 41.9871 73.6224 41.6188 76.0237 41.2492C77.013 47.7295 87.3704 46.6539 88.6704 46.4962C88.469 46.4459 78.953 44.5225 77.4624 42.203C81.2544 44.5874 90.621 46.8791 96.1237 47.8872C90.9944 46.732 89.4477 45.9558 88.8824 45.7928C88.469 44.9411 84.169 41.4651 80.221 40.6134C82.3504 40.2981 84.5277 39.9855 86.733 39.6848C88.0384 45.822 97.849 44.4351 99.081 44.2377C98.8864 44.1979 89.6877 42.6812 88.1464 40.5074C91.8917 42.664 100.968 44.5397 106.281 45.3146C101.316 44.3847 99.7984 43.6919 99.2504 43.5568C98.8424 42.8084 95.0984 39.9934 91.501 39.0595C93.7104 38.7827 95.933 38.5217 98.1517 38.2846C99.0344 42.8282 106.237 41.8082 107.137 41.6652C106.996 41.636 100.314 40.5339 99.1944 38.9549C101.914 40.522 108.506 41.8837 112.365 42.4467C108.76 41.7711 107.657 41.2691 107.26 41.1711C106.966 40.6319 104.301 38.625 101.714 37.9256C103.7 37.7375 105.673 37.5706 107.621 37.4328C107.538 37.4792 107.458 37.5295 107.381 37.5865C108.118 41.5857 114.429 40.6915 115.216 40.5657C115.092 40.5405 109.273 39.5801 108.297 38.2051C110.668 39.5708 116.408 40.7564 119.769 41.2466C116.629 40.6584 115.669 40.2199 115.322 40.1352C115.06 39.653 112.616 37.8196 110.306 37.2606C112.317 37.144 114.296 37.0606 116.22 37.0155C116.584 40.6134 122.317 40.1736 123.034 40.1047C122.925 40.0755 117.762 38.8873 116.994 37.6024C119.018 38.9575 124.093 40.3445 127.081 40.9737C124.3 40.2689 123.47 39.8225 123.165 39.7258C122.977 39.3033 121.124 37.6872 119.198 36.9798C121.074 36.9798 122.886 37.0248 124.626 37.1149C124.978 40.5776 130.598 40.31 131.309 40.2623C131.202 40.2292 126.081 38.8979 125.364 37.5931C127.336 39.0026 132.36 40.5286 135.325 41.2426C132.57 40.461 131.757 39.9921 131.456 39.8874C131.309 39.5205 129.968 38.2409 128.39 37.405C130.272 37.6011 132.033 37.8713 133.65 38.2223C133.537 40.6213 139.025 41.9076 139.796 41.787C140.042 41.9592 140.892 42.3315 142.977 43.9794C140.944 42.2175 137.269 39.4278 134.917 38.523Z" fill="#60AB50"/>
<mask id="mask0_26_1795" style="mask-type:luminance" maskUnits="userSpaceOnUse" x="22" y="31" width="121" height="24">
<path d="M108.057 35.9182C108.536 34.4186 113.863 32.5111 113.972 32.4687C113.168 32.482 106.736 32.6672 107.376 36.673C104.715 36.8545 101.992 37.0834 99.2454 37.3457C101.808 36.8065 104.256 33.8261 104.365 33.2048C104.687 33.0564 105.504 32.4471 108.475 31.3012C105.247 32.3874 99.852 34.5909 97.936 36.3858C98.4374 34.8227 103.989 32.8353 104.104 32.7876C103.267 32.8008 96.5587 32.993 97.2267 37.1736C97.6041 37.3392 97.9934 37.4173 98.3867 37.4265C95.7414 37.6862 93.0827 37.9762 90.4387 38.2862C92.632 37.0264 94.2934 34.3138 94.3214 33.7203C94.6467 33.5282 95.44 32.7812 98.4787 31.2314C95.152 32.7415 89.6547 35.6886 87.8481 37.8373C88.1627 36.086 93.8627 33.3576 93.9787 33.294C93.08 33.3881 85.9761 34.2768 87.1761 38.6801C84.7347 38.9834 82.324 39.296 79.9707 39.6205C82.2147 38.2733 83.9067 35.5102 83.9347 34.8969C84.2734 34.6942 85.108 33.9097 88.292 32.2857C84.8054 33.866 79.0414 36.9591 77.1494 39.215C77.4774 37.3763 83.4534 34.5122 83.5787 34.4486C82.636 34.5493 75.168 35.4798 76.4467 40.1095C73.8294 40.4804 71.3067 40.854 68.9161 41.2143C71.8694 39.8499 74.1894 36.1233 74.2227 35.3457C74.62 35.1086 75.5894 34.1961 79.2987 32.3031C75.236 34.1497 68.5227 37.7499 66.3187 40.3741C66.7014 38.2361 73.6627 34.9006 73.8054 34.8225C72.7 34.9404 63.9067 36.0383 65.5214 41.5092C65.704 41.5702 65.8881 41.6139 66.0707 41.6483C62.3641 42.2179 59.0614 42.7468 56.328 43.1787C59.556 41.7401 62.1027 37.6534 62.1401 36.8069C62.5681 36.5552 63.6161 35.5669 67.6174 33.5256C63.2361 35.5139 55.9921 39.4022 53.6121 42.2343C54.0254 39.9241 61.5374 36.3244 61.6934 36.2409C60.4987 36.3681 51.0107 37.5553 52.7547 43.4581C52.9921 43.5389 53.232 43.5892 53.4694 43.6263C53.0227 43.6965 52.588 43.7639 52.1907 43.8248C49.3294 44.2554 46.6907 44.3997 44.2494 44.3229C47.6814 43.1505 50.6521 39.0469 50.7507 38.1885C51.1974 37.9553 52.3134 37.027 56.464 35.1976C51.9374 36.9555 44.412 40.4588 41.828 43.1638C42.408 40.884 50.1774 37.68 50.34 37.6018C49.156 37.6694 39.8787 38.3537 40.8347 44.0538C37.8107 43.659 35.1547 42.9018 32.8454 41.9083C36.7694 41.9083 41.36 37.7975 41.6787 36.9007C42.1747 36.7457 43.4907 36.0226 48.0174 34.9072C43.1334 35.8941 34.8907 38.0946 31.7201 40.3081C32.8081 38.186 41.228 36.3151 41.408 36.2675C40.2387 36.1429 31.1294 35.3353 30.5467 40.7757C26.3854 38.4748 23.6014 35.4228 22.0254 32.7139C23.4014 36.5104 25.5214 39.2231 28.132 41.1399C28.0414 41.1598 27.9454 41.1794 27.8547 41.2072C26.1454 48.1432 37.4987 49.986 38.9227 50.1953C38.7321 50.0867 29.584 45.4647 28.9494 42.6987C31.9534 46.1787 40.8041 51.1319 46.1347 53.6991C41.2521 51.0882 39.9467 49.8652 39.424 49.5446C39.36 48.8876 37.952 46.5561 35.8947 44.4949C37.552 44.8658 39.2814 45.0981 41.0587 45.22C40.944 52.2805 52.3307 52.4114 53.7614 52.4048C53.5507 52.328 43.6467 49.1106 42.4427 46.4625C46.108 49.4643 55.792 53.0527 61.54 54.8013C56.22 52.9414 54.6907 51.924 54.1107 51.6843C53.8254 50.7716 50.1494 46.886 46.2534 45.3203C47.7187 45.2832 49.1907 45.2025 50.6547 45.0939C51.228 45.0515 51.9094 44.9803 52.6867 44.8863C52.6761 44.8995 52.6667 44.899 52.6521 44.9057C53.2934 52.0576 64.6734 51.23 66.0947 51.1015C65.8774 51.0406 55.6841 48.6522 54.1814 46.1061C58.1694 48.8005 68.1827 51.5796 74.0841 52.8434C68.5934 51.4326 66.9587 50.5466 66.356 50.3505C65.9254 49.3703 60.9774 45.1151 56.5694 44.3468C58.8547 43.9997 61.5467 43.5652 64.552 43.0803C65.6734 50.0058 76.7934 48.8546 78.1934 48.6824C77.9761 48.6321 67.7014 46.5536 66.0907 44.0499C70.1867 46.6238 80.2987 49.0974 86.24 50.185C80.7027 48.9384 79.0307 48.0998 78.424 47.925C77.976 47.0083 73.3614 43.2749 69.1094 42.3423C71.3094 41.9886 73.6227 41.6182 76.0227 41.2473C77.0134 47.7289 87.3694 46.6545 88.672 46.4968C88.468 46.4452 78.9534 44.5214 77.4614 42.2033C81.256 44.589 90.6214 46.8807 96.1214 47.8875C90.9947 46.7324 89.4481 45.9574 88.8814 45.7918C88.4681 44.9427 84.1681 41.4671 80.2214 40.614C82.3507 40.2974 84.5281 39.9846 86.7321 39.6839C88.0374 45.8225 97.8507 44.4342 99.0814 44.2381C98.8854 44.1984 89.6894 42.6831 88.1454 40.5067C91.8934 42.6659 100.967 44.5389 106.281 45.3138C101.316 44.3839 99.7974 43.6941 99.252 43.559C98.8414 42.8079 95.0974 39.9943 91.5 39.0617C93.7107 38.7809 95.932 38.5206 98.1534 38.2862C99.0347 42.8271 106.237 41.8102 107.136 41.6658C106.996 41.6353 100.313 40.5334 99.1934 38.953C101.913 40.5228 108.505 41.8842 112.364 42.4458C108.76 41.7729 107.657 41.267 107.261 41.1703C106.965 40.6312 104.3 38.6267 101.713 37.9246C103.7 37.7365 105.675 37.5727 107.62 37.4337C107.539 37.4813 107.457 37.5314 107.38 37.5844C108.119 41.5849 114.429 40.692 115.216 40.5662C115.091 40.5397 109.272 39.5796 108.299 38.206C110.669 39.5704 116.407 40.7558 119.771 41.2473C116.631 40.6578 115.667 40.2202 115.321 40.1354C115.06 39.6532 112.616 37.8213 110.307 37.261C112.317 37.1431 114.293 37.0595 116.22 37.0158C116.583 40.6136 122.317 40.1726 123.036 40.105C122.924 40.0745 117.763 38.8894 116.993 37.6018C119.017 38.957 124.093 40.3438 127.081 40.9743C124.301 40.2709 123.469 39.822 123.165 39.7253C122.979 39.3041 121.124 37.6863 119.197 36.9815C121.076 36.9815 122.887 37.0267 124.627 37.1141C124.979 40.5768 130.597 40.3105 131.309 40.2628C131.201 40.2297 126.081 38.8996 125.365 37.5921C127.336 39.0029 132.361 40.5307 135.325 41.2447C132.572 40.4631 131.757 39.9897 131.456 39.8864C131.309 39.5221 129.967 38.243 128.391 37.4071C130.272 37.6019 132.032 37.8718 133.649 38.2215C133.537 40.6205 139.024 41.9079 139.795 41.7861C140.041 41.9583 140.893 42.3322 142.979 43.9801C140.944 42.2182 137.271 39.4284 134.917 38.521C135.379 38.6428 135.831 38.7688 136.264 38.9026C137.991 39.7583 140.035 41.4564 140.096 41.5028C139.991 41.3107 139.632 40.6711 139.052 39.9743C139.079 39.9876 139.109 39.998 139.133 40.0112C139.072 39.9503 139 39.8935 138.933 39.8366C138.044 38.8086 136.699 37.7263 135.02 37.8243C132.839 37.1435 130.072 36.7021 126.881 36.4531C128.448 36.2438 130.136 34.735 130.265 34.3839C130.476 34.3203 131.032 34.0183 132.948 33.5586C130.883 33.9639 127.393 34.8739 126.047 35.7998C126.515 34.907 130.079 34.1346 130.153 34.1187C129.645 34.0604 125.572 33.6769 125.539 36.2176C125.657 36.2879 125.785 36.3461 125.915 36.3858C123.559 36.2348 120.995 36.1801 118.272 36.2105C120.489 35.8131 122.812 33.728 122.992 33.2326C123.297 33.1412 124.108 32.7005 126.892 32.0302C123.891 32.6197 118.817 33.9429 116.861 35.2914C117.539 33.9906 122.717 32.8724 122.825 32.8419C122.087 32.7611 116.169 32.2024 116.115 35.8942C116.403 36.0691 116.708 36.1736 117.027 36.2306C114.88 36.2716 112.649 36.3589 110.353 36.4861C112.395 35.5495 114.131 33.3771 114.223 32.8684C114.531 32.7267 115.315 32.1413 118.167 31.0431C115.067 32.0843 109.892 34.1961 108.057 35.9182Z" fill="white"/>
</mask>
<g mask="url(#mask0_26_1795)">
<path fill-rule="evenodd" clip-rule="evenodd" d="M48.3481 53.6688C50.5668 53.1243 54.8281 53.7336 55.0761 56.0465C55.2988 58.1063 52.3508 58.8021 49.9095 58.7398C52.1041 58.2974 52.4761 56.8054 52.1548 56.2437C51.8335 55.6834 52.0895 54.2026 48.3481 53.6688Z" fill="url(#paint0_linear_26_1795)"/>
</g>
<path fill-rule="evenodd" clip-rule="evenodd" d="M60.0958 24.5335C59.7252 23.2208 58.6972 21.9716 57.1852 20.8628C56.1852 21.4815 54.0558 23.3532 53.4652 24.2381C54.2025 24.8369 54.8638 25.5164 55.4292 26.2794C57.4052 28.9487 55.4185 32.2537 51.7012 30.3608C54.6252 33.8142 61.6732 30.1223 60.0958 24.5335Z" fill="#60AB50"/>
<path fill-rule="evenodd" clip-rule="evenodd" d="M48.2136 17.2115C47.9456 19.168 46.5056 20.3311 45.2256 20.9034C47.7429 21.2875 50.0883 22.0505 52.0509 23.248L56.0056 20.0874C53.9403 18.8567 51.2483 17.854 48.2136 17.2115Z" fill="#60AB50"/>
<path fill-rule="evenodd" clip-rule="evenodd" d="M51.9481 31.1709C46.0614 25.4033 62.8854 14.4442 68.6681 15.6258C59.1348 11.877 42.5934 26.3146 51.9481 31.1709Z" fill="white"/>
<path d="M51.9486 31.1709C46.0619 25.4033 62.8859 14.4442 68.6686 15.6258C59.1353 11.877 42.5939 26.3146 51.9486 31.1709Z" stroke="white" stroke-width="0.288" stroke-miterlimit="2.613"/>
<path fill-rule="evenodd" clip-rule="evenodd" d="M38.9287 21.5896C38.9287 21.5896 47.2354 22.6149 45.3927 29.6767C49.1247 27.744 48.2194 21.8386 43.8034 20.7669C42.59 21.1007 41.7754 21.2292 38.9287 21.5896Z" fill="white"/>
<path fill-rule="evenodd" clip-rule="evenodd" d="M95.4629 20.9623C98.5442 22.1439 101.783 27.4903 101.068 31.3306H96.7589C96.7589 25.9842 97.3602 21.7002 95.4629 20.9623Z" fill="white"/>
<path fill-rule="evenodd" clip-rule="evenodd" d="M74.2957 20.7771C77.381 21.5891 81.2037 25.0995 74.1943 27.6548C76.305 25.2452 76.137 23.0025 74.2957 20.7771Z" fill="white"/>
<path fill-rule="evenodd" clip-rule="evenodd" d="M76.0225 19.3582C76.5905 19.9278 78.0465 21.9082 78.0465 21.9082L77.9465 16.9287H76.1638L76.0225 19.3582Z" fill="white"/>
<path fill-rule="evenodd" clip-rule="evenodd" d="M133.174 14.5509C136.992 14.6622 143.289 17.089 141.614 23.2037C140.121 28.6547 135.921 29.0204 132.169 28.2454C135.988 27.6361 137.93 24.3668 137.93 22.8169C137.93 21.2644 138.533 16.889 133.174 14.5509Z" fill="white"/>
<defs>
<linearGradient id="paint0_linear_26_1795" x1="49.3747" y1="56.1928" x2="55.5728" y2="55.5919" gradientUnits="userSpaceOnUse">
<stop stop-color="#5A0100"/>
<stop offset="0.72" stop-color="#ED1C24"/>
<stop offset="1" stop-color="#ED1C24"/>
</linearGradient>
</defs>
</svg>
