<svg width="201" height="26" viewBox="0 0 201 26" fill="none" xmlns="http://www.w3.org/2000/svg">
<path fill-rule="evenodd" clip-rule="evenodd" d="M50.3446 19.3805H50.4126L57.5699 0.703871H62.8446V25.0103H59.4553V4.68717H59.3859L51.3379 25.0103H49.1793L41.1659 4.68717H41.0966V25.0103H37.8086V0.703871H43.0833L50.3446 19.3805Z" fill="#0075C8"/>
<path fill-rule="evenodd" clip-rule="evenodd" d="M71.1689 25.0089H67.7783V0.70357H71.1689V25.0089Z" fill="#0075C8"/>
<path fill-rule="evenodd" clip-rule="evenodd" d="M98.1223 21.2327C97.1636 22.5375 95.9183 23.5959 94.3889 24.4079C92.8583 25.2199 91.0209 25.6279 88.8743 25.6279C87.0249 25.6279 85.3183 25.3127 83.7543 24.6821C82.1903 24.0542 80.8436 23.1733 79.7129 22.0394C78.5823 20.9081 77.6983 19.5569 77.0583 17.9885C76.4196 16.4214 76.0996 14.6994 76.0996 12.8223C76.0996 10.9227 76.4263 9.19003 77.0756 7.62161C77.7263 6.05452 78.6289 4.71527 79.7823 3.60519C80.9356 2.49644 82.2996 1.63143 83.8743 1.01413C85.4503 0.395506 87.1636 0.0868554 89.0116 0.0868554C89.8343 0.0868554 90.6663 0.16766 91.5116 0.326621C92.3569 0.486907 93.1676 0.727998 93.9449 1.04857C94.7209 1.36782 95.4289 1.76257 96.0676 2.2315C96.7063 2.70176 97.2543 3.24488 97.7116 3.86351L95.0396 5.92205C94.4463 5.0981 93.6076 4.41854 92.5223 3.8794C91.4383 3.34423 90.2676 3.07267 89.0116 3.07267C87.5956 3.07267 86.3236 3.33099 85.1943 3.84628C84.0636 4.36026 83.0983 5.06499 82.2996 5.95649C81.4996 6.84933 80.8836 7.88522 80.4503 9.06286C80.0156 10.2431 79.7996 11.4963 79.7996 12.8223C79.7996 14.196 80.0089 15.4783 80.4329 16.6678C80.8556 17.8574 81.4596 18.8933 82.2476 19.7742C83.0356 20.6551 83.9943 21.3479 85.1249 21.8513C86.2543 22.3547 87.5169 22.6063 88.9089 22.6063C90.2796 22.6063 91.5236 22.3321 92.6423 21.7824C93.7609 21.2327 94.6863 20.4326 95.4169 19.3794L98.1223 21.2327Z" fill="#0075C8"/>
<path fill-rule="evenodd" clip-rule="evenodd" d="M106.035 25.0103H102.646V0.705194H110.42C111.583 0.705194 112.691 0.825739 113.742 1.06551C114.792 1.30527 115.711 1.68943 116.499 2.21532C117.286 2.74122 117.907 3.43403 118.364 4.29242C118.822 5.15081 119.05 6.1973 119.05 7.43322C119.05 9.21889 118.502 10.6601 117.406 11.7596C116.31 12.8578 114.894 13.5559 113.159 13.8526L119.94 25.0103H115.831L109.666 14.1957H106.035V25.0103ZM106.035 11.3476H109.94C110.739 11.3476 111.48 11.2788 112.166 11.141C112.851 11.0032 113.45 10.7807 113.964 10.4707C114.476 10.1634 114.883 9.762 115.179 9.27055C115.476 8.77909 115.624 8.16577 115.624 7.43322C115.624 6.702 115.476 6.08868 115.179 5.59722C114.883 5.10577 114.49 4.70969 113.998 4.41164C113.507 4.11491 112.93 3.90296 112.268 3.77712C111.606 3.65127 110.91 3.58901 110.179 3.58901H106.035V11.3476Z" fill="#0075C8"/>
<path fill-rule="evenodd" clip-rule="evenodd" d="M149.669 12.8233C149.669 14.7003 149.342 16.4224 148.693 17.9895C148.042 19.5579 147.146 20.9078 146.004 22.0404C144.862 23.173 143.504 24.0552 141.929 24.6844C140.353 25.3123 138.64 25.6289 136.792 25.6289C134.942 25.6289 133.234 25.3123 131.67 24.6844C130.105 24.0552 128.753 23.173 127.613 22.0404C126.47 20.9078 125.58 19.5579 124.941 17.9895C124.301 16.4224 123.982 14.7003 123.982 12.8233C123.982 10.9237 124.301 9.191 124.941 7.62259C125.58 6.0555 126.47 4.71492 127.613 3.60617C128.753 2.49742 130.105 1.63108 131.67 1.01378C133.234 0.396481 134.942 0.087832 136.792 0.087832C138.64 0.087832 140.353 0.396481 141.929 1.01378C143.504 1.63108 144.862 2.49742 146.004 3.60617C147.146 4.71492 148.042 6.0555 148.693 7.62259C149.342 9.191 149.669 10.9237 149.669 12.8233ZM146.004 12.8233C146.004 11.4973 145.788 10.2428 145.353 9.06384C144.92 7.88487 144.302 6.84898 143.504 5.95747C142.705 5.06596 141.74 4.36124 140.61 3.84726C139.48 3.33064 138.206 3.07365 136.792 3.07365C135.397 3.07365 134.137 3.33064 133.006 3.84726C131.876 4.36124 130.917 5.06596 130.129 5.95747C129.341 6.84898 128.73 7.88487 128.297 9.06384C127.864 10.2428 127.646 11.4973 127.646 12.8233C127.646 14.1744 127.864 15.4448 128.297 16.6344C128.73 17.8239 129.346 18.8611 130.146 19.7407C130.945 20.6216 131.904 21.3144 133.024 21.8165C134.142 22.3199 135.397 22.5729 136.792 22.5729C138.184 22.5729 139.45 22.3199 140.593 21.8165C141.734 21.3144 142.705 20.6216 143.504 19.7407C144.302 18.8611 144.92 17.8239 145.353 16.6344C145.788 15.4448 146.004 14.1744 146.004 12.8233Z" fill="#0075C8"/>
<path fill-rule="evenodd" clip-rule="evenodd" d="M157.991 21.9887H168.814V25.0089H154.601V0.703758H157.991V21.9887Z" fill="#0075C8"/>
<path fill-rule="evenodd" clip-rule="evenodd" d="M177.138 25.0089H173.747V0.70357H177.138V25.0089Z" fill="#0075C8"/>
<path fill-rule="evenodd" clip-rule="evenodd" d="M193.235 25.0099H189.844V3.69188H182.069V0.704737H201.009V3.69188H193.235V25.0099Z" fill="#0075C8"/>
<path fill-rule="evenodd" clip-rule="evenodd" d="M16.1851 13.3881C16.1851 13.2093 16.1691 13.0344 16.1397 12.8635C16.1357 12.8304 16.1291 12.796 16.1224 12.7602V12.7549C15.8037 11.0421 14.3371 9.23526 13.0557 7.85627C11.7757 9.23526 10.3077 11.0421 9.9904 12.7549C9.9904 12.7576 9.98907 12.7589 9.98907 12.7589C9.98373 12.796 9.97707 12.8304 9.9704 12.8635C9.9424 13.0344 9.92773 13.2106 9.92773 13.3881C9.92773 15.1208 11.3277 16.5263 13.0557 16.5263C14.7851 16.5263 16.1851 15.1208 16.1851 13.3881Z" fill="#0075C8"/>
<path fill-rule="evenodd" clip-rule="evenodd" d="M0.824219 0.706063V20.0039L4.14422 16.7042V3.99921H21.9696V21.7141H9.18422L5.86689 25.0099H25.2896V0.706063H0.824219Z" fill="#0075C8"/>
</svg>
