<svg width="190" height="64" viewBox="0 0 190 64" fill="none" xmlns="http://www.w3.org/2000/svg">
<path d="M186.307 63.7156H3.96869C2.29802 63.7156 0.943359 62.3697 0.943359 60.7099V3.00436C0.943359 1.34586 2.29802 -3.76251e-06 3.96869 -3.76251e-06H186.307C187.978 -3.76251e-06 189.331 1.34586 189.331 3.00436V60.7099C189.331 62.3697 187.978 63.7156 186.307 63.7156Z" fill="#FFCB00"/>
<path d="M93.8301 24.8712C93.8301 23.83 93.8301 21.8059 102.927 21.8059C103.234 21.8059 103.485 22.0523 103.485 22.3583V23.5955C103.485 23.9015 103.234 24.1506 102.927 24.1506C98.5594 24.1506 98.5594 25.1931 98.5594 25.6342V35.2434C98.5594 35.5494 98.3087 35.7984 97.9994 35.7984H94.3861C94.0807 35.7984 93.8301 35.5494 93.8301 35.2434V24.8712Z" fill="#1D1D1B"/>
<path fill-rule="evenodd" clip-rule="evenodd" d="M53.8784 32.2908C53.8784 32.7306 53.8784 33.7731 58.2477 33.7731C62.6171 33.7731 62.6171 32.7306 62.6171 32.2908V31.4602C62.6171 31.0204 62.6171 29.9726 58.2491 29.9726C53.8797 29.9726 53.8784 31.0204 53.8784 31.4602V32.2908ZM67.3451 24.8713V33.0538C67.3451 34.0937 67.3451 36.1191 58.2477 36.1191C49.1504 36.1191 49.1504 34.0937 49.1504 33.0538V30.6945C49.1504 29.6533 49.1504 27.6279 58.2491 27.6279C60.0304 27.6279 61.4637 27.7087 62.6171 27.8425V25.6343C62.6171 25.1932 62.6171 24.1493 58.2491 24.1493C54.2024 24.1493 54.2024 25.1932 54.2024 25.6343C54.2024 25.9416 53.9517 26.1867 53.6437 26.1867H50.0304C49.7237 26.1867 49.4744 25.9416 49.4744 25.6356V24.8713C49.4744 23.8301 49.4744 21.806 58.2491 21.806C67.3451 21.806 67.3451 23.8301 67.3451 24.8713Z" fill="#1D1D1B"/>
<path fill-rule="evenodd" clip-rule="evenodd" d="M76.2192 32.2698C76.2192 32.7095 76.2179 33.7534 80.5885 33.7534C84.9579 33.7534 84.9579 32.7095 84.9579 32.2698V25.6133C84.9579 25.1721 84.9579 24.1296 80.5885 24.1296C76.2192 24.1296 76.2192 25.1721 76.2192 25.6133V32.2698ZM71.4912 16.5141C71.4912 16.2081 71.7405 15.9603 72.0485 15.9603H75.6619C75.9699 15.9603 76.2192 16.2081 76.2192 16.5141V21.9969C77.3712 21.8631 78.8045 21.7849 80.5885 21.7849C89.6845 21.7849 89.6845 23.8104 89.6845 24.8516V33.0328C89.6845 34.0726 89.6845 36.0967 80.5885 36.0967C71.4912 36.0967 71.4912 34.0726 71.4912 33.0328V16.5141Z" fill="#1D1D1B"/>
<path fill-rule="evenodd" clip-rule="evenodd" d="M109.717 32.2908C109.717 32.7306 109.717 33.7731 114.087 33.7731C118.456 33.7731 118.456 32.7306 118.456 32.2908V31.4602C118.456 31.0204 118.456 29.9726 114.087 29.9726C109.717 29.9726 109.717 31.0204 109.717 31.4602V32.2908ZM123.188 24.8713V33.0538C123.188 34.0937 123.188 36.1191 114.087 36.1191C104.989 36.1191 104.989 34.0937 104.989 33.0538V30.6945C104.989 29.6533 104.989 27.6279 114.087 27.6279C115.871 27.6279 117.304 27.7087 118.456 27.8425V25.6343C118.456 25.1932 118.456 24.1493 114.087 24.1493C110.041 24.1493 110.041 25.1932 110.041 25.6343C110.041 25.9416 109.791 26.1867 109.484 26.1867H105.871C105.563 26.1867 105.313 25.9416 105.313 25.6356V24.8713C105.313 23.8301 105.313 21.806 114.087 21.806C123.188 21.806 123.188 23.8301 123.188 24.8713Z" fill="#1D1D1B"/>
<path d="M45.1673 33.0533C45.1673 34.0958 45.1673 36.1186 36.07 36.1186C26.9727 36.1186 26.9727 34.0958 26.9727 33.0533V31.6505C26.9727 31.3458 27.2233 31.0981 27.5313 31.0981H31.1433C31.4513 31.0981 31.7007 31.3458 31.7007 31.6505V32.3459C31.7073 32.8096 31.8713 33.7739 36.07 33.7739C40.438 33.7739 40.4393 32.7301 40.4393 32.2903V16.5346C40.4393 16.2286 40.6887 15.9822 40.9967 15.9822H44.6087C44.918 15.9822 45.1687 16.2286 45.1687 16.5346L45.1673 33.0533Z" fill="#1D1D1B"/>
<path d="M28.7374 47.787H27.2294C27.0921 47.787 26.9814 47.677 26.9814 47.5406V44.0527C26.9814 43.9176 27.0921 43.8063 27.2294 43.8063H28.7374C28.8748 43.8063 28.9854 43.9176 28.9854 44.0527V47.5406C28.9854 47.677 28.8748 47.787 28.7374 47.787Z" fill="#1D1D1B"/>
<path d="M35.4898 47.787H33.7551C33.6111 47.787 33.4951 47.6717 33.4951 47.5286V44.0646C33.4951 43.9229 33.6111 43.8063 33.7551 43.8063H35.4898C35.6338 43.8063 35.7498 43.9229 35.7498 44.0646V47.5286C35.7498 47.6717 35.6338 47.787 35.4898 47.787Z" fill="#1D1D1B"/>
<path d="M42.2421 47.787H40.2808C40.1301 47.787 40.0088 47.6664 40.0088 47.5167V44.0765C40.0088 43.9269 40.1301 43.8063 40.2808 43.8063H42.2421C42.3928 43.8063 42.5141 43.9269 42.5141 44.0765V47.5167C42.5141 47.6664 42.3928 47.787 42.2421 47.787Z" fill="#1D1D1B"/>
<path d="M48.9945 47.787H46.8065C46.6491 47.787 46.5225 47.6611 46.5225 47.5061V44.0885C46.5225 43.9322 46.6491 43.8063 46.8065 43.8063H48.9945C49.1505 43.8063 49.2785 43.9322 49.2785 44.0885V47.5061C49.2785 47.6611 49.1505 47.787 48.9945 47.787Z" fill="#1D1D1B"/>
<path d="M55.7458 47.787H53.3298C53.1672 47.787 53.0352 47.6558 53.0352 47.4942V44.1004C53.0352 43.9374 53.1672 43.8063 53.3298 43.8063H55.7458C55.9085 43.8063 56.0405 43.9374 56.0405 44.1004V47.4942C56.0405 47.6558 55.9085 47.787 55.7458 47.787Z" fill="#1D1D1B"/>
<path d="M62.4982 47.787H59.8555C59.6862 47.787 59.5488 47.6505 59.5488 47.4823V44.1123C59.5488 43.9427 59.6862 43.8063 59.8555 43.8063H62.4982C62.6675 43.8063 62.8048 43.9427 62.8048 44.1123V47.4823C62.8048 47.6505 62.6675 47.787 62.4982 47.787Z" fill="#1D1D1B"/>
<path d="M69.2505 47.787H66.3812C66.2052 47.787 66.0625 47.6452 66.0625 47.4704V44.1229C66.0625 43.9494 66.2052 43.8063 66.3812 43.8063H69.2505C69.4265 43.8063 69.5692 43.9494 69.5692 44.1229V47.4704C69.5692 47.6452 69.4265 47.787 69.2505 47.787Z" fill="#1D1D1B"/>
<path d="M76.0028 47.787H72.9068C72.7242 47.787 72.5762 47.6399 72.5762 47.4584V44.1348C72.5762 43.9533 72.7242 43.8063 72.9068 43.8063H76.0028C76.1855 43.8063 76.3335 43.9533 76.3335 44.1348V47.4584C76.3335 47.6399 76.1855 47.787 76.0028 47.787Z" fill="#1D1D1B"/>
<path d="M82.7552 47.787H79.4325C79.2432 47.787 79.0898 47.6346 79.0898 47.4465V44.1467C79.0898 43.9586 79.2432 43.8063 79.4325 43.8063H82.7552C82.9445 43.8063 83.0978 43.9586 83.0978 44.1467V47.4465C83.0978 47.6346 82.9445 47.787 82.7552 47.787Z" fill="#1D1D1B"/>
<path d="M89.5065 47.787H85.9572C85.7612 47.787 85.6025 47.6293 85.6025 47.4346V44.1587C85.6025 43.9639 85.7612 43.8063 85.9572 43.8063H89.5065C89.7025 43.8063 89.8612 43.9639 89.8612 44.1587V47.4346C89.8612 47.6293 89.7025 47.787 89.5065 47.787Z" fill="#1D1D1B"/>
<path d="M96.2589 47.787H92.4975C92.2949 47.787 92.1309 47.624 92.1309 47.424V44.1706C92.1309 43.9692 92.2949 43.8063 92.4975 43.8063H96.2589C96.4615 43.8063 96.6255 43.9692 96.6255 44.1706V47.424C96.6255 47.624 96.4615 47.787 96.2589 47.787Z" fill="#1D1D1B"/>
<path d="M146.326 47.787H99.2992C98.9285 47.787 98.6299 47.4889 98.6299 47.122V44.4726C98.6299 44.1044 98.9285 43.8063 99.2992 43.8063H146.326C146.695 43.8063 146.995 44.1044 146.995 44.4726V47.122C146.995 47.4889 146.695 47.787 146.326 47.787Z" fill="#1D1D1B"/>
<path d="M162.057 29.6936C161.756 29.6936 161.46 29.577 161.239 29.3571L152.008 20.1864C151.871 20.0499 151.637 20.1466 151.637 20.3387V28.5054C151.637 29.1385 151.139 29.6817 150.501 29.6936C149.852 29.7055 149.321 29.1862 149.321 28.5438V17.0747C149.321 16.672 149.516 16.2839 149.86 16.0693C150.327 15.7765 150.92 15.852 151.299 16.2269L160.529 25.3977C160.665 25.5341 160.899 25.4374 160.899 25.2453V17.0787C160.899 16.4455 161.397 15.9024 162.035 15.8905C162.684 15.8785 163.215 16.3978 163.215 17.0403V28.508C163.215 28.9226 163.008 29.32 162.649 29.532C162.464 29.6406 162.259 29.6936 162.057 29.6936Z" fill="#1D1D1B"/>
<path d="M145.847 21.6424H142.419C141.779 21.6424 141.23 22.1392 141.219 22.7737C141.21 23.4175 141.731 23.942 142.378 23.942H144.403C144.563 23.942 144.692 24.0705 144.692 24.2308V27.1067C144.692 27.2643 144.563 27.3928 144.403 27.3928H140.151C137.456 27.3928 135.287 25.2031 135.438 22.5313C135.575 20.1151 137.596 18.1916 140.062 18.1916H145.808C146.448 18.1916 146.998 17.6949 147.008 17.0604C147.018 16.4152 146.496 15.8907 145.851 15.8907H140.167C136.44 15.8907 133.296 18.7652 133.123 22.4637C132.936 26.4179 136.122 29.6938 140.062 29.6938H145.847C146.488 29.6938 147.008 29.1772 147.008 28.54V22.7962C147.008 22.159 146.488 21.6424 145.847 21.6424Z" fill="#1D1D1B"/>
</svg>
