<svg width="154" height="60" viewBox="0 0 154 60" fill="none" xmlns="http://www.w3.org/2000/svg">
<path fill-rule="evenodd" clip-rule="evenodd" d="M45.752 36.8731V32.7163H45.904L46.12 32.5666H46.348L46.564 32.4024L46.7786 32.3269L46.9306 32.1758L47.1466 31.9361L47.2226 31.7851L47.3746 31.5453L47.4386 31.3055L47.5146 31.079L47.6666 30.4498L47.7426 29.8206V29.4298L47.6666 29.1145V28.888L47.5906 28.6496L47.4386 28.3343L47.3746 28.1819L47.2226 27.9435L47.0826 27.7925L46.9306 27.6282L46.716 27.4772L46.4866 27.4017L46.272 27.2388L46.044 27.162H45.752V22.6157H47.6666H48.4653L49.1373 22.7044L49.86 22.8554L50.4546 23.0064L50.9626 23.2449L51.5453 23.4846L51.9893 23.7999L52.4333 24.1907L52.8 24.5802L53.092 25.0464L53.384 25.6002L53.5986 26.0664L53.7506 26.697L53.904 27.3143L53.9666 28.019V28.7992V29.5927L53.904 30.2988L53.7506 30.9161L53.5986 31.5453L53.308 32.1758L53.016 32.6408L52.724 33.1071L52.28 33.4979L52.0653 33.7363L51.7733 33.9761L51.4813 34.1271L51.1773 34.2914L50.9626 34.4424H50.5946L50.3026 34.5179H50.088L50.012 34.6821L50.8226 34.8318L51.5453 35.1471L51.8493 35.2226L52.0653 35.3869L52.28 35.5379L52.5093 35.6889L52.8 36.0929L53.092 36.4824L53.308 36.9487L53.46 37.5779L53.5986 38.1965L53.7506 38.9012V39.606V40.5504V41.7983L53.828 42.8183V43.5985L53.904 44.2291L54.0426 44.9338L54.1946 45.4756L54.3346 45.7895L54.4106 46.0293L54.5626 46.1803L54.7786 46.4201H48.1093L47.9573 46.1803L47.8813 45.8783L47.7426 45.4001L47.6666 44.8583L47.5906 44.1536V43.372L47.5146 42.4275L47.5906 41.4075L47.5146 40.0842L47.4386 39.0642L47.3746 38.586L47.2986 38.1965L47.2226 37.8931L47.0826 37.6534L47.0066 37.4149L46.8546 37.2639L46.716 37.1884L46.4866 37.0242L46.272 36.9487L46.044 36.8731H45.752ZM153.584 46.8095H147.131L142.808 37.7289L141.413 40.0842L141.337 46.7354H135.62L135.684 23.0064H141.413V32.6408L146.624 23.0064H152.848L146.548 33.1958L153.584 46.8095ZM62.6253 46.4201H56.388V22.6157L62.7013 22.7044L62.6253 46.4201ZM81.92 46.4956H75.176L70.916 31.1558V46.4956L65.1226 46.4201L65.2626 22.7044H71.9426L75.9746 37.8931L76.0506 37.8057L76.1266 22.7044H81.996L81.92 46.4956ZM100.999 46.5843H96.5866V44.4675L96.156 45.0093L95.788 45.4756L95.4973 45.7895L95.1933 46.0293L94.9013 46.2691L94.4706 46.4956L94.1026 46.5843L93.6586 46.7354L93.1386 46.8864L92.632 46.9738H92.112H91.5293H91.0093H90.5026L90.0586 46.8864L89.552 46.8095L89.108 46.6599L88.74 46.5843L88.296 46.3446L87.9413 46.1803L87.5733 46.0293L87.2693 45.7895L86.9146 45.5643L86.6866 45.2491L86.3946 44.9338L86.1026 44.6185L85.888 44.2291L85.736 43.8383L85.368 43.2077L85.152 42.352L84.924 41.5704L84.7853 40.626L84.6333 39.5304L84.48 38.1965L84.4173 36.7857L84.48 35.2994V33.6621L84.5573 32.099L84.7093 30.7651L84.924 29.5053L85.152 28.4098L85.444 27.4772L85.584 26.999L85.812 26.6082L85.9506 26.2188L86.1786 25.9035L86.3946 25.5127L86.6866 25.1975L86.9773 24.9709L87.2693 24.6557L87.5733 24.4172L87.9413 24.1907L88.296 23.9509L88.664 23.7999L91.4533 24.808L94.6093 25.9035L97.6133 26.848L100.555 27.6282L100.695 28.4098L100.847 29.19L100.923 30.059V30.9916L94.9773 30.9161V29.908L94.8253 29.1145V28.7251L94.6853 28.4098L94.6093 28.1819L94.5333 27.9435L94.3946 27.7925L94.2413 27.6282L94.1026 27.4772L93.8746 27.4017L93.6586 27.3143L93.3666 27.2388L93.1386 27.162H92.848H92.48L92.188 27.3143L91.8973 27.4772L91.744 27.7037L91.5293 28.019L91.3773 28.3343L91.1613 28.7992L91.0853 29.2788L91.0093 30.059L90.9453 31.23L90.8693 32.7918V34.7576V36.0929L90.9453 37.3394V38.3594V39.2165L91.0093 39.9212V40.5504L91.1613 41.0167V41.4075L91.3133 41.7228L91.4533 42.0367L91.6053 42.2765L91.8213 42.503L92.036 42.6673L92.416 42.7428L92.632 42.8183H93H93.2906H93.5826L93.8746 42.7428L94.1026 42.5785L94.2413 42.503L94.3946 42.2765L94.6093 42.1122L94.7613 41.8857L94.9013 41.332L95.0533 40.7015L95.1293 39.8457L95.1933 38.5104L92.924 38.586V34.3669L101.063 34.4424L100.999 46.5843ZM117.72 31.23L113.017 31.1558L112.953 46.6599H106.716V31.1558L102.025 31.079V28.019L103.712 28.3343L106.716 28.888L109.721 29.039H112.725L115.743 28.6496L117.72 28.2588V31.23ZM45.752 22.6157V27.162V27.0864H45.46H45.1693H43.8506V32.7163H45.3213H45.536H45.752V36.8731H45.46H43.8506V46.3446H37.5373L37.6133 22.5402L45.752 22.6157ZM27.1933 37.1884V32.7163L27.3453 32.6408H27.56L27.788 32.5666L27.928 32.4024L28.156 32.3269L28.296 32.1758L28.5106 32.0116L28.5866 31.7851L28.7386 31.6208L28.8146 31.3055L28.8786 31.079L29.0306 30.5253V29.8206L28.9546 29.19L28.8786 28.5727L28.8146 28.3343L28.7386 28.1064L28.5866 27.9435L28.448 27.7037L28.296 27.5527L28.08 27.4017L27.928 27.3143L27.712 27.162L27.4973 27.0864H27.2693H27.1933V22.5402H28.5866H29.3986L30.2093 22.7044L30.932 22.7799L31.668 23.0064L32.264 23.3217L32.8466 23.6357L33.3533 24.0264L33.7973 24.5046L34.2413 24.9709L34.6093 25.5127L34.9 26.2188L35.116 26.848L35.268 27.6282L35.408 28.4098L35.484 29.2788L35.56 30.21L35.484 31.079L35.408 31.7851L35.192 32.5666L34.9 33.1958L34.6093 33.9006L34.1653 34.4424L33.7213 35.0716L33.1386 35.5379L32.6306 35.9287L32.112 36.3194L31.604 36.5579L31.084 36.7857L30.5013 36.9487L29.9053 37.0997L29.3226 37.1884H28.6626H27.1933ZM27.1933 22.5402V27.0864L26.9773 26.999H26.6853H25.4426V32.7163H26.8253H27.0533H27.1933V37.1884H25.4426L25.3666 46.2691H19.1306L19.2066 22.5402H27.1933ZM17.076 39.2165V40.2365L16.924 41.1797L16.8613 41.6473L16.7093 42.0367L16.6333 42.4275L16.4933 42.8183L16.3413 43.1336L16.1253 43.523L15.8973 43.8383L15.6813 44.1536L15.4533 44.3801L15.2386 44.694L14.9466 44.9338L14.6546 45.1736L14.1346 45.5643L13.476 45.8783L12.8173 46.1048L12.0813 46.2691L11.2826 46.4956L10.396 46.5843L9.4453 46.6599H8.49463H7.46663L6.57996 46.5843L5.7813 46.4956L5.1213 46.3446L4.38663 46.1048L3.79063 45.8783L3.20796 45.6385L2.76396 45.2491L2.47196 45.0848L2.2573 44.7828L2.0413 44.543L1.8133 44.2291L1.5973 43.9138L1.38263 43.5985L1.23063 43.2077L1.0773 42.8183L0.86263 42.0367L0.722631 41.0922L0.570628 40.0842L0.494629 39.0642H6.65596V39.7702V40.3875L6.80796 40.9412L6.87063 41.332L7.02396 41.5704L7.17596 41.7983L7.31463 42.0367L7.54263 42.1877L7.75863 42.352L7.97463 42.4275L8.27863 42.503H8.57063H9.0773L9.4453 42.352L9.65996 42.2765L9.81196 42.1877L9.96396 42.0367L10.104 41.9612L10.256 41.7983L10.332 41.6473L10.472 41.4075V41.2565L10.624 40.7902V40.2365V39.8457L10.548 39.4549L10.396 39.0642L10.256 38.7502L10.028 38.4349L9.81196 38.1965L9.5213 37.8931L9.1533 37.6534L8.4173 37.3394L7.68263 37.0242L6.94663 36.6334L6.21196 36.3194L4.8933 35.6134L3.86663 35.0716L3.06796 34.5934L2.62396 34.1271L2.18129 33.7363L1.8133 33.1958L1.5213 32.7163L1.30663 32.2514L1.0773 31.6208L0.938629 30.9916L0.86263 30.3743V29.6696V28.7251L1.01463 27.868L1.0773 27.0864L1.30663 26.3062L1.5973 25.6002L1.9653 24.9709L2.3333 24.4172L2.76396 23.8754L3.35996 23.4091L3.86663 23.0952L4.52663 22.7044L5.2613 22.4647L5.99596 22.2249L6.80796 22.0739L7.68263 21.9984H8.6333H9.73596L10.7626 22.1494L11.7133 22.3136L12.6013 22.5402L12.9693 22.7044L13.412 22.8554L13.768 23.0064L14.072 23.2449L14.364 23.4846L14.6546 23.6357L14.9466 23.9509L15.1626 24.1907L15.5293 24.6557L15.7573 25.1219L16.0493 25.6757L16.1893 26.3062L16.4173 26.9235L16.4933 27.6282L16.556 28.4098V29.2788L10.624 29.19L10.6866 28.4972L10.548 27.868V27.5527L10.472 27.4017L10.396 27.0864L10.256 26.9235L10.18 26.7725L9.96396 26.6082L9.81196 26.4572L9.65996 26.3062L9.4453 26.2188H9.2293L9.0013 26.1419H8.7853H8.3413L7.97463 26.2188L7.60663 26.4572L7.39063 26.697L7.23863 26.9235L7.02396 27.2388L6.94663 27.7037V28.1819V28.5727L7.02396 28.888L7.09996 29.19L7.23863 29.5053L7.39063 29.8206L7.60663 30.059L7.83463 30.3743L8.12663 30.5253L8.49463 30.7651L9.0013 31.079L9.65996 31.3943L10.472 31.6963L11.7893 32.2514L12.7413 32.7163L13.336 32.9561L13.628 33.0316L13.996 33.2714L14.364 33.4979L14.7306 33.7363L15.0986 34.0516L15.3906 34.2914L15.6813 34.5934L15.8973 34.8318L16.1253 35.1471L16.3413 35.5379L16.4933 36.0042L16.7093 36.4824L16.8613 36.9487L16.924 37.4904L17.076 38.0442V38.6734V39.2165ZM133.339 46.7354L118.963 46.6599L119.039 27.868L120.217 27.4772L121.308 26.999L122.487 26.4572L123.665 25.9035L124.756 25.2862L126.011 24.5802L127.101 23.7999L128.28 22.9309L133.047 23.0064L133.123 27.4017H124.756V32.1758H132.603L132.54 36.6334H124.756L124.692 42.0367L133.339 42.1122V46.7354Z" fill="#005AA7"/>
<path d="M125.998 57.0879V54.0399H125.427V53.4981H125.998V52.2886H126.594V53.4981H127.303V54.0399H126.594V57.1634C126.594 57.2641 126.606 57.3396 126.657 57.3767C126.695 57.4271 126.771 57.4522 126.886 57.4522H127.266V57.9821H126.619C126.429 57.9821 126.29 57.9437 126.214 57.8814C126.125 57.8311 126.062 57.7423 126.037 57.6297C126.011 57.5158 125.998 57.3277 125.998 57.0879ZM122.145 57.9702V51.9243H122.753V53.9763C122.842 53.8001 122.981 53.6623 123.197 53.5484C123.399 53.4358 123.627 53.3722 123.855 53.3722C124.134 53.3722 124.375 53.4729 124.553 53.6623C124.73 53.8637 124.831 54.1657 124.831 54.5816V57.9702H124.223V54.8704C124.223 54.5432 124.185 54.3035 124.097 54.1405C124.007 53.9895 123.855 53.9008 123.627 53.9008C123.374 53.9008 123.171 54.0014 122.994 54.1789C122.829 54.3551 122.753 54.6068 122.753 54.934V57.9702H122.145ZM118.773 55.8282C118.773 56.4322 118.849 56.8733 118.975 57.1502C119.114 57.4151 119.317 57.5542 119.597 57.5542C120.191 57.5542 120.483 56.9621 120.458 55.7778C120.446 55.1989 120.382 54.7327 120.281 54.4055C120.179 54.0902 119.938 53.9259 119.571 53.9259C119.038 53.9259 118.773 54.5565 118.773 55.8282ZM118.189 55.8282C118.177 55.4877 118.202 55.1234 118.265 54.7578C118.329 54.3803 118.455 54.0518 118.658 53.7882C118.861 53.5113 119.139 53.3722 119.533 53.3722C119.698 53.3722 119.85 53.4226 119.977 53.5113C120.115 53.5855 120.217 53.6875 120.318 53.8001C120.407 53.9008 120.458 53.9392 120.458 53.9259V53.4981H121.041V56.8985V57.2389C121.041 57.9318 120.953 58.4735 120.775 58.863C120.598 59.267 120.205 59.4684 119.583 59.4935C119.203 59.4935 118.911 59.3929 118.697 59.2034C118.481 59.0021 118.354 58.7372 118.329 58.41H118.911C118.911 58.5358 118.975 58.6616 119.089 58.7756C119.215 58.8882 119.367 58.9518 119.583 58.9518C120.154 58.9518 120.446 58.5226 120.446 57.6668V57.4271C120.191 57.8814 119.875 58.1079 119.507 58.1079C119.001 58.1079 118.645 57.8814 118.455 57.4151C118.278 56.9488 118.189 56.4203 118.189 55.8282ZM116.693 51.9495H117.263V52.743H116.693V51.9495ZM116.693 53.4981H117.263V57.9821H116.693V53.4981ZM112.902 57.9821V53.4981H113.511V54.0014C113.523 53.9259 113.638 53.8001 113.853 53.6372C114.069 53.461 114.285 53.3722 114.499 53.3722C114.867 53.3722 115.146 53.4729 115.337 53.6742C115.514 53.8756 115.603 54.1909 115.603 54.6187V57.9821H115.007V54.934C115.007 54.5816 114.969 54.3286 114.893 54.1657C114.817 54.0014 114.651 53.914 114.398 53.9008C114.158 53.9008 113.942 53.9763 113.765 54.1657C113.599 54.3419 113.511 54.5936 113.511 54.8956V57.9821H112.902ZM109.341 51.9243H109.923V57.9821H109.341V51.9243ZM105.613 53.4861H106.209V56.9369C106.209 57.3515 106.349 57.5542 106.653 57.5542C106.995 57.5542 107.235 57.4522 107.401 57.2522C107.553 57.0376 107.642 56.7846 107.642 56.4826V53.4861H108.238V57.9821H107.642V57.39C107.401 57.8562 107.071 58.0947 106.615 58.0947C105.955 58.0947 105.613 57.692 105.613 56.8985V53.4861ZM103.649 57.9821V54.0399H103.027V53.4981H103.649V52.8185C103.649 52.4781 103.737 52.2515 103.927 52.1125C104.105 51.9747 104.333 51.9111 104.586 51.9111H104.777C104.814 51.9243 104.853 51.9243 104.903 51.9243V52.4781H104.599C104.358 52.4781 104.231 52.6172 104.231 52.9192V53.4981H104.903V54.0399H104.231V57.9821H103.649ZM99.934 54.5816C99.934 54.3419 99.9846 54.1286 100.086 53.9511C100.175 53.7749 100.314 53.6372 100.505 53.5232C100.694 53.4226 100.922 53.3722 101.189 53.3722C102.038 53.3722 102.47 53.8133 102.47 54.6942H101.886C101.899 54.4174 101.849 54.216 101.747 54.1034C101.645 53.9763 101.467 53.9259 101.239 53.9259C100.809 53.9259 100.581 54.1154 100.555 54.5061C100.555 54.6942 100.581 54.8333 100.631 54.934C100.682 55.0347 100.77 55.1234 100.885 55.1857C100.999 55.2493 101.227 55.35 101.543 55.4877C101.925 55.652 102.203 55.8162 102.367 55.9924C102.533 56.1805 102.609 56.4071 102.609 56.672C102.609 57.1383 102.482 57.4906 102.229 57.7423C101.962 57.9821 101.619 58.1079 101.202 58.0947C100.707 58.0828 100.365 57.9437 100.187 57.6668C100.01 57.39 99.9206 57.0628 99.9206 56.672H100.491C100.491 56.9488 100.542 57.1754 100.643 57.3277C100.745 57.4774 100.935 57.5542 101.202 57.5542C101.455 57.5542 101.658 57.4906 101.785 57.3767C101.911 57.2522 101.987 57.0879 102.001 56.8733C102.001 56.6097 101.937 56.4203 101.823 56.3196C101.695 56.2189 101.455 56.105 101.101 55.9673C100.846 55.8785 100.643 55.7911 100.491 55.7023C100.339 55.6268 100.213 55.4877 100.099 55.3235C99.9966 55.1486 99.934 54.8956 99.934 54.5816ZM96.5993 54.5816C96.5993 54.3419 96.65 54.1286 96.7393 53.9511C96.8406 53.7749 96.9806 53.6372 97.158 53.5232C97.3473 53.4226 97.5753 53.3722 97.8553 53.3722C98.7046 53.3722 99.1353 53.8133 99.1353 54.6942H98.5393C98.5526 54.4174 98.502 54.216 98.4006 54.1034C98.298 53.9763 98.134 53.9259 97.8926 53.9259C97.462 53.9259 97.234 54.1154 97.2206 54.5061C97.2086 54.6942 97.234 54.8333 97.2966 54.934C97.3473 55.0347 97.4366 55.1234 97.55 55.1857C97.6646 55.2493 97.8806 55.35 98.21 55.4877C98.59 55.652 98.8566 55.8162 99.0206 55.9924C99.186 56.1805 99.2753 56.4071 99.2753 56.672C99.2753 57.1383 99.1473 57.4906 98.882 57.7423C98.6153 57.9821 98.286 58.1079 97.8673 58.0947C97.3606 58.0828 97.018 57.9437 96.8406 57.6668C96.6753 57.39 96.5873 57.0628 96.5873 56.672H97.158C97.158 56.9488 97.2086 57.1754 97.31 57.3277C97.4113 57.4774 97.5886 57.5542 97.8673 57.5542C98.1206 57.5542 98.3113 57.4906 98.45 57.3767C98.578 57.2522 98.6406 57.0879 98.654 56.8733C98.666 56.6097 98.6033 56.4203 98.4766 56.3196C98.362 56.2189 98.1206 56.105 97.754 55.9673C97.4993 55.8785 97.2966 55.7911 97.1446 55.7023C96.9926 55.6268 96.866 55.4877 96.7646 55.3235C96.65 55.1486 96.5993 54.8956 96.5993 54.5816ZM95.1286 51.9495H95.7113V52.743H95.1286V51.9495ZM95.1286 53.4981H95.7113V57.9821H95.1286V53.4981ZM93.4433 51.9243H94.026V57.9821H93.4433V51.9243ZM90.2353 55.8666C90.2353 56.4706 90.3113 56.9118 90.4513 57.1754C90.5913 57.4403 90.806 57.5661 91.098 57.5661C91.618 57.5661 91.8713 56.9992 91.8713 55.8533V55.5513C91.8713 55.0466 91.8073 54.6572 91.6806 54.3551C91.554 54.0518 91.3646 53.9008 91.11 53.9008C90.8446 53.9008 90.654 54.0014 90.5273 54.2028C90.4006 54.3922 90.3113 54.6187 90.286 54.8837C90.2606 55.1486 90.2353 55.4758 90.2353 55.8666ZM89.7033 57.9821V51.9243H90.286V53.9511C90.5273 53.5736 90.8193 53.3722 91.1606 53.3722C92.0486 53.3722 92.4926 54.1034 92.4926 55.5394C92.4926 56.4322 92.3913 57.0747 92.1753 57.4906C91.9726 57.8933 91.63 58.0947 91.186 58.0947C90.794 58.0947 90.4766 57.8814 90.2353 57.4522V57.9821H89.7033ZM86.078 55.5513C85.8873 55.6639 85.6726 55.7778 85.406 55.9037C85.1526 56.0295 84.9753 56.1434 84.886 56.2693C84.81 56.3951 84.7593 56.5846 84.7593 56.8482C84.7473 57.3025 84.9246 57.5542 85.3046 57.5661C85.5073 57.5542 85.6846 57.4774 85.8366 57.3277C85.9886 57.1754 86.078 56.974 86.078 56.7223V55.5513ZM84.138 56.8985C84.138 56.5342 84.1886 56.256 84.3153 56.0666C84.43 55.8785 84.6073 55.7394 84.8353 55.652L85.7353 55.2612C85.7993 55.236 85.85 55.2109 85.9126 55.1857C85.9766 55.1605 86.0273 55.1234 86.0646 55.085C86.1033 55.0347 86.1153 54.9843 86.1153 54.9088V54.4426C86.1153 54.2915 86.0646 54.1657 85.9766 54.065C85.8753 53.9643 85.7233 53.9008 85.494 53.9008C85.2406 53.9008 85.0766 53.9643 84.9873 54.0783C84.8993 54.1909 84.8486 54.4055 84.8486 54.6942H84.3033C84.29 53.8133 84.6833 53.3722 85.494 53.3722C86.014 53.3722 86.3446 53.4861 86.4833 53.7378C86.6233 53.9895 86.686 54.3035 86.686 54.6942V57.0999C86.686 57.2774 86.6993 57.39 86.7366 57.4403C86.762 57.4906 86.8126 57.5291 86.8886 57.541C86.9273 57.5291 86.978 57.5158 87.054 57.5158V57.9821C86.8766 58.0073 86.762 58.0073 86.6993 58.0073C86.5086 58.0073 86.382 57.9569 86.306 57.8562C86.23 57.7556 86.1793 57.5913 86.166 57.3515C85.9513 57.843 85.622 58.0947 85.1646 58.0947C84.7593 58.0695 84.4926 57.9437 84.354 57.7304C84.2273 57.5158 84.1513 57.2389 84.138 56.8985ZM80.1326 57.9821V53.4861H80.69V54.2531C80.83 53.9511 80.994 53.7378 81.1593 53.6107C81.3233 53.4981 81.578 53.4358 81.9446 53.4358V54.1034C81.806 54.0783 81.7046 54.065 81.6286 54.065C81.3486 54.065 81.1206 54.1789 80.9686 54.4055C80.8046 54.6187 80.7153 54.9459 80.7153 55.3619V57.9821H80.1326ZM76.7473 55.6891C76.7473 56.2441 76.798 56.6839 76.9126 57.0376C77.014 57.3767 77.2673 57.5542 77.6606 57.5542C78.0273 57.5542 78.2553 57.3767 78.358 57.0376C78.4593 56.6839 78.51 56.256 78.51 55.7527C78.51 55.2241 78.4593 54.783 78.3446 54.4306C78.23 54.0783 77.99 53.9008 77.622 53.9008C77.0393 53.9008 76.7473 54.5061 76.7473 55.6891ZM76.126 55.6639C76.126 54.1538 76.6206 53.3974 77.5966 53.3974C78.154 53.3974 78.5473 53.5855 78.7753 53.9643C79.0046 54.3419 79.13 54.9088 79.13 55.6891C79.13 57.2893 78.6366 58.0947 77.6726 58.1079C77.1273 58.1079 76.7353 57.8814 76.494 57.4403C76.2526 56.9992 76.126 56.4071 76.126 55.6639ZM74.3646 57.9821V54.0399H73.7433V53.4981H74.3646V52.8185C74.3646 52.4781 74.4526 52.2515 74.6433 52.1125C74.8206 51.9747 75.0486 51.9111 75.302 51.9111H75.4793C75.53 51.9243 75.5686 51.9243 75.6193 51.9243V52.4781H75.3153C75.074 52.4781 74.9473 52.6172 74.9473 52.9192V53.4981H75.6193V54.0399H74.9473V57.9821H74.3646ZM68.7606 54.5816C68.7606 54.3419 68.8113 54.1286 68.9126 53.9511C69.002 53.7749 69.1406 53.6372 69.3313 53.5232C69.522 53.4226 69.75 53.3722 70.0153 53.3722C70.878 53.3722 71.2966 53.8133 71.2966 54.6942H70.7126C70.726 54.4174 70.6753 54.216 70.574 54.1034C70.4726 53.9763 70.2953 53.9259 70.066 53.9259C69.6353 53.9259 69.4073 54.1154 69.382 54.5061C69.382 54.6942 69.4073 54.8333 69.458 54.934C69.522 55.0347 69.598 55.1234 69.7113 55.1857C69.838 55.2493 70.054 55.35 70.3713 55.4877C70.7513 55.652 71.03 55.8162 71.1953 55.9924C71.3593 56.1805 71.4486 56.4071 71.4486 56.672C71.4486 57.1383 71.3086 57.4906 71.0553 57.7423C70.7886 57.9821 70.4473 58.1079 70.0286 58.0947C69.534 58.0828 69.1913 57.9437 69.014 57.6668C68.8366 57.39 68.7486 57.0628 68.7486 56.672H69.318C69.318 56.9488 69.37 57.1754 69.4713 57.3277C69.5726 57.4774 69.762 57.5542 70.0286 57.5542C70.2953 57.5542 70.4846 57.4906 70.6113 57.3767C70.7513 57.2522 70.814 57.0879 70.8273 56.8733C70.8273 56.6097 70.7766 56.4203 70.65 56.3196C70.5233 56.2189 70.282 56.105 69.9273 55.9673C69.674 55.8785 69.4713 55.7911 69.318 55.7023C69.166 55.6268 69.0393 55.4877 68.926 55.3235C68.8246 55.1486 68.7606 54.8956 68.7606 54.5816ZM65.198 57.9821V53.4981H65.8073V54.0014C65.8193 53.9259 65.934 53.8001 66.15 53.6372C66.3646 53.461 66.5806 53.3722 66.7953 53.3722C67.1633 53.3722 67.442 53.4729 67.6193 53.6742C67.81 53.8756 67.8993 54.1909 67.8993 54.6187V57.9821H67.29V54.934C67.29 54.5816 67.2646 54.3286 67.1886 54.1657C67.1126 54.0014 66.9486 53.914 66.694 53.9008C66.4406 53.9008 66.238 53.9763 66.0606 54.1657C65.8953 54.3419 65.8073 54.5936 65.8073 54.8956V57.9821H65.198ZM61.89 55.6891C61.89 56.2441 61.9406 56.6839 62.054 57.0376C62.1566 57.3767 62.41 57.5542 62.8033 57.5542C63.17 57.5542 63.398 57.3767 63.4993 57.0376C63.6006 56.6839 63.6513 56.256 63.6513 55.7527C63.6513 55.2241 63.6006 54.783 63.4873 54.4306C63.3726 54.0783 63.1446 53.9008 62.7766 53.9008C62.182 53.9008 61.89 54.5061 61.89 55.6891ZM61.2686 55.6639C61.2686 54.1538 61.7633 53.3974 62.7393 53.3974C63.2966 53.3974 63.69 53.5855 63.918 53.9643C64.1593 54.3419 64.2726 54.9088 64.2726 55.6891C64.2726 57.2893 63.7913 58.0947 62.8153 58.1079C62.27 58.1079 61.8766 57.8814 61.6366 57.4403C61.3953 56.9992 61.2686 56.4071 61.2686 55.6639ZM59.7606 51.9495H60.3433V52.743H59.7606V51.9495ZM59.7606 53.4981H60.3433V57.9821H59.7606V53.4981ZM57.77 57.0879V54.0399H57.186V53.4981H57.77V52.2886H58.3526V53.4981H59.0633V54.0399H58.3526V57.1634C58.3526 57.2641 58.378 57.3396 58.4166 57.3767C58.454 57.4271 58.53 57.4522 58.6446 57.4522H59.038V57.9821H58.378C58.1886 57.9821 58.0486 57.9437 57.9726 57.8814C57.8833 57.8311 57.8326 57.7423 57.8073 57.6297C57.782 57.5158 57.77 57.3277 57.77 57.0879ZM53.942 53.4861H54.5246V56.9369C54.5246 57.3515 54.6766 57.5542 54.9686 57.5542C55.31 57.5542 55.5633 57.4522 55.7166 57.2522C55.8806 57.0376 55.9566 56.7846 55.9566 56.4826V53.4861H56.566V57.9821H55.9566V57.39C55.7286 57.8562 55.386 58.0947 54.9433 58.0947C54.2713 58.0947 53.942 57.692 53.942 56.8985V53.4861ZM52.2046 51.9243H52.8006V57.9821H52.2046V51.9243ZM48.8953 55.6891C48.8953 56.2441 48.946 56.6839 49.0606 57.0376C49.1753 57.3767 49.4153 57.5542 49.8086 57.5542C50.1766 57.5542 50.4166 57.3767 50.506 57.0376C50.6073 56.6839 50.658 56.256 50.658 55.7527C50.658 55.2241 50.6073 54.783 50.4926 54.4306C50.3913 54.0783 50.1513 53.9008 49.7833 53.9008C49.1873 53.9008 48.8953 54.5061 48.8953 55.6891ZM48.2753 55.6639C48.2753 54.1538 48.7686 53.3974 49.7446 53.3974C50.3033 53.3974 50.6953 53.5855 50.9366 53.9643C51.1646 54.3419 51.2793 54.9088 51.2793 55.6891C51.2793 57.2893 50.7966 58.0947 49.8206 58.1079C49.2766 58.1079 48.8833 57.8814 48.642 57.4403C48.402 56.9992 48.2753 56.4071 48.2753 55.6639ZM44.89 54.5816C44.89 54.3419 44.9406 54.1286 45.042 53.9511C45.13 53.7749 45.27 53.6372 45.4606 53.5232C45.65 53.4226 45.8793 53.3722 46.1446 53.3722C47.0073 53.3722 47.4246 53.8133 47.4246 54.6942H46.842C46.8553 54.4174 46.8046 54.216 46.7033 54.1034C46.6006 53.9763 46.4233 53.9259 46.1953 53.9259C45.7646 53.9259 45.5366 54.1154 45.5113 54.5061C45.5113 54.6942 45.5366 54.8333 45.5873 54.934C45.638 55.0347 45.726 55.1234 45.8406 55.1857C45.9553 55.2493 46.1833 55.35 46.4993 55.4877C46.8806 55.652 47.1593 55.8162 47.3233 55.9924C47.4886 56.1805 47.578 56.4071 47.578 56.672C47.578 57.1383 47.438 57.4906 47.1846 57.7423C46.918 57.9821 46.5753 58.1079 46.158 58.0947C45.6633 58.0828 45.3206 57.9437 45.1433 57.6668C44.966 57.39 44.8766 57.0628 44.8766 56.672H45.4473C45.4473 56.9488 45.498 57.1754 45.5993 57.3277C45.7006 57.4774 45.8913 57.5542 46.158 57.5542C46.4233 57.5542 46.614 57.4906 46.7406 57.3767C46.8673 57.2522 46.9433 57.0879 46.9566 56.8733C46.9566 56.6097 46.8926 56.4203 46.7793 56.3196C46.6513 56.2189 46.4113 56.105 46.0566 55.9673C45.802 55.8785 45.5993 55.7911 45.4473 55.7023C45.2953 55.6268 45.1686 55.4877 45.054 55.3235C44.9526 55.1486 44.89 54.8956 44.89 54.5816ZM40.034 55.7646C40.034 56.2945 40.0846 56.7223 40.1993 57.0628C40.3006 57.4019 40.5286 57.5661 40.8713 57.5661C41.3913 57.5661 41.6566 56.974 41.6566 55.7778C41.6566 55.2493 41.594 54.8082 41.4926 54.4426C41.3913 54.0902 41.1753 53.9008 40.846 53.9008C40.5033 53.9008 40.2886 54.0783 40.186 54.4306C40.0846 54.783 40.034 55.2241 40.034 55.7646ZM39.4393 59.4935V53.4981H40.022V54.0147C40.25 53.5855 40.5673 53.3722 40.9726 53.3722C41.3913 53.3722 41.7073 53.5855 41.9366 53.9895C42.1646 54.3922 42.266 54.9088 42.266 55.5394C42.266 55.9037 42.2526 56.2693 42.202 56.6216C42.1513 56.9873 42.0246 57.3277 41.834 57.6297C41.6313 57.9437 41.3406 58.0947 40.934 58.0947C40.694 58.0947 40.5286 58.0444 40.4406 57.9702C40.3393 57.8814 40.1993 57.7304 40.034 57.5026V59.4935H39.4393ZM37.918 55.2745C37.918 54.8585 37.8793 54.5181 37.79 54.2783C37.702 54.0266 37.5246 53.9008 37.258 53.9008C36.966 53.9008 36.7633 54.0399 36.65 54.3167C36.5486 54.5816 36.498 54.9088 36.498 55.2745H37.918ZM35.8886 55.803C35.8886 55.2241 35.978 54.6823 36.1553 54.1538C36.3326 53.6372 36.7006 53.3722 37.246 53.3722C37.778 53.3722 38.1206 53.5603 38.2846 53.914C38.45 54.2783 38.5393 54.7578 38.5393 55.3619V55.803H36.498C36.498 55.8785 36.498 55.954 36.4846 56.0163C36.498 56.4706 36.5486 56.8362 36.6366 57.125C36.738 57.4151 36.9286 57.5542 37.2206 57.5542C37.5366 57.5542 37.7406 57.4522 37.8286 57.2522C37.918 57.0376 37.9553 56.7846 37.9553 56.4826H38.526C38.526 57.1131 38.386 57.541 38.1073 57.7675C37.8286 57.9953 37.5366 58.1079 37.2206 58.1079C36.3326 58.1079 35.8886 57.3396 35.8886 55.803ZM34.5833 55.2745C34.5833 54.8585 34.5326 54.5181 34.4566 54.2783C34.3673 54.0266 34.19 53.9008 33.9113 53.9008C33.6193 53.9008 33.43 54.0399 33.3153 54.3167C33.202 54.5816 33.1513 54.9088 33.1633 55.2745H34.5833ZM32.542 55.803C32.542 55.2241 32.6313 54.6823 32.8206 54.1538C32.998 53.6372 33.354 53.3722 33.8993 53.3722C34.4313 53.3722 34.786 53.5603 34.9513 53.914C35.1153 54.2783 35.1913 54.7578 35.1913 55.3619V55.803H33.1633C33.1633 55.8785 33.1633 55.954 33.1513 56.0163C33.1633 56.4706 33.214 56.8362 33.3033 57.125C33.3913 57.4151 33.594 57.5542 33.886 57.5542C34.2033 57.5542 34.3926 57.4522 34.482 57.2522C34.5713 57.0376 34.622 56.7846 34.622 56.4826H35.1793C35.1913 57.1131 35.0526 57.541 34.774 57.7675C34.482 57.9953 34.19 58.1079 33.886 58.1079C32.986 58.1079 32.542 57.3396 32.542 55.803ZM31.0846 51.9243H31.6673V57.9821H31.0846V51.9243ZM26.7873 56.0666H27.4086C27.4086 56.4071 27.4206 56.672 27.4593 56.8482C27.4846 57.0243 27.5726 57.1886 27.738 57.3145C27.89 57.4522 28.1686 57.5158 28.5366 57.5158C28.9166 57.5158 29.1833 57.4019 29.3606 57.1634C29.55 56.9118 29.614 56.5846 29.5753 56.1686C29.5633 55.9924 29.4993 55.8414 29.4113 55.7394C29.322 55.6268 29.17 55.5142 28.942 55.4255C28.9286 55.4122 28.8153 55.3619 28.6126 55.2864C28.41 55.2109 28.258 55.1486 28.13 55.0983C28.0166 55.0466 27.8513 54.9711 27.662 54.8956C27.1286 54.6691 26.8633 54.216 26.8633 53.5232C26.8633 52.9563 27.0273 52.5152 27.3313 52.2264C27.6486 51.9363 28.0286 51.7853 28.4606 51.7972C29.0686 51.8223 29.4873 51.9866 29.702 52.2886C29.9313 52.5907 30.0446 53.0066 30.0446 53.5113H29.4113C29.4233 52.7801 29.094 52.4145 28.4353 52.4145C27.826 52.4145 27.51 52.7933 27.4966 53.5232C27.4966 53.7498 27.5473 53.9259 27.662 54.0518C27.7753 54.1789 27.9406 54.2915 28.1566 54.3671C28.3713 54.4426 28.562 54.5181 28.7646 54.5936C29.2713 54.8214 29.6393 55.0214 29.8673 55.2109C30.0953 55.3871 30.21 55.7142 30.21 56.1805C30.21 56.8614 30.058 57.3515 29.7273 57.6549C29.398 57.9569 28.9926 58.1079 28.5113 58.1199C27.8006 58.1199 27.3313 57.9185 27.0913 57.5158C26.85 57.1131 26.7486 56.6349 26.7873 56.0666Z" fill="#221F20"/>
<path fill-rule="evenodd" clip-rule="evenodd" d="M132.235 20.815L129.231 22.3132L126.15 23.2458L123.07 23.8763L120.065 24.1148L116.833 24.026L113.677 23.6366L110.533 23.006L107.299 22.0748L104.067 21.0548L100.771 19.8824L97.4753 18.5485L94.1659 17.0622L87.3459 14.0141L80.5259 11.0283L77.0766 9.63076L73.6286 8.37099L70.1046 7.27549L66.5926 6.25549L62.9166 5.55076L59.3286 5.08447L55.7286 4.84471L52.0646 4.93346L48.4019 5.39842L44.6486 6.17998L40.9099 7.4265L37.1699 9.07705L33.3539 11.2681L29.5379 13.9254L25.7353 17.1377L21.8433 20.9793L26.6099 18.5485L31.2366 16.5959L35.7113 15.0209L40.1113 13.9254L44.3579 13.1451L48.5406 12.6788L52.5726 12.5278L56.4646 12.6788L60.3566 13.0696L64.0953 13.6988L67.6833 14.4049L71.2833 15.3361L74.6553 16.3561L78.1046 17.5285L81.4766 18.7869L84.7086 19.9593L87.9286 21.2058L91.0859 22.4655L94.1659 23.6366L97.2459 24.7321L100.263 25.7521L103.269 26.6091L106.197 27.2384L109.138 27.7934L111.99 28.0186H114.931L117.797 27.7046L120.725 27.0873L123.59 26.1428L126.442 24.8076L129.307 23.006L132.235 20.815Z" fill="#D52526"/>
<path d="M116.11 9.11482C116.11 13.7432 112.332 17.496 107.674 17.496C103.014 17.496 99.2363 13.7432 99.2363 9.11482C99.2363 4.48508 103.014 0.732275 107.674 0.732275C112.332 0.732275 116.11 4.48508 116.11 9.11482Z" fill="#005AA7"/>
</svg>
