<svg width="122" height="69" viewBox="0 0 122 69" fill="none" xmlns="http://www.w3.org/2000/svg">
<path fill-rule="evenodd" clip-rule="evenodd" d="M22.4157 67.8396H16.345C14.9997 65.7439 13.7877 63.9371 12.6943 62.4097C11.613 60.8903 10.433 59.314 9.16499 57.6925H6.86099V64.7994C6.86099 65.1637 6.91966 65.4869 7.03033 65.7691C7.14499 66.0433 7.39433 66.2566 7.77833 66.4089C7.97166 66.4791 8.29699 66.548 8.77966 66.6089C9.25833 66.6725 9.65966 66.7123 9.98766 66.7229V67.8396H0.45166V66.7229C0.708993 66.7003 1.07833 66.6633 1.55699 66.6089C2.03966 66.5626 2.37699 66.491 2.56766 66.4089C2.88366 66.2672 3.11566 66.0645 3.25433 65.8062C3.40233 65.5373 3.47299 65.2074 3.47299 64.7994V48.6092C3.47299 48.237 3.41966 47.9138 3.31033 47.629C3.20766 47.3415 2.95566 47.1309 2.56766 46.9825C2.30233 46.8858 1.95833 46.7984 1.52899 46.7242C1.10633 46.6474 0.748993 46.5931 0.45166 46.5745V45.4578H10.861C11.813 45.4578 12.713 45.5492 13.549 45.7426C14.3783 45.9387 15.1423 46.2553 15.8197 46.6792C16.477 47.1004 16.9997 47.6502 17.3903 48.3284C17.7837 49.008 17.985 49.8266 17.985 50.7857C17.985 51.6454 17.8503 52.4124 17.5823 53.0734C17.3157 53.7357 16.9277 54.3067 16.409 54.7889C15.933 55.2445 15.3583 55.6406 14.6917 55.9638C14.025 56.303 13.2877 56.5798 12.485 56.809C13.597 58.2781 14.5183 59.5047 15.2517 60.5101C15.9957 61.501 16.8943 62.717 17.9703 64.1437C18.4357 64.7809 18.8543 65.2432 19.2303 65.5466C19.609 65.8406 19.981 66.091 20.349 66.2751C20.6263 66.4116 20.9663 66.5215 21.3877 66.5983C21.7997 66.6686 22.137 66.7123 22.4157 66.7229V67.8396ZM14.057 51.146C14.057 49.7869 13.6663 48.7165 12.8823 47.9204C12.0997 47.1309 10.989 46.7256 9.55966 46.7256H6.86099V56.3361H8.94499C10.4037 56.3361 11.621 55.8724 12.5957 54.9438C13.5663 54.0126 14.057 52.7449 14.057 51.146ZM36.8037 64.1795C36.1463 65.4234 35.2663 66.4089 34.1637 67.1468C33.061 67.8859 31.7903 68.2502 30.3663 68.2502C29.1023 68.2502 27.9997 68.0303 27.0517 67.5866C26.0997 67.1468 25.321 66.548 24.7037 65.7903C24.0917 65.0405 23.6317 64.1437 23.3277 63.1383C23.0317 62.1262 22.877 61.0599 22.877 59.9339C22.877 58.9298 23.041 57.9389 23.3597 56.964C23.6877 55.985 24.1597 55.1108 24.785 54.3358C25.389 53.5887 26.141 52.9886 27.0343 52.529C27.9277 52.0719 28.9343 51.8415 30.0437 51.8415C31.1903 51.8415 32.1743 52.0137 32.9823 52.3832C33.8063 52.7316 34.4663 53.2231 34.9743 53.8444C35.4583 54.4365 35.8197 55.1346 36.0663 55.9294C36.301 56.7295 36.421 57.5958 36.421 58.5297V59.5736H26.0423C26.0423 60.5909 26.141 61.5156 26.3343 62.3475C26.5317 63.182 26.8423 63.9106 27.2663 64.5477C27.681 65.1531 28.2183 65.6313 28.8877 65.989C29.553 66.3361 30.349 66.5162 31.2717 66.5162C32.2157 66.5162 33.029 66.2976 33.7117 65.8645C34.3903 65.4234 35.053 64.6365 35.689 63.5039L36.8037 64.1795ZM33.2917 58.2489C33.2917 57.6555 33.237 57.0289 33.137 56.3533C33.037 55.6804 32.8783 55.1174 32.653 54.6736C32.409 54.1795 32.077 53.7914 31.6517 53.4814C31.229 53.1754 30.681 53.027 30.0117 53.027C28.901 53.027 27.9757 53.4814 27.2397 54.406C26.5023 55.324 26.105 56.6076 26.0423 58.2489H33.2917ZM45.6623 67.8396H38.2797V66.8394C38.517 66.8156 38.7637 66.7891 39.037 66.7639C39.301 66.7441 39.521 66.7003 39.6983 66.6513C39.9823 66.5626 40.197 66.4023 40.3383 66.1731C40.4783 65.94 40.5557 65.6446 40.5557 65.2816L40.3103 48.6702C40.3063 48.4834 40.2277 47.939 40.1303 47.5641C40.081 47.3972 40.037 47.2541 39.985 47.2077C39.9397 47.1548 39.9237 47.0965 39.8477 47.0342C39.585 46.7984 39.917 47.1309 39.6703 46.9031C39.5103 46.7626 39.737 46.8527 39.245 46.752C38.7637 46.6514 37.945 46.8726 37.6477 46.8527L37.6197 45.7572L43.1223 45.4658L43.3877 45.6804L43.401 65.1001C43.401 65.4538 43.4677 65.7439 43.6023 65.9718C43.7383 66.2036 43.957 66.3771 44.2477 66.503C44.4703 66.6063 44.6943 66.6791 44.9183 66.7282C45.137 66.7798 45.381 66.8156 45.6623 66.8394V67.8396ZM55.1463 67.8396H47.629V66.8103C47.873 66.7891 48.1197 66.7639 48.373 66.7441C48.629 66.7229 48.8543 66.6791 49.0477 66.6169C49.3383 66.5255 49.5597 66.3626 49.6997 66.1268C49.8383 65.8936 49.9183 65.5863 49.9183 65.2101V55.6857C49.9183 55.3492 49.8343 55.0472 49.681 54.7663C49.5343 54.4895 49.3143 54.2616 49.0477 54.0709C48.845 53.9477 48.561 53.8377 48.1823 53.753C47.7983 53.6655 47.457 53.6125 47.1423 53.5887V52.5727L52.629 52.2256L52.8477 52.4468V65.0246C52.8477 65.3876 52.9157 65.6962 53.0543 65.9347C53.1957 66.1691 53.421 66.3493 53.7223 66.4632C53.9637 66.5626 54.1877 66.6341 54.409 66.6871C54.629 66.7441 54.8717 66.7891 55.1463 66.8103V67.8396ZM53.1597 46.1414C53.1597 46.7362 52.9637 47.2515 52.565 47.6992C52.1757 48.1443 51.6903 48.3642 51.109 48.3642C50.5757 48.3642 50.1063 48.1522 49.7143 47.7297C49.321 47.3111 49.125 46.8262 49.125 46.2805C49.125 45.7095 49.321 45.2101 49.7143 44.7823C50.1063 44.3544 50.5757 44.1424 51.109 44.1424C51.7103 44.1424 52.205 44.3385 52.5837 44.7412C52.9637 45.1412 53.1597 45.6075 53.1597 46.1414ZM71.905 67.5534C71.4023 67.7323 70.9717 67.874 70.5997 67.9919C70.2197 68.1018 69.7983 68.1575 69.3183 68.1575C68.4903 68.1575 67.8317 67.9654 67.3343 67.5826C66.845 67.1944 66.529 66.6341 66.393 65.9042H66.297C65.6037 66.6553 64.8717 67.2382 64.077 67.6356C63.2903 68.0303 62.3423 68.237 61.2303 68.237C60.0517 68.237 59.0877 67.874 58.3263 67.16C57.5663 66.4487 57.185 65.5081 57.185 64.353C57.185 63.7529 57.273 63.2231 57.441 62.7462C57.617 62.2693 57.8663 61.8454 58.205 61.4639C58.473 61.15 58.8237 60.8678 59.253 60.6254C59.6877 60.3763 60.1023 60.175 60.4837 60.0332C60.9557 59.8518 61.9237 59.518 63.377 59.0371C64.8383 58.5536 65.8183 58.1734 66.329 57.9005V56.3361C66.329 56.2036 66.2997 55.9347 66.237 55.5492C66.1783 55.1611 66.057 54.7889 65.8677 54.4484C65.6517 54.055 65.361 53.7132 64.9677 53.4297C64.581 53.141 64.0317 52.9926 63.3183 52.9926C62.8317 52.9926 62.3837 53.0734 61.9663 53.2363C61.549 53.3993 61.2517 53.5741 61.0837 53.753C61.0837 53.9609 61.133 54.2722 61.233 54.6842C61.341 55.0882 61.3903 55.4658 61.3903 55.8195C61.3903 56.1877 61.217 56.5189 60.889 56.8275C60.5517 57.1335 60.089 57.2845 59.4957 57.2845C58.969 57.2845 58.5743 57.0991 58.3263 56.7282C58.0797 56.3533 57.949 55.9347 57.949 55.4658C57.949 54.9836 58.129 54.5199 58.465 54.0802C58.817 53.6364 59.261 53.2443 59.8103 52.8999C60.2957 52.6031 60.8623 52.3568 61.5463 52.1488C62.2197 51.9421 62.885 51.8415 63.5263 51.8415C64.421 51.8415 65.1957 51.9064 65.8597 52.0243C66.529 52.1408 67.1183 52.4058 67.6597 52.8058C68.201 53.1913 68.6117 53.7212 68.8943 54.3848C69.1743 55.0551 69.3183 55.9135 69.3183 56.9693C69.3183 58.4741 69.2957 59.8054 69.2717 60.9685C69.2397 62.1289 69.2237 63.4019 69.2237 64.7809C69.2237 65.1902 69.2903 65.5134 69.437 65.7572C69.5757 65.9996 69.7983 66.2036 70.0957 66.3718C70.2583 66.4685 70.5037 66.5215 70.8477 66.5334C71.197 66.544 71.5437 66.548 71.905 66.548V67.5534ZM66.361 59.2212C65.4637 59.4888 64.6677 59.7484 63.9917 59.9975C63.313 60.2518 62.6837 60.5671 62.0997 60.9513C61.569 61.3023 61.1557 61.7275 60.845 62.2163C60.541 62.7025 60.3837 63.284 60.3837 63.9583C60.3837 64.8299 60.6157 65.4763 61.0757 65.8857C61.541 66.2976 62.1237 66.503 62.8263 66.503C63.5837 66.503 64.245 66.3135 64.8183 65.9532C65.389 65.5929 65.8743 65.1637 66.2637 64.667L66.361 59.2212ZM90.7663 67.8396H83.093V66.8023C83.3357 66.7798 83.6037 66.7626 83.8957 66.7335C84.1877 66.7162 84.4263 66.6725 84.6183 66.6089C84.9183 66.5162 85.133 66.3493 85.2757 66.1148C85.4263 65.8751 85.4943 65.5691 85.4943 65.1902V57.1852C85.4943 56.0831 85.229 55.2313 84.7063 54.6365C84.185 54.0404 83.5437 53.7357 82.7957 53.7357C82.2263 53.7357 81.713 53.8218 81.2477 53.9874C80.785 54.1689 80.3677 54.3809 80.0117 54.6365C79.6677 54.8776 79.3837 55.1412 79.1743 55.4168C78.969 55.6989 78.821 55.9135 78.725 56.0831V65.0405C78.725 65.3929 78.797 65.687 78.949 65.9175C79.093 66.1493 79.3157 66.3321 79.613 66.4513C79.8343 66.5626 80.0783 66.6341 80.3383 66.6871C80.5997 66.7441 80.861 66.7798 81.1397 66.8023V67.8396H73.461V66.8023C73.7063 66.7798 73.9583 66.7626 74.2157 66.7335C74.4757 66.7162 74.701 66.6725 74.8917 66.6089C75.185 66.5162 75.4103 66.3493 75.5503 66.1148C75.697 65.8751 75.7623 65.5691 75.7623 65.1902V55.5823C75.7623 55.2247 75.6903 54.8948 75.537 54.5968C75.381 54.2921 75.1637 54.0457 74.8917 53.8603C74.6903 53.7357 74.4583 53.6457 74.177 53.5847C73.9023 53.5198 73.6037 53.4854 73.285 53.4642V52.4468L78.5063 52.0945L78.725 52.313V54.5067H78.801C79.0557 54.2616 79.3757 53.9477 79.757 53.6019C80.137 53.2496 80.497 52.9621 80.8357 52.7422C81.2343 52.4879 81.697 52.2786 82.233 52.1104C82.773 51.9421 83.3823 51.8547 84.065 51.8547C85.5623 51.8547 86.685 52.3263 87.4103 53.2496C88.1383 54.1795 88.4983 55.4194 88.4983 56.9693V65.0577C88.4983 65.4366 88.561 65.7347 88.6943 65.9532C88.8183 66.185 89.0317 66.3626 89.3423 66.4844C89.5957 66.5877 89.813 66.6633 89.997 66.7003C90.1837 66.7441 90.445 66.7798 90.7663 66.8023V67.8396ZM99.9463 68.2502C97.673 68.2502 95.8996 67.4991 94.6143 66.0075C93.3356 64.5199 92.6917 62.5144 92.6917 59.9975C92.6917 58.906 92.8663 57.8846 93.2103 56.9295C93.557 55.9797 94.0557 55.1108 94.7157 54.3358C95.337 53.5887 96.121 52.9886 97.073 52.529C98.0037 52.0719 99.0383 51.8415 100.15 51.8415C101.682 51.8415 102.936 52.2097 103.897 52.937C104.865 53.6708 105.35 54.6736 105.35 55.9294C105.35 56.4579 105.222 56.9229 104.966 57.3216C104.716 57.7323 104.296 57.931 103.706 57.931C103.084 57.931 102.602 57.772 102.254 57.4594C101.917 57.1455 101.741 56.7891 101.741 56.405C101.741 55.9294 101.805 55.4419 101.933 54.9438C102.06 54.4418 102.128 54.0802 102.15 53.8444C101.964 53.5198 101.682 53.2973 101.301 53.1913C100.925 53.0774 100.517 53.027 100.084 53.027C99.5797 53.027 99.0943 53.133 98.633 53.3503C98.1717 53.5649 97.7263 53.9609 97.2903 54.5358C96.8943 55.067 96.5836 55.7784 96.3356 56.6686C96.093 57.5694 95.9637 58.6317 95.9637 59.8703C95.9637 61.8322 96.405 63.4284 97.281 64.6656C98.1556 65.8949 99.3037 66.5162 100.722 66.5162C101.748 66.5162 102.613 66.2672 103.306 65.7757C103.996 65.2776 104.641 64.5438 105.232 63.5529L106.254 64.2139C105.552 65.4551 104.63 66.4328 103.484 67.16C102.344 67.8873 101.154 68.2502 99.9463 68.2502ZM121.397 64.1795C120.742 65.4234 119.861 66.4089 118.765 67.1468C117.668 67.8859 116.389 68.2502 114.964 68.2502C113.701 68.2502 112.598 68.0303 111.649 67.5866C110.705 67.1468 109.921 66.548 109.305 65.7903C108.693 65.0405 108.23 64.1437 107.93 63.1383C107.633 62.1262 107.476 61.0599 107.476 59.9339C107.476 58.9298 107.641 57.9389 107.964 56.964C108.282 55.985 108.757 55.1108 109.386 54.3358C109.992 53.5887 110.736 52.9886 111.636 52.529C112.529 52.0719 113.533 51.8415 114.644 51.8415C115.788 51.8415 116.769 52.0137 117.585 52.3832C118.409 52.7316 119.065 53.2231 119.57 53.8444C120.06 54.4365 120.424 55.1346 120.664 55.9294C120.904 56.7295 121.02 57.5958 121.02 58.5297V59.5736H110.641C110.641 60.5909 110.736 61.5156 110.934 62.3475C111.128 63.182 111.437 63.9106 111.864 64.5477C112.284 65.1531 112.818 65.6313 113.481 65.989C114.149 66.3361 114.95 66.5162 115.87 66.5162C116.818 66.5162 117.632 66.2976 118.313 65.8645C118.99 65.4234 119.654 64.6365 120.288 63.5039L121.397 64.1795ZM117.889 58.2489C117.889 57.6555 117.844 57.0289 117.736 56.3533C117.634 55.6804 117.478 55.1174 117.253 54.6736C117.012 54.1795 116.674 53.7914 116.249 53.4814C115.83 53.1754 115.282 53.027 114.613 53.027C113.504 53.027 112.58 53.4814 111.84 54.406C111.105 55.324 110.706 56.6076 110.641 58.2489H117.889Z" fill="black"/>
<path fill-rule="evenodd" clip-rule="evenodd" d="M68.4426 37.5028C67.0186 38.5546 65.144 38.7135 63.6893 38.0326C63.6893 38.0326 63.296 37.8723 62.924 37.4537C62.6093 37.063 54.5733 28.0644 54.5733 28.0644L54.5466 28.0406C57.0373 28.4844 59.7533 27.3067 61.156 25.1581C62.552 23.1128 62.5013 20.1959 61.18 18.1532C59.5973 15.9211 56.508 15.1859 53.916 15.5211C49.42 16.153 46.2026 20.119 45.196 24.2639C44.1653 28.9824 44.9053 33.4426 46.52 37.6392C46.8893 38.5281 47.3893 39.4487 48 40.2356C43.268 38.1903 39.0933 34.4123 36.904 29.356C34.4693 23.8957 34.5213 16.9968 37.4013 11.4623C39.6773 7.18622 43.6933 3.22942 48.656 1.55106C53.864 -0.5724 60.8626 -0.131283 65.9386 2.70485C72.096 5.74101 76.7426 13.3234 76.772 20.0886C76.9786 27.0935 73.8586 33.4426 68.4426 37.5028Z" fill="#BC923A"/>
<path fill-rule="evenodd" clip-rule="evenodd" d="M51.1706 40.1555C48.8692 37.6903 47.0212 34.4873 48.4172 31.1583C49.6639 28.6176 50.7719 26.0186 51.2986 23.0831C51.5132 26.1498 53.3892 28.8773 54.2879 31.8141C54.6279 33.2315 54.6572 34.7019 54.1039 36.1656C53.4932 37.7658 52.5159 39.1316 51.3532 40.3675L51.1706 40.1555Z" fill="#BC923A"/>
</svg>
