<svg width="166" height="70" viewBox="0 0 166 70" fill="none" xmlns="http://www.w3.org/2000/svg">
<path fill-rule="evenodd" clip-rule="evenodd" d="M14.9674 20.2869L12.8568 19.0616V3.40391L8.16211 0.781047V25.9565C10.0714 24.0556 12.3328 22.16 14.9674 20.2869Z" fill="#0054A1"/>
<path fill-rule="evenodd" clip-rule="evenodd" d="M6.8172 27.3585V0.725926L5.46387 1.33395V28.923C5.8892 28.4024 6.33987 27.8805 6.8172 27.3585Z" fill="#0054A1"/>
<path fill-rule="evenodd" clip-rule="evenodd" d="M1.41987 35.3985V19.8084L0.0678711 20.435V39.3315C0.138538 39.1341 0.223871 38.9368 0.299871 38.7394C0.567871 37.6373 0.931871 36.5232 1.41987 35.3985Z" fill="#0054A1"/>
<path fill-rule="evenodd" clip-rule="evenodd" d="M4.11883 30.6809V1.93807L2.76416 2.54742V32.7699C3.17216 32.0758 3.62416 31.379 4.11883 30.6809Z" fill="#0054A1"/>
<path fill-rule="evenodd" clip-rule="evenodd" d="M25.7607 24.0717L31.0714 27.2735L37.5101 15.3408L15.1781 17.2669L21.2061 20.772C-25.7833 50.6328 26.5087 88.043 79.2727 59.6313C16.2501 80.8553 -14.6673 46.0627 25.7607 24.0717Z" fill="#E81C24"/>
<path fill-rule="evenodd" clip-rule="evenodd" d="M54.2002 48.9849H56.1642V55.4226H54.2002V48.9849Z" fill="#808080"/>
<path fill-rule="evenodd" clip-rule="evenodd" d="M58.3032 55.4236V48.9857H61.1912L63.4472 53.7677V48.9857H65.3032V55.4236H62.4099L60.1539 50.5978V55.4236H58.3032Z" fill="#808080"/>
<path fill-rule="evenodd" clip-rule="evenodd" d="M67.3936 55.4236V48.9857H72.2696V50.4216H69.3376V51.6708H72.0989V53.0842H69.3376V55.4236H67.3936Z" fill="#808080"/>
<path fill-rule="evenodd" clip-rule="evenodd" d="M76.0597 52.0952H77.1464C77.4717 52.0952 77.6917 52.0448 77.8091 51.9428C77.9264 51.8435 77.9851 51.6567 77.9851 51.3851V51.1387C77.9851 50.8659 77.9251 50.6764 77.8077 50.5758C77.6891 50.4724 77.4677 50.4221 77.1464 50.4221H76.0597V52.0952ZM74.1157 55.4241V48.9848H77.0384C78.1557 48.9848 78.9224 49.1146 79.3384 49.3769C79.7544 49.6379 79.9611 50.0949 79.9611 50.7506V51.2686C79.9611 51.7044 79.8437 52.0448 79.6064 52.2912C79.3704 52.5376 79.0184 52.6873 78.5544 52.739C79.0437 52.8118 79.4011 52.9562 79.6251 53.1708C79.8504 53.3894 79.9611 53.6967 79.9611 54.0967V55.4241H77.9757V54.265C77.9757 53.9921 77.9157 53.804 77.7971 53.7007C77.6784 53.6 77.4584 53.5483 77.1371 53.5483H76.0597V55.4241H74.1157Z" fill="#808080"/>
<path fill-rule="evenodd" clip-rule="evenodd" d="M84.1071 52.9892H85.6951L84.9738 50.32H84.8471L84.1071 52.9892ZM81.3364 55.4226L83.4204 48.9847H86.4098L88.4458 55.4226H86.3618L86.0351 54.3006H83.7511L83.4204 55.4226H81.3364Z" fill="#808080"/>
<path fill-rule="evenodd" clip-rule="evenodd" d="M89.4814 53.4294H91.3468V53.4943C91.3468 53.7275 91.4161 53.8917 91.5561 53.9831C91.6961 54.0759 91.9428 54.1222 92.2961 54.1222H92.7841C93.0774 54.1222 93.2854 54.0865 93.4041 54.0149C93.5214 53.9447 93.5814 53.8202 93.5814 53.6427V53.3605C93.5814 53.2082 93.5348 53.0983 93.4401 53.032C93.3468 52.9658 93.1334 52.9155 92.8028 52.881L91.2254 52.73C90.6374 52.673 90.2081 52.5088 89.9374 52.2385C89.6654 51.9696 89.5294 51.5696 89.5294 51.0397V50.641C89.5294 50.3416 89.5828 50.074 89.6908 49.8396C89.7974 49.6038 89.9534 49.4117 90.1588 49.262C90.3334 49.1309 90.5454 49.0408 90.7961 48.9865C91.0454 48.9335 91.4201 48.907 91.9174 48.907H93.0788C93.8041 48.907 94.3574 49.0368 94.7401 49.2964C95.1241 49.5561 95.3148 49.931 95.3148 50.4211V50.8635H93.4494V50.7933C93.4494 50.5999 93.3988 50.4661 93.2974 50.3906C93.1934 50.3151 93.0108 50.278 92.7441 50.278H92.2961C91.9881 50.278 91.7761 50.3111 91.6614 50.3761C91.5468 50.441 91.4881 50.5522 91.4881 50.7112V50.9788C91.4881 51.2159 91.7494 51.3603 92.2708 51.4119L93.7081 51.5537C94.3281 51.6173 94.7921 51.7776 95.0961 52.0359C95.4014 52.2942 95.5548 52.6558 95.5548 53.1234V53.7407C95.5548 54.2759 95.3681 54.7011 94.9948 55.023C94.6201 55.3423 94.1188 55.5012 93.4881 55.5012H91.9068C91.0588 55.5012 90.4441 55.3727 90.0588 55.1131C89.6748 54.8521 89.4814 54.4415 89.4814 53.8758V53.4294Z" fill="#808080"/>
<path fill-rule="evenodd" clip-rule="evenodd" d="M98.7467 55.4236V50.4216H96.8813V48.9857H102.571V50.4216H100.715V55.4236H98.7467Z" fill="#808080"/>
<path fill-rule="evenodd" clip-rule="evenodd" d="M106.159 52.0952H107.246C107.571 52.0952 107.791 52.0448 107.909 51.9428C108.026 51.8435 108.085 51.6567 108.085 51.3851V51.1387C108.085 50.8659 108.025 50.6764 107.906 50.5758C107.789 50.4724 107.567 50.4221 107.246 50.4221H106.159V52.0952ZM104.215 55.4241V48.9848H107.138C108.255 48.9848 109.022 49.1146 109.438 49.3769C109.853 49.6379 110.061 50.0949 110.061 50.7506V51.2686C110.061 51.7044 109.943 52.0448 109.705 52.2912C109.469 52.5376 109.118 52.6873 108.654 52.739C109.143 52.8118 109.501 52.9562 109.725 53.1708C109.95 53.3894 110.061 53.6967 110.061 54.0967V55.4241H108.074V54.265C108.074 53.9921 108.014 53.804 107.897 53.7007C107.778 53.6 107.558 53.5483 107.237 53.5483H106.159V55.4241H104.215Z" fill="#808080"/>
<path fill-rule="evenodd" clip-rule="evenodd" d="M111.875 48.9851H113.808V52.7379C113.808 53.2612 113.881 53.599 114.029 53.7566C114.177 53.9103 114.48 53.9884 114.939 53.9884H115.295C115.748 53.9884 116.049 53.9116 116.195 53.7593C116.341 53.6069 116.415 53.2665 116.415 52.7379V48.9851H118.348V52.8731C118.348 53.4506 118.308 53.8732 118.229 54.1448C118.149 54.4163 118.015 54.6508 117.823 54.8495C117.595 55.0826 117.311 55.2495 116.972 55.3502C116.632 55.4509 116.173 55.5012 115.597 55.5012H114.636C114.059 55.5012 113.6 55.4509 113.261 55.3502C112.92 55.2495 112.64 55.0826 112.415 54.8495C112.22 54.6468 112.083 54.4084 111.999 54.1342C111.916 53.8573 111.875 53.4387 111.875 52.8731V48.9851Z" fill="#808080"/>
<path fill-rule="evenodd" clip-rule="evenodd" d="M126.19 52.9469V53.1337C126.19 53.9709 125.982 54.5762 125.566 54.9472C125.151 55.3181 124.471 55.5022 123.526 55.5022H122.869C121.842 55.5022 121.122 55.3088 120.71 54.9207C120.298 54.5325 120.091 53.8503 120.091 52.8727V51.5361C120.091 50.5585 120.298 49.8763 120.71 49.4882C121.122 49.1 121.842 48.9066 122.869 48.9066H123.405C124.425 48.9066 125.137 49.0775 125.538 49.4166C125.941 49.7571 126.142 50.3558 126.142 51.2155V51.3414H124.203V51.2248C124.203 50.9307 124.127 50.7228 123.974 50.6009C123.822 50.4804 123.555 50.4194 123.175 50.4194C122.757 50.4194 122.478 50.4923 122.338 50.6367C122.198 50.7797 122.129 51.1281 122.129 51.6792V52.7389C122.129 53.286 122.198 53.6318 122.338 53.7748C122.478 53.9179 122.757 53.9894 123.175 53.9894C123.569 53.9894 123.839 53.9245 123.989 53.7934C124.138 53.6622 124.214 53.4278 124.214 53.0939V52.9469H126.19Z" fill="#808080"/>
<path fill-rule="evenodd" clip-rule="evenodd" d="M129.4 55.4236V50.4216H127.535V48.9857H133.224V50.4216H131.368V55.4236H129.4Z" fill="#808080"/>
<path fill-rule="evenodd" clip-rule="evenodd" d="M134.758 48.9851H136.691V52.7379C136.691 53.2612 136.764 53.599 136.912 53.7566C137.06 53.9103 137.363 53.9884 137.822 53.9884H138.178C138.631 53.9884 138.932 53.9116 139.078 53.7593C139.224 53.6069 139.298 53.2665 139.298 52.7379V48.9851H141.231V52.8731C141.231 53.4506 141.191 53.8732 141.111 54.1448C141.032 54.4163 140.898 54.6508 140.706 54.8495C140.478 55.0826 140.194 55.2495 139.855 55.3502C139.516 55.4509 139.056 55.5012 138.48 55.5012H137.519C136.942 55.5012 136.483 55.4509 136.144 55.3502C135.803 55.2495 135.522 55.0826 135.298 54.8495C135.103 54.6468 134.966 54.4084 134.882 54.1342C134.799 53.8573 134.758 53.4387 134.758 52.8731V48.9851Z" fill="#808080"/>
<path fill-rule="evenodd" clip-rule="evenodd" d="M145.152 52.0952H146.238C146.564 52.0952 146.784 52.0448 146.901 51.9428C147.018 51.8435 147.077 51.6567 147.077 51.3851V51.1387C147.077 50.8659 147.017 50.6764 146.898 50.5758C146.781 50.4724 146.56 50.4221 146.238 50.4221H145.152V52.0952ZM143.208 55.4241V48.9848H146.13C147.248 48.9848 148.014 49.1146 148.43 49.3769C148.845 49.6379 149.053 50.0949 149.053 50.7506V51.2686C149.053 51.7044 148.936 52.0448 148.698 52.2912C148.461 52.5376 148.11 52.6873 147.646 52.739C148.136 52.8118 148.493 52.9562 148.717 53.1708C148.942 53.3894 149.053 53.6967 149.053 54.0967V55.4241H147.066V54.265C147.066 53.9921 147.008 53.804 146.889 53.7007C146.77 53.6 146.55 53.5483 146.229 53.5483H145.152V55.4241H143.208Z" fill="#808080"/>
<path fill-rule="evenodd" clip-rule="evenodd" d="M150.978 55.4236V48.9857H156.429V50.4216H152.922V51.5357H156.325V52.7769H152.922V53.9876H156.506V55.4236H150.978Z" fill="#808080"/>
<path fill-rule="evenodd" clip-rule="evenodd" d="M158.12 53.4294H159.985V53.4943C159.985 53.7275 160.054 53.8917 160.194 53.9831C160.334 54.0759 160.58 54.1222 160.934 54.1222H161.421C161.716 54.1222 161.924 54.0865 162.041 54.0149C162.16 53.9447 162.22 53.8202 162.22 53.6427V53.3605C162.22 53.2082 162.173 53.0983 162.078 53.032C161.985 52.9658 161.772 52.9155 161.441 52.881L159.864 52.73C159.276 52.673 158.846 52.5088 158.576 52.2385C158.304 51.9696 158.168 51.5696 158.168 51.0397V50.641C158.168 50.3416 158.221 50.074 158.329 49.8396C158.436 49.6038 158.592 49.4117 158.797 49.262C158.97 49.1309 159.184 49.0408 159.434 48.9865C159.684 48.9335 160.058 48.907 160.556 48.907H161.717C162.442 48.907 162.996 49.0368 163.378 49.2964C163.762 49.5561 163.953 49.931 163.953 50.4211V50.8635H162.088V50.7933C162.088 50.5999 162.037 50.4661 161.934 50.3906C161.832 50.3151 161.649 50.278 161.381 50.278H160.934C160.626 50.278 160.414 50.3111 160.3 50.3761C160.185 50.441 160.126 50.5522 160.126 50.7112V50.9788C160.126 51.2159 160.388 51.3603 160.909 51.4119L162.346 51.5537C162.966 51.6173 163.429 51.7776 163.734 52.0359C164.04 52.2942 164.193 52.6558 164.193 53.1234V53.7407C164.193 54.2759 164.006 54.7011 163.633 55.023C163.258 55.3423 162.757 55.5012 162.126 55.5012H160.545C159.697 55.5012 159.082 55.3727 158.697 55.1131C158.313 54.8521 158.12 54.4415 158.12 53.8758V53.4294Z" fill="#808080"/>
<path fill-rule="evenodd" clip-rule="evenodd" d="M22.3732 27.8942H29.4599L31.0852 38.8135L34.9106 27.8942H41.9772L40.1559 45.8462H35.7546L37.1426 32.157L32.3506 45.8462H28.3692L26.3532 32.157L24.9652 45.8462H20.5532L22.3732 27.8942ZM45.6279 27.8942H51.0172L49.1972 45.8462H43.8079L45.6279 27.8942ZM70.5386 38.8533L70.4772 39.1593L70.3946 39.4759L70.3026 39.8031L70.1892 40.1395L70.0546 40.476L69.9119 40.8112L69.7679 41.1582L69.6026 41.4841L69.4386 41.81L69.2639 42.1266L69.0892 42.4233L68.9039 42.7107L68.7292 42.977L68.5532 43.2154L68.3786 43.4327L68.2039 43.6208L68.0399 43.789L67.8652 43.9467L67.6999 44.095L67.5359 44.2328L67.3599 44.3626L67.1959 44.4805L67.0212 44.5997L66.8572 44.7189L66.5066 44.9163L66.1466 45.1137L65.7666 45.2925L65.3852 45.4594L65.1799 45.5495L64.9746 45.629L64.7586 45.6979L64.5426 45.7668L64.3159 45.8264L64.0892 45.886L63.8532 45.935L63.6066 45.984L63.3599 46.0238L63.1026 46.0635L62.8452 46.0926L62.5786 46.1125L62.2999 46.1324L62.0226 46.1522L61.7452 46.1628H61.4572H61.1079L60.7572 46.1522L60.4279 46.1324L60.1092 46.1032L59.7906 46.0741L59.4826 46.0436L59.1839 45.9946L58.8959 45.9443L58.6186 45.8953L58.3399 45.8264L58.0839 45.7562L57.8266 45.678L57.5799 45.5985L57.3426 45.5098L57.1172 45.4104L56.9012 45.3111L56.6852 45.2025L56.4786 45.074L56.2839 44.9468L56.0786 44.8077L55.8919 44.6487L55.6972 44.4911L55.5226 44.3229L55.3372 44.1348L55.1732 43.9467L54.9972 43.7387L54.8332 43.532L54.6786 43.3042L54.5252 43.0763L54.3812 42.8286L54.2372 42.5822L54.0919 42.3147L53.9692 42.0484L53.8452 41.7609L53.7332 41.4735L53.6399 41.1675L53.5586 40.8615L53.4759 40.5449L53.4146 40.2084L53.3626 39.872L53.3212 39.5262L53.2906 39.1699L53.2706 38.8029L53.2599 38.4281L53.2706 38.0426L53.2799 37.6465L53.3106 37.2412L53.3426 36.8252L53.4039 36.2821L53.4866 35.7469L53.5892 35.2329L53.7026 34.7282L53.8359 34.2434L53.9799 33.7784L54.0519 33.5519L54.1439 33.3241L54.2266 33.1068L54.3186 32.8896L54.4119 32.6816L54.5146 32.4736L54.6172 32.2657L54.7306 32.0683L54.8332 31.8696L54.9572 31.6828L55.0692 31.4947L55.1932 31.3066L55.3266 31.1278L55.4612 30.9503L55.5946 30.782L55.7386 30.6138L55.8826 30.4456L56.0266 30.2879L56.1812 30.129L56.3346 29.9806L56.4999 29.8322L56.6639 29.6945L56.8292 29.5554L57.0039 29.4176L57.1679 29.2891L57.3532 29.1699L57.5279 29.052L57.7132 28.9328L57.8986 28.8242L58.0932 28.7155L58.2786 28.6162L58.4746 28.5274L58.6799 28.4281L58.8852 28.3486L59.0919 28.2598L59.2972 28.1804L59.5132 28.1115L59.7292 28.0426L59.9452 27.983L60.1706 27.9234L60.3972 27.8744L60.6239 27.8254L60.8506 27.775L61.0866 27.7353L61.5706 27.6664L62.0639 27.6267L62.5679 27.5975L63.0919 27.5882H63.4932L63.8839 27.6068L64.2652 27.6373L64.6346 27.6757L64.9946 27.726L65.3346 27.7856L65.6732 27.8545L65.9932 27.934L66.3012 28.0227L66.5999 28.1221L66.8772 28.24L67.1546 28.3592L67.4119 28.4983L67.6586 28.6361L67.8959 28.7937L68.1212 28.9619L68.3372 29.1408L68.5639 29.358L68.7799 29.5859L69.0066 29.8428L69.2226 30.129L69.4279 30.427L69.6239 30.7529L69.8079 31.0894L69.9012 31.2576L69.9839 31.4351L70.0652 31.6232L70.1372 31.8113L70.2092 31.9994L70.2812 32.1862L70.3439 32.3849L70.3946 32.5823L70.4466 32.7902L70.4879 32.9876L70.5292 33.1956L70.5599 33.4036L70.5799 33.6102L70.6012 33.8288L70.6106 34.0474V34.254L65.6332 34.2646L65.5919 34.0553L65.5399 33.8778L65.4986 33.7096L65.4479 33.5519L65.3959 33.4036L65.3452 33.2751L65.2826 33.1651L65.2319 33.0565L65.1292 32.9081L65.0252 32.7598L64.9026 32.622L64.7892 32.4935L64.6559 32.3743L64.5226 32.2657L64.3772 32.1676L64.2239 32.0776L64.0692 31.9994L63.9052 31.9292L63.7306 31.8696L63.5546 31.8206L63.3799 31.7808L63.1852 31.761L62.9999 31.7424H62.7946H62.5679L62.3519 31.761L62.1359 31.7914L61.9306 31.8312L61.7239 31.8895L61.5186 31.9504L61.3332 32.0286L61.1386 32.1173L60.9639 32.2167L60.7879 32.3359L60.6132 32.4538L60.4492 32.5915L60.2839 32.7412L60.1306 32.8989L59.9866 33.0777L59.8426 33.2552L59.7292 33.4036L59.6359 33.5612L59.5439 33.7188L59.4519 33.8977L59.3692 34.0858L59.2866 34.2831L59.2039 34.4911L59.1426 34.6991L59.0706 34.9269L59.0092 35.1641L58.9572 35.4104L58.9066 35.6688L58.8546 35.935L58.8132 36.2119L58.7719 36.4993L58.7412 36.7961L58.7106 37.1617L58.6799 37.5074L58.6692 37.8439L58.6599 38.1711V38.4771L58.6692 38.7738L58.6799 39.0507L58.7106 39.3076L58.7412 39.566L58.7826 39.7925L58.8346 40.0097L58.8852 40.2177L58.9572 40.4058L59.0292 40.5846L59.1119 40.7423L59.2039 40.8906L59.3079 41.0191L59.4106 41.1476L59.5239 41.2668L59.6466 41.3755L59.7706 41.4735L59.9039 41.5622L60.0372 41.6417L60.1812 41.7212L60.3359 41.7808L60.4906 41.8404L60.6546 41.8894L60.8186 41.9292L60.9946 41.9583L61.1786 41.9782L61.3746 41.9888L61.5706 41.9981H61.7759L61.9706 41.9888L62.1666 41.9689L62.3626 41.949L62.5466 41.9292L62.7319 41.9L62.9079 41.859L63.0812 41.8206L63.2466 41.7715L63.4119 41.7212L63.5652 41.6629L63.7199 41.5927L63.8732 41.5238L64.0079 41.4443L64.1412 41.3556L64.2746 41.2668L64.3986 41.1675L64.5226 41.0589L64.6346 40.9489L64.7372 40.831L64.8412 40.7025L64.9332 40.574L65.0252 40.4349L65.0972 40.2866L65.1799 40.1289L65.2412 39.9713L65.3039 39.8031L65.3652 39.6242L65.4066 39.4467L65.4572 39.248L65.4892 39.0507L65.5199 38.8427L70.5386 38.8533ZM72.0612 45.8462L73.8812 27.8942H82.8506L83.4572 27.9035L84.0226 27.9234L84.5572 27.9525L85.0412 28.0029L85.4932 28.0625L85.9146 28.142L86.1106 28.1804L86.2852 28.2307L86.4599 28.2797L86.6239 28.3301L86.7786 28.3883L86.9332 28.4572L87.0879 28.5274L87.2319 28.5963L87.3652 28.6851L87.4986 28.7646L87.6332 28.8626L87.7559 28.9619L87.8692 29.0613L87.9919 29.1805L88.0959 29.2891L88.2079 29.4176L88.3106 29.5461L88.4039 29.6746L88.4972 29.823L88.5892 29.9621L88.6719 30.1197L88.7439 30.2681L88.8159 30.4363L88.8772 30.5939L88.9279 30.7622L88.9799 30.9304L89.0212 31.1079L89.0626 31.2867L89.0826 31.4748L89.1132 31.6629L89.1239 31.8497L89.1346 32.0484V32.2551V32.4538L89.1239 32.6617L89.1026 32.879L89.0519 33.2446L88.9906 33.6009L88.9492 33.7692L88.9079 33.9374L88.8559 34.1056L88.8052 34.2646L88.7439 34.4222L88.6812 34.5799L88.6199 34.7388L88.5479 34.8872L88.4759 35.0356L88.3932 35.1747L88.3106 35.3124L88.2186 35.4515L88.0332 35.7178L87.8279 35.9642L87.6226 36.2119L87.3852 36.4291L87.1492 36.6477L86.8919 36.8451L86.6239 37.0332L86.3466 37.212L86.1519 37.3206L85.9466 37.4187L85.7199 37.5074L85.4826 37.5975L85.2359 37.6862L84.9692 37.775L84.6812 37.8439L84.3826 37.9234L84.6092 38.0015L84.8146 38.081L85.0092 38.1711L85.1852 38.2492L85.3386 38.3287L85.4826 38.4175L85.6066 38.4969L85.7199 38.5857L85.7919 38.6453L85.8639 38.7248L85.9559 38.8135L86.0479 38.9222L86.2546 39.1897L86.4812 39.5262L86.7066 39.8627L86.8919 40.1687L87.0252 40.4257L87.1279 40.6442L89.1959 45.8462H83.1172L80.7932 40.3568L80.6906 40.0998L80.5772 39.872L80.4746 39.664L80.3719 39.4759L80.2692 39.3182L80.1652 39.1792L80.0626 39.0613L79.9599 38.9712L79.8266 38.8732L79.6826 38.7937L79.5279 38.7248L79.3746 38.6652L79.2092 38.6162L79.0452 38.5857L78.8692 38.5658L78.6852 38.5566H78.2119L77.4706 45.8462H72.0612ZM78.5506 35.1641H80.8239H80.9266L81.0506 35.1535L81.2039 35.1336L81.3692 35.1044L81.7799 35.025L82.2746 34.9163L82.4079 34.8872L82.5412 34.8475L82.6652 34.7879L82.7786 34.7282L82.8919 34.6501L83.0039 34.5613L83.1066 34.462L83.2092 34.352L83.2919 34.2434L83.3746 34.1255L83.4466 33.997L83.5079 33.8685L83.5599 33.74L83.6012 33.6009L83.6319 33.4632L83.6519 33.3148L83.6626 33.1068L83.6519 32.9081L83.6319 32.7214L83.5906 32.5531L83.5706 32.4644L83.5292 32.3849L83.4986 32.3147L83.4572 32.2365L83.4159 32.1676L83.3639 32.108L83.3119 32.0378L83.2506 31.9782L83.1892 31.9292L83.1172 31.8696L83.0346 31.8206L82.9426 31.7808L82.8506 31.7424L82.7466 31.7027L82.6346 31.6629L82.5212 31.6325L82.2532 31.5835L81.9652 31.5437L81.6359 31.5239L81.2866 31.5146H78.9212L78.5506 35.1641ZM90.7386 36.8742L90.8012 36.3404L90.8826 35.8065L90.9852 35.3018L91.0986 34.8077L91.1599 34.5613L91.2319 34.3229L91.3039 34.0858L91.3759 33.8579L91.4586 33.6314L91.5506 33.4036L91.6332 33.1863L91.7266 32.9677L91.8292 32.7598L91.9319 32.5531L92.0346 32.3451L92.1479 32.1464L92.2612 31.9504L92.3839 31.7517L92.5079 31.5636L92.6319 31.3861L92.7652 31.198L92.8986 31.0191L93.0426 30.8509L93.1866 30.6827L93.3306 30.5158L93.4852 30.3475L93.6492 30.1886L93.8039 30.0402L93.9679 29.8813L94.1426 29.7435L94.3079 29.5951L94.4932 29.4666L94.6679 29.3289L94.8426 29.2096L95.0279 29.0811L95.2226 28.9619L95.4079 28.8533L95.6039 28.7447L95.7986 28.6453L96.0052 28.5473L96.2106 28.448L96.4159 28.3592L96.6212 28.2797L96.8386 28.2002L97.0532 28.1221L97.2692 28.0532L97.4959 27.9936L97.7226 27.934L97.9492 27.8744L98.1852 27.8254L98.4212 27.7856L98.6586 27.7353L98.8946 27.7061L99.1412 27.6757L99.3879 27.6465L99.6452 27.6267L100.149 27.5975L100.675 27.5882L101.209 27.5975L101.733 27.6267L101.981 27.6465L102.227 27.6664L102.475 27.7061L102.711 27.7353L102.947 27.775L103.173 27.8254L103.4 27.8744L103.627 27.9234L103.841 27.983L104.059 28.0426L104.264 28.1115L104.469 28.191L104.665 28.2704L104.86 28.3486L105.056 28.4387L105.241 28.5274L105.416 28.6255L105.601 28.7248L105.776 28.8334L105.94 28.9434L106.105 29.052L106.269 29.1699L106.424 29.2984L106.577 29.4269L106.721 29.566L106.865 29.7037L107 29.8428L107.133 29.9912L107.267 30.1396L107.391 30.2972L107.513 30.4562L107.627 30.6244L107.729 30.7926L107.833 30.9595L107.936 31.1384L108.028 31.3159L108.121 31.4947L108.203 31.6828L108.285 31.8696L108.357 32.0683L108.429 32.2657L108.491 32.4644L108.553 32.671L108.604 32.879L108.656 33.0976L108.707 33.3148L108.737 33.5321L108.779 33.7493L108.809 33.9771L108.831 34.2143L108.851 34.4514L108.861 34.6885L108.881 35.1747L108.872 35.678L108.851 36.2026L108.809 36.7364L108.759 37.1219L108.707 37.4981L108.656 37.8743L108.584 38.24L108.512 38.5857L108.44 38.9328L108.347 39.2679L108.255 39.5951L108.161 39.9117L108.049 40.2283L107.936 40.525L107.812 40.8112L107.679 41.0986L107.545 41.3755L107.401 41.6325L107.257 41.8894L107.103 42.1372L106.939 42.3835L106.763 42.622L106.588 42.8498L106.403 43.0671L106.219 43.2737L106.023 43.4817L105.817 43.6897L105.611 43.8778L105.395 44.0659L105.169 44.2434L104.943 44.4116L104.707 44.5799L104.469 44.7375L104.223 44.8872L103.965 45.0249L103.708 45.164L103.441 45.2925L103.163 45.4104L102.885 45.519L102.597 45.6184L102.309 45.7072L102.001 45.7959L101.703 45.8648L101.384 45.935L101.065 45.9946L100.736 46.0343L100.407 46.0741L100.068 46.1125L99.7172 46.1324L99.3679 46.143L99.0079 46.1522L98.6479 46.143L98.2879 46.1324L97.9492 46.1125L97.6092 46.0834L97.2799 46.0529L96.9506 46.0145L96.6426 45.9655L96.3439 45.9059L96.0452 45.8462L95.7572 45.7668L95.4799 45.6873L95.2132 45.6091L94.9559 45.5098L94.7092 45.4104L94.4626 45.3018L94.2252 45.1826L93.9986 45.0554L93.7826 44.9256L93.5679 44.7786L93.3612 44.6289L93.1652 44.4712L92.9706 44.303L92.7852 44.1242L92.6106 43.9374L92.4359 43.7387L92.2706 43.532L92.1066 43.3241L91.9519 43.0962L91.8079 42.8684L91.6639 42.6313L91.5306 42.3743L91.4079 42.1173L91.2946 41.859L91.1812 41.5821L91.0879 41.296L90.9959 41.0085L90.9132 40.7118L90.8519 40.4058L90.7906 40.0892L90.7492 39.762L90.7079 39.4361L90.6866 39.0904L90.6666 38.7447L90.6559 38.3883L90.6666 38.0227L90.6772 37.6465L90.7079 37.2703L90.7386 36.8742ZM96.1172 36.9047L96.0866 37.2306L96.0666 37.5577L96.0559 37.8637V38.1605V38.4479L96.0772 38.7248L96.0972 38.991L96.1279 39.2388L96.1692 39.4759L96.2212 39.7037L96.2826 39.921L96.3439 40.1197L96.4266 40.3078L96.5092 40.4853L96.6012 40.6535L96.7039 40.8112L96.8172 40.9489L96.9306 41.088L97.0532 41.2072L97.1879 41.3265L97.3212 41.4351L97.4652 41.5331L97.6199 41.6232L97.7732 41.7013L97.9386 41.7715L98.1026 41.8312L98.2772 41.8802L98.4626 41.9186L98.6479 41.9583L98.8439 41.9782L99.0386 41.9888L99.2546 41.9981L99.4612 41.9888L99.6759 41.9782L99.8826 41.9583L100.077 41.9292L100.273 41.8802L100.459 41.8312L100.644 41.7715L100.819 41.7013L100.993 41.6325L101.157 41.5437L101.323 41.4443L101.476 41.345L101.631 41.2271L101.775 41.1079L101.919 40.9794L102.052 40.831L102.187 40.6827L102.309 40.5144L102.423 40.3369L102.536 40.1395L102.649 39.9316L102.741 39.7037L102.844 39.4666L102.927 39.2096L103.009 38.942L103.092 38.6559L103.163 38.3579L103.225 38.0519L103.287 37.726L103.339 37.3895L103.389 37.0332L103.431 36.657L103.451 36.351L103.472 36.0436L103.481 35.7575V35.4807V35.2131L103.461 34.9561L103.431 34.7097L103.4 34.4713L103.359 34.2434L103.307 34.0262L103.245 33.8195L103.173 33.6314L103.101 33.442L103.009 33.2645L102.916 33.1068L102.813 32.9585L102.7 32.8194L102.577 32.6816L102.453 32.5624L102.32 32.4445L102.187 32.3451L102.043 32.2458L101.888 32.157L101.733 32.0776L101.569 32.0087L101.395 31.9504L101.22 31.9001L101.035 31.8603L100.849 31.8312L100.653 31.8007L100.448 31.7914H100.243H100.036L99.8412 31.8007L99.6452 31.8312L99.4612 31.8603L99.2759 31.9001L99.0906 31.9504L98.9159 32.0193L98.7399 32.0882L98.5759 32.1676L98.4119 32.2458L98.2466 32.3451L98.0919 32.4538L97.9386 32.573L97.7946 32.6922L97.6506 32.83L97.5066 32.9677L97.3732 33.1267L97.2386 33.2949L97.1159 33.4724L97.0026 33.6606L96.8999 33.8685L96.7972 34.0858L96.6932 34.3136L96.6012 34.5507L96.5186 34.7971L96.4466 35.0647L96.3746 35.3429L96.3132 35.629L96.2519 35.935L96.1999 36.2423L96.1586 36.5682L96.1172 36.9047ZM110.753 27.8942H127.117L126.665 32.3253H121.172L119.804 45.8462H114.415L115.793 32.3253H110.301L110.753 27.8942ZM129.545 27.8942H143.964L143.573 31.7226H134.544L134.256 34.5799H142.637L142.268 38.24H133.885L133.525 41.7808H142.823L142.412 45.8462H127.715L129.545 27.8942ZM147.153 27.8942H152.532L151.853 34.6792L158.179 27.8942H165.337L158.303 34.6594L163.804 45.8462H157.171L154.249 38.4572L151.164 41.4642L150.723 45.8462H145.332L147.153 27.8942Z" fill="#0054A1"/>
<path fill-rule="evenodd" clip-rule="evenodd" d="M82.6163 63.4425H81.7856V59.8223H82.6163V63.4425Z" fill="#0054A1"/>
<path fill-rule="evenodd" clip-rule="evenodd" d="M86.8485 59.8212H88.0525V63.4415H87.2725V60.9935C87.2725 60.922 87.2739 60.8239 87.2752 60.6968C87.2779 60.5696 87.2779 60.4716 87.2779 60.4027L86.5205 63.4415H85.7072L84.9539 60.4027C84.9539 60.4716 84.9552 60.5696 84.9565 60.6968C84.9579 60.8239 84.9592 60.922 84.9592 60.9935V63.4415H84.1792V59.8212H85.3965L86.1259 62.6679L86.8485 59.8212Z" fill="#0054A1"/>
<path fill-rule="evenodd" clip-rule="evenodd" d="M90.7121 62.0741H91.7374L91.2321 60.6487L90.7121 62.0741ZM90.7667 59.8208H91.7134L93.1294 63.4425H92.2227L91.9587 62.698H90.4841L90.2134 63.4425H89.3374L90.7667 59.8208Z" fill="#0054A1"/>
<path fill-rule="evenodd" clip-rule="evenodd" d="M97.1257 60.9512C97.063 60.7035 96.9084 60.5312 96.6617 60.4332C96.5244 60.3789 96.371 60.3511 96.2017 60.3511C95.8804 60.3511 95.6164 60.461 95.407 60.6809C95.2004 60.9008 95.0964 61.232 95.0964 61.6731C95.0964 62.1182 95.2097 62.4322 95.4337 62.6176C95.659 62.8017 95.9137 62.8945 96.199 62.8945C96.4804 62.8945 96.7097 62.8216 96.8897 62.6759C97.0684 62.5302 97.179 62.3394 97.2204 62.1036H96.295V61.4996H97.9617V63.4416H97.4084L97.3244 62.9898C97.163 63.1607 97.019 63.2813 96.8897 63.3515C96.6684 63.4747 96.3977 63.5356 96.075 63.5356C95.5444 63.5356 95.1097 63.37 94.771 63.0362C94.4177 62.7037 94.2417 62.2467 94.2417 61.6678C94.2417 61.0823 94.4204 60.6121 94.7764 60.2584C95.1337 59.9047 95.6044 59.7285 96.191 59.7285C96.7004 59.7285 97.1097 59.8451 97.4177 60.0782C97.727 60.3114 97.903 60.6028 97.9484 60.9512H97.1257Z" fill="#0054A1"/>
<path fill-rule="evenodd" clip-rule="evenodd" d="M100.319 63.4425H99.4883V59.8223H100.319V63.4425Z" fill="#0054A1"/>
<path fill-rule="evenodd" clip-rule="evenodd" d="M101.883 59.8212H102.76L104.348 62.346V59.8212H105.128V63.4415H104.292L102.663 60.873V63.4415H101.883V59.8212Z" fill="#0054A1"/>
<path fill-rule="evenodd" clip-rule="evenodd" d="M107.798 62.0741H108.823L108.318 60.6487L107.798 62.0741ZM107.853 59.8208H108.799L110.215 63.4425H109.309L109.045 62.698H107.571L107.299 63.4425H106.425L107.853 59.8208Z" fill="#0054A1"/>
<path fill-rule="evenodd" clip-rule="evenodd" d="M114.02 59.8212V60.4623H112.822V63.4415H111.98V60.4623H110.777V59.8212H114.02Z" fill="#0054A1"/>
<path fill-rule="evenodd" clip-rule="evenodd" d="M116.067 63.4425H115.236V59.8223H116.067V63.4425Z" fill="#0054A1"/>
<path fill-rule="evenodd" clip-rule="evenodd" d="M120.204 62.5701C120.399 62.3489 120.496 62.0349 120.496 61.6269C120.496 61.2203 120.399 60.9063 120.204 60.6851C120.009 60.4625 119.747 60.3513 119.415 60.3513C119.084 60.3513 118.819 60.4625 118.623 60.6838C118.424 60.905 118.325 61.2189 118.325 61.6269C118.325 62.0349 118.424 62.3489 118.623 62.5701C118.819 62.7913 119.084 62.9013 119.415 62.9013C119.747 62.9013 120.009 62.7913 120.204 62.5701ZM120.727 63.1198C120.424 63.402 119.988 63.5424 119.415 63.5424C118.843 63.5424 118.405 63.402 118.104 63.1198C117.697 62.7741 117.495 62.2774 117.495 61.6269C117.495 60.9633 117.697 60.4652 118.104 60.1327C118.405 59.8505 118.843 59.7101 119.415 59.7101C119.988 59.7101 120.424 59.8505 120.727 60.1327C121.131 60.4652 121.332 60.9633 121.332 61.6269C121.332 62.2774 121.131 62.7741 120.727 63.1198Z" fill="#0054A1"/>
<path fill-rule="evenodd" clip-rule="evenodd" d="M122.753 59.8212H123.63L125.218 62.346V59.8212H125.998V63.4415H125.162L123.533 60.873V63.4415H122.753V59.8212Z" fill="#0054A1"/>
<path fill-rule="evenodd" clip-rule="evenodd" d="M130.682 63.4425H129.851V59.8223H130.682V63.4425Z" fill="#0054A1"/>
<path fill-rule="evenodd" clip-rule="evenodd" d="M132.246 59.8212H133.123L134.711 62.346V59.8212H135.491V63.4415H134.655L133.025 60.873V63.4415H132.246V59.8212Z" fill="#0054A1"/>
<path fill-rule="evenodd" clip-rule="evenodd" d="M140.298 62.0741H141.324L140.817 60.6487L140.298 62.0741ZM140.353 59.8208H141.3L142.716 63.4425H141.809L141.545 62.698H140.07L139.8 63.4425H138.924L140.353 59.8208Z" fill="#0054A1"/>
<path fill-rule="evenodd" clip-rule="evenodd" d="M144.403 60.1994C144.725 59.9014 145.136 59.753 145.633 59.753C146.3 59.753 146.787 59.9517 147.095 60.3518C147.265 60.5756 147.357 60.8008 147.369 61.0273H146.532C146.48 60.8538 146.411 60.7227 146.328 60.6339C146.179 60.4763 145.959 60.3981 145.665 60.3981C145.368 60.3981 145.132 60.5094 144.96 60.7306C144.788 60.9532 144.703 61.2671 144.703 61.6738C144.703 62.0791 144.793 62.3838 144.975 62.5852C145.156 62.7878 145.387 62.8898 145.667 62.8898C145.953 62.8898 146.172 62.8024 146.323 62.6289C146.405 62.5362 146.475 62.3957 146.529 62.209H147.361C147.289 62.6037 147.107 62.9243 146.812 63.172C146.517 63.4197 146.14 63.5429 145.679 63.5429C145.109 63.5429 144.661 63.376 144.336 63.0422C144.009 62.7057 143.847 62.2461 143.847 61.6619C143.847 61.0287 144.032 60.5412 144.403 60.1994Z" fill="#0054A1"/>
<path fill-rule="evenodd" clip-rule="evenodd" d="M151.741 59.8212V60.4623H150.544V63.4415H149.701V60.4623H148.499V59.8212H151.741Z" fill="#0054A1"/>
<path fill-rule="evenodd" clip-rule="evenodd" d="M153.788 63.4425H152.958V59.8223H153.788V63.4425Z" fill="#0054A1"/>
<path fill-rule="evenodd" clip-rule="evenodd" d="M157.926 62.5701C158.121 62.3489 158.218 62.0349 158.218 61.6269C158.218 61.2203 158.121 60.9063 157.926 60.6851C157.731 60.4625 157.469 60.3513 157.137 60.3513C156.806 60.3513 156.542 60.4625 156.345 60.6838C156.146 60.905 156.047 61.2189 156.047 61.6269C156.047 62.0349 156.146 62.3489 156.345 62.5701C156.542 62.7913 156.806 62.9013 157.137 62.9013C157.469 62.9013 157.731 62.7913 157.926 62.5701ZM158.449 63.1198C158.146 63.402 157.709 63.5424 157.137 63.5424C156.565 63.5424 156.127 63.402 155.825 63.1198C155.419 62.7741 155.217 62.2774 155.217 61.6269C155.217 60.9633 155.419 60.4652 155.825 60.1327C156.127 59.8505 156.565 59.7101 157.137 59.7101C157.709 59.7101 158.146 59.8505 158.449 60.1327C158.853 60.4652 159.054 60.9633 159.054 61.6269C159.054 62.2774 158.853 62.7741 158.449 63.1198Z" fill="#0054A1"/>
<path fill-rule="evenodd" clip-rule="evenodd" d="M160.475 59.8212H161.352L162.94 62.346V59.8212H163.72V63.4415H162.884L161.253 60.873V63.4415H160.475V59.8212Z" fill="#0054A1"/>
</svg>
