<svg width="238" height="41" viewBox="0 0 238 41" fill="none" xmlns="http://www.w3.org/2000/svg">
<path fill-rule="evenodd" clip-rule="evenodd" d="M83.4201 32.8023C83.4201 31.6183 83.2894 30.5649 82.8934 29.7769C82.5 28.8543 82.1027 28.1969 81.4454 27.5396C80.788 26.8823 79.9974 26.3543 79.2094 25.9596C78.2894 25.5649 77.3667 25.1716 76.3147 24.9076C76.0521 24.7769 75.6574 24.7769 75.2627 24.6436C74.7361 24.5116 74.472 24.3823 74.2094 24.3823L73.2894 23.9863C72.3667 23.5916 71.7094 23.1969 71.184 22.8023C70.6574 22.4076 70.3934 21.7489 70.3934 20.9609C70.3934 20.0383 70.7894 19.2489 71.5774 18.8543C72.2347 18.3289 73.2894 18.0663 74.604 18.0663C75.2627 18.0663 75.9201 18.1969 76.5774 18.3289C77.2347 18.4609 77.8921 18.7236 78.5507 18.9863C79.2094 19.2489 79.736 19.5129 80.2627 19.9089C80.788 20.3023 81.3147 20.5663 81.7094 20.9609L82.2347 15.4343C81.4454 14.9089 80.2627 14.5129 78.8147 14.1183C77.2347 13.7236 75.6574 13.5916 74.0787 13.5916C72.3667 13.5916 70.9201 13.8556 69.736 14.2503C68.552 14.7756 67.4987 15.3036 66.8414 16.0916C66.0521 16.8809 65.5254 17.8023 65.1307 18.7236C64.7361 19.7769 64.604 20.6969 64.604 21.8809C64.736 23.4596 64.9987 24.6436 65.5254 25.4343C66.0521 26.2236 66.8414 27.0129 67.8934 27.5396C69.3414 28.1969 70.5267 28.7223 71.7094 29.1169C72.7614 29.5129 73.8147 29.7769 74.604 30.0396C75.3947 30.3023 76.052 30.6969 76.4454 31.0916C76.8414 31.4876 77.104 32.0129 77.104 32.8023C77.104 33.5929 76.8414 34.2503 76.184 34.7756C75.5267 35.3023 74.604 35.5649 73.1574 35.5649C72.4987 35.5649 71.7094 35.4329 70.9201 35.3023C70.1294 35.1703 69.472 34.9076 68.6827 34.6449C68.024 34.3809 67.236 34.1183 66.7094 33.8543C66.052 33.5929 65.5254 33.1969 65.1307 32.9343L64.604 38.4596C66.5774 39.7756 69.472 40.4329 73.4214 40.4329C79.9974 40.5649 83.4201 37.9329 83.4201 32.8023ZM51.9734 20.9609C53.0254 22.4076 53.4201 24.3823 53.4201 27.0129C53.4201 29.5129 52.8947 31.6183 51.9734 33.0649C51.0521 34.5129 49.6054 35.1703 47.5 35.1703C45.3947 35.1703 43.8161 34.3809 42.6307 32.9343C41.4467 31.4876 40.9214 29.5129 40.9214 27.0129C40.9214 24.5116 41.4467 22.5396 42.6307 21.0916C43.8161 19.6436 45.3947 18.8543 47.5 18.8543C49.6054 18.7236 51.0521 19.5129 51.9734 20.9609ZM59.736 0.830276H53.2881V15.1716C51.5801 13.9863 49.472 13.4609 47.2374 13.4609C45.2627 13.4609 43.4201 13.8556 41.8414 14.5129C40.2641 15.1716 38.9467 16.2236 37.7627 17.4089C36.7107 18.5916 35.7894 20.0383 35.264 21.7489C34.6054 23.4596 34.3414 25.1716 34.3414 27.0129C34.3414 28.8543 34.6054 30.6969 35.264 32.2756C35.7894 33.8543 36.7107 35.3023 37.7627 36.6183C38.8161 37.8023 40.1321 38.8556 41.7107 39.5129C43.2894 40.1703 45.132 40.5649 47.2374 40.5649C49.472 40.5649 51.7107 39.9076 53.5521 38.5903L53.684 40.0383H59.736V0.830276ZM13.2894 24.6436L17.1054 13.9863L20.9201 24.6436H13.2894ZM20.2627 3.46094H13.9467L0.921387 40.0383H7.89472L11.0521 31.2223H23.2907L26.4467 40.0383H33.4214L20.2627 3.46094Z" fill="#231F20"/>
<mask id="mask0_50_7224" style="mask-type:luminance" maskUnits="userSpaceOnUse" x="0" y="0" width="84" height="41">
<path d="M53.2895 0.830406V15.1717C51.5801 13.9877 49.4721 13.4624 47.2375 13.4624C45.2628 13.4624 43.4188 13.8557 41.8415 14.513C40.2655 15.1717 38.9455 16.2224 37.7629 17.409C36.7109 18.593 35.7895 20.037 35.2629 21.7503C34.6055 23.4583 34.3415 25.1717 34.3415 27.013C34.3415 28.8544 34.6055 30.6984 35.2629 32.2757C35.7895 33.8557 36.7109 35.3036 37.7629 36.6196C38.8175 37.8023 40.1321 38.8544 41.7135 39.5117C43.2895 40.1704 45.1308 40.5664 47.2375 40.5664C49.4721 40.5664 51.7095 39.909 53.5548 38.5903L53.6868 40.0369H59.7362V0.830406H53.2895ZM42.6322 32.9329C41.4482 31.4889 40.9228 29.5117 40.9228 27.013C40.9228 24.513 41.4482 22.5396 42.6322 21.0916C43.8148 19.6436 45.3961 18.8543 47.5015 18.8543C49.6041 18.725 51.0522 19.5156 51.9748 20.9596C53.0255 22.4076 53.4215 24.381 53.4215 27.013C53.4215 29.5117 52.8962 31.6184 51.9748 33.0664C51.0522 34.5131 49.6041 35.1717 47.5015 35.1717C45.3961 35.1717 43.8148 34.3809 42.6322 32.9329ZM13.9482 3.45834L0.922852 40.0369H7.89486L11.0522 31.2249H23.2895L26.4469 40.0369H33.4215L20.2615 3.45834H13.9482ZM17.1042 13.9876L20.9202 24.6463H13.2895L17.1042 13.9876ZM69.7362 14.2529C68.5522 14.7743 67.4975 15.3037 66.8402 16.0903C66.0508 16.881 65.5242 17.8023 65.1309 18.7249C64.7375 19.7769 64.6055 20.6957 64.6055 21.8823C64.7375 23.4583 64.9988 24.6464 65.5242 25.4357C66.0508 26.2224 66.8402 27.0131 67.8949 27.5384C69.3428 28.1957 70.5268 28.7223 71.7095 29.1183C72.7615 29.5117 73.8161 29.777 74.6055 30.041C75.3961 30.3023 76.0535 30.6983 76.4469 31.0916C76.8402 31.489 77.1042 32.0116 77.1042 32.8009C77.1042 33.5916 76.8401 34.2491 76.1855 34.7744C75.5281 35.3037 74.6055 35.5649 73.1575 35.5649C72.5001 35.5649 71.7095 35.433 70.9202 35.3037C70.1295 35.1717 69.4721 34.9077 68.6815 34.6463C68.0241 34.381 67.2375 34.117 66.7082 33.8556C66.0508 33.5916 65.5242 33.1983 65.1309 32.9329L64.6055 38.4609C66.5761 39.7769 69.4722 40.4344 73.4228 40.4344C79.9975 40.5664 83.4189 37.9316 83.4189 32.8009C83.4189 31.6183 83.2895 30.5664 82.8935 29.777C82.5001 28.8544 82.1028 28.1957 81.4455 27.5384C80.7868 26.8811 79.9975 26.3543 79.2109 25.9609C78.2882 25.5649 77.3655 25.1717 76.3149 24.9064C76.0535 24.7784 75.6562 24.7783 75.2642 24.6463C74.7375 24.513 74.4735 24.381 74.2095 24.381L73.2895 23.9876C72.3681 23.5916 71.7095 23.1983 71.1842 22.8009C70.6588 22.4076 70.3935 21.7503 70.3935 20.9596C70.3935 20.037 70.7908 19.2503 71.5775 18.8543C72.2348 18.329 73.2895 18.0677 74.6055 18.0677C75.2641 18.0677 75.9215 18.1956 76.5788 18.3289C77.2375 18.4609 77.8921 18.725 78.5495 18.9863C79.2108 19.2503 79.7361 19.5157 80.2615 19.909C80.7868 20.3024 81.3161 20.5663 81.7095 20.9596L82.2349 15.4329C81.4455 14.9063 80.2615 14.513 78.8135 14.1196C77.2375 13.7236 75.6562 13.5916 74.0802 13.5916C72.3682 13.5916 70.9202 13.8556 69.7362 14.2529Z" fill="white"/>
</mask>
<g mask="url(#mask0_50_7224)">
<path d="M-7.13452 48.6211H91.4762V-7.22542H-7.13452V48.6211Z" fill="#231F20"/>
</g>
<path fill-rule="evenodd" clip-rule="evenodd" d="M229.733 20.9613C230.788 22.4066 231.181 24.3813 231.181 27.0119C231.181 29.5119 230.656 31.6173 229.733 33.0653C228.682 34.5133 227.234 35.3026 225.261 35.3026C223.157 35.3026 221.577 34.5133 220.393 33.0653C219.208 31.6173 218.681 29.6453 218.681 27.1439C218.681 24.6439 219.208 22.6719 220.393 21.2239C221.577 19.7759 223.157 18.9866 225.261 18.9866C227.234 18.7239 228.682 19.5133 229.733 20.9613ZM237.364 0.829262H230.92V15.1706C229.208 13.9866 227.102 13.4613 224.865 13.4613C222.892 13.4613 221.052 13.8559 219.472 14.5133C217.892 15.1706 216.577 16.2239 215.393 17.4079C214.34 18.5919 213.417 20.0386 212.892 21.7493C212.234 23.4599 211.969 25.1719 211.969 27.0119C211.969 28.8546 212.234 30.6973 212.892 32.2759C213.417 33.8546 214.34 35.3026 215.393 36.6186C216.444 37.8026 217.76 38.8559 219.34 39.5133C220.918 40.1706 222.76 40.5653 224.865 40.5653C227.102 40.5653 229.34 39.9079 231.181 38.5906L231.313 40.0386H237.364V0.829262ZM207.892 35.0399C207.498 34.9079 207.101 34.7759 206.973 34.5133C206.708 34.2506 206.576 33.8546 206.576 33.3279C206.576 32.8026 206.444 32.0133 206.444 30.9599V0.697266H199.996V33.5919C199.996 35.5653 200.525 37.2759 201.708 38.5906C202.762 39.9079 204.47 40.5653 206.708 40.5653H209.077L209.604 35.1706C208.945 35.1706 208.288 35.1706 207.892 35.0399ZM195.261 13.4613C192.629 13.4613 190.392 14.5133 188.286 16.6186L188.154 13.8559H182.104V40.0386H188.552V22.1439C188.945 21.3546 189.602 20.6973 190.392 20.3013C191.314 19.7759 192.233 19.5133 193.288 19.5133H195.657L196.972 13.4613H195.261ZM171.445 27.0119C171.445 29.3826 170.92 31.3546 169.734 32.9346C168.55 34.5133 166.97 35.1706 164.865 35.1706C162.761 35.1706 161.184 34.3799 159.997 32.9346C158.814 31.4866 158.289 29.5119 158.289 27.0119C158.289 24.5119 158.814 22.5399 159.997 21.0919C161.184 19.6439 162.761 18.8546 164.865 18.8546C166.97 18.8546 168.55 19.6439 169.605 21.0919C170.92 22.5399 171.445 24.5119 171.445 27.0119ZM178.154 27.0119C178.154 25.1719 177.893 23.3293 177.236 21.7493C176.578 20.1719 175.788 18.7239 174.602 17.4079C173.418 16.2239 172.104 15.1706 170.392 14.5133C168.814 13.8559 166.97 13.4613 164.865 13.4613C162.893 13.4613 161.052 13.8559 159.34 14.5133C157.761 15.1706 156.313 16.2239 155.129 17.4079C153.946 18.5919 153.157 20.0386 152.498 21.7493C151.841 23.4599 151.577 25.1719 151.577 27.0119C151.577 28.9866 151.841 30.6973 152.498 32.4079C153.157 33.9879 154.078 35.4333 155.129 36.7506C156.313 37.9333 157.632 38.9853 159.34 39.6453C160.92 40.3026 162.761 40.6973 164.865 40.6973C168.944 40.6973 172.104 39.3813 174.473 36.7506C176.972 33.9879 178.154 30.8293 178.154 27.0119ZM146.316 3.45993L139.34 28.7226L130.918 3.45993H126.314L118.024 29.3826L110.657 3.45993H103.684L114.078 40.0386H120.393L128.552 15.5666L136.709 40.0386H142.63L153.289 3.45993H146.316Z" fill="#231F20"/>
<mask id="mask1_50_7224" style="mask-type:luminance" maskUnits="userSpaceOnUse" x="103" y="0" width="135" height="41">
<path d="M199.997 0.698242V33.5915C199.997 35.5648 200.523 37.2768 201.707 38.5902C202.761 39.9088 204.471 40.5662 206.708 40.5662H209.079L209.604 35.1715C208.947 35.1715 208.288 35.1716 207.892 35.0396C207.499 34.9076 207.101 34.7742 206.973 34.5129C206.708 34.2489 206.576 33.8555 206.576 33.3262C206.576 32.8008 206.444 32.0115 206.444 30.9595V0.698242H199.997ZM230.92 0.830238V15.1715C229.208 13.9875 227.101 13.4622 224.864 13.4622C222.893 13.4622 221.052 13.8555 219.472 14.5129C217.892 15.1715 216.576 16.2222 215.392 17.4089C214.339 18.5929 213.416 20.0368 212.891 21.7502C212.232 23.4582 211.971 25.1715 211.971 27.0129C211.971 28.8542 212.232 30.6982 212.891 32.2756C213.416 33.8556 214.339 35.3035 215.392 36.6195C216.444 37.8021 217.76 38.8542 219.34 39.5116C220.92 40.1702 222.761 40.5662 224.864 40.5662C227.101 40.5662 229.34 39.9088 231.181 38.5902L231.313 40.0368H237.363V0.830238H230.92ZM220.395 33.0662C219.208 31.6182 218.681 29.6435 218.681 27.1449C218.681 24.6462 219.208 22.6728 220.395 21.2235C221.577 19.7768 223.155 18.9862 225.26 18.9862C227.233 18.7248 228.681 19.5155 229.733 20.9595C230.788 22.4075 231.181 24.3809 231.181 27.0129C231.181 29.5115 230.656 31.6182 229.733 33.0662C228.681 34.5129 227.233 35.3035 225.26 35.3035C223.155 35.3035 221.577 34.5129 220.395 33.0662ZM146.315 3.45817L139.34 28.7222L130.92 3.45817H126.315L118.024 29.3835L110.659 3.45817H103.683L114.076 40.0368H120.395L128.553 15.5648L136.708 40.0368H142.629L153.291 3.45817H146.315ZM195.26 13.4622C192.629 13.4622 190.391 14.5128 188.288 16.6195L188.156 13.8555H182.103V40.0368H188.549V22.1436C188.943 21.3529 189.601 20.6956 190.391 20.3022C191.313 19.7769 192.232 19.5155 193.287 19.5155H195.657L196.973 13.4622H195.26ZM159.34 14.5129C157.76 15.1715 156.312 16.2222 155.128 17.4089C153.948 18.5929 153.157 20.0368 152.5 21.7502C151.843 23.4582 151.577 25.1715 151.577 27.0129C151.577 28.9862 151.843 30.6982 152.5 32.4076C153.157 33.9876 154.077 35.4328 155.128 36.7515C156.312 37.9315 157.631 38.9862 159.34 39.6436C160.92 40.3022 162.761 40.6982 164.867 40.6982C168.943 40.6982 172.103 39.3795 174.473 36.7515C176.972 33.9875 178.153 30.8315 178.153 27.0129C178.153 25.1715 177.892 23.3302 177.233 21.7502C176.58 20.1728 175.789 18.7249 174.603 17.4089C173.419 16.2222 172.103 15.1715 170.391 14.5129C168.813 13.8555 166.969 13.4622 164.867 13.4622C162.893 13.4622 161.052 13.8555 159.34 14.5129ZM159.997 32.9328C158.813 31.4888 158.288 29.5115 158.288 27.0129C158.288 24.5129 158.813 22.5395 159.997 21.0915C161.184 19.6435 162.761 18.8542 164.867 18.8542C166.969 18.8542 168.549 19.6435 169.604 21.0915C170.92 22.5395 171.445 24.5129 171.445 27.0129C171.445 29.3835 170.92 31.3568 169.733 32.9328C168.549 34.5128 166.969 35.1715 164.867 35.1715C162.761 35.1715 161.184 34.3808 159.997 32.9328Z" fill="white"/>
</mask>
<g mask="url(#mask1_50_7224)">
<path d="M95.6279 48.7529H245.42V-7.35905H95.6279V48.7529Z" fill="#231F20"/>
</g>
<path fill-rule="evenodd" clip-rule="evenodd" d="M100.394 17.5389H98.6832V16.4869C98.6832 15.9602 98.6832 15.6962 98.8138 15.5656C98.9458 15.4336 99.0765 15.3029 99.3418 15.3029H99.7352H100.131L100.262 13.7229C99.6045 13.7229 99.0765 13.5909 98.5512 13.5909C98.2872 13.5909 98.0258 13.5909 97.7618 13.7229C97.4992 13.8562 97.3685 13.9856 97.2365 14.1189C97.1045 14.2509 96.9712 14.5136 96.8405 14.7762C96.7085 15.0389 96.7085 15.3029 96.7085 15.5656V17.4082H95.7885L95.6565 18.9869H96.7085V25.0389H98.5512V18.9869H100.262V17.5389H100.394ZM93.1578 21.3549C93.1578 22.0136 93.0258 22.6709 92.6312 23.0669C92.2365 23.4602 91.8405 23.7242 91.1832 23.7242C90.5258 23.7242 90.1312 23.4602 89.7365 23.0669C89.3405 22.6709 89.2085 22.0136 89.2085 21.3549C89.2085 20.6962 89.3405 20.0389 89.7365 19.6442C90.1312 19.2496 90.5258 18.9869 91.1832 18.9869C91.7098 18.9869 92.2365 19.2496 92.4992 19.6442C93.0258 20.0389 93.1578 20.5656 93.1578 21.3549ZM95.1312 21.3549C95.1312 20.8296 94.9992 20.3016 94.8658 19.7762C94.7365 19.2496 94.4738 18.8549 94.0765 18.5909C93.6832 18.1962 93.2885 17.9336 92.8938 17.8016C92.3685 17.5389 91.8405 17.5389 91.3138 17.5389C90.7885 17.5389 90.2632 17.6709 89.7365 17.8016C89.2085 18.0656 88.8152 18.3282 88.5512 18.5909C88.1578 18.9869 88.0258 19.3816 87.7618 19.7762C87.6312 20.3016 87.5005 20.8296 87.5005 21.3549C87.5005 21.8816 87.6312 22.4069 87.7618 22.9336C87.8938 23.4602 88.1578 23.8549 88.5512 24.1189C88.9458 24.5122 89.3405 24.7762 89.7365 24.9069C90.2632 25.1709 90.7885 25.1709 91.3138 25.1709C92.4992 25.1709 93.4192 24.7762 94.0765 23.9869C94.8658 23.3296 95.1312 22.4069 95.1312 21.3549Z" fill="#231F20"/>
<mask id="mask2_50_7224" style="mask-type:luminance" maskUnits="userSpaceOnUse" x="87" y="13" width="14" height="13">
<path d="M97.7624 13.7238C97.4984 13.8558 97.369 13.9878 97.237 14.1198C97.105 14.2531 96.9717 14.5132 96.8397 14.7746C96.7077 15.0399 96.7077 15.3038 96.7077 15.5651V17.4092H95.789L95.657 18.9865H96.7077V25.0399H98.5517V18.9865H100.261V17.5386H98.685V16.4878C98.685 15.9611 98.685 15.6971 98.813 15.5651C98.9463 15.4331 99.0784 15.3039 99.3424 15.3039H99.7357H100.129L100.261 13.7238C99.6037 13.7238 99.0783 13.5918 98.5517 13.5918C98.2877 13.5918 98.0264 13.5918 97.7624 13.7238ZM89.7357 17.8026C89.2063 18.0679 88.813 18.3291 88.549 18.5931C88.1583 18.9864 88.0264 19.3825 87.7624 19.7772C87.6304 20.3025 87.501 20.8279 87.501 21.3532C87.501 21.8825 87.6304 22.4078 87.7624 22.9331C87.8944 23.4584 88.1583 23.8558 88.549 24.1198C88.945 24.5131 89.3397 24.7786 89.7357 24.9066C90.261 25.1719 90.7863 25.1719 91.313 25.1719C92.4997 25.1719 93.4183 24.7785 94.0757 23.9878C94.8663 23.3305 95.1304 22.4079 95.1304 21.3532C95.1304 20.8279 94.9984 20.3025 94.8664 19.7772C94.7344 19.2505 94.473 18.8544 94.0757 18.5931C93.6823 18.1958 93.289 17.9359 92.893 17.8026C92.3677 17.5386 91.841 17.5386 91.313 17.5386C90.7863 17.5386 90.261 17.6706 89.7357 17.8026ZM89.7357 23.0651C89.3397 22.6731 89.2064 22.0145 89.2064 21.3532C89.2064 20.6959 89.3397 20.0372 89.7357 19.6439C90.129 19.2505 90.5263 18.9865 91.1837 18.9865C91.709 18.9865 92.2343 19.2505 92.4997 19.6439C93.025 20.0372 93.157 20.5665 93.157 21.3532C93.157 22.0145 93.025 22.6731 92.6317 23.0651C92.2343 23.4584 91.841 23.7238 91.1837 23.7238C90.5263 23.7238 90.129 23.4584 89.7357 23.0651Z" fill="white"/>
</mask>
<g mask="url(#mask2_50_7224)">
<path d="M79.4437 33.228H108.449V5.53597H79.4437V33.228Z" fill="#231F20"/>
</g>
<path fill-rule="evenodd" clip-rule="evenodd" d="M103.552 34.1176C103.814 33.8549 104.209 33.7229 104.734 33.7229C105.262 33.7229 105.525 33.8549 105.789 34.1176C106.05 34.3803 106.182 34.7749 106.182 35.1696H103.157C103.157 34.7749 103.288 34.3803 103.552 34.1176ZM108.025 35.4323C108.025 34.9069 107.894 34.5123 107.762 34.1176C107.63 33.7229 107.368 33.3283 107.105 33.0656C106.84 32.8016 106.446 32.5389 106.05 32.4069C105.657 32.2749 105.262 32.1443 104.734 32.1443C104.209 32.1443 103.684 32.2749 103.157 32.4069C102.762 32.6696 102.366 32.9349 101.972 33.1976C101.709 33.5923 101.446 33.9869 101.314 34.3803C101.182 34.9069 101.052 35.3029 101.052 35.9603C101.052 36.4856 101.182 37.0123 101.314 37.5376C101.446 38.0656 101.709 38.4603 102.104 38.7229C102.5 39.1176 102.894 39.3803 103.42 39.5123C103.945 39.7749 104.472 39.7749 105.132 39.7749C106.05 39.7749 106.972 39.6456 107.63 39.2496V37.8029C107.498 37.9336 107.237 37.9336 107.105 38.0656C106.972 38.1976 106.709 38.1976 106.446 38.1976C106.182 38.1976 106.05 38.3283 105.789 38.3283H105.262C104.734 38.3283 104.209 38.1976 103.814 37.8029C103.42 37.4069 103.157 37.0123 103.026 36.3549H107.894C108.025 36.0923 108.025 35.6976 108.025 35.4323ZM99.8663 35.8283C99.8663 33.4603 98.8143 32.2749 96.709 32.2749C96.1823 32.2749 95.657 32.4069 95.1303 32.8016V28.5923H93.289V39.9083H95.1303V34.3803C95.5237 33.9869 95.921 33.7229 96.5783 33.7229C97.1037 33.7229 97.4983 33.8549 97.761 34.2496C98.0263 34.6443 98.157 35.1696 98.157 35.8283V39.9083H99.9983V35.8283H99.8663ZM91.4463 38.4603H90.7877C90.6557 38.4603 90.525 38.4603 90.393 38.3283C90.2623 38.1976 90.2623 38.0656 90.2623 37.9336V37.2749V33.8549H91.9717V32.2749H90.2623V30.4349L88.4183 30.5643V32.2749H87.4997L87.3677 33.8549H88.4183V38.0656C88.4183 38.3283 88.4183 38.5909 88.5503 38.8549C88.6837 39.1176 88.8157 39.2496 88.9463 39.5123C89.0783 39.6456 89.341 39.7749 89.605 39.9083C89.8663 40.0376 90.1303 40.0376 90.525 40.0376H91.841L91.9717 38.4603H91.4463Z" fill="#231F20"/>
<mask id="mask3_50_7224" style="mask-type:luminance" maskUnits="userSpaceOnUse" x="87" y="28" width="22" height="13">
<path d="M93.2891 28.5931V39.9092H95.1305V34.3812C95.5239 33.9879 95.9212 33.7238 96.5785 33.7238C97.1052 33.7238 97.4985 33.8559 97.7625 34.2492C98.0265 34.6465 98.1558 35.1718 98.1558 35.8291V39.9092H99.9972V35.8291H99.8678C99.8678 33.4584 98.8132 32.2759 96.7078 32.2759C96.1825 32.2759 95.6572 32.4078 95.1305 32.8011V28.5931H93.2891ZM88.4198 30.5666V32.2759H87.5011L87.3691 33.8558H88.4198V38.0638C88.4198 38.3291 88.4198 38.5905 88.5492 38.8545C88.6852 39.1185 88.8131 39.2505 88.9451 39.5119C89.0785 39.6439 89.3398 39.7772 89.6038 39.9092C89.8652 40.0372 90.1292 40.0371 90.5265 40.0371H91.8411L91.9705 38.4611H91.4451H90.7865C90.6545 38.4611 90.5265 38.4611 90.3931 38.3291C90.2611 38.1958 90.2611 38.0638 90.2611 37.9318V37.2772V33.8558H91.9705V32.2759H90.2611V30.4346L88.4198 30.5666ZM103.157 32.4079C102.761 32.6692 102.368 32.9332 101.971 33.1986C101.709 33.5919 101.445 33.9879 101.313 34.3812C101.18 34.9079 101.052 35.3038 101.052 35.9611C101.052 36.4878 101.18 37.0132 101.313 37.5386C101.445 38.0639 101.709 38.4612 102.103 38.7225C102.5 39.1185 102.893 39.3799 103.419 39.5119C103.944 39.7772 104.473 39.7772 105.131 39.7772C106.051 39.7772 106.972 39.6438 107.631 39.2505V37.8026C107.499 37.9319 107.237 37.9318 107.105 38.0638C106.972 38.1958 106.708 38.1958 106.447 38.1958C106.183 38.1958 106.05 38.3291 105.789 38.3291H105.264C104.735 38.3291 104.209 38.1959 103.816 37.8026C103.419 37.4066 103.157 37.0132 103.025 36.3545H107.895C108.024 36.0945 108.024 35.6971 108.024 35.4331C108.024 34.9078 107.895 34.5132 107.763 34.1172C107.631 33.7239 107.365 33.3266 107.105 33.0666C106.84 32.8012 106.447 32.5399 106.051 32.4079C105.657 32.2759 105.264 32.1439 104.735 32.1439C104.209 32.1439 103.682 32.2759 103.157 32.4079ZM103.551 34.1172C103.816 33.8559 104.209 33.7238 104.735 33.7238C105.264 33.7238 105.524 33.8559 105.789 34.1172C106.05 34.3812 106.183 34.7745 106.183 35.1719H103.157C103.157 34.7745 103.287 34.3812 103.551 34.1172Z" fill="white"/>
</mask>
<g mask="url(#mask3_50_7224)">
<path d="M79.3119 48.0947H116.08V20.5373H79.3119V48.0947Z" fill="#231F20"/>
</g>
</svg>
