<svg width="90" height="44" viewBox="0 0 90 44" fill="none" xmlns="http://www.w3.org/2000/svg">
<path d="M74.7261 35.2333C75.9248 35.284 76.8328 34.7787 77.5741 33.9747C78.2501 33.2427 78.6488 32.3547 78.7408 31.3573C78.7795 30.9427 78.7928 30.5 78.6915 30.1013C78.4581 29.1787 77.7568 28.636 76.8115 28.548C75.4941 28.4253 74.4128 28.8987 73.5461 29.8733C73.1528 30.316 72.8515 30.8227 72.6648 31.3867C72.4968 31.8893 72.3435 32.3973 72.3621 32.94C72.3861 33.664 72.6128 34.308 73.1955 34.76C73.6501 35.1133 74.1901 35.2827 74.7261 35.2333ZM82.5435 3.52399V3.52666C81.7368 3.52666 80.9288 3.53066 80.1221 3.52399C79.9515 3.52133 79.8755 3.564 79.8421 3.74533C79.7688 4.13466 79.6688 4.51866 79.5741 4.90266C79.2875 6.06933 78.9955 7.236 78.7088 8.40266C78.5115 9.20266 78.3181 10.004 78.1235 10.804C77.8061 12.108 77.4888 13.412 77.1701 14.716C76.9941 15.436 76.8141 16.156 76.6368 16.876C76.5328 17.304 76.4021 17.728 76.3315 18.1613C76.1768 19.1133 76.0528 20.0707 75.9141 21.0253C75.7141 22.4053 75.5101 23.784 75.3075 25.1627C75.2608 25.4773 75.2315 25.7973 75.1595 26.108C75.0995 26.372 75.0861 26.388 75.3501 26.3893C76.4461 26.3933 77.5421 26.3933 78.6381 26.3973C78.7541 26.3987 78.8088 26.3533 78.8448 26.2453C79.0141 25.744 79.1955 25.2467 79.3648 24.7453C79.7208 23.6987 80.0688 22.6493 80.4261 21.604C80.8035 20.4973 81.2168 19.4027 81.5608 18.2867C81.8261 17.4267 82.0088 16.5427 82.2261 15.668C82.4008 14.9613 82.5728 14.2533 82.7461 13.5453C82.8888 12.9627 83.0328 12.38 83.1755 11.796C83.4861 10.5307 83.7928 9.264 84.1035 7.99733C84.4528 6.576 84.8061 5.156 85.1568 3.736C85.2075 3.53333 85.1955 3.52266 84.9861 3.52266C84.1715 3.52399 83.3581 3.52399 82.5435 3.52399ZM64.3848 27.5053C64.0608 27.6213 63.7795 27.7213 63.4981 27.8213C62.2515 28.2667 61.0061 28.712 59.7581 29.152C59.6261 29.1987 59.5755 29.2693 59.5821 29.4053C59.6101 29.9853 59.6141 30.568 59.6661 31.1467C59.7208 31.7507 59.8208 32.3467 60.0408 32.9213C60.5915 34.3587 61.6808 35.0747 63.1608 35.2253C64.2448 35.336 65.3115 35.2373 66.3661 34.8973C67.9515 34.3867 69.2141 33.456 70.1915 32.1347C70.8981 31.18 71.3688 30.1027 71.6701 28.9533C71.9875 27.7493 72.2155 26.5347 72.1248 25.2813C72.0755 24.588 71.9355 23.9173 71.6435 23.2813C71.2115 22.3427 70.5781 21.552 69.8421 20.84C69.3781 20.3907 68.8741 19.9813 68.4275 19.516C68.1488 19.224 67.8928 18.8867 67.7155 18.528C67.2795 17.652 67.4888 16.7813 67.8595 15.94C67.9301 15.78 68.0728 15.6293 68.2208 15.5293C68.7101 15.1973 69.3915 15.1293 69.5768 15.968C69.6501 16.2973 69.6955 16.6347 69.7301 16.9707C69.7635 17.2987 69.7688 17.6293 69.7861 17.9747C69.8675 17.952 69.9408 17.9373 70.0115 17.912C71.1208 17.5147 72.2288 17.1173 73.3368 16.7187C73.6795 16.596 74.0208 16.4653 74.3635 16.3413C74.4675 16.3027 74.5088 16.2467 74.4955 16.1253C74.4661 15.8533 74.4621 15.5773 74.4395 15.3027C74.3621 14.4013 74.2088 13.5173 73.7968 12.6973C73.3635 11.836 72.6648 11.2947 71.7421 11.0387C70.9368 10.8147 70.1168 10.804 69.2861 10.88C68.3381 10.9667 67.4528 11.2467 66.6301 11.7013C65.1795 12.504 64.1661 13.72 63.4635 15.2013C62.9395 16.3067 62.6301 17.4747 62.4528 18.684C62.2715 19.9187 62.3888 21.1053 62.9061 22.244C63.2861 23.0827 63.8435 23.796 64.5035 24.4333C65.0008 24.912 65.5141 25.376 65.9995 25.868C66.4955 26.372 66.8475 26.9667 66.9021 27.6867C66.9635 28.5187 66.7928 29.3187 66.4168 30.0613C66.1795 30.528 65.7715 30.7747 65.2315 30.7733C64.9968 30.772 64.8168 30.6693 64.7181 30.464C64.6315 30.2813 64.5421 30.0853 64.5208 29.888C64.4568 29.304 64.4248 28.7173 64.3875 28.1307C64.3741 27.9347 64.3848 27.7387 64.3848 27.5053ZM26.2341 16.428C24.7328 22.5493 23.2421 28.632 21.7475 34.732C21.7981 34.7413 21.8648 34.7613 21.9315 34.7613C23.5275 34.7667 25.1221 34.7707 26.7181 34.7667C26.7795 34.7667 26.8835 34.7 26.8981 34.6453C27.1088 33.8307 27.3115 33.012 27.5101 32.1933C27.8421 30.816 28.1648 29.436 28.4981 28.0587C28.8101 26.7747 29.1341 25.492 29.4475 24.208C29.7395 23.0107 30.0195 21.812 30.3155 20.6147C30.6595 19.2227 31.0155 17.8333 31.3701 16.4213H33.5275C33.9408 14.7133 34.3501 13.0267 34.7675 11.3067H32.6248C32.6395 11.2067 32.6448 11.1307 32.6635 11.0573C32.8355 10.3573 33.0035 9.65599 33.1848 8.95866C33.2901 8.54933 33.4181 8.14933 33.7048 7.81866C33.9341 7.55466 34.2275 7.36533 34.5595 7.35466C34.9955 7.34 35.4355 7.41866 35.8741 7.46666C35.9981 7.48 36.1875 7.58933 36.2275 7.54533C36.3115 7.45333 36.3181 7.28933 36.3528 7.15466C36.5248 6.5 36.7008 5.84666 36.8635 5.19066C37.0461 4.44666 37.2128 3.69866 37.3928 2.95466C37.4675 2.65333 37.4701 2.64266 37.1688 2.57066C37.1381 2.564 37.1061 2.56133 37.0741 2.55466C36.1341 2.35466 35.1781 2.368 34.2248 2.37066C33.4501 2.372 32.7141 2.556 32.0221 2.89733C30.5341 3.63199 29.5261 4.81333 28.8488 6.30933C28.4315 7.23333 28.2661 8.224 28.0101 9.19199C27.8448 9.82133 27.6995 10.456 27.5475 11.0893C27.5088 11.256 27.4275 11.328 27.2395 11.3187C26.8755 11.3 26.5088 11.3133 26.1435 11.3093C26.0061 11.308 25.9341 11.3533 25.9155 11.5013C25.8928 11.6787 25.8461 11.852 25.8035 12.0253C25.5555 13.0373 25.3035 14.0467 25.0555 15.0573C24.9448 15.508 24.8381 15.9587 24.7248 16.428H26.2341ZM13.5128 33.6907C13.4475 33.996 13.4021 34.2453 13.3408 34.4893C13.2781 34.736 13.2835 34.7507 13.5488 34.7507C14.8688 34.752 16.1888 34.7547 17.5088 34.7547C17.8608 34.7547 18.2128 34.7453 18.5661 34.7427C18.6808 34.7413 18.7315 34.7013 18.7501 34.5773C18.7848 34.332 18.8381 34.088 18.8981 33.848C19.1048 33.0173 19.3248 32.1893 19.5275 31.3587C19.8581 30.0107 20.1741 28.6613 20.5048 27.3147C20.8848 25.764 21.2755 24.2147 21.6581 22.664C21.9781 21.3613 22.2928 20.056 22.6128 18.752C22.7901 18.0267 23.0155 17.3093 23.1448 16.5747C23.3088 15.6387 23.4355 14.6933 23.2981 13.7333C23.1368 12.6053 22.5741 11.7667 21.5248 11.3253C20.3155 10.8173 19.0328 10.7547 17.7461 10.9253C16.5688 11.0813 15.4568 11.4613 14.3861 11.9733C13.5768 12.3613 12.7928 12.7893 12.0488 13.292C11.8195 13.4467 11.7808 13.5773 11.8221 13.84C12.0115 15.0787 12.1701 16.3213 12.3395 17.5627C12.3621 17.7267 12.4115 17.7507 12.5461 17.656C12.7341 17.524 12.9141 17.3733 13.1155 17.2667C13.7875 16.9133 14.4608 16.5613 15.1461 16.2333C15.7381 15.9507 16.3741 15.8893 17.0208 15.9827C17.3115 16.0253 17.5355 16.2507 17.5461 16.54C17.5581 16.8507 17.5595 17.1707 17.4955 17.4733C17.3088 18.3413 17.0861 19.2013 16.8795 20.0667C16.8301 20.2733 16.8021 20.2667 16.6101 20.176C16.2821 20.0227 15.9475 19.8533 15.5981 19.7827C15.0275 19.668 14.4408 19.6227 13.8621 19.756C13.4021 19.8613 12.9221 19.928 12.4928 20.1093C11.4461 20.5533 10.6515 21.3147 10.0088 22.244C9.25947 23.3267 8.7528 24.5227 8.35413 25.768C7.93413 27.08 7.62613 28.416 7.39546 29.7733C7.2248 30.7707 7.2048 31.7707 7.29013 32.7747C7.33946 33.36 7.5448 33.9 7.90613 34.364C8.1528 34.6787 8.4728 34.9173 8.8608 35.0493C9.65547 35.3213 10.4675 35.3213 11.2608 35.1013C12.0581 34.8813 12.7235 34.408 13.3155 33.8347C13.3608 33.7907 13.4181 33.76 13.5128 33.6907ZM36.7475 34.7427C36.8275 34.752 36.9008 34.7667 36.9741 34.7667C37.5381 34.768 38.1021 34.7653 38.6661 34.7653C39.7741 34.7653 40.8835 34.7667 41.9915 34.768C42.1328 34.768 42.2448 34.7613 42.2821 34.5747C42.3968 34.012 42.5221 33.452 42.6595 32.8933C42.9435 31.74 43.2421 30.5893 43.5248 29.436C43.8288 28.196 44.1195 26.952 44.4181 25.7107C44.6235 24.8613 44.8315 24.012 45.0395 23.164C45.4488 21.5027 45.8608 19.8413 46.2701 18.18C46.4981 17.256 46.7648 16.34 46.8435 15.388C46.8995 14.6933 46.9368 13.9973 46.7581 13.3093C46.5075 12.3467 45.9248 11.6627 45.0088 11.2853C44.0435 10.888 43.0235 10.8 41.9928 10.84C41.0141 10.8773 40.0688 11.1053 39.1475 11.4293C37.8035 11.9 36.5595 12.5653 35.4008 13.3893C35.3395 13.4333 35.2915 13.552 35.3008 13.628C35.4435 14.7293 35.5955 15.8307 35.7475 16.9307C35.7835 17.1987 35.8288 17.4653 35.8741 17.76C35.9555 17.716 36.0008 17.696 36.0421 17.6693C36.2955 17.5093 36.5461 17.344 36.8021 17.1853C37.5115 16.7467 38.2408 16.348 39.0488 16.116C39.5368 15.976 40.0315 15.864 40.5421 15.9973C40.8541 16.08 41.0368 16.2733 41.0528 16.5893C41.0648 16.836 41.0688 17.0933 41.0168 17.332C40.8195 18.2293 40.5995 19.1227 40.3848 20.016C40.3661 20.092 40.3235 20.164 40.2915 20.24C40.0981 20.1347 39.9315 20.0267 39.7515 19.9507C38.9835 19.6253 38.1768 19.6307 37.3701 19.7253C35.8568 19.9027 34.6888 20.688 33.7728 21.8613C32.8755 23.0093 32.2995 24.328 31.8701 25.7067C31.6181 26.516 31.4168 27.3413 31.2235 28.168C30.8515 29.7507 30.5408 31.3427 30.8168 32.9827C30.9061 33.516 31.0781 34.0187 31.4408 34.4227C32.2648 35.3347 33.3488 35.3867 34.4421 35.1947C35.3701 35.0307 36.1461 34.5147 36.8235 33.8613C36.8661 33.82 36.9168 33.7867 36.9635 33.7493C36.9781 33.7587 36.9928 33.7667 37.0075 33.776C36.9235 34.0907 36.8381 34.4053 36.7475 34.7427ZM49.7168 43.0693C49.8928 43.004 50.0688 42.9347 50.2461 42.8733C51.3648 42.488 52.4848 42.1027 53.6035 41.72C54.0275 41.5747 54.4515 41.4307 54.8781 41.2933C55.0168 41.248 55.0675 41.172 55.0981 41.024C55.2155 40.456 55.3528 39.8907 55.4915 39.3267C55.8475 37.8827 56.2088 36.4413 56.5661 34.9973C56.8461 33.864 57.1248 32.7293 57.4008 31.596C57.9048 29.5227 58.4035 27.4493 58.9101 25.3773C59.1475 24.404 59.4075 23.436 59.6448 22.4627C59.9675 21.1427 60.2728 19.8173 60.5941 18.496C60.8715 17.3547 61.1635 16.2173 61.4448 15.0773C61.7381 13.8867 62.0275 12.6947 62.3168 11.504C62.3301 11.4493 62.3315 11.392 62.3421 11.3173H62.0115C60.5115 11.3173 59.0128 11.32 57.5128 11.3187C57.1555 11.3187 57.1568 11.3133 57.0808 11.6493C57.0328 11.86 56.9781 12.0693 56.9168 12.3147C56.8648 12.2547 56.8221 12.2147 56.7888 12.168C56.1061 11.224 55.1955 10.7467 54.0181 10.8507C53.1941 10.9253 52.4861 11.2827 51.8701 11.824C51.0955 12.504 50.5061 13.328 50.0061 14.2213C49.0515 15.9267 48.3715 17.744 47.8248 19.6107C47.4168 21.0013 47.0541 22.404 46.6968 23.808C46.4875 24.6293 46.2995 25.4587 46.1515 26.2933C45.9528 27.4053 45.7488 28.5213 45.6475 29.6453C45.5501 30.7373 45.5061 31.8453 45.7435 32.932C45.8648 33.4853 46.0381 34.036 46.4395 34.4693C46.8928 34.96 47.4461 35.2293 48.1275 35.2653C49.2128 35.3227 50.1288 34.916 50.9741 34.292C51.1595 34.156 51.3288 33.9987 51.5061 33.852C51.5475 33.8187 51.5928 33.788 51.6715 33.728C51.5755 34.132 51.4901 34.4907 51.4035 34.848C51.2035 35.6733 51.0021 36.4987 50.8021 37.3253C50.5048 38.5467 50.2088 39.768 49.9128 40.9907C49.7501 41.6667 49.5928 42.344 49.4248 43.02C49.4141 43.064 49.3461 43.1173 49.2995 43.1227C49.1795 43.1373 49.0568 43.1267 48.9341 43.1267C34.4248 43.1267 19.9155 43.128 5.40613 43.1253C4.75546 43.1253 4.1248 42.996 3.50746 42.7867C2.23146 42.3533 1.47147 41.4253 1.0288 40.2013C0.8488 39.7053 0.766134 39.188 0.7688 38.66C0.7728 38.028 0.767462 37.3933 0.804796 36.7627C0.824796 36.416 0.91013 36.0707 0.987464 35.728C1.11546 35.156 1.25947 34.5867 1.39947 34.016C1.61147 33.156 1.8288 32.296 2.03947 31.4347C2.27547 30.4693 2.50347 29.5013 2.74213 28.536C2.93947 27.7373 3.14613 26.9413 3.34613 26.144C3.5568 25.3013 3.76613 24.46 3.97013 23.6173C4.13413 22.9413 4.28346 22.2627 4.45013 21.588C4.6888 20.6147 4.93946 19.6453 5.17946 18.6733C5.35146 17.98 5.51146 17.2827 5.68346 16.5893C5.93146 15.588 6.1888 14.588 6.4328 13.584C6.6528 12.68 6.85413 11.7693 7.0768 10.8653C7.2648 10.0973 7.47946 9.33599 7.67013 8.56933C7.73413 8.312 7.74213 8.04133 7.81013 7.78533C7.90613 7.42266 8.01413 7.06133 8.15146 6.71333C8.36213 6.17866 8.5688 5.63866 8.83547 5.13066C9.40613 4.04133 10.1728 3.08666 11.1595 2.35733C12.1608 1.61733 13.2768 1.07333 14.5101 0.794662C15.2635 0.623993 16.0195 0.565327 16.7915 0.566662C35.7048 0.57333 54.6168 0.571995 73.5288 0.571995C77.4901 0.571995 81.4501 0.567997 85.4115 0.585327C85.7555 0.586662 86.0981 0.733326 86.4421 0.809326C86.5941 0.842659 86.7541 0.849327 86.8981 0.899994C87.5261 1.12266 88.0541 1.50133 88.5035 1.98533C88.8968 2.41066 89.1395 2.924 89.3395 3.45866C89.6541 4.30533 89.6448 5.18666 89.6208 6.06933C89.6115 6.42 89.6368 6.77999 89.5688 7.12C89.4195 7.868 89.2168 8.60666 89.0421 9.34933C88.9221 9.86399 88.8181 10.384 88.6915 10.8973C88.5635 11.416 88.4075 11.928 88.2781 12.4467C88.0275 13.4413 87.7848 14.4387 87.5408 15.4347C87.3808 16.0907 87.2221 16.7467 87.0648 17.4027C86.8821 18.1573 86.7008 18.9133 86.5181 19.668C86.4741 19.8533 86.4288 20.0387 86.3821 20.2227C86.1928 20.976 85.9981 21.728 85.8155 22.4827C85.6768 23.052 85.5595 23.6267 85.4208 24.196C85.3141 24.6373 85.1821 25.0733 85.0768 25.5147C84.8115 26.624 84.5608 27.736 84.2915 28.844C84.1581 29.3947 83.9901 29.9373 83.8515 30.4867C83.7008 31.0853 83.5688 31.6893 83.4208 32.288C83.2341 33.0493 83.0381 33.808 82.8501 34.5693C82.6755 35.2773 82.5328 35.996 82.3235 36.6933C82.1755 37.1907 81.9635 37.672 81.7368 38.14C81.5128 38.604 81.2635 39.06 80.9768 39.4893C80.3435 40.44 79.5035 41.1813 78.5395 41.792C77.9088 42.192 77.2448 42.528 76.5301 42.724C75.6448 42.968 74.7488 43.14 73.8128 43.1387C66.1608 43.12 58.5088 43.128 50.8555 43.128H49.7288C49.7248 43.108 49.7208 43.0893 49.7168 43.0693Z" fill="black"/>
</svg>
