<svg width="205" height="41" viewBox="0 0 205 41" fill="none" xmlns="http://www.w3.org/2000/svg">
<path fill-rule="evenodd" clip-rule="evenodd" d="M71.254 7.78507C71.254 10.2064 71.2526 12.6291 71.254 15.0517C71.7246 15.0317 72.2446 15.0771 72.654 14.8011C73.0513 14.5237 73.146 14.0024 73.158 13.5531C73.166 12.2091 73.158 10.8637 73.162 9.51973C73.166 9.0064 73.0486 8.4344 72.634 8.0904C72.2526 7.77307 71.7286 7.72906 71.254 7.78507ZM92.3193 14.8531L93.1406 8.07707L94.4846 1.0424H102.891L98.042 17.5184L103.577 40.3584H95.2566L93.346 28.9877L92.3193 20.8291V40.3584H83.8873V1.0424H92.3193V14.8531ZM21.1086 1.0424H29.4606V13.1144H31.3793V1.0424H39.854V40.3584H31.3793V19.8317H29.4606V40.3584H21.1086V1.0424ZM60.5766 40.3584H52.2233V32.6864H50.2073V40.3584H41.8566V7.9104C41.8566 5.77573 42.246 4.16907 42.774 3.22507C43.5366 1.86507 44.998 1.28373 46.606 1.03573C48.3433 0.766399 54.1753 0.743732 55.8846 1.04507C57.3966 1.31307 58.8246 1.9184 59.5713 3.26907C60.094 4.2144 60.5766 5.77573 60.5766 7.9104V40.3584ZM50.2073 25.8384H52.2233C52.2233 20.3011 52.226 14.7571 52.226 9.2224C52.226 8.44506 51.838 7.7904 51.218 7.7904C51.218 7.7744 50.2073 7.8664 50.2073 9.2224V25.8384ZM1.56864 2.09307C2.47264 1.04507 4.27665 0.642399 6.09531 0.486401C8.30464 0.298401 11.2366 0.318398 13.4246 0.537067C14.3353 0.627731 15.1713 0.775734 15.7433 1.01574C16.89 1.4544 17.6833 2.02906 18.2086 3.38906C18.9153 5.0744 18.8793 7.5024 18.8673 9.2984C18.8673 10.7917 18.8673 12.5411 18.8673 13.9384H10.4126C10.4126 12.6877 10.4153 10.8424 10.4113 9.57573C10.3806 8.8624 10.302 8.1104 9.93798 7.48107C9.81531 7.26107 9.53531 7.04373 9.28464 7.2064C8.95398 7.42907 8.82864 7.8344 8.72731 8.1984C8.46464 9.24907 8.54331 10.3437 8.52198 11.4144C8.55131 12.4344 8.53531 12.8824 8.74731 13.3851C9.00998 14.0091 9.55398 14.6211 10.7193 15.3304C11.9673 16.1091 13.4713 16.6957 14.7246 17.4664C16.1566 18.3264 17.538 19.2664 18.2553 20.8077C18.6646 21.6704 18.87 23.2611 18.866 24.2131C18.866 27.8131 18.8713 30.4037 18.8633 34.0024C18.8553 35.5224 18.4273 37.5891 17.2713 38.6451C16.5686 39.2971 15.5086 39.7344 14.5873 39.9517C12.794 40.3757 6.70331 40.4424 4.86864 40.0651C3.92998 39.8717 3.08998 39.5397 2.28731 39.0824C0.41398 38.0157 0.12731 34.7824 0.12731 32.6491C0.125976 29.4291 0.14998 27.3344 0.148646 24.1157C2.91531 24.1131 5.77531 24.1131 8.54198 24.1157C8.54198 26.5264 8.54064 28.5624 8.54331 30.9731C8.56331 31.6531 8.65131 32.7237 9.03531 33.0704C9.25931 33.2904 9.69664 33.3077 9.89531 33.0557C10.3526 32.4651 10.3766 31.6731 10.398 31.0264C10.3953 28.9171 10.3926 27.5597 10.3993 25.4504C10.4286 24.6517 10.0046 23.9464 9.51131 23.6624C8.57531 23.1144 7.61131 22.6331 6.67798 22.0784C5.29931 21.2957 3.24864 20.1131 2.10598 19.1304C1.34598 18.4651 0.693977 17.3624 0.45931 16.3717C0.041977 14.5997 0.116647 11.8811 0.10198 10.4184C0.09398 9.08107 0.0486451 8.30373 0.113978 6.96773C0.160645 5.26907 0.543311 3.20373 1.56864 2.09307ZM62.8993 1.0424C66.4673 1.0424 69.9313 1.0424 73.5006 1.0424C75.2913 1.0344 77.1566 1.04374 78.8206 1.79307C79.8993 2.2624 80.8206 3.12774 81.2433 4.2344C81.6633 5.25307 81.6273 6.36907 81.6206 7.44773C81.6166 9.33173 81.6286 11.2131 81.614 13.0957C81.574 14.7077 81.2286 16.4037 80.1873 17.6851C79.7526 18.2384 79.15 18.6704 78.518 18.9304C79.3673 19.0997 79.9686 19.8024 80.4406 20.4784C81.2286 21.6624 81.6233 23.0891 81.6206 24.5077C81.622 29.7904 81.6206 35.0731 81.6206 40.3571C78.766 40.3584 76.0166 40.3557 73.162 40.3584C73.1593 35.0344 73.1606 29.7104 73.162 24.3864C73.158 23.8664 73.0753 23.2717 72.6486 22.9184C72.2553 22.6037 71.7113 22.6411 71.2526 22.7704C71.254 28.6331 71.254 34.4944 71.2526 40.3571H62.8993C62.898 27.2517 62.898 14.1477 62.8993 1.0424ZM110.326 0.481068C116.895 0.482399 123.413 0.481064 129.982 0.482399C129.982 2.74373 129.982 5.0064 129.982 7.26773C128.43 7.26907 126.77 7.26773 125.218 7.26907C125.218 18.2984 125.217 29.3277 125.218 40.3571C121.827 40.3584 118.439 40.3584 115.05 40.3584V7.26907C113.422 7.26907 111.954 7.26773 110.326 7.26907C110.323 5.0064 110.325 2.74373 110.326 0.481068ZM156.366 0.482399H166.123L168.822 12.7184L170.043 20.7011L170.069 0.482399H178.929L178.93 40.3571H168.665L166.058 28.8491L164.855 20.3437L164.851 40.3571H156.366V0.482399ZM144.211 32.5277H141.839V40.3571H131.797V9.2824V7.5264C131.797 5.3664 132.265 3.73973 132.901 2.78507C133.817 1.40907 135.522 0.821068 137.455 0.569065C139.545 0.298401 146.558 0.274403 148.614 0.579735C150.433 0.850403 152.149 1.46373 153.047 2.82907C153.677 3.7864 154.31 5.3664 154.31 7.5264V9.24373V40.3571H144.211V32.5277ZM141.839 25.6664H144.213L144.214 8.72373C144.214 7.9384 143.747 7.2744 143.001 7.2744H142.999C142.253 7.2744 141.839 7.9384 141.839 8.72373V25.6664ZM181.198 0.481068H191.33V14.3037L191.381 14.2571L192.341 7.77974L194.001 0.482399L203.995 0.481068L199.705 12.9744C199.033 13.1957 198.274 13.4731 197.655 13.6837L199.158 14.5291C199.117 14.6517 199.034 14.9451 198.991 15.0677C198.122 15.5397 197.313 15.9384 196.443 16.4091C197.254 17.1357 198.029 17.8064 198.799 18.7891C198.273 19.1557 197.018 19.4984 196.049 19.6637C195.303 19.7917 194.639 20.1224 193.939 20.3824L197.179 21.7664C196.597 22.4331 195.525 23.2437 194.717 23.8971L198.346 24.4451C197.279 25.1837 195.887 25.9704 194.713 26.7277C195.922 27.1357 197.05 27.5651 198.258 27.9744C197.765 28.3957 197.123 28.6984 196.567 29.0157C196.253 29.1957 196.107 29.3757 195.85 29.6304C195.587 29.9371 195.649 29.8797 195.963 30.0224L200.222 30.9317C199.457 31.3544 198.591 31.7677 197.737 32.3744C196.946 32.9357 196.822 32.9877 197.73 33.1464C198.878 33.3451 199.834 33.4944 200.874 33.5571C200.339 33.7117 200.178 33.8171 199.887 34.1024C199.689 34.3491 199.351 34.6331 199.011 34.8731C198.543 35.2584 198.903 35.5811 199.397 35.5811C200.495 35.5797 201.675 35.6197 202.773 35.6184C202.526 36.4491 202.171 37.0464 201.773 37.6944C202.718 37.8117 203.23 37.7557 204.131 37.7077L204.773 39.9331L204.897 40.2971L204.917 40.3571H204.897H194.898L192.559 28.9344L191.395 21.0304L191.33 20.9651V40.3571H181.198V0.481068Z" fill="black"/>
</svg>
