<svg width="428" height="288" viewBox="0 0 428 288" fill="none" xmlns="http://www.w3.org/2000/svg">
<path d="M105.608 47.2168H23.3497C10.9604 47.2168 0.917725 37.1728 0.917725 24.7835V22.9835C0.917725 10.5941 10.9604 0.550133 23.3497 0.550133H105.608C117.998 0.550133 128.042 10.5941 128.042 22.9835V24.7835C128.042 37.1728 117.998 47.2168 105.608 47.2168Z" fill="white"/>
<path d="M13.7759 29.332V18.132H21.5839V20.452H16.4159V27.012H21.7439V29.332H13.7759ZM15.0559 24.74V22.532H20.8639V24.74H15.0559ZM24.0884 29.332V18.132H28.7764C29.5978 18.132 30.3498 18.2707 31.0324 18.548C31.7151 18.8147 32.3018 19.1987 32.7924 19.7C33.2938 20.2014 33.6778 20.7934 33.9444 21.476C34.2111 22.1587 34.3444 22.9107 34.3444 23.732C34.3444 24.5534 34.2111 25.3107 33.9444 26.004C33.6778 26.6867 33.2938 27.2787 32.7924 27.78C32.3018 28.2707 31.7151 28.6547 31.0324 28.932C30.3498 29.1987 29.5978 29.332 28.7764 29.332H24.0884ZM26.8084 27.476L26.4404 26.932H28.6964C29.1444 26.932 29.5444 26.8574 29.8964 26.708C30.2484 26.548 30.5471 26.3294 30.7924 26.052C31.0484 25.7747 31.2458 25.4387 31.3844 25.044C31.5231 24.6494 31.5924 24.212 31.5924 23.732C31.5924 23.252 31.5231 22.8147 31.3844 22.42C31.2458 22.0254 31.0484 21.6894 30.7924 21.412C30.5471 21.1347 30.2484 20.9214 29.8964 20.772C29.5444 20.612 29.1444 20.532 28.6964 20.532H26.3924L26.8084 20.02V27.476ZM41.1678 29.428C40.2398 29.428 39.4131 29.2414 38.6878 28.868C37.9625 28.484 37.3918 27.9614 36.9758 27.3C36.5705 26.6387 36.3678 25.8814 36.3678 25.028V18.132H39.1198V24.884C39.1198 25.2894 39.2105 25.6574 39.3918 25.988C39.5731 26.308 39.8185 26.564 40.1278 26.756C40.4371 26.9374 40.7838 27.028 41.1678 27.028C41.5731 27.028 41.9305 26.9374 42.2398 26.756C42.5598 26.564 42.8158 26.308 43.0078 25.988C43.1998 25.6574 43.2958 25.2894 43.2958 24.884V18.132H45.9518V25.028C45.9518 25.8814 45.7438 26.6387 45.3278 27.3C44.9225 27.9614 44.3571 28.484 43.6318 28.868C42.9065 29.2414 42.0851 29.428 41.1678 29.428ZM53.7702 29.492C52.9275 29.492 52.1488 29.3534 51.4342 29.076C50.7302 28.788 50.1168 28.388 49.5942 27.876C49.0715 27.3534 48.6662 26.74 48.3782 26.036C48.1008 25.3214 47.9622 24.5374 47.9622 23.684C47.9622 22.852 48.1115 22.084 48.4102 21.38C48.7088 20.676 49.1195 20.068 49.6422 19.556C50.1755 19.0334 50.7995 18.628 51.5142 18.34C52.2395 18.052 53.0288 17.908 53.8822 17.908C54.4155 17.908 54.9382 17.9774 55.4502 18.116C55.9622 18.2547 56.4368 18.4627 56.8742 18.74C57.3222 19.0067 57.7062 19.3267 58.0262 19.7L56.3622 21.604C56.1382 21.3694 55.8982 21.1667 55.6422 20.996C55.3968 20.8147 55.1248 20.676 54.8262 20.58C54.5275 20.484 54.2075 20.436 53.8662 20.436C53.4395 20.436 53.0342 20.516 52.6502 20.676C52.2768 20.8254 51.9462 21.044 51.6582 21.332C51.3808 21.6094 51.1622 21.9507 51.0022 22.356C50.8422 22.7614 50.7622 23.2147 50.7622 23.716C50.7622 24.2067 50.8422 24.6547 51.0022 25.06C51.1622 25.4547 51.3862 25.796 51.6742 26.084C51.9622 26.372 52.3088 26.5907 52.7142 26.74C53.1302 26.8894 53.5888 26.964 54.0902 26.964C54.4315 26.964 54.7568 26.916 55.0662 26.82C55.3755 26.724 55.6582 26.596 55.9142 26.436C56.1808 26.2654 56.4155 26.0734 56.6182 25.86L57.9302 27.94C57.6635 28.2387 57.3062 28.5054 56.8582 28.74C56.4208 28.9747 55.9302 29.1614 55.3862 29.3C54.8528 29.428 54.3142 29.492 53.7702 29.492ZM58.3675 29.332L62.7995 18.132H65.1035L69.5035 29.332H66.7515L64.6395 23.652C64.5542 23.428 64.4689 23.188 64.3835 22.932C64.2982 22.676 64.2129 22.4147 64.1275 22.148C64.0422 21.8707 63.9569 21.604 63.8715 21.348C63.7969 21.0814 63.7329 20.836 63.6795 20.612L64.1595 20.596C64.0955 20.8627 64.0209 21.124 63.9355 21.38C63.8609 21.636 63.7809 21.892 63.6955 22.148C63.6209 22.3934 63.5355 22.644 63.4395 22.9C63.3435 23.1454 63.2529 23.4014 63.1675 23.668L61.0555 29.332H58.3675ZM60.4795 27.188L61.3275 25.14H66.4795L67.3115 27.188H60.4795ZM72.536 29.332V20.532H69.208V18.132H78.664V20.532H75.256V29.332H72.536ZM80.3644 29.332V27.044H82.2524V20.42H80.3644V18.132H86.8764V20.42H84.9724V27.044H86.8764V29.332H80.3644ZM94.333 29.492C93.4797 29.492 92.701 29.348 91.997 29.06C91.293 28.772 90.6797 28.3667 90.157 27.844C89.6344 27.3214 89.229 26.708 88.941 26.004C88.653 25.3 88.509 24.5267 88.509 23.684C88.509 22.8414 88.653 22.068 88.941 21.364C89.229 20.66 89.6344 20.0467 90.157 19.524C90.6797 19.0014 91.293 18.596 91.997 18.308C92.701 18.02 93.4744 17.876 94.317 17.876C95.1597 17.876 95.933 18.02 96.637 18.308C97.341 18.596 97.9544 19.0014 98.477 19.524C98.9997 20.0467 99.3997 20.66 99.677 21.364C99.965 22.068 100.109 22.8414 100.109 23.684C100.109 24.516 99.965 25.2894 99.677 26.004C99.3997 26.708 98.9997 27.3214 98.477 27.844C97.9544 28.3667 97.341 28.772 96.637 29.06C95.933 29.348 95.165 29.492 94.333 29.492ZM94.317 26.932C94.7544 26.932 95.1544 26.852 95.517 26.692C95.8904 26.532 96.2104 26.308 96.477 26.02C96.7544 25.7214 96.9677 25.3747 97.117 24.98C97.2664 24.5854 97.341 24.1534 97.341 23.684C97.341 23.2147 97.2664 22.7827 97.117 22.388C96.9677 21.9934 96.7544 21.652 96.477 21.364C96.2104 21.0654 95.8904 20.836 95.517 20.676C95.1544 20.516 94.7544 20.436 94.317 20.436C93.8797 20.436 93.4744 20.516 93.101 20.676C92.7384 20.836 92.4184 21.0654 92.141 21.364C91.8637 21.652 91.6504 21.9934 91.501 22.388C91.3624 22.7827 91.293 23.2147 91.293 23.684C91.293 24.1534 91.3624 24.5907 91.501 24.996C91.6504 25.3907 91.8637 25.732 92.141 26.02C92.4184 26.308 92.7384 26.532 93.101 26.692C93.4744 26.852 93.8797 26.932 94.317 26.932ZM102.213 29.332V18.132H104.645L110.517 26.132L109.989 26.052C109.936 25.7 109.893 25.364 109.861 25.044C109.829 24.724 109.797 24.4094 109.765 24.1C109.744 23.7907 109.723 23.476 109.701 23.156C109.691 22.836 109.68 22.4894 109.669 22.116C109.669 21.7427 109.669 21.3374 109.669 20.9V18.132H112.309V29.332H109.845L103.717 21.076L104.533 21.188C104.587 21.7 104.629 22.1374 104.661 22.5C104.704 22.852 104.736 23.1667 104.757 23.444C104.789 23.7214 104.811 23.972 104.821 24.196C104.832 24.42 104.837 24.644 104.837 24.868C104.848 25.0814 104.853 25.3214 104.853 25.588V29.332H102.213Z" fill="black"/>
<path d="M257.434 47.2168H160.709C147.822 47.2168 137.375 36.7701 137.375 23.8835C137.375 10.9968 147.822 0.550133 160.709 0.550133H257.434C270.321 0.550133 280.767 10.9968 280.767 23.8835C280.767 36.7701 270.321 47.2168 257.434 47.2168Z" fill="white"/>
<path d="M404.299 47.2168H313.435C300.548 47.2168 290.101 36.7701 290.101 23.8835C290.101 10.9968 300.548 0.550133 313.435 0.550133H404.299C417.185 0.550133 427.632 10.9968 427.632 23.8835C427.632 36.7701 417.185 47.2168 404.299 47.2168Z" fill="white"/>
<path d="M311.29 167.366H230.73C217.844 167.366 207.397 156.92 207.397 144.033C207.397 131.146 217.844 120.7 230.73 120.7H311.29C324.177 120.7 334.624 131.146 334.624 144.033C334.624 156.92 324.177 167.366 311.29 167.366Z" fill="white"/>
<path d="M183.845 107.366H133.927C121.041 107.366 110.594 96.9195 110.594 84.0329C110.594 71.1462 121.041 60.6995 133.927 60.6995H183.845C196.731 60.6995 207.178 71.1462 207.178 84.0329C207.178 96.9195 196.731 107.366 183.845 107.366Z" fill="white"/>
<path d="M287.106 107.366H239.395C226.508 107.366 216.062 96.9195 216.062 84.0329C216.062 71.1462 226.508 60.6995 239.395 60.6995H287.106C299.992 60.6995 310.439 71.1462 310.439 84.0329C310.439 96.9195 299.992 107.366 287.106 107.366Z" fill="white"/>
<path d="M174.73 167.366H24.2498C11.3645 167.366 0.916504 156.92 0.916504 144.033C0.916504 131.146 11.3645 120.7 24.2498 120.7H174.73C187.617 120.7 198.063 131.146 198.063 144.033C198.063 156.92 187.617 167.366 174.73 167.366Z" fill="white"/>
<path d="M77.9274 107.366H24.2501C11.3634 107.366 0.916748 96.9195 0.916748 84.0329C0.916748 71.1462 11.3634 60.6995 24.2501 60.6995H77.9274C90.8141 60.6995 101.261 71.1462 101.261 84.0329C101.261 96.9195 90.8141 107.366 77.9274 107.366Z" fill="white"/>
<path d="M87.2608 287.366H24.2501C11.3634 287.366 0.916748 276.92 0.916748 264.033C0.916748 251.146 11.3634 240.7 24.2501 240.7H87.2608C100.147 240.7 110.594 251.146 110.594 264.033C110.594 276.92 100.147 287.366 87.2608 287.366Z" fill="white"/>
<path d="M404.299 167.366H367.657C354.771 167.366 344.325 156.92 344.325 144.033C344.325 131.146 354.771 120.7 367.657 120.7H404.299C417.185 120.7 427.632 131.146 427.632 144.033C427.632 156.92 417.185 167.366 404.299 167.366Z" fill="white"/>
<path d="M404 107.366H342.688C329.801 107.366 319.355 96.9195 319.355 84.0329C319.355 71.1462 329.801 60.6995 342.688 60.6995H404C416.887 60.6995 427.333 71.1462 427.333 84.0329C427.333 96.9195 416.887 107.366 404 107.366Z" fill="white"/>
<path d="M117.771 227.366H24.2506C11.3639 227.366 0.917236 216.92 0.917236 204.033C0.917236 191.146 11.3639 180.7 24.2506 180.7H117.771C130.657 180.7 141.104 191.146 141.104 204.033C141.104 216.92 130.657 227.366 117.771 227.366Z" fill="white"/>
<path d="M251.579 227.366H173.77C160.883 227.366 150.437 216.92 150.437 204.033C150.437 191.146 160.883 180.7 173.77 180.7H251.579C264.466 180.7 274.913 191.146 274.913 204.033C274.913 216.92 264.466 227.366 251.579 227.366Z" fill="white"/>
<path d="M251.579 287.366H143.261C130.374 287.366 119.927 276.92 119.927 264.033C119.927 251.146 130.374 240.7 143.261 240.7H251.579C264.466 240.7 274.913 251.146 274.913 264.033C274.913 276.92 264.466 287.366 251.579 287.366Z" fill="white"/>
<path d="M404.169 227.366H307.301C294.508 227.366 284.137 216.996 284.137 204.202V203.864C284.137 191.07 294.508 180.7 307.301 180.7H404.169C416.963 180.7 427.333 191.07 427.333 203.864V204.202C427.333 216.996 416.963 227.366 404.169 227.366Z" fill="white"/>
<path d="M404.412 287.366H307.58C294.693 287.366 284.247 276.92 284.247 264.033C284.247 251.146 294.693 240.7 307.58 240.7H404.412C417.299 240.7 427.745 251.146 427.745 264.033C427.745 276.92 417.299 287.366 404.412 287.366Z" fill="white"/>
<path d="M155.608 29.16C154.712 29.16 153.901 29.016 153.176 28.728C152.451 28.44 151.827 28.0347 151.304 27.512C150.781 26.9893 150.381 26.376 150.104 25.672C149.827 24.9573 149.688 24.184 149.688 23.352C149.688 22.52 149.832 21.7573 150.12 21.064C150.419 20.36 150.84 19.7467 151.384 19.224C151.928 18.7013 152.568 18.296 153.304 18.008C154.051 17.72 154.861 17.576 155.736 17.576C156.355 17.576 156.936 17.656 157.48 17.816C158.035 17.976 158.536 18.1947 158.984 18.472C159.432 18.7493 159.811 19.0693 160.12 19.432L158.472 21.176C158.205 20.92 157.928 20.7067 157.64 20.536C157.363 20.3653 157.064 20.232 156.744 20.136C156.424 20.0293 156.083 19.976 155.72 19.976C155.251 19.976 154.819 20.0613 154.424 20.232C154.04 20.4027 153.699 20.6427 153.4 20.952C153.112 21.2507 152.888 21.608 152.728 22.024C152.568 22.4293 152.488 22.872 152.488 23.352C152.488 23.832 152.573 24.28 152.744 24.696C152.915 25.112 153.149 25.4747 153.448 25.784C153.747 26.0827 154.099 26.3227 154.504 26.504C154.92 26.6747 155.363 26.76 155.832 26.76C156.163 26.76 156.472 26.7067 156.76 26.6C157.059 26.4933 157.315 26.3493 157.528 26.168C157.741 25.9867 157.912 25.7733 158.04 25.528C158.168 25.272 158.232 25 158.232 24.712V24.296L158.584 24.84H155.496V22.712H160.76C160.781 22.8293 160.797 22.9893 160.808 23.192C160.819 23.3947 160.824 23.592 160.824 23.784C160.835 23.976 160.84 24.12 160.84 24.216C160.84 24.9413 160.707 25.608 160.44 26.216C160.184 26.8133 159.821 27.3307 159.352 27.768C158.883 28.2053 158.328 28.5467 157.688 28.792C157.048 29.0373 156.355 29.16 155.608 29.16ZM168.028 29.16C167.174 29.16 166.396 29.016 165.692 28.728C164.988 28.44 164.374 28.0347 163.852 27.512C163.329 26.9893 162.924 26.376 162.636 25.672C162.348 24.968 162.204 24.1947 162.204 23.352C162.204 22.5093 162.348 21.736 162.636 21.032C162.924 20.328 163.329 19.7147 163.852 19.192C164.374 18.6693 164.988 18.264 165.692 17.976C166.396 17.688 167.169 17.544 168.012 17.544C168.854 17.544 169.628 17.688 170.332 17.976C171.036 18.264 171.649 18.6693 172.172 19.192C172.694 19.7147 173.094 20.328 173.372 21.032C173.66 21.736 173.804 22.5093 173.804 23.352C173.804 24.184 173.66 24.9573 173.372 25.672C173.094 26.376 172.694 26.9893 172.172 27.512C171.649 28.0347 171.036 28.44 170.332 28.728C169.628 29.016 168.86 29.16 168.028 29.16ZM168.012 26.6C168.449 26.6 168.849 26.52 169.212 26.36C169.585 26.2 169.905 25.976 170.172 25.688C170.449 25.3893 170.662 25.0427 170.812 24.648C170.961 24.2533 171.036 23.8213 171.036 23.352C171.036 22.8827 170.961 22.4507 170.812 22.056C170.662 21.6613 170.449 21.32 170.172 21.032C169.905 20.7333 169.585 20.504 169.212 20.344C168.849 20.184 168.449 20.104 168.012 20.104C167.574 20.104 167.169 20.184 166.796 20.344C166.433 20.504 166.113 20.7333 165.836 21.032C165.558 21.32 165.345 21.6613 165.196 22.056C165.057 22.4507 164.988 22.8827 164.988 23.352C164.988 23.8213 165.057 24.2587 165.196 24.664C165.345 25.0587 165.558 25.4 165.836 25.688C166.113 25.976 166.433 26.2 166.796 26.36C167.169 26.52 167.574 26.6 168.012 26.6ZM178.56 29L174.08 17.8H176.912L179.072 23.512C179.2 23.8427 179.306 24.1307 179.392 24.376C179.488 24.6213 179.568 24.8507 179.632 25.064C179.706 25.2773 179.77 25.496 179.824 25.72C179.888 25.9333 179.957 26.1787 180.032 26.456H179.536C179.621 26.0933 179.706 25.7733 179.792 25.496C179.877 25.208 179.973 24.9147 180.08 24.616C180.186 24.3067 180.32 23.9387 180.48 23.512L182.56 17.8H185.344L180.832 29H178.56ZM186.814 29V17.8H194.622V20.12H189.454V26.68H194.782V29H186.814ZM188.094 24.408V22.2H193.902V24.408H188.094ZM197.127 29V17.8H202.167C202.881 17.8 203.527 17.9547 204.103 18.264C204.689 18.5733 205.148 19 205.479 19.544C205.809 20.0773 205.975 20.6853 205.975 21.368C205.975 22.072 205.809 22.7067 205.479 23.272C205.148 23.8267 204.695 24.264 204.119 24.584C203.543 24.904 202.892 25.064 202.167 25.064H199.719V29H197.127ZM203.335 29L200.487 23.944L203.271 23.544L206.439 29H203.335ZM199.719 22.984H201.927C202.204 22.984 202.444 22.9253 202.647 22.808C202.86 22.68 203.02 22.504 203.127 22.28C203.244 22.056 203.303 21.8 203.303 21.512C203.303 21.224 203.239 20.9733 203.111 20.76C202.983 20.536 202.796 20.3653 202.551 20.248C202.316 20.1307 202.028 20.072 201.687 20.072H199.719V22.984ZM208.361 29V17.8H210.793L216.665 25.8L216.137 25.72C216.084 25.368 216.041 25.032 216.009 24.712C215.977 24.392 215.945 24.0773 215.913 23.768C215.892 23.4587 215.87 23.144 215.849 22.824C215.838 22.504 215.828 22.1573 215.817 21.784C215.817 21.4107 215.817 21.0053 215.817 20.568V17.8H218.457V29H215.993L209.865 20.744L210.681 20.856C210.734 21.368 210.777 21.8053 210.809 22.168C210.852 22.52 210.884 22.8347 210.905 23.112C210.937 23.3893 210.958 23.64 210.969 23.864C210.98 24.088 210.985 24.312 210.985 24.536C210.996 24.7493 211.001 24.9893 211.001 25.256V29H208.361ZM221.267 29V17.8H223.699L227.779 24.44L226.035 24.424L230.163 17.8H232.499V29H229.859V25.512C229.859 24.552 229.881 23.688 229.923 22.92C229.977 22.152 230.062 21.3893 230.179 20.632L230.483 21.464L227.379 26.28H226.323L223.283 21.496L223.587 20.632C223.705 21.3467 223.785 22.0827 223.827 22.84C223.881 23.5867 223.907 24.4773 223.907 25.512V29H221.267ZM235.314 29V17.8H243.122V20.12H237.954V26.68H243.282V29H235.314ZM236.594 24.408V22.2H242.402V24.408H236.594ZM245.627 29V17.8H248.059L253.931 25.8L253.403 25.72C253.349 25.368 253.307 25.032 253.275 24.712C253.243 24.392 253.211 24.0773 253.179 23.768C253.157 23.4587 253.136 23.144 253.115 22.824C253.104 22.504 253.093 22.1573 253.083 21.784C253.083 21.4107 253.083 21.0053 253.083 20.568V17.8H255.723V29H253.259L247.131 20.744L247.947 20.856C248 21.368 248.043 21.8053 248.075 22.168C248.117 22.52 248.149 22.8347 248.171 23.112C248.203 23.3893 248.224 23.64 248.235 23.864C248.245 24.088 248.251 24.312 248.251 24.536C248.261 24.7493 248.267 24.9893 248.267 25.256V29H245.627ZM260.965 29V20.2H257.637V17.8H267.093V20.2H263.685V29H260.965Z" fill="black"/>
<path d="M227.339 148.466V138.221H229.827V148.466H227.339ZM220.987 148.466V138.221H223.475V148.466H220.987ZM221.953 144.471L221.968 142.246H228.656V144.471H221.953ZM232.392 148.466V138.221H239.534V140.344H234.807V146.344H239.681V148.466H232.392ZM233.563 144.266V142.246H238.876V144.266H233.563ZM240.523 148.466L244.577 138.221H246.684L250.709 148.466H248.192L246.26 143.271C246.182 143.066 246.104 142.846 246.026 142.612C245.948 142.378 245.87 142.139 245.792 141.895C245.714 141.641 245.636 141.397 245.557 141.163C245.489 140.919 245.431 140.695 245.382 140.49L245.821 140.475C245.762 140.719 245.694 140.958 245.616 141.192C245.548 141.427 245.475 141.661 245.396 141.895C245.328 142.119 245.25 142.349 245.162 142.583C245.074 142.807 244.992 143.041 244.913 143.285L242.982 148.466H240.523ZM242.455 146.505L243.23 144.632H247.943L248.704 146.505H242.455ZM251.987 148.466V138.221H254.475V146.271H259.042V148.466H251.987ZM261.901 148.466V140.417H258.857V138.221H267.507V140.417H264.389V148.466H261.901ZM275.619 148.466V138.221H278.107V148.466H275.619ZM269.267 148.466V138.221H271.755V148.466H269.267ZM270.233 144.471L270.247 142.246H276.936V144.471H270.233ZM285.326 148.613C284.556 148.613 283.843 148.486 283.19 148.232C282.546 147.969 281.985 147.603 281.506 147.134C281.028 146.656 280.658 146.095 280.394 145.451C280.141 144.798 280.014 144.081 280.014 143.3C280.014 142.539 280.15 141.836 280.423 141.192C280.697 140.549 281.072 139.992 281.55 139.524C282.038 139.046 282.609 138.675 283.263 138.412C283.926 138.148 284.648 138.017 285.429 138.017C285.917 138.017 286.395 138.08 286.863 138.207C287.331 138.334 287.766 138.524 288.166 138.778C288.575 139.022 288.927 139.314 289.219 139.656L287.697 141.397C287.492 141.183 287.273 140.997 287.039 140.841C286.814 140.675 286.565 140.549 286.292 140.461C286.019 140.373 285.726 140.329 285.414 140.329C285.024 140.329 284.653 140.402 284.302 140.549C283.96 140.685 283.658 140.885 283.394 141.149C283.141 141.402 282.941 141.714 282.794 142.085C282.648 142.456 282.575 142.871 282.575 143.329C282.575 143.778 282.648 144.188 282.794 144.559C282.941 144.92 283.146 145.232 283.409 145.495C283.673 145.759 283.99 145.959 284.36 146.095C284.741 146.232 285.16 146.3 285.619 146.3C285.931 146.3 286.229 146.256 286.512 146.169C286.795 146.081 287.053 145.964 287.288 145.817C287.531 145.661 287.746 145.486 287.931 145.29L289.132 147.193C288.888 147.466 288.561 147.71 288.151 147.925C287.751 148.139 287.302 148.31 286.805 148.437C286.317 148.554 285.824 148.613 285.326 148.613ZM289.532 148.466L293.586 138.221H295.693L299.718 148.466H297.201L295.269 143.271C295.191 143.066 295.113 142.846 295.035 142.612C294.957 142.378 294.878 142.139 294.8 141.895C294.722 141.641 294.644 141.397 294.566 141.163C294.498 140.919 294.439 140.695 294.391 140.49L294.83 140.475C294.771 140.719 294.703 140.958 294.625 141.192C294.556 141.427 294.483 141.661 294.405 141.895C294.337 142.119 294.259 142.349 294.171 142.583C294.083 142.807 294 143.041 293.922 143.285L291.99 148.466H289.532ZM291.464 146.505L292.239 144.632H296.952L297.713 146.505H291.464ZM300.996 148.466V138.221H305.606C306.26 138.221 306.85 138.363 307.377 138.646C307.914 138.929 308.333 139.319 308.636 139.817C308.938 140.305 309.09 140.861 309.09 141.485C309.09 142.129 308.938 142.71 308.636 143.227C308.333 143.734 307.919 144.134 307.392 144.427C306.865 144.72 306.27 144.866 305.606 144.866H303.367V148.466H300.996ZM306.675 148.466L304.07 143.842L306.616 143.476L309.514 148.466H306.675ZM303.367 142.963H305.387C305.64 142.963 305.86 142.91 306.045 142.802C306.241 142.685 306.387 142.524 306.484 142.319C306.592 142.115 306.645 141.88 306.645 141.617C306.645 141.353 306.587 141.124 306.47 140.929C306.353 140.724 306.182 140.568 305.958 140.461C305.743 140.353 305.479 140.3 305.167 140.3H303.367V142.963ZM311.272 148.466V138.221H318.415V140.344H313.687V146.344H318.561V148.466H311.272ZM312.443 144.266V142.246H317.756V144.266H312.443Z" fill="black"/>
<path d="M141.521 88.4658V80.4163H138.477V78.221H147.127V80.4163H144.009V88.4658H141.521ZM148.887 88.4658V78.221H156.029V80.3431H151.302V86.3437H156.175V88.4658H148.887ZM150.058 84.2654V82.2457H155.37V84.2654H150.058ZM162.974 88.6122C162.203 88.6122 161.491 88.4853 160.837 88.2317C160.193 87.9682 159.632 87.6023 159.154 87.134C158.676 86.6559 158.305 86.0949 158.042 85.4509C157.788 84.7972 157.661 84.0801 157.661 83.2995C157.661 82.5385 157.798 81.836 158.071 81.192C158.344 80.548 158.72 79.9919 159.198 79.5236C159.686 79.0455 160.257 78.6747 160.91 78.4113C161.574 78.1478 162.296 78.0161 163.076 78.0161C163.564 78.0161 164.042 78.0795 164.511 78.2064C164.979 78.3332 165.413 78.5235 165.813 78.7771C166.223 79.0211 166.574 79.3138 166.867 79.6553L165.345 81.3969C165.14 81.1822 164.921 80.9969 164.686 80.8407C164.462 80.6749 164.213 80.548 163.94 80.4602C163.667 80.3724 163.374 80.3285 163.062 80.3285C162.672 80.3285 162.301 80.4017 161.95 80.548C161.608 80.6846 161.306 80.8846 161.042 81.1481C160.788 81.4018 160.588 81.714 160.442 82.0848C160.296 82.4555 160.223 82.8702 160.223 83.3288C160.223 83.7776 160.296 84.1874 160.442 84.5582C160.588 84.9192 160.793 85.2314 161.057 85.4948C161.32 85.7583 161.637 85.9583 162.008 86.0949C162.389 86.2315 162.808 86.2998 163.267 86.2998C163.579 86.2998 163.877 86.2559 164.16 86.1681C164.442 86.0802 164.701 85.9632 164.935 85.8168C165.179 85.6607 165.394 85.4851 165.579 85.2899L166.779 87.1925C166.535 87.4657 166.208 87.7097 165.799 87.9243C165.399 88.139 164.95 88.3097 164.452 88.4365C163.964 88.5536 163.472 88.6122 162.974 88.6122ZM174.834 88.4658V78.221H177.322V88.4658H174.834ZM168.482 88.4658V78.221H170.97V88.4658H168.482ZM169.448 84.4703L169.462 82.2457H176.151V84.4703H169.448Z" fill="black"/>
<path d="M238.922 89.481L243.354 78.281H245.658L250.058 89.481H247.306L245.194 83.801C245.109 83.577 245.024 83.337 244.938 83.081C244.853 82.825 244.768 82.5636 244.682 82.297C244.597 82.0196 244.512 81.753 244.426 81.497C244.352 81.2303 244.288 80.985 244.234 80.761L244.714 80.745C244.65 81.0116 244.576 81.273 244.49 81.529C244.416 81.785 244.336 82.041 244.25 82.297C244.176 82.5423 244.09 82.793 243.994 83.049C243.898 83.2943 243.808 83.5503 243.722 83.817L241.61 89.481H238.922ZM241.034 87.337L241.882 85.289H247.034L247.866 87.337H241.034ZM256.343 89.641C255.447 89.641 254.636 89.497 253.911 89.209C253.186 88.921 252.562 88.5156 252.039 87.993C251.516 87.4703 251.116 86.857 250.839 86.153C250.562 85.4383 250.423 84.665 250.423 83.833C250.423 83.001 250.567 82.2383 250.855 81.545C251.154 80.841 251.575 80.2276 252.119 79.705C252.663 79.1823 253.303 78.777 254.039 78.489C254.786 78.201 255.596 78.057 256.471 78.057C257.09 78.057 257.671 78.137 258.215 78.297C258.77 78.457 259.271 78.6756 259.719 78.953C260.167 79.2303 260.546 79.5503 260.855 79.913L259.207 81.657C258.94 81.401 258.663 81.1876 258.375 81.017C258.098 80.8463 257.799 80.713 257.479 80.617C257.159 80.5103 256.818 80.457 256.455 80.457C255.986 80.457 255.554 80.5423 255.159 80.713C254.775 80.8836 254.434 81.1236 254.135 81.433C253.847 81.7316 253.623 82.089 253.463 82.505C253.303 82.9103 253.223 83.353 253.223 83.833C253.223 84.313 253.308 84.761 253.479 85.177C253.65 85.593 253.884 85.9556 254.183 86.265C254.482 86.5636 254.834 86.8036 255.239 86.985C255.655 87.1556 256.098 87.241 256.567 87.241C256.898 87.241 257.207 87.1876 257.495 87.081C257.794 86.9743 258.05 86.8303 258.263 86.649C258.476 86.4676 258.647 86.2543 258.775 86.009C258.903 85.753 258.967 85.481 258.967 85.193V84.777L259.319 85.321H256.231V83.193H261.495C261.516 83.3103 261.532 83.4703 261.543 83.673C261.554 83.8756 261.559 84.073 261.559 84.265C261.57 84.457 261.575 84.601 261.575 84.697C261.575 85.4223 261.442 86.089 261.175 86.697C260.919 87.2943 260.556 87.8116 260.087 88.249C259.618 88.6863 259.063 89.0276 258.423 89.273C257.783 89.5183 257.09 89.641 256.343 89.641ZM263.659 89.481V78.281H268.699C269.413 78.281 270.059 78.4356 270.635 78.745C271.221 79.0543 271.68 79.481 272.011 80.025C272.341 80.5583 272.507 81.1663 272.507 81.849C272.507 82.553 272.341 83.1876 272.011 83.753C271.68 84.3076 271.227 84.745 270.651 85.065C270.075 85.385 269.424 85.545 268.699 85.545H266.251V89.481H263.659ZM269.867 89.481L267.019 84.425L269.803 84.025L272.971 89.481H269.867ZM266.251 83.465H268.459C268.736 83.465 268.976 83.4063 269.179 83.289C269.392 83.161 269.552 82.985 269.659 82.761C269.776 82.537 269.835 82.281 269.835 81.993C269.835 81.705 269.771 81.4543 269.643 81.241C269.515 81.017 269.328 80.8463 269.083 80.729C268.848 80.6116 268.56 80.553 268.219 80.553H266.251V83.465ZM279.841 89.641C278.988 89.641 278.209 89.497 277.505 89.209C276.801 88.921 276.188 88.5156 275.665 87.993C275.142 87.4703 274.737 86.857 274.449 86.153C274.161 85.449 274.017 84.6756 274.017 83.833C274.017 82.9903 274.161 82.217 274.449 81.513C274.737 80.809 275.142 80.1956 275.665 79.673C276.188 79.1503 276.801 78.745 277.505 78.457C278.209 78.169 278.982 78.025 279.825 78.025C280.668 78.025 281.441 78.169 282.145 78.457C282.849 78.745 283.462 79.1503 283.985 79.673C284.508 80.1956 284.908 80.809 285.185 81.513C285.473 82.217 285.617 82.9903 285.617 83.833C285.617 84.665 285.473 85.4383 285.185 86.153C284.908 86.857 284.508 87.4703 283.985 87.993C283.462 88.5156 282.849 88.921 282.145 89.209C281.441 89.497 280.673 89.641 279.841 89.641ZM279.825 87.081C280.262 87.081 280.662 87.001 281.025 86.841C281.398 86.681 281.718 86.457 281.985 86.169C282.262 85.8703 282.476 85.5236 282.625 85.129C282.774 84.7343 282.849 84.3023 282.849 83.833C282.849 83.3636 282.774 82.9316 282.625 82.537C282.476 82.1423 282.262 81.801 281.985 81.513C281.718 81.2143 281.398 80.985 281.025 80.825C280.662 80.665 280.262 80.585 279.825 80.585C279.388 80.585 278.982 80.665 278.609 80.825C278.246 80.985 277.926 81.2143 277.649 81.513C277.372 81.801 277.158 82.1423 277.009 82.537C276.87 82.9316 276.801 83.3636 276.801 83.833C276.801 84.3023 276.87 84.7396 277.009 85.145C277.158 85.5396 277.372 85.881 277.649 86.169C277.926 86.457 278.246 86.681 278.609 86.841C278.982 87.001 279.388 87.081 279.825 87.081Z" fill="black"/>
<path d="M13.8503 149.481V138.281H16.5703V149.481H13.8503ZM15.1143 145.193V142.921H20.9063V145.193H15.1143ZM15.1143 140.681V138.281H21.5623V140.681H15.1143ZM28.7043 149.641C27.8509 149.641 27.0723 149.497 26.3683 149.209C25.6643 148.921 25.0509 148.516 24.5283 147.993C24.0056 147.47 23.6003 146.857 23.3123 146.153C23.0243 145.449 22.8803 144.676 22.8803 143.833C22.8803 142.99 23.0243 142.217 23.3123 141.513C23.6003 140.809 24.0056 140.196 24.5283 139.673C25.0509 139.15 25.6643 138.745 26.3683 138.457C27.0723 138.169 27.8456 138.025 28.6883 138.025C29.5309 138.025 30.3043 138.169 31.0083 138.457C31.7123 138.745 32.3256 139.15 32.8483 139.673C33.3709 140.196 33.7709 140.809 34.0483 141.513C34.3363 142.217 34.4803 142.99 34.4803 143.833C34.4803 144.665 34.3363 145.438 34.0483 146.153C33.7709 146.857 33.3709 147.47 32.8483 147.993C32.3256 148.516 31.7123 148.921 31.0083 149.209C30.3043 149.497 29.5363 149.641 28.7043 149.641ZM28.6883 147.081C29.1256 147.081 29.5256 147.001 29.8883 146.841C30.2616 146.681 30.5816 146.457 30.8483 146.169C31.1256 145.87 31.3389 145.524 31.4883 145.129C31.6376 144.734 31.7123 144.302 31.7123 143.833C31.7123 143.364 31.6376 142.932 31.4883 142.537C31.3389 142.142 31.1256 141.801 30.8483 141.513C30.5816 141.214 30.2616 140.985 29.8883 140.825C29.5256 140.665 29.1256 140.585 28.6883 140.585C28.2509 140.585 27.8456 140.665 27.4723 140.825C27.1096 140.985 26.7896 141.214 26.5123 141.513C26.2349 141.801 26.0216 142.142 25.8723 142.537C25.7336 142.932 25.6643 143.364 25.6643 143.833C25.6643 144.302 25.7336 144.74 25.8723 145.145C26.0216 145.54 26.2349 145.881 26.5123 146.169C26.7896 146.457 27.1096 146.681 27.4723 146.841C27.8456 147.001 28.2509 147.081 28.6883 147.081ZM41.6886 149.641C40.8353 149.641 40.0566 149.497 39.3526 149.209C38.6486 148.921 38.0353 148.516 37.5126 147.993C36.99 147.47 36.5846 146.857 36.2966 146.153C36.0086 145.449 35.8646 144.676 35.8646 143.833C35.8646 142.99 36.0086 142.217 36.2966 141.513C36.5846 140.809 36.99 140.196 37.5126 139.673C38.0353 139.15 38.6486 138.745 39.3526 138.457C40.0566 138.169 40.83 138.025 41.6726 138.025C42.5153 138.025 43.2886 138.169 43.9926 138.457C44.6966 138.745 45.31 139.15 45.8326 139.673C46.3553 140.196 46.7553 140.809 47.0326 141.513C47.3206 142.217 47.4646 142.99 47.4646 143.833C47.4646 144.665 47.3206 145.438 47.0326 146.153C46.7553 146.857 46.3553 147.47 45.8326 147.993C45.31 148.516 44.6966 148.921 43.9926 149.209C43.2886 149.497 42.5206 149.641 41.6886 149.641ZM41.6726 147.081C42.11 147.081 42.51 147.001 42.8726 146.841C43.246 146.681 43.566 146.457 43.8326 146.169C44.11 145.87 44.3233 145.524 44.4726 145.129C44.622 144.734 44.6966 144.302 44.6966 143.833C44.6966 143.364 44.622 142.932 44.4726 142.537C44.3233 142.142 44.11 141.801 43.8326 141.513C43.566 141.214 43.246 140.985 42.8726 140.825C42.51 140.665 42.11 140.585 41.6726 140.585C41.2353 140.585 40.83 140.665 40.4566 140.825C40.094 140.985 39.774 141.214 39.4966 141.513C39.2193 141.801 39.006 142.142 38.8566 142.537C38.718 142.932 38.6486 143.364 38.6486 143.833C38.6486 144.302 38.718 144.74 38.8566 145.145C39.006 145.54 39.2193 145.881 39.4966 146.169C39.774 146.457 40.094 146.681 40.4566 146.841C40.83 147.001 41.2353 147.081 41.6726 147.081ZM49.569 149.481V138.281H54.257C55.0783 138.281 55.8303 138.42 56.513 138.697C57.1957 138.964 57.7823 139.348 58.273 139.849C58.7743 140.35 59.1583 140.942 59.425 141.625C59.6917 142.308 59.825 143.06 59.825 143.881C59.825 144.702 59.6917 145.46 59.425 146.153C59.1583 146.836 58.7743 147.428 58.273 147.929C57.7823 148.42 57.1957 148.804 56.513 149.081C55.8303 149.348 55.0783 149.481 54.257 149.481H49.569ZM52.289 147.625L51.921 147.081H54.177C54.625 147.081 55.025 147.006 55.377 146.857C55.729 146.697 56.0277 146.478 56.273 146.201C56.529 145.924 56.7263 145.588 56.865 145.193C57.0037 144.798 57.073 144.361 57.073 143.881C57.073 143.401 57.0037 142.964 56.865 142.569C56.7263 142.174 56.529 141.838 56.273 141.561C56.0277 141.284 55.729 141.07 55.377 140.921C55.025 140.761 54.625 140.681 54.177 140.681H51.873L52.289 140.169V147.625ZM74.9254 149.481L73.8054 148.329L72.8454 147.433L70.4934 144.937C70.0774 144.489 69.7254 144.084 69.4374 143.721C69.1494 143.348 68.92 143.006 68.7494 142.697C68.5894 142.377 68.472 142.078 68.3974 141.801C68.3227 141.524 68.2854 141.268 68.2854 141.033C68.2854 140.457 68.4347 139.945 68.7334 139.497C69.0427 139.038 69.464 138.681 69.9974 138.425C70.5414 138.158 71.1654 138.025 71.8694 138.025C72.4134 138.025 72.92 138.116 73.3894 138.297C73.8587 138.468 74.264 138.713 74.6054 139.033C74.9467 139.353 75.1867 139.726 75.3254 140.153L73.3094 141.353C73.128 140.916 72.9307 140.617 72.7174 140.457C72.504 140.297 72.2534 140.217 71.9654 140.217C71.7307 140.217 71.5334 140.254 71.3734 140.329C71.2134 140.404 71.0907 140.516 71.0054 140.665C70.92 140.804 70.8774 140.98 70.8774 141.193C70.8774 141.396 70.9574 141.646 71.1174 141.945C71.288 142.233 71.5014 142.537 71.7574 142.857C72.0134 143.166 72.2747 143.465 72.5414 143.753C72.808 144.03 73.048 144.27 73.2614 144.473L74.4454 145.769L75.5494 146.777L78.0934 149.481H74.9254ZM70.8774 149.641C70.0347 149.641 69.2774 149.481 68.6054 149.161C67.944 148.841 67.416 148.404 67.0214 147.849C66.6374 147.294 66.4454 146.676 66.4454 145.993C66.4454 145.214 66.6694 144.516 67.1174 143.897C67.576 143.268 68.248 142.793 69.1334 142.473L70.7334 144.025C70.136 144.153 69.688 144.366 69.3894 144.665C69.0907 144.964 68.9414 145.342 68.9414 145.801C68.9414 146.164 69.0267 146.478 69.1974 146.745C69.368 147.012 69.6187 147.22 69.9494 147.369C70.28 147.508 70.6747 147.577 71.1334 147.577C71.56 147.577 71.9547 147.492 72.3174 147.321C72.6907 147.14 73.0214 146.889 73.3094 146.569C73.608 146.249 73.848 145.87 74.0294 145.433C74.2107 144.985 74.3334 144.489 74.3974 143.945H76.7814C76.6854 144.628 76.52 145.262 76.2854 145.849C76.0507 146.425 75.752 146.948 75.3894 147.417C75.0374 147.886 74.6267 148.286 74.1574 148.617C73.6987 148.948 73.192 149.204 72.6374 149.385C72.0934 149.556 71.5067 149.641 70.8774 149.641ZM84.6003 149.481V138.281H89.5443C90.3123 138.281 90.9629 138.393 91.4963 138.617C92.0296 138.83 92.4296 139.145 92.6963 139.561C92.9736 139.966 93.1123 140.457 93.1123 141.033C93.1123 141.673 92.9523 142.212 92.6323 142.649C92.3229 143.086 91.8696 143.38 91.2723 143.529L91.2403 143.225C91.7416 143.332 92.1736 143.518 92.5363 143.785C92.9096 144.052 93.1976 144.382 93.4003 144.777C93.6029 145.161 93.7043 145.598 93.7043 146.089C93.7043 146.654 93.6083 147.15 93.4163 147.577C93.2243 147.993 92.9469 148.345 92.5843 148.633C92.2216 148.921 91.7949 149.134 91.3043 149.273C90.8243 149.412 90.2909 149.481 89.7043 149.481H84.6003ZM87.1603 147.209H89.6083C89.9069 147.209 90.1576 147.161 90.3603 147.065C90.5736 146.969 90.7389 146.83 90.8563 146.649C90.9736 146.457 91.0323 146.228 91.0323 145.961C91.0323 145.716 90.9683 145.508 90.8403 145.337C90.7229 145.166 90.5523 145.038 90.3283 144.953C90.1043 144.857 89.8376 144.809 89.5283 144.809H87.1603V147.209ZM87.1603 142.777H89.1603C89.4376 142.777 89.6723 142.734 89.8643 142.649C90.0669 142.553 90.2163 142.425 90.3123 142.265C90.4189 142.094 90.4723 141.892 90.4723 141.657C90.4723 141.316 90.3549 141.049 90.1203 140.857C89.8856 140.654 89.5336 140.553 89.0643 140.553H87.1603V142.777ZM95.819 149.481V138.281H103.627V140.601H98.459V147.161H103.787V149.481H95.819ZM97.099 144.889V142.681H102.907V144.889H97.099ZM109.268 149.481L104.788 138.281H107.62L109.78 143.993C109.908 144.324 110.014 144.612 110.1 144.857C110.196 145.102 110.276 145.332 110.34 145.545C110.414 145.758 110.478 145.977 110.532 146.201C110.596 146.414 110.665 146.66 110.74 146.937H110.244C110.329 146.574 110.414 146.254 110.5 145.977C110.585 145.689 110.681 145.396 110.788 145.097C110.894 144.788 111.028 144.42 111.188 143.993L113.268 138.281H116.052L111.54 149.481H109.268ZM117.522 149.481V138.281H125.33V140.601H120.162V147.161H125.49V149.481H117.522ZM118.802 144.889V142.681H124.61V144.889H118.802ZM127.835 149.481V138.281H132.875C133.589 138.281 134.235 138.436 134.811 138.745C135.397 139.054 135.856 139.481 136.187 140.025C136.517 140.558 136.683 141.166 136.683 141.849C136.683 142.553 136.517 143.188 136.187 143.753C135.856 144.308 135.403 144.745 134.827 145.065C134.251 145.385 133.6 145.545 132.875 145.545H130.427V149.481H127.835ZM134.043 149.481L131.195 144.425L133.979 144.025L137.147 149.481H134.043ZM130.427 143.465H132.635C132.912 143.465 133.152 143.406 133.355 143.289C133.568 143.161 133.728 142.985 133.835 142.761C133.952 142.537 134.011 142.281 134.011 141.993C134.011 141.705 133.947 141.454 133.819 141.241C133.691 141.017 133.504 140.846 133.259 140.729C133.024 140.612 132.736 140.553 132.395 140.553H130.427V143.465ZM137.645 149.481L142.077 138.281H144.381L148.781 149.481H146.029L143.917 143.801C143.832 143.577 143.746 143.337 143.661 143.081C143.576 142.825 143.49 142.564 143.405 142.297C143.32 142.02 143.234 141.753 143.149 141.497C143.074 141.23 143.01 140.985 142.957 140.761L143.437 140.745C143.373 141.012 143.298 141.273 143.213 141.529C143.138 141.785 143.058 142.041 142.973 142.297C142.898 142.542 142.813 142.793 142.717 143.049C142.621 143.294 142.53 143.55 142.445 143.817L140.333 149.481H137.645ZM139.757 147.337L140.605 145.289H145.757L146.589 147.337H139.757ZM155.066 149.641C154.17 149.641 153.359 149.497 152.634 149.209C151.909 148.921 151.285 148.516 150.762 147.993C150.239 147.47 149.839 146.857 149.562 146.153C149.285 145.438 149.146 144.665 149.146 143.833C149.146 143.001 149.29 142.238 149.578 141.545C149.877 140.841 150.298 140.228 150.842 139.705C151.386 139.182 152.026 138.777 152.762 138.489C153.509 138.201 154.319 138.057 155.194 138.057C155.813 138.057 156.394 138.137 156.938 138.297C157.493 138.457 157.994 138.676 158.442 138.953C158.89 139.23 159.269 139.55 159.578 139.913L157.93 141.657C157.663 141.401 157.386 141.188 157.098 141.017C156.821 140.846 156.522 140.713 156.202 140.617C155.882 140.51 155.541 140.457 155.178 140.457C154.709 140.457 154.277 140.542 153.882 140.713C153.498 140.884 153.157 141.124 152.858 141.433C152.57 141.732 152.346 142.089 152.186 142.505C152.026 142.91 151.946 143.353 151.946 143.833C151.946 144.313 152.031 144.761 152.202 145.177C152.373 145.593 152.607 145.956 152.906 146.265C153.205 146.564 153.557 146.804 153.962 146.985C154.378 147.156 154.821 147.241 155.29 147.241C155.621 147.241 155.93 147.188 156.218 147.081C156.517 146.974 156.773 146.83 156.986 146.649C157.199 146.468 157.37 146.254 157.498 146.009C157.626 145.753 157.69 145.481 157.69 145.193V144.777L158.042 145.321H154.954V143.193H160.218C160.239 143.31 160.255 143.47 160.266 143.673C160.277 143.876 160.282 144.073 160.282 144.265C160.293 144.457 160.298 144.601 160.298 144.697C160.298 145.422 160.165 146.089 159.898 146.697C159.642 147.294 159.279 147.812 158.81 148.249C158.341 148.686 157.786 149.028 157.146 149.273C156.506 149.518 155.813 149.641 155.066 149.641ZM162.381 149.481V138.281H170.189V140.601H165.021V147.161H170.349V149.481H162.381ZM163.661 144.889V142.681H169.469V144.889H163.661ZM176.406 149.641C175.67 149.641 175.003 149.556 174.406 149.385C173.819 149.204 173.297 148.948 172.838 148.617C172.379 148.276 171.969 147.876 171.606 147.417L173.254 145.545C173.787 146.26 174.321 146.74 174.854 146.985C175.398 147.23 175.958 147.353 176.534 147.353C176.822 147.353 177.083 147.316 177.318 147.241C177.553 147.166 177.734 147.06 177.862 146.921C177.99 146.772 178.054 146.59 178.054 146.377C178.054 146.217 178.011 146.073 177.926 145.945C177.851 145.817 177.745 145.705 177.606 145.609C177.467 145.513 177.302 145.428 177.11 145.353C176.918 145.268 176.715 145.198 176.502 145.145C176.289 145.081 176.07 145.028 175.846 144.985C175.227 144.846 174.689 144.676 174.23 144.473C173.771 144.27 173.387 144.025 173.078 143.737C172.779 143.438 172.555 143.102 172.406 142.729C172.257 142.345 172.182 141.918 172.182 141.449C172.182 140.948 172.294 140.489 172.518 140.073C172.753 139.646 173.062 139.284 173.446 138.985C173.841 138.676 174.294 138.441 174.806 138.281C175.318 138.11 175.851 138.025 176.406 138.025C177.142 138.025 177.771 138.105 178.294 138.265C178.827 138.414 179.281 138.633 179.654 138.921C180.038 139.209 180.363 139.556 180.63 139.961L178.95 141.577C178.726 141.3 178.481 141.07 178.214 140.889C177.958 140.708 177.681 140.569 177.382 140.473C177.094 140.377 176.795 140.329 176.486 140.329C176.166 140.329 175.889 140.372 175.654 140.457C175.43 140.532 175.254 140.644 175.126 140.793C174.998 140.932 174.934 141.102 174.934 141.305C174.934 141.486 174.987 141.641 175.094 141.769C175.201 141.897 175.345 142.014 175.526 142.121C175.707 142.217 175.915 142.302 176.15 142.377C176.385 142.441 176.63 142.494 176.886 142.537C177.473 142.654 178.001 142.809 178.47 143.001C178.95 143.193 179.361 143.428 179.702 143.705C180.054 143.982 180.321 144.313 180.502 144.697C180.694 145.07 180.79 145.508 180.79 146.009C180.79 146.788 180.598 147.449 180.214 147.993C179.841 148.526 179.323 148.937 178.662 149.225C178.011 149.502 177.259 149.641 176.406 149.641Z" fill="black"/>
<path d="M28.0743 89.481V78.281H30.7943V89.481H28.0743ZM29.3383 85.193V82.921H35.1303V85.193H29.3383ZM29.3383 80.681V78.281H35.7863V80.681H29.3383ZM37.9649 89.481V78.281H40.3969L44.4769 84.921L42.7329 84.905L46.8609 78.281H49.1969V89.481H46.5569V85.993C46.5569 85.033 46.5782 84.169 46.6209 83.401C46.6742 82.633 46.7596 81.8703 46.8769 81.113L47.1809 81.945L44.0769 86.761H43.0209L39.9809 81.977L40.2849 81.113C40.4022 81.8276 40.4822 82.5636 40.5249 83.321C40.5782 84.0676 40.6049 84.9583 40.6049 85.993V89.481H37.9649ZM57.0998 89.641C56.2571 89.641 55.4784 89.5023 54.7638 89.225C54.0598 88.937 53.4464 88.537 52.9238 88.025C52.4011 87.5023 51.9958 86.889 51.7078 86.185C51.4304 85.4703 51.2918 84.6863 51.2918 83.833C51.2918 83.001 51.4411 82.233 51.7398 81.529C52.0384 80.825 52.4491 80.217 52.9718 79.705C53.5051 79.1823 54.1291 78.777 54.8438 78.489C55.5691 78.201 56.3584 78.057 57.2118 78.057C57.7451 78.057 58.2678 78.1263 58.7798 78.265C59.2918 78.4036 59.7664 78.6116 60.2038 78.889C60.6518 79.1556 61.0358 79.4756 61.3558 79.849L59.6918 81.753C59.4678 81.5183 59.2278 81.3156 58.9718 81.145C58.7264 80.9636 58.4544 80.825 58.1558 80.729C57.8571 80.633 57.5371 80.585 57.1958 80.585C56.7691 80.585 56.3638 80.665 55.9798 80.825C55.6064 80.9743 55.2758 81.193 54.9878 81.481C54.7104 81.7583 54.4918 82.0996 54.3318 82.505C54.1718 82.9103 54.0918 83.3636 54.0918 83.865C54.0918 84.3556 54.1718 84.8036 54.3318 85.209C54.4918 85.6036 54.7158 85.945 55.0038 86.233C55.2918 86.521 55.6384 86.7396 56.0438 86.889C56.4598 87.0383 56.9184 87.113 57.4198 87.113C57.7611 87.113 58.0864 87.065 58.3958 86.969C58.7051 86.873 58.9878 86.745 59.2438 86.585C59.5104 86.4143 59.7451 86.2223 59.9478 86.009L61.2598 88.089C60.9931 88.3876 60.6358 88.6543 60.1878 88.889C59.7504 89.1236 59.2598 89.3103 58.7158 89.449C58.1824 89.577 57.6438 89.641 57.0998 89.641ZM68.3211 89.641C67.4251 89.641 66.6145 89.497 65.8891 89.209C65.1638 88.921 64.5398 88.5156 64.0171 87.993C63.4945 87.4703 63.0945 86.857 62.8171 86.153C62.5398 85.4383 62.4011 84.665 62.4011 83.833C62.4011 83.001 62.5451 82.2383 62.8331 81.545C63.1318 80.841 63.5531 80.2276 64.0971 79.705C64.6411 79.1823 65.2811 78.777 66.0171 78.489C66.7638 78.201 67.5745 78.057 68.4491 78.057C69.0678 78.057 69.6491 78.137 70.1931 78.297C70.7478 78.457 71.2491 78.6756 71.6971 78.953C72.1451 79.2303 72.5238 79.5503 72.8331 79.913L71.1851 81.657C70.9185 81.401 70.6411 81.1876 70.3531 81.017C70.0758 80.8463 69.7771 80.713 69.4571 80.617C69.1371 80.5103 68.7958 80.457 68.4331 80.457C67.9638 80.457 67.5318 80.5423 67.1371 80.713C66.7531 80.8836 66.4118 81.1236 66.1131 81.433C65.8251 81.7316 65.6011 82.089 65.4411 82.505C65.2811 82.9103 65.2011 83.353 65.2011 83.833C65.2011 84.313 65.2865 84.761 65.4571 85.177C65.6278 85.593 65.8625 85.9556 66.1611 86.265C66.4598 86.5636 66.8118 86.8036 67.2171 86.985C67.6331 87.1556 68.0758 87.241 68.5451 87.241C68.8758 87.241 69.1851 87.1876 69.4731 87.081C69.7718 86.9743 70.0278 86.8303 70.2411 86.649C70.4545 86.4676 70.6251 86.2543 70.7531 86.009C70.8811 85.753 70.9451 85.481 70.9451 85.193V84.777L71.2971 85.321H68.2091V83.193H73.4731C73.4945 83.3103 73.5105 83.4703 73.5211 83.673C73.5318 83.8756 73.5371 84.073 73.5371 84.265C73.5478 84.457 73.5531 84.601 73.5531 84.697C73.5531 85.4223 73.4198 86.089 73.1531 86.697C72.8971 87.2943 72.5345 87.8116 72.0651 88.249C71.5958 88.6863 71.0411 89.0276 70.4011 89.273C69.7611 89.5183 69.0678 89.641 68.3211 89.641Z" fill="black"/>
<path d="M345.873 88.4658V78.221H350.484C351.137 78.221 351.728 78.3625 352.254 78.6454C352.791 78.9284 353.211 79.3187 353.513 79.8163C353.816 80.3041 353.967 80.8603 353.967 81.4847C353.967 82.1287 353.816 82.7092 353.513 83.2263C353.211 83.7337 352.796 84.1337 352.269 84.4264C351.742 84.7191 351.147 84.8655 350.484 84.8655H348.244V88.4658H345.873ZM351.552 88.4658L348.947 83.841L351.493 83.4751L354.391 88.4658H351.552ZM348.244 82.9629H350.264C350.518 82.9629 350.737 82.9092 350.923 82.8019C351.118 82.6848 351.264 82.5238 351.362 82.3189C351.469 82.114 351.523 81.8799 351.523 81.6164C351.523 81.353 351.464 81.1237 351.347 80.9286C351.23 80.7237 351.059 80.5675 350.835 80.4602C350.62 80.3529 350.357 80.2992 350.044 80.2992H348.244V82.9629ZM356.15 88.4658V78.221H363.292V80.3431H358.564V86.3437H363.438V88.4658H356.15ZM357.32 84.2654V82.2457H362.633V84.2654H357.32ZM367.807 88.4658V80.4163H364.763V78.221H373.413V80.4163H370.295V88.4658H367.807ZM373.141 88.4658L377.195 78.221H379.303L383.328 88.4658H380.81L378.879 83.2702C378.8 83.0653 378.722 82.8458 378.644 82.6116C378.566 82.3775 378.488 82.1384 378.41 81.8945C378.332 81.6408 378.254 81.3969 378.176 81.1627C378.108 80.9188 378.049 80.6944 378 80.4895L378.439 80.4749C378.381 80.7188 378.313 80.9578 378.235 81.192C378.166 81.4262 378.093 81.6603 378.015 81.8945C377.947 82.1189 377.869 82.3482 377.781 82.5824C377.693 82.8068 377.61 83.0409 377.532 83.2849L375.6 88.4658H373.141ZM375.073 86.5047L375.849 84.6313H380.562L381.323 86.5047H375.073ZM384.401 88.4658V86.3729H386.128V80.3139H384.401V78.221H390.358V80.3139H388.616V86.3729H390.358V88.4658H384.401ZM392.724 88.4658V78.221H395.212V86.2705H399.778V88.4658H392.724Z" fill="black"/>
<path d="M28.4887 208.609C28.1179 208.609 27.7667 208.565 27.4349 208.477C27.1032 208.399 26.8007 208.282 26.5275 208.126C26.2543 207.96 26.0104 207.765 25.7958 207.54C25.5811 207.306 25.3957 207.048 25.2396 206.765L26.6592 205.287C26.7958 205.491 26.9276 205.662 27.0544 205.799C27.1812 205.926 27.3032 206.033 27.4203 206.121C27.5471 206.209 27.674 206.272 27.8008 206.311C27.9374 206.35 28.0789 206.37 28.2252 206.37C28.4594 206.37 28.6643 206.316 28.8399 206.209C29.0253 206.091 29.1668 205.935 29.2644 205.74C29.3619 205.545 29.4107 205.316 29.4107 205.052V200.384H27.5374V198.218H33.4208V200.384H31.8402V205.345C31.8402 205.843 31.7524 206.291 31.5768 206.692C31.4109 207.092 31.1767 207.438 30.8743 207.731C30.5718 208.014 30.2157 208.233 29.8059 208.389C29.4058 208.536 28.9668 208.609 28.4887 208.609ZM35.6899 208.462V198.218H42.832V200.34H38.1048V206.34H42.9784V208.462H35.6899ZM36.8607 204.262V202.242H42.1734V204.262H36.8607ZM46.967 208.462L43.8935 198.218H46.4255L47.9622 203.603C48.0305 203.847 48.089 204.096 48.1378 204.35C48.1964 204.594 48.2403 204.828 48.2695 205.052C48.3086 205.277 48.3378 205.487 48.3574 205.682C48.3769 205.867 48.3964 206.023 48.4159 206.15H48.0939C48.1525 205.789 48.2012 205.467 48.2403 205.184C48.2891 204.901 48.3427 204.638 48.4013 204.394C48.4598 204.14 48.533 203.877 48.6208 203.603L50.1429 199.549H52.1333L53.6261 203.603C53.7432 203.925 53.8408 204.228 53.9188 204.511C53.9969 204.794 54.0554 205.067 54.0945 205.33C54.1432 205.584 54.1823 205.838 54.2115 206.091L53.9188 206.135C53.9383 205.96 53.953 205.799 53.9627 205.652C53.9725 205.496 53.9823 205.35 53.992 205.213C54.0115 205.067 54.031 204.916 54.0506 204.76C54.0701 204.604 54.0993 204.433 54.1384 204.247C54.1774 204.052 54.2311 203.833 54.2994 203.589L55.8214 198.218H58.2948L55.2214 208.462H53.3188L50.8893 202.564L51.1674 202.594L48.9281 208.462H46.967ZM59.6583 208.462V198.218H66.8004V200.34H62.0732V206.34H66.9468V208.462H59.6583ZM60.8292 204.262V202.242H66.1418V204.262H60.8292ZM69.0913 208.462V198.218H71.5794V206.267H76.1456V208.462H69.0913ZM78.0098 208.462V198.218H80.4979V206.267H85.0641V208.462H78.0098ZM86.9283 208.462V198.218H94.0704V200.34H89.3432V206.34H94.2168V208.462H86.9283ZM88.0992 204.262V202.242H93.4118V204.262H88.0992ZM96.3613 208.462V198.218H100.972C101.625 198.218 102.216 198.359 102.742 198.642C103.279 198.925 103.699 199.315 104.001 199.813C104.304 200.301 104.455 200.857 104.455 201.481C104.455 202.125 104.304 202.706 104.001 203.223C103.699 203.73 103.284 204.13 102.757 204.423C102.23 204.716 101.635 204.862 100.972 204.862H98.7323V208.462H96.3613ZM102.04 208.462L99.4348 203.838L101.981 203.472L104.879 208.462H102.04ZM98.7323 202.959H100.752C101.006 202.959 101.225 202.906 101.411 202.798C101.606 202.681 101.752 202.52 101.85 202.316C101.957 202.111 102.011 201.876 102.011 201.613C102.011 201.35 101.952 201.12 101.835 200.925C101.718 200.72 101.547 200.564 101.323 200.457C101.108 200.349 100.845 200.296 100.532 200.296H98.7323V202.959ZM108.558 208.462V203.355L108.66 204.072L104.518 198.218H107.343L110.504 202.755L109.216 202.711L112.07 198.218H114.807L110.841 204.233L111.06 203.238V208.462H108.558Z" fill="black"/>
<path d="M179.288 209V198.755H181.776V209H179.288ZM180.444 205.078V202.999H185.742V205.078H180.444ZM180.444 200.95V198.755H186.342V200.95H180.444ZM186.161 209L190.215 198.755H192.322L196.347 209H193.83L191.898 203.804C191.82 203.6 191.742 203.38 191.664 203.146C191.586 202.912 191.507 202.673 191.429 202.429C191.351 202.175 191.273 201.931 191.195 201.697C191.127 201.453 191.068 201.229 191.02 201.024L191.459 201.009C191.4 201.253 191.332 201.492 191.254 201.726C191.185 201.96 191.112 202.195 191.034 202.429C190.966 202.653 190.888 202.882 190.8 203.117C190.712 203.341 190.629 203.575 190.551 203.819L188.619 209H186.161ZM188.093 207.039L188.868 205.166H193.581L194.342 207.039H188.093ZM201.021 209.146C200.347 209.146 199.738 209.068 199.191 208.912C198.654 208.746 198.176 208.512 197.757 208.21C197.337 207.897 196.962 207.532 196.63 207.112L198.137 205.4C198.625 206.053 199.113 206.492 199.601 206.717C200.099 206.941 200.611 207.053 201.138 207.053C201.401 207.053 201.64 207.019 201.855 206.951C202.069 206.883 202.235 206.785 202.352 206.658C202.469 206.522 202.528 206.356 202.528 206.161C202.528 206.014 202.489 205.883 202.411 205.766C202.343 205.648 202.245 205.546 202.118 205.458C201.991 205.37 201.84 205.292 201.665 205.224C201.489 205.146 201.304 205.083 201.108 205.034C200.913 204.975 200.713 204.926 200.508 204.887C199.942 204.761 199.45 204.604 199.03 204.419C198.611 204.234 198.259 204.009 197.976 203.746C197.703 203.473 197.498 203.165 197.362 202.824C197.225 202.473 197.157 202.082 197.157 201.653C197.157 201.194 197.259 200.775 197.464 200.394C197.679 200.004 197.962 199.672 198.313 199.399C198.674 199.116 199.089 198.902 199.557 198.755C200.025 198.599 200.513 198.521 201.021 198.521C201.694 198.521 202.269 198.594 202.748 198.741C203.235 198.877 203.65 199.077 203.992 199.341C204.343 199.604 204.64 199.921 204.884 200.292L203.348 201.77C203.143 201.516 202.918 201.307 202.674 201.141C202.44 200.975 202.187 200.848 201.913 200.76C201.65 200.672 201.377 200.629 201.094 200.629C200.801 200.629 200.547 200.668 200.333 200.746C200.128 200.814 199.967 200.916 199.85 201.053C199.733 201.18 199.674 201.336 199.674 201.521C199.674 201.687 199.723 201.829 199.82 201.946C199.918 202.063 200.05 202.17 200.216 202.268C200.381 202.355 200.572 202.434 200.786 202.502C201.001 202.56 201.225 202.609 201.46 202.648C201.996 202.756 202.479 202.897 202.909 203.073C203.348 203.248 203.723 203.463 204.035 203.717C204.357 203.97 204.601 204.273 204.767 204.624C204.943 204.965 205.031 205.366 205.031 205.824C205.031 206.536 204.855 207.141 204.504 207.639C204.162 208.127 203.689 208.502 203.084 208.766C202.489 209.02 201.801 209.146 201.021 209.146ZM213.253 209V198.755H215.741V209H213.253ZM206.901 209V198.755H209.389V209H206.901ZM207.867 205.005L207.882 202.78H214.57V205.005H207.867ZM218.101 209V206.907H219.828V200.848H218.101V198.755H224.058V200.848H222.316V206.907H224.058V209H218.101ZM230.879 209.146C230.098 209.146 229.386 209.015 228.742 208.751C228.098 208.488 227.537 208.117 227.059 207.639C226.581 207.161 226.21 206.6 225.947 205.956C225.683 205.312 225.551 204.604 225.551 203.834C225.551 203.063 225.683 202.355 225.947 201.712C226.21 201.068 226.581 200.507 227.059 200.028C227.537 199.55 228.098 199.18 228.742 198.916C229.386 198.653 230.093 198.521 230.864 198.521C231.635 198.521 232.342 198.653 232.986 198.916C233.63 199.18 234.191 199.55 234.669 200.028C235.147 200.507 235.513 201.068 235.767 201.712C236.03 202.355 236.162 203.063 236.162 203.834C236.162 204.595 236.03 205.302 235.767 205.956C235.513 206.6 235.147 207.161 234.669 207.639C234.191 208.117 233.63 208.488 232.986 208.751C232.342 209.015 231.64 209.146 230.879 209.146ZM230.864 206.805C231.264 206.805 231.63 206.732 231.962 206.585C232.303 206.439 232.596 206.234 232.84 205.97C233.094 205.697 233.289 205.38 233.425 205.019C233.562 204.658 233.63 204.263 233.63 203.834C233.63 203.404 233.562 203.009 233.425 202.648C233.289 202.287 233.094 201.975 232.84 201.712C232.596 201.438 232.303 201.229 231.962 201.082C231.63 200.936 231.264 200.863 230.864 200.863C230.464 200.863 230.093 200.936 229.752 201.082C229.42 201.229 229.127 201.438 228.874 201.712C228.62 201.975 228.425 202.287 228.288 202.648C228.161 203.009 228.098 203.404 228.098 203.834C228.098 204.263 228.161 204.663 228.288 205.034C228.425 205.395 228.62 205.707 228.874 205.97C229.127 206.234 229.42 206.439 229.752 206.585C230.093 206.732 230.464 206.805 230.864 206.805ZM238.087 209V198.755H240.312L245.683 206.073L245.2 206C245.151 205.678 245.112 205.37 245.083 205.078C245.054 204.785 245.024 204.497 244.995 204.214C244.975 203.931 244.956 203.643 244.936 203.351C244.927 203.058 244.917 202.741 244.907 202.399C244.907 202.058 244.907 201.687 244.907 201.287V198.755H247.322V209H245.068L239.463 201.448L240.209 201.551C240.258 202.019 240.297 202.419 240.326 202.751C240.365 203.073 240.395 203.36 240.414 203.614C240.443 203.868 240.463 204.097 240.473 204.302C240.482 204.507 240.487 204.712 240.487 204.917C240.497 205.112 240.502 205.331 240.502 205.575V209H238.087Z" fill="black"/>
<path d="M29.718 268.614C29.0448 268.614 28.435 268.536 27.8886 268.38C27.352 268.214 26.8739 267.98 26.4543 267.677C26.0348 267.365 25.6591 266.999 25.3274 266.58L26.8348 264.867C27.3227 265.521 27.8105 265.96 28.2984 266.185C28.796 266.409 29.3082 266.521 29.8351 266.521C30.0985 266.521 30.3376 266.487 30.5522 266.419C30.7669 266.351 30.9328 266.253 31.0498 266.126C31.1669 265.99 31.2255 265.824 31.2255 265.628C31.2255 265.482 31.1864 265.35 31.1084 265.233C31.0401 265.116 30.9425 265.014 30.8157 264.926C30.6888 264.838 30.5376 264.76 30.362 264.692C30.1864 264.614 30.001 264.55 29.8058 264.502C29.6107 264.443 29.4107 264.394 29.2058 264.355C28.6399 264.228 28.1471 264.072 27.7276 263.887C27.308 263.701 26.9568 263.477 26.6738 263.214C26.4006 262.94 26.1957 262.633 26.0592 262.292C25.9226 261.94 25.8543 261.55 25.8543 261.121C25.8543 260.662 25.9567 260.243 26.1616 259.862C26.3763 259.472 26.6592 259.14 27.0105 258.867C27.3715 258.584 27.7861 258.369 28.2545 258.223C28.7228 258.067 29.2107 257.989 29.718 257.989C30.3912 257.989 30.9669 258.062 31.445 258.208C31.9329 258.345 32.3475 258.545 32.689 258.808C33.0403 259.072 33.3379 259.389 33.5818 259.76L32.0451 261.238C31.8402 260.984 31.6157 260.774 31.3718 260.609C31.1377 260.443 30.884 260.316 30.6108 260.228C30.3473 260.14 30.0741 260.096 29.7912 260.096C29.4985 260.096 29.2448 260.135 29.0302 260.213C28.8253 260.282 28.6643 260.384 28.5472 260.521C28.4301 260.648 28.3716 260.804 28.3716 260.989C28.3716 261.155 28.4203 261.296 28.5179 261.413C28.6155 261.531 28.7472 261.638 28.9131 261.735C29.0789 261.823 29.2692 261.901 29.4838 261.97C29.6985 262.028 29.9229 262.077 30.1571 262.116C30.6937 262.223 31.1767 262.365 31.606 262.54C32.0451 262.716 32.4207 262.931 32.7329 263.184C33.0549 263.438 33.2988 263.741 33.4647 264.092C33.6403 264.433 33.7281 264.833 33.7281 265.292C33.7281 266.004 33.5525 266.609 33.2013 267.107C32.8598 267.595 32.3866 267.97 31.7816 268.234C31.1864 268.487 30.4986 268.614 29.718 268.614ZM35.5984 268.468V258.223H40.0183C40.6623 258.223 41.233 258.369 41.7306 258.662C42.238 258.955 42.638 259.355 42.9308 259.862C43.2332 260.369 43.3845 260.94 43.3845 261.574C43.3845 262.238 43.2332 262.833 42.9308 263.36C42.638 263.877 42.238 264.287 41.7306 264.589C41.233 264.892 40.6623 265.043 40.0183 265.043H38.0864V268.468H35.5984ZM38.0425 262.862H39.667C39.8817 262.862 40.0768 262.809 40.2525 262.701C40.4281 262.594 40.5696 262.448 40.6769 262.262C40.7842 262.077 40.8379 261.862 40.8379 261.618C40.8379 261.365 40.7842 261.15 40.6769 260.974C40.5696 260.799 40.4281 260.662 40.2525 260.565C40.0768 260.467 39.8817 260.418 39.667 260.418H38.0425V262.862ZM49.9574 268.614C49.1768 268.614 48.4646 268.482 47.8206 268.219C47.1766 267.956 46.6156 267.585 46.1375 267.107C45.6594 266.629 45.2887 266.068 45.0252 265.424C44.7618 264.78 44.6301 264.072 44.6301 263.301C44.6301 262.531 44.7618 261.823 45.0252 261.179C45.2887 260.535 45.6594 259.974 46.1375 259.496C46.6156 259.018 47.1766 258.647 47.8206 258.384C48.4646 258.12 49.1719 257.989 49.9427 257.989C50.7135 257.989 51.4209 258.12 52.0649 258.384C52.7088 258.647 53.2699 259.018 53.748 259.496C54.2261 259.974 54.5919 260.535 54.8456 261.179C55.1091 261.823 55.2408 262.531 55.2408 263.301C55.2408 264.062 55.1091 264.77 54.8456 265.424C54.5919 266.068 54.2261 266.629 53.748 267.107C53.2699 267.585 52.7088 267.956 52.0649 268.219C51.4209 268.482 50.7184 268.614 49.9574 268.614ZM49.9427 266.272C50.3428 266.272 50.7087 266.199 51.0404 266.053C51.3819 265.907 51.6746 265.702 51.9185 265.438C52.1722 265.165 52.3674 264.848 52.5039 264.487C52.6405 264.126 52.7088 263.731 52.7088 263.301C52.7088 262.872 52.6405 262.477 52.5039 262.116C52.3674 261.755 52.1722 261.443 51.9185 261.179C51.6746 260.906 51.3819 260.696 51.0404 260.55C50.7087 260.404 50.3428 260.33 49.9427 260.33C49.5427 260.33 49.1719 260.404 48.8304 260.55C48.4987 260.696 48.206 260.906 47.9523 261.179C47.6986 261.443 47.5035 261.755 47.3669 262.116C47.2401 262.477 47.1766 262.872 47.1766 263.301C47.1766 263.731 47.2401 264.131 47.3669 264.502C47.5035 264.863 47.6986 265.175 47.9523 265.438C48.206 265.702 48.4987 265.907 48.8304 266.053C49.1719 266.199 49.5427 266.272 49.9427 266.272ZM57.1657 268.468V258.223H61.7759C62.4296 258.223 63.0199 258.364 63.5468 258.647C64.0834 258.93 64.5029 259.321 64.8054 259.818C65.1079 260.306 65.2591 260.862 65.2591 261.487C65.2591 262.131 65.1079 262.711 64.8054 263.228C64.5029 263.736 64.0883 264.136 63.5614 264.428C63.0345 264.721 62.4393 264.867 61.7759 264.867H59.5366V268.468H57.1657ZM62.8443 268.468L60.2391 263.843L62.7857 263.477L65.6835 268.468H62.8443ZM59.5366 262.965H61.5563C61.81 262.965 62.0295 262.911 62.2149 262.804C62.4101 262.687 62.5564 262.526 62.654 262.321C62.7613 262.116 62.815 261.882 62.815 261.618C62.815 261.355 62.7564 261.126 62.6394 260.931C62.5223 260.726 62.3515 260.57 62.1271 260.462C61.9125 260.355 61.649 260.301 61.3368 260.301H59.5366V262.965ZM69.3807 268.468V260.418H66.3365V258.223H74.9861V260.418H71.8687V268.468H69.3807ZM80.1418 268.614C79.4685 268.614 78.8587 268.536 78.3123 268.38C77.7757 268.214 77.2976 267.98 76.8781 267.677C76.4585 267.365 76.0829 266.999 75.7511 266.58L77.2586 264.867C77.7464 265.521 78.2343 265.96 78.7221 266.185C79.2197 266.409 79.732 266.521 80.2589 266.521C80.5223 266.521 80.7613 266.487 80.976 266.419C81.1906 266.351 81.3565 266.253 81.4736 266.126C81.5907 265.99 81.6492 265.824 81.6492 265.628C81.6492 265.482 81.6102 265.35 81.5321 265.233C81.4638 265.116 81.3663 265.014 81.2394 264.926C81.1126 264.838 80.9614 264.76 80.7857 264.692C80.6101 264.614 80.4247 264.55 80.2296 264.502C80.0344 264.443 79.8344 264.394 79.6295 264.355C79.0636 264.228 78.5709 264.072 78.1513 263.887C77.7318 263.701 77.3805 263.477 77.0976 263.214C76.8244 262.94 76.6195 262.633 76.4829 262.292C76.3463 261.94 76.278 261.55 76.278 261.121C76.278 260.662 76.3805 260.243 76.5854 259.862C76.8 259.472 77.083 259.14 77.4342 258.867C77.7952 258.584 78.2099 258.369 78.6782 258.223C79.1466 258.067 79.6344 257.989 80.1418 257.989C80.815 257.989 81.3907 258.062 81.8688 258.208C82.3566 258.345 82.7713 258.545 83.1128 258.808C83.464 259.072 83.7616 259.389 84.0055 259.76L82.4688 261.238C82.2639 260.984 82.0395 260.774 81.7956 260.609C81.5614 260.443 81.3077 260.316 81.0345 260.228C80.7711 260.14 80.4979 260.096 80.2149 260.096C79.9222 260.096 79.6686 260.135 79.4539 260.213C79.249 260.282 79.088 260.384 78.9709 260.521C78.8538 260.648 78.7953 260.804 78.7953 260.989C78.7953 261.155 78.8441 261.296 78.9417 261.413C79.0392 261.531 79.1709 261.638 79.3368 261.735C79.5027 261.823 79.6929 261.901 79.9076 261.97C80.1223 262.028 80.3467 262.077 80.5808 262.116C81.1175 262.223 81.6004 262.365 82.0297 262.54C82.4688 262.716 82.8445 262.931 83.1567 263.184C83.4787 263.438 83.7226 263.741 83.8884 264.092C84.0641 264.433 84.1519 264.833 84.1519 265.292C84.1519 266.004 83.9763 266.609 83.625 267.107C83.2835 267.595 82.8103 267.97 82.2054 268.234C81.6102 268.487 80.9223 268.614 80.1418 268.614Z" fill="black"/>
<path d="M369.275 148.472V138.227H371.5L376.871 145.545L376.388 145.471C376.34 145.149 376.3 144.842 376.271 144.549C376.242 144.257 376.213 143.969 376.183 143.686C376.164 143.403 376.144 143.115 376.125 142.822C376.115 142.53 376.105 142.213 376.096 141.871C376.096 141.53 376.096 141.159 376.096 140.759V138.227H378.51V148.472H376.257L370.651 140.92L371.398 141.022C371.446 141.491 371.485 141.891 371.515 142.222C371.554 142.544 371.583 142.832 371.603 143.086C371.632 143.34 371.651 143.569 371.661 143.774C371.671 143.979 371.676 144.183 371.676 144.388C371.685 144.584 371.69 144.803 371.69 145.047V148.472H369.275ZM385.838 148.618C385.018 148.618 384.276 148.486 383.613 148.223C382.949 147.959 382.379 147.589 381.901 147.111C381.423 146.632 381.057 146.071 380.803 145.428C380.549 144.774 380.422 144.066 380.422 143.305C380.422 142.544 380.554 141.847 380.818 141.212C381.091 140.569 381.476 140.008 381.974 139.529C382.471 139.051 383.057 138.681 383.73 138.417C384.413 138.154 385.155 138.022 385.955 138.022C386.521 138.022 387.052 138.095 387.55 138.241C388.057 138.388 388.516 138.588 388.926 138.842C389.335 139.095 389.682 139.388 389.965 139.72L388.457 141.315C388.213 141.081 387.96 140.886 387.696 140.73C387.443 140.573 387.169 140.451 386.877 140.364C386.584 140.266 386.272 140.217 385.94 140.217C385.511 140.217 385.116 140.295 384.755 140.451C384.403 140.608 384.091 140.827 383.818 141.11C383.554 141.383 383.35 141.71 383.203 142.091C383.057 142.461 382.984 142.866 382.984 143.305C382.984 143.744 383.062 144.154 383.218 144.535C383.374 144.915 383.589 145.247 383.862 145.53C384.135 145.803 384.457 146.023 384.828 146.189C385.208 146.345 385.613 146.423 386.042 146.423C386.345 146.423 386.628 146.374 386.891 146.276C387.165 146.179 387.399 146.047 387.594 145.881C387.789 145.715 387.945 145.52 388.062 145.296C388.179 145.062 388.238 144.813 388.238 144.549V144.169L388.56 144.666H385.735V142.72H390.55C390.57 142.827 390.584 142.974 390.594 143.159C390.604 143.344 390.609 143.525 390.609 143.701C390.618 143.876 390.623 144.008 390.623 144.096C390.623 144.759 390.501 145.369 390.257 145.925C390.023 146.471 389.692 146.945 389.262 147.345C388.833 147.745 388.326 148.057 387.74 148.281C387.155 148.506 386.521 148.618 385.838 148.618ZM397.198 148.618C396.417 148.618 395.705 148.486 395.061 148.223C394.417 147.959 393.856 147.589 393.378 147.111C392.9 146.632 392.529 146.071 392.266 145.428C392.002 144.784 391.871 144.076 391.871 143.305C391.871 142.535 392.002 141.827 392.266 141.183C392.529 140.539 392.9 139.978 393.378 139.5C393.856 139.022 394.417 138.651 395.061 138.388C395.705 138.124 396.413 137.993 397.183 137.993C397.954 137.993 398.662 138.124 399.306 138.388C399.949 138.651 400.51 139.022 400.989 139.5C401.467 139.978 401.833 140.539 402.086 141.183C402.35 141.827 402.481 142.535 402.481 143.305C402.481 144.066 402.35 144.774 402.086 145.428C401.833 146.071 401.467 146.632 400.989 147.111C400.51 147.589 399.949 147.959 399.306 148.223C398.662 148.486 397.959 148.618 397.198 148.618ZM397.183 146.276C397.583 146.276 397.949 146.203 398.281 146.057C398.623 145.91 398.915 145.706 399.159 145.442C399.413 145.169 399.608 144.852 399.745 144.491C399.881 144.13 399.949 143.735 399.949 143.305C399.949 142.876 399.881 142.481 399.745 142.12C399.608 141.759 399.413 141.447 399.159 141.183C398.915 140.91 398.623 140.7 398.281 140.554C397.949 140.408 397.583 140.334 397.183 140.334C396.783 140.334 396.413 140.408 396.071 140.554C395.739 140.7 395.447 140.91 395.193 141.183C394.939 141.447 394.744 141.759 394.608 142.12C394.481 142.481 394.417 142.876 394.417 143.305C394.417 143.735 394.481 144.135 394.608 144.505C394.744 144.866 394.939 145.179 395.193 145.442C395.447 145.706 395.739 145.91 396.071 146.057C396.413 146.203 396.783 146.276 397.183 146.276Z" fill="black"/>
<path d="M305.408 29V17.8H310.448C311.163 17.8 311.808 17.9547 312.384 18.264C312.971 18.5733 313.429 19 313.76 19.544C314.091 20.0773 314.256 20.6853 314.256 21.368C314.256 22.072 314.091 22.7067 313.76 23.272C313.429 23.8267 312.976 24.264 312.4 24.584C311.824 24.904 311.173 25.064 310.448 25.064H308V29H305.408ZM311.616 29L308.768 23.944L311.552 23.544L314.72 29H311.616ZM308 22.984H310.208C310.485 22.984 310.725 22.9253 310.928 22.808C311.141 22.68 311.301 22.504 311.408 22.28C311.525 22.056 311.584 21.8 311.584 21.512C311.584 21.224 311.52 20.9733 311.392 20.76C311.264 20.536 311.077 20.3653 310.832 20.248C310.597 20.1307 310.309 20.072 309.968 20.072H308V22.984ZM316.642 29V17.8H324.45V20.12H319.282V26.68H324.61V29H316.642ZM317.922 24.408V22.2H323.73V24.408H317.922ZM325.531 29L329.963 17.8H332.267L336.667 29H333.915L331.803 23.32C331.718 23.096 331.632 22.856 331.547 22.6C331.462 22.344 331.376 22.0827 331.291 21.816C331.206 21.5387 331.12 21.272 331.035 21.016C330.96 20.7493 330.896 20.504 330.843 20.28L331.323 20.264C331.259 20.5307 331.184 20.792 331.099 21.048C331.024 21.304 330.944 21.56 330.859 21.816C330.784 22.0613 330.699 22.312 330.603 22.568C330.507 22.8133 330.416 23.0693 330.331 23.336L328.219 29H325.531ZM327.643 26.856L328.491 24.808H333.643L334.475 26.856H327.643ZM338.064 29V17.8H340.784V26.6H345.776V29H338.064ZM352.939 29V17.8H360.747V20.12H355.579V26.68H360.907V29H352.939ZM354.219 24.408V22.2H360.027V24.408H354.219ZM366.964 29.16C366.228 29.16 365.561 29.0747 364.964 28.904C364.377 28.7227 363.854 28.4667 363.396 28.136C362.937 27.7947 362.526 27.3947 362.164 26.936L363.812 25.064C364.345 25.7787 364.878 26.2587 365.412 26.504C365.956 26.7493 366.516 26.872 367.092 26.872C367.38 26.872 367.641 26.8347 367.876 26.76C368.11 26.6853 368.292 26.5787 368.42 26.44C368.548 26.2907 368.612 26.1093 368.612 25.896C368.612 25.736 368.569 25.592 368.484 25.464C368.409 25.336 368.302 25.224 368.164 25.128C368.025 25.032 367.86 24.9467 367.668 24.872C367.476 24.7867 367.273 24.7173 367.06 24.664C366.846 24.6 366.628 24.5467 366.404 24.504C365.785 24.3653 365.246 24.1947 364.788 23.992C364.329 23.7893 363.945 23.544 363.636 23.256C363.337 22.9573 363.113 22.6213 362.964 22.248C362.814 21.864 362.74 21.4373 362.74 20.968C362.74 20.4667 362.852 20.008 363.076 19.592C363.31 19.1653 363.62 18.8027 364.004 18.504C364.398 18.1947 364.852 17.96 365.364 17.8C365.876 17.6293 366.409 17.544 366.964 17.544C367.7 17.544 368.329 17.624 368.852 17.784C369.385 17.9333 369.838 18.152 370.212 18.44C370.596 18.728 370.921 19.0747 371.188 19.48L369.508 21.096C369.284 20.8187 369.038 20.5893 368.772 20.408C368.516 20.2267 368.238 20.088 367.94 19.992C367.652 19.896 367.353 19.848 367.044 19.848C366.724 19.848 366.446 19.8907 366.212 19.976C365.988 20.0507 365.812 20.1627 365.684 20.312C365.556 20.4507 365.492 20.6213 365.492 20.824C365.492 21.0053 365.545 21.16 365.652 21.288C365.758 21.416 365.902 21.5333 366.084 21.64C366.265 21.736 366.473 21.8213 366.708 21.896C366.942 21.96 367.188 22.0133 367.444 22.056C368.03 22.1733 368.558 22.328 369.028 22.52C369.508 22.712 369.918 22.9467 370.26 23.224C370.612 23.5013 370.878 23.832 371.06 24.216C371.252 24.5893 371.348 25.0267 371.348 25.528C371.348 26.3067 371.156 26.968 370.772 27.512C370.398 28.0453 369.881 28.456 369.22 28.744C368.569 29.0213 367.817 29.16 366.964 29.16ZM375.824 29V20.2H372.496V17.8H381.952V20.2H378.544V29H375.824ZM381.656 29L386.088 17.8H388.392L392.792 29H390.04L387.928 23.32C387.843 23.096 387.757 22.856 387.672 22.6C387.587 22.344 387.501 22.0827 387.416 21.816C387.331 21.5387 387.245 21.272 387.16 21.016C387.085 20.7493 387.021 20.504 386.968 20.28L387.448 20.264C387.384 20.5307 387.309 20.792 387.224 21.048C387.149 21.304 387.069 21.56 386.984 21.816C386.909 22.0613 386.824 22.312 386.728 22.568C386.632 22.8133 386.541 23.0693 386.456 23.336L384.344 29H381.656ZM383.768 26.856L384.616 24.808H389.768L390.6 26.856H383.768ZM395.824 29V20.2H392.496V17.8H401.952V20.2H398.544V29H395.824ZM403.877 29V17.8H411.685V20.12H406.517V26.68H411.845V29H403.877ZM405.157 24.408V22.2H410.965V24.408H405.157Z" fill="black"/>
<path d="M317.132 209L314.059 198.755H316.59L318.127 204.141C318.196 204.385 318.254 204.634 318.303 204.887C318.361 205.131 318.405 205.366 318.435 205.59C318.474 205.814 318.503 206.024 318.522 206.219C318.542 206.405 318.561 206.561 318.581 206.688H318.259C318.317 206.327 318.366 206.005 318.405 205.722C318.454 205.439 318.508 205.175 318.566 204.931C318.625 204.678 318.698 204.414 318.786 204.141L320.308 200.087H322.298L323.791 204.141C323.908 204.463 324.006 204.765 324.084 205.048C324.162 205.331 324.22 205.605 324.259 205.868C324.308 206.122 324.347 206.375 324.377 206.629L324.084 206.673C324.103 206.497 324.118 206.336 324.128 206.19C324.137 206.034 324.147 205.888 324.157 205.751C324.177 205.605 324.196 205.453 324.216 205.297C324.235 205.141 324.264 204.97 324.303 204.785C324.342 204.59 324.396 204.37 324.464 204.126L325.986 198.755H328.46L325.386 209H323.484L321.054 203.102L321.332 203.131L319.093 209H317.132ZM329.823 209V198.755H336.965V200.877H332.238V206.878H337.112V209H329.823ZM330.994 204.8V202.78H336.307V204.8H330.994ZM339.256 209V198.755H341.744V206.805H346.311V209H339.256ZM348.175 209V198.755H350.663V206.805H355.229V209H348.175ZM357.093 209V198.755H359.318L364.689 206.073L364.206 206C364.157 205.678 364.118 205.37 364.089 205.078C364.06 204.785 364.031 204.497 364.001 204.214C363.982 203.931 363.962 203.643 363.943 203.351C363.933 203.058 363.923 202.741 363.913 202.399C363.913 202.058 363.913 201.687 363.913 201.287V198.755H366.328V209H364.074L358.469 201.448L359.215 201.551C359.264 202.019 359.303 202.419 359.333 202.751C359.372 203.073 359.401 203.36 359.42 203.614C359.45 203.868 359.469 204.097 359.479 204.302C359.489 204.507 359.494 204.712 359.494 204.917C359.503 205.112 359.508 205.331 359.508 205.575V209H357.093ZM368.899 209V198.755H376.041V200.877H371.314V206.878H376.187V209H368.899ZM370.07 204.8V202.78H375.382V204.8H370.07ZM381.727 209.146C381.054 209.146 380.444 209.068 379.898 208.912C379.361 208.746 378.883 208.512 378.464 208.21C378.044 207.897 377.668 207.532 377.337 207.112L378.844 205.4C379.332 206.053 379.82 206.492 380.308 206.717C380.805 206.941 381.318 207.053 381.844 207.053C382.108 207.053 382.347 207.019 382.562 206.951C382.776 206.883 382.942 206.785 383.059 206.658C383.176 206.522 383.235 206.356 383.235 206.161C383.235 206.014 383.196 205.883 383.118 205.766C383.049 205.648 382.952 205.546 382.825 205.458C382.698 205.37 382.547 205.292 382.371 205.224C382.196 205.146 382.01 205.083 381.815 205.034C381.62 204.975 381.42 204.926 381.215 204.887C380.649 204.761 380.156 204.604 379.737 204.419C379.317 204.234 378.966 204.009 378.683 203.746C378.41 203.473 378.205 203.165 378.068 202.824C377.932 202.473 377.864 202.082 377.864 201.653C377.864 201.194 377.966 200.775 378.171 200.394C378.386 200.004 378.669 199.672 379.02 199.399C379.381 199.116 379.795 198.902 380.264 198.755C380.732 198.599 381.22 198.521 381.727 198.521C382.401 198.521 382.976 198.594 383.454 198.741C383.942 198.877 384.357 199.077 384.698 199.341C385.05 199.604 385.347 199.921 385.591 200.292L384.054 201.77C383.849 201.516 383.625 201.307 383.381 201.141C383.147 200.975 382.893 200.848 382.62 200.76C382.357 200.672 382.083 200.629 381.801 200.629C381.508 200.629 381.254 200.668 381.039 200.746C380.835 200.814 380.674 200.916 380.556 201.053C380.439 201.18 380.381 201.336 380.381 201.521C380.381 201.687 380.43 201.829 380.527 201.946C380.625 202.063 380.757 202.17 380.922 202.268C381.088 202.355 381.279 202.434 381.493 202.502C381.708 202.56 381.932 202.609 382.166 202.648C382.703 202.756 383.186 202.897 383.615 203.073C384.054 203.248 384.43 203.463 384.742 203.717C385.064 203.97 385.308 204.273 385.474 204.624C385.65 204.965 385.737 205.366 385.737 205.824C385.737 206.536 385.562 207.141 385.211 207.639C384.869 208.127 384.396 208.502 383.791 208.766C383.196 209.02 382.508 209.146 381.727 209.146ZM391.003 209.146C390.33 209.146 389.72 209.068 389.174 208.912C388.637 208.746 388.159 208.512 387.739 208.21C387.32 207.897 386.944 207.532 386.612 207.112L388.12 205.4C388.608 206.053 389.096 206.492 389.583 206.717C390.081 206.941 390.593 207.053 391.12 207.053C391.384 207.053 391.623 207.019 391.837 206.951C392.052 206.883 392.218 206.785 392.335 206.658C392.452 206.522 392.511 206.356 392.511 206.161C392.511 206.014 392.472 205.883 392.393 205.766C392.325 205.648 392.228 205.546 392.101 205.458C391.974 205.37 391.823 205.292 391.647 205.224C391.471 205.146 391.286 205.083 391.091 205.034C390.896 204.975 390.696 204.926 390.491 204.887C389.925 204.761 389.432 204.604 389.013 204.419C388.593 204.234 388.242 204.009 387.959 203.746C387.686 203.473 387.481 203.165 387.344 202.824C387.208 202.473 387.139 202.082 387.139 201.653C387.139 201.194 387.242 200.775 387.447 200.394C387.661 200.004 387.944 199.672 388.296 199.399C388.657 199.116 389.071 198.902 389.54 198.755C390.008 198.599 390.496 198.521 391.003 198.521C391.676 198.521 392.252 198.594 392.73 198.741C393.218 198.877 393.633 199.077 393.974 199.341C394.325 199.604 394.623 199.921 394.867 200.292L393.33 201.77C393.125 201.516 392.901 201.307 392.657 201.141C392.423 200.975 392.169 200.848 391.896 200.76C391.632 200.672 391.359 200.629 391.076 200.629C390.784 200.629 390.53 200.668 390.315 200.746C390.11 200.814 389.949 200.916 389.832 201.053C389.715 201.18 389.657 201.336 389.657 201.521C389.657 201.687 389.705 201.829 389.803 201.946C389.901 202.063 390.032 202.17 390.198 202.268C390.364 202.355 390.554 202.434 390.769 202.502C390.984 202.56 391.208 202.609 391.442 202.648C391.979 202.756 392.462 202.897 392.891 203.073C393.33 203.248 393.706 203.463 394.018 203.717C394.34 203.97 394.584 204.273 394.75 204.624C394.925 204.965 395.013 205.366 395.013 205.824C395.013 206.536 394.838 207.141 394.486 207.639C394.145 208.127 393.672 208.502 393.067 208.766C392.472 209.02 391.784 209.146 391.003 209.146Z" fill="black"/>
<path d="M149.083 269V266.907H150.81V260.848H149.083V258.755H155.04V260.848H153.298V266.907H155.04V269H149.083ZM157.406 269V258.755H159.631L165.002 266.073L164.519 266C164.47 265.678 164.431 265.37 164.402 265.078C164.373 264.785 164.343 264.497 164.314 264.214C164.294 263.931 164.275 263.643 164.255 263.351C164.246 263.058 164.236 262.741 164.226 262.399C164.226 262.058 164.226 261.687 164.226 261.287V258.755H166.641V269H164.387L158.782 261.448L159.528 261.551C159.577 262.019 159.616 262.419 159.645 262.751C159.684 263.073 159.714 263.36 159.733 263.614C159.762 263.868 159.782 264.097 159.792 264.302C159.801 264.507 159.806 264.712 159.806 264.917C159.816 265.112 159.821 265.331 159.821 265.575V269H157.406ZM169.212 269V258.755H173.5C174.251 258.755 174.939 258.882 175.563 259.136C176.188 259.38 176.724 259.731 177.173 260.189C177.632 260.648 177.983 261.19 178.227 261.814C178.471 262.438 178.593 263.126 178.593 263.878C178.593 264.629 178.471 265.322 178.227 265.956C177.983 266.58 177.632 267.122 177.173 267.58C176.724 268.029 176.188 268.38 175.563 268.634C174.939 268.878 174.251 269 173.5 269H169.212ZM171.7 267.302L171.363 266.805H173.427C173.836 266.805 174.202 266.736 174.524 266.6C174.846 266.453 175.119 266.253 175.344 266C175.578 265.746 175.759 265.439 175.885 265.078C176.012 264.717 176.076 264.317 176.076 263.878C176.076 263.439 176.012 263.038 175.885 262.677C175.759 262.316 175.578 262.009 175.344 261.755C175.119 261.502 174.846 261.307 174.524 261.17C174.202 261.024 173.836 260.95 173.427 260.95H171.319L171.7 260.482V267.302ZM184.834 269.088C183.986 269.088 183.229 268.917 182.566 268.576C181.902 268.224 181.38 267.746 181 267.141C180.629 266.536 180.444 265.844 180.444 265.063V258.755H182.961V264.931C182.961 265.302 183.044 265.639 183.21 265.941C183.376 266.234 183.6 266.468 183.883 266.644C184.166 266.81 184.483 266.892 184.834 266.892C185.205 266.892 185.532 266.81 185.815 266.644C186.108 266.468 186.342 266.234 186.517 265.941C186.693 265.639 186.781 265.302 186.781 264.931V258.755H189.21V265.063C189.21 265.844 189.02 266.536 188.64 267.141C188.269 267.746 187.752 268.224 187.088 268.576C186.425 268.917 185.673 269.088 184.834 269.088ZM194.96 269.146C194.287 269.146 193.677 269.068 193.131 268.912C192.594 268.746 192.116 268.512 191.697 268.21C191.277 267.897 190.902 267.532 190.57 267.112L192.077 265.4C192.565 266.053 193.053 266.492 193.541 266.717C194.038 266.941 194.551 267.053 195.077 267.053C195.341 267.053 195.58 267.019 195.795 266.951C196.009 266.883 196.175 266.785 196.292 266.658C196.409 266.522 196.468 266.356 196.468 266.161C196.468 266.014 196.429 265.883 196.351 265.766C196.282 265.648 196.185 265.546 196.058 265.458C195.931 265.37 195.78 265.292 195.604 265.224C195.429 265.146 195.243 265.083 195.048 265.034C194.853 264.975 194.653 264.926 194.448 264.887C193.882 264.761 193.39 264.604 192.97 264.419C192.55 264.234 192.199 264.009 191.916 263.746C191.643 263.473 191.438 263.165 191.302 262.824C191.165 262.473 191.097 262.082 191.097 261.653C191.097 261.194 191.199 260.775 191.404 260.394C191.619 260.004 191.902 259.672 192.253 259.399C192.614 259.116 193.029 258.902 193.497 258.755C193.965 258.599 194.453 258.521 194.96 258.521C195.634 258.521 196.209 258.594 196.687 258.741C197.175 258.877 197.59 259.077 197.931 259.341C198.283 259.604 198.58 259.921 198.824 260.292L197.287 261.77C197.083 261.516 196.858 261.307 196.614 261.141C196.38 260.975 196.126 260.848 195.853 260.76C195.59 260.672 195.317 260.629 195.034 260.629C194.741 260.629 194.487 260.668 194.273 260.746C194.068 260.814 193.907 260.916 193.79 261.053C193.672 261.18 193.614 261.336 193.614 261.521C193.614 261.687 193.663 261.829 193.76 261.946C193.858 262.063 193.99 262.17 194.155 262.268C194.321 262.355 194.512 262.434 194.726 262.502C194.941 262.56 195.165 262.609 195.399 262.648C195.936 262.756 196.419 262.897 196.848 263.073C197.287 263.248 197.663 263.463 197.975 263.717C198.297 263.97 198.541 264.273 198.707 264.624C198.883 264.965 198.971 265.366 198.971 265.824C198.971 266.536 198.795 267.141 198.444 267.639C198.102 268.127 197.629 268.502 197.024 268.766C196.429 269.02 195.741 269.146 194.96 269.146ZM203.065 269V260.95H200.021V258.755H208.671V260.95H205.553V269H203.065ZM210.431 269V258.755H215.041C215.695 258.755 216.285 258.897 216.812 259.18C217.349 259.463 217.768 259.853 218.071 260.35C218.373 260.838 218.524 261.394 218.524 262.019C218.524 262.663 218.373 263.243 218.071 263.761C217.768 264.268 217.354 264.668 216.827 264.961C216.3 265.253 215.705 265.4 215.041 265.4H212.802V269H210.431ZM216.11 269L213.504 264.375L216.051 264.009L218.949 269H216.11ZM212.802 263.497H214.822C215.075 263.497 215.295 263.443 215.48 263.336C215.675 263.219 215.822 263.058 215.919 262.853C216.027 262.648 216.08 262.414 216.08 262.151C216.08 261.887 216.022 261.658 215.905 261.463C215.788 261.258 215.617 261.102 215.392 260.994C215.178 260.887 214.914 260.833 214.602 260.833H212.802V263.497ZM220.502 269V266.907H222.229V260.848H220.502V258.755H226.459V260.848H224.717V266.907H226.459V269H220.502ZM227.523 269L231.577 258.755H233.684L237.709 269H235.192L233.26 263.804C233.182 263.6 233.104 263.38 233.026 263.146C232.948 262.912 232.87 262.673 232.792 262.429C232.714 262.175 232.635 261.931 232.557 261.697C232.489 261.453 232.431 261.229 232.382 261.024L232.821 261.009C232.762 261.253 232.694 261.492 232.616 261.726C232.548 261.96 232.474 262.195 232.396 262.429C232.328 262.653 232.25 262.882 232.162 263.117C232.074 263.341 231.992 263.575 231.913 263.819L229.982 269H227.523ZM229.455 267.039L230.23 265.166H234.943L235.704 267.039H229.455ZM238.987 269V258.755H241.475V266.805H246.042V269H238.987Z" fill="black"/>
<path d="M302.985 269L307.039 258.755H309.147L313.172 269H310.654L308.722 263.804C308.644 263.6 308.566 263.38 308.488 263.146C308.41 262.912 308.332 262.673 308.254 262.429C308.176 262.175 308.098 261.931 308.02 261.697C307.952 261.453 307.893 261.229 307.844 261.024L308.283 261.009C308.225 261.253 308.157 261.492 308.079 261.726C308.01 261.96 307.937 262.195 307.859 262.429C307.791 262.653 307.713 262.882 307.625 263.117C307.537 263.341 307.454 263.575 307.376 263.819L305.444 269H302.985ZM304.917 267.039L305.693 265.166H310.406L311.167 267.039H304.917ZM318.481 269.088C317.633 269.088 316.876 268.917 316.213 268.576C315.549 268.224 315.027 267.746 314.647 267.141C314.276 266.536 314.091 265.844 314.091 265.063V258.755H316.608V264.931C316.608 265.302 316.691 265.639 316.857 265.941C317.023 266.234 317.247 266.468 317.53 266.644C317.813 266.81 318.13 266.892 318.481 266.892C318.852 266.892 319.179 266.81 319.462 266.644C319.755 266.468 319.989 266.234 320.165 265.941C320.34 265.639 320.428 265.302 320.428 264.931V258.755H322.857V265.063C322.857 265.844 322.667 266.536 322.287 267.141C321.916 267.746 321.399 268.224 320.735 268.576C320.072 268.917 319.321 269.088 318.481 269.088ZM327.58 269V260.95H324.535V258.755H333.185V260.95H330.068V269H327.58ZM339.171 269.146C338.39 269.146 337.678 269.015 337.034 268.751C336.39 268.488 335.829 268.117 335.351 267.639C334.873 267.161 334.502 266.6 334.239 265.956C333.975 265.312 333.844 264.604 333.844 263.834C333.844 263.063 333.975 262.355 334.239 261.712C334.502 261.068 334.873 260.507 335.351 260.028C335.829 259.55 336.39 259.18 337.034 258.916C337.678 258.653 338.385 258.521 339.156 258.521C339.927 258.521 340.634 258.653 341.278 258.916C341.922 259.18 342.483 259.55 342.961 260.028C343.44 260.507 343.805 261.068 344.059 261.712C344.323 262.355 344.454 263.063 344.454 263.834C344.454 264.595 344.323 265.302 344.059 265.956C343.805 266.6 343.44 267.161 342.961 267.639C342.483 268.117 341.922 268.488 341.278 268.751C340.634 269.015 339.932 269.146 339.171 269.146ZM339.156 266.805C339.556 266.805 339.922 266.732 340.254 266.585C340.595 266.439 340.888 266.234 341.132 265.97C341.386 265.697 341.581 265.38 341.717 265.019C341.854 264.658 341.922 264.263 341.922 263.834C341.922 263.404 341.854 263.009 341.717 262.648C341.581 262.287 341.386 261.975 341.132 261.712C340.888 261.438 340.595 261.229 340.254 261.082C339.922 260.936 339.556 260.863 339.156 260.863C338.756 260.863 338.385 260.936 338.044 261.082C337.712 261.229 337.419 261.438 337.166 261.712C336.912 261.975 336.717 262.287 336.58 262.648C336.454 263.009 336.39 263.404 336.39 263.834C336.39 264.263 336.454 264.663 336.58 265.034C336.717 265.395 336.912 265.707 337.166 265.97C337.419 266.234 337.712 266.439 338.044 266.585C338.385 266.732 338.756 266.805 339.156 266.805ZM346.379 269V258.755H348.604L352.336 264.829L350.741 264.814L354.516 258.755H356.653V269H354.238V265.809C354.238 264.931 354.258 264.141 354.297 263.439C354.346 262.736 354.424 262.038 354.531 261.346L354.809 262.107L351.97 266.512H351.004L348.223 262.136L348.501 261.346C348.609 261.999 348.682 262.673 348.721 263.365C348.77 264.048 348.794 264.863 348.794 265.809V269H346.379ZM363.897 269.146C363.116 269.146 362.404 269.015 361.76 268.751C361.116 268.488 360.555 268.117 360.077 267.639C359.599 267.161 359.228 266.6 358.965 265.956C358.701 265.312 358.569 264.604 358.569 263.834C358.569 263.063 358.701 262.355 358.965 261.712C359.228 261.068 359.599 260.507 360.077 260.028C360.555 259.55 361.116 259.18 361.76 258.916C362.404 258.653 363.111 258.521 363.882 258.521C364.653 258.521 365.36 258.653 366.004 258.916C366.648 259.18 367.209 259.55 367.687 260.028C368.165 260.507 368.531 261.068 368.785 261.712C369.048 262.355 369.18 263.063 369.18 263.834C369.18 264.595 369.048 265.302 368.785 265.956C368.531 266.6 368.165 267.161 367.687 267.639C367.209 268.117 366.648 268.488 366.004 268.751C365.36 269.015 364.658 269.146 363.897 269.146ZM363.882 266.805C364.282 266.805 364.648 266.732 364.98 266.585C365.321 266.439 365.614 266.234 365.858 265.97C366.112 265.697 366.307 265.38 366.443 265.019C366.58 264.658 366.648 264.263 366.648 263.834C366.648 263.404 366.58 263.009 366.443 262.648C366.307 262.287 366.112 261.975 365.858 261.712C365.614 261.438 365.321 261.229 364.98 261.082C364.648 260.936 364.282 260.863 363.882 260.863C363.482 260.863 363.111 260.936 362.77 261.082C362.438 261.229 362.145 261.438 361.892 261.712C361.638 261.975 361.443 262.287 361.306 262.648C361.179 263.009 361.116 263.404 361.116 263.834C361.116 264.263 361.179 264.663 361.306 265.034C361.443 265.395 361.638 265.707 361.892 265.97C362.145 266.234 362.438 266.439 362.77 266.585C363.111 266.732 363.482 266.805 363.882 266.805ZM371.105 269V258.755H375.627C376.33 258.755 376.925 258.858 377.413 259.063C377.901 259.258 378.267 259.545 378.511 259.926C378.764 260.297 378.891 260.746 378.891 261.272C378.891 261.858 378.745 262.351 378.452 262.751C378.169 263.151 377.754 263.419 377.208 263.556L377.179 263.278C377.637 263.375 378.033 263.546 378.364 263.79C378.706 264.034 378.969 264.336 379.155 264.697C379.34 265.048 379.433 265.448 379.433 265.897C379.433 266.414 379.345 266.868 379.169 267.258C378.994 267.639 378.74 267.961 378.408 268.224C378.076 268.488 377.686 268.683 377.237 268.81C376.798 268.937 376.31 269 375.774 269H371.105ZM373.447 266.922H375.686C375.959 266.922 376.188 266.878 376.374 266.79C376.569 266.702 376.72 266.575 376.828 266.41C376.935 266.234 376.989 266.024 376.989 265.78C376.989 265.556 376.93 265.366 376.813 265.209C376.706 265.053 376.55 264.936 376.345 264.858C376.14 264.77 375.896 264.726 375.613 264.726H373.447V266.922ZM373.447 262.868H375.276C375.53 262.868 375.745 262.829 375.92 262.751C376.106 262.663 376.242 262.546 376.33 262.399C376.428 262.243 376.476 262.058 376.476 261.843C376.476 261.531 376.369 261.287 376.154 261.111C375.94 260.926 375.618 260.833 375.188 260.833H373.447V262.868ZM381.162 269V266.907H382.889V260.848H381.162V258.755H387.119V260.848H385.377V266.907H387.119V269H381.162ZM389.485 269V258.755H391.973V266.805H396.539V269H389.485ZM398.404 269V258.755H405.546V260.877H400.819V266.878H405.692V269H398.404ZM399.575 264.8V262.78H404.887V264.8H399.575Z" fill="black"/>
</svg>
