<svg width="219" height="64" viewBox="0 0 219 64" fill="none" xmlns="http://www.w3.org/2000/svg">
<g clip-path="url(#clip0_273_9)">
<path fill-rule="evenodd" clip-rule="evenodd" d="M54.5284 39.0926H54.6031L62.4004 18.614H68.1471V45.2646H64.4524V22.9807H64.3778L55.6111 45.2646H53.2591L44.5284 22.9807H44.4538V45.2646H40.8711V18.614H46.6178L54.5284 39.0926Z" fill="#0075C8"/>
<path fill-rule="evenodd" clip-rule="evenodd" d="M77.2148 45.2642H73.5215V18.6122H77.2148V45.2642Z" fill="#0075C8"/>
<path fill-rule="evenodd" clip-rule="evenodd" d="M106.579 41.1241C105.535 42.5547 104.178 43.7161 102.511 44.6067C100.844 45.4974 98.8429 45.9427 96.5042 45.9427C94.4896 45.9427 92.6296 45.5974 90.9269 44.9067C89.2229 44.2174 87.7549 43.2521 86.5229 42.0094C85.2922 40.7681 84.3282 39.2867 83.6322 37.5667C82.9349 35.8481 82.5869 33.9601 82.5869 31.9027C82.5869 29.8187 82.9416 27.9187 83.6509 26.1988C84.3602 24.4801 85.3416 23.0121 86.5989 21.7948C87.8549 20.5788 89.3402 19.6308 91.0576 18.9534C92.7736 18.2748 94.6402 17.9361 96.6536 17.9361C97.5496 17.9361 98.4562 18.0241 99.3776 18.1988C100.298 18.3748 101.182 18.6388 102.028 18.9908C102.872 19.3414 103.644 19.7748 104.34 20.2881C105.038 20.8041 105.634 21.4001 106.131 22.0774L103.22 24.3361C102.574 23.4321 101.66 22.6854 100.479 22.0961C99.2962 21.5081 98.0216 21.2108 96.6536 21.2108C95.1109 21.2108 93.7242 21.4934 92.4949 22.0588C91.2629 22.6228 90.2109 23.3948 89.3402 24.3734C88.4696 25.3521 87.7989 26.4868 87.3269 27.7801C86.8522 29.0721 86.6176 30.4481 86.6176 31.9027C86.6176 33.4081 86.8469 34.8147 87.3069 36.1174C87.7669 37.4227 88.4269 38.5587 89.2842 39.5241C90.1429 40.4907 91.1882 41.2507 92.4202 41.8027C93.6496 42.3547 95.0242 42.6294 96.5416 42.6294C98.0349 42.6294 99.3896 42.3294 100.61 41.7254C101.827 41.1241 102.836 40.2467 103.632 39.0921L106.579 41.1241Z" fill="#0075C8"/>
<path fill-rule="evenodd" clip-rule="evenodd" d="M115.198 45.2656H111.505V18.6136H119.976C121.244 18.6136 122.449 18.7456 123.594 19.0096C124.738 19.2723 125.74 19.6936 126.598 20.271C127.456 20.8483 128.133 21.607 128.63 22.5483C129.129 23.4883 129.377 24.6363 129.377 25.9923C129.377 27.9483 128.781 29.531 127.586 30.735C126.392 31.939 124.849 32.7043 122.96 33.031L130.348 45.2656H125.87L119.154 33.4083H115.198V45.2656ZM115.198 30.2843H119.453C120.324 30.2843 121.13 30.2083 121.877 30.0576C122.624 29.9056 123.276 29.6616 123.837 29.323C124.396 28.9843 124.838 28.5456 125.161 28.007C125.484 27.467 125.646 26.795 125.646 25.9923C125.646 25.1896 125.484 24.5176 125.161 23.9776C124.838 23.439 124.409 23.0056 123.873 22.679C123.338 22.3536 122.71 22.1203 121.99 21.983C121.268 21.8443 120.509 21.7763 119.713 21.7763H115.198V30.2843Z" fill="#0075C8"/>
<path fill-rule="evenodd" clip-rule="evenodd" d="M162.735 31.9019C162.735 33.9592 162.38 35.8486 161.672 37.5672C160.963 39.2872 159.987 40.7672 158.743 42.0086C157.499 43.2512 156.019 44.2192 154.303 44.9072C152.586 45.5966 150.72 45.9432 148.706 45.9432C146.691 45.9432 144.83 45.5966 143.127 44.9072C141.422 44.2192 139.948 43.2512 138.706 42.0086C137.462 40.7672 136.491 39.2872 135.795 37.5672C135.099 35.8486 134.751 33.9592 134.751 31.9019C134.751 29.8192 135.099 27.9192 135.795 26.1992C136.491 24.4819 137.462 23.0112 138.706 21.7952C139.948 20.5779 141.422 19.6299 143.127 18.9526C144.83 18.2752 146.691 17.9366 148.706 17.9366C150.72 17.9366 152.586 18.2752 154.303 18.9526C156.019 19.6299 157.499 20.5779 158.743 21.7952C159.987 23.0112 160.963 24.4819 161.672 26.1992C162.38 27.9192 162.735 29.8192 162.735 31.9019ZM158.743 31.9019C158.743 30.4472 158.506 29.0726 158.034 27.7792C157.56 26.4872 156.888 25.3512 156.019 24.3739C155.147 23.3952 154.096 22.6232 152.867 22.0592C151.635 21.4939 150.247 21.2112 148.706 21.2112C147.187 21.2112 145.814 21.4939 144.582 22.0592C143.351 22.6232 142.306 23.3952 141.448 24.3739C140.59 25.3512 139.924 26.4872 139.451 27.7792C138.979 29.0726 138.743 30.4472 138.743 31.9019C138.743 33.3832 138.979 34.7766 139.451 36.0806C139.924 37.3846 140.595 38.5219 141.467 39.4872C142.338 40.4526 143.382 41.2126 144.6 41.7646C145.819 42.3166 147.187 42.5926 148.706 42.5926C150.223 42.5926 151.603 42.3166 152.847 41.7646C154.09 41.2126 155.147 40.4526 156.019 39.4872C156.888 38.5219 157.56 37.3846 158.034 36.0806C158.506 34.7766 158.743 33.3832 158.743 31.9019Z" fill="#0075C8"/>
<path fill-rule="evenodd" clip-rule="evenodd" d="M171.802 41.9529H183.592V45.2649H168.108V18.6129H171.802V41.9529Z" fill="#0075C8"/>
<path fill-rule="evenodd" clip-rule="evenodd" d="M192.66 45.2642H188.967V18.6122H192.66V45.2642Z" fill="#0075C8"/>
<path fill-rule="evenodd" clip-rule="evenodd" d="M210.196 45.2651H206.503V21.8891H198.032V18.6131H218.667V21.8891H210.196V45.2651Z" fill="#0075C8"/>
<path fill-rule="evenodd" clip-rule="evenodd" d="M16.8173 32.0653C16.8173 31.8693 16.8 31.6773 16.768 31.4906C16.764 31.4533 16.756 31.416 16.7493 31.3773V31.3706C16.4027 29.4933 14.804 27.512 13.408 26C12.0133 27.512 10.4147 29.4933 10.068 31.3706C10.068 31.3733 10.068 31.376 10.068 31.376C10.0613 31.416 10.0533 31.4533 10.0467 31.4906C10.016 31.6773 10 31.8706 10 32.0653C10 33.9653 11.5253 35.5053 13.408 35.5053C15.292 35.5053 16.8173 33.9653 16.8173 32.0653Z" fill="#0075C8"/>
<path fill-rule="evenodd" clip-rule="evenodd" d="M0.579102 18.6148V39.7762L4.19643 36.1575V22.2255H23.6164V41.6522H9.68577L6.07377 45.2655H27.2324V18.6148H0.579102Z" fill="#0075C8"/>
</g>
<defs>
<clipPath id="clip0_273_9">
<rect width="219" height="29" fill="white" transform="translate(0 17)"/>
</clipPath>
</defs>
</svg>
