<svg width="126" height="126" viewBox="0 0 126 126" fill="none" xmlns="http://www.w3.org/2000/svg">
<path fill-rule="evenodd" clip-rule="evenodd" d="M0.942123 0.285934V62.8153V125.343H125.999V62.8153V0.285934H0.942123Z" fill="#0075C9"/>
<path fill-rule="evenodd" clip-rule="evenodd" d="M20.3417 125.344H126V22.2556H24.3417C22.1324 22.2556 20.3417 24.0463 20.3417 26.2556V125.344Z" fill="#F7F7F7"/>
<path fill-rule="evenodd" clip-rule="evenodd" d="M65.3096 27.6287H126V22.2554H24.3416C22.1323 22.2554 20.3416 24.0474 20.3416 26.2554V47.5007H57.3096C59.5189 47.5007 61.3096 45.7101 61.3096 43.5007V31.6287C61.3096 29.4194 63.1003 27.6287 65.3096 27.6287Z" fill="#E5E5E5"/>
<path fill-rule="evenodd" clip-rule="evenodd" d="M44.3713 75.441H125.999V57.3077H44.3713C42.162 57.3077 40.3713 59.0984 40.3713 61.3077V71.441C40.3713 73.6504 42.162 75.441 44.3713 75.441Z" fill="#E5E5E5"/>
<path fill-rule="evenodd" clip-rule="evenodd" d="M58.2084 102.807H43.0377C41.5657 102.807 40.3711 101.614 40.3711 100.141V84.97C40.3711 83.498 41.5657 82.3034 43.0377 82.3034H58.2084C59.6817 82.3034 60.8751 83.498 60.8751 84.97V100.141C60.8751 101.614 59.6817 102.807 58.2084 102.807Z" fill="#0075C9"/>
<path fill-rule="evenodd" clip-rule="evenodd" d="M87.6009 102.807H72.4302C70.9582 102.807 69.7636 101.614 69.7636 100.141V84.97C69.7636 83.498 70.9582 82.3034 72.4302 82.3034H87.6009C89.0742 82.3034 90.2676 83.498 90.2676 84.97V100.141C90.2676 101.614 89.0742 102.807 87.6009 102.807Z" fill="#E5E5E5"/>
<path fill-rule="evenodd" clip-rule="evenodd" d="M116.993 102.807H101.823C100.351 102.807 99.1561 101.614 99.1561 100.141V84.97C99.1561 83.498 100.351 82.3034 101.823 82.3034H116.993C118.467 82.3034 119.66 83.498 119.66 84.97V100.141C119.66 101.614 118.467 102.807 116.993 102.807Z" fill="#E5E5E5"/>
<path d="M118.475 35.7668L121.794 39.0854" stroke="#58595B" stroke-width="0.266667" stroke-miterlimit="10"/>
<path d="M121.794 35.7668L118.475 39.0854" stroke="#58595B" stroke-width="0.266667" stroke-miterlimit="10"/>
<path d="M54.3032 40.2054L51.5245 37.4268L54.3032 34.6468" stroke="#58595B" stroke-width="0.266667" stroke-miterlimit="10"/>
<path fill-rule="evenodd" clip-rule="evenodd" d="M32.1283 37.4261C32.1283 38.6514 31.1349 39.6448 29.9096 39.6448C28.6829 39.6448 27.6896 38.6514 27.6896 37.4261C27.6896 36.2008 28.6829 35.2074 29.9096 35.2074C31.1349 35.2074 32.1283 36.2008 32.1283 37.4261Z" fill="#FB6E6B"/>
<path fill-rule="evenodd" clip-rule="evenodd" d="M38.4099 37.4261C38.4099 38.6514 37.4165 39.6448 36.1912 39.6448C34.9645 39.6448 33.9712 38.6514 33.9712 37.4261C33.9712 36.2008 34.9645 35.2074 36.1912 35.2074C37.4165 35.2074 38.4099 36.2008 38.4099 37.4261Z" fill="#FFBD40"/>
<path fill-rule="evenodd" clip-rule="evenodd" d="M44.6913 37.4261C44.6913 38.6514 43.698 39.6448 42.4727 39.6448C41.246 39.6448 40.2527 38.6514 40.2527 37.4261C40.2527 36.2008 41.246 35.2074 42.4727 35.2074C43.698 35.2074 44.6913 36.2008 44.6913 37.4261Z" fill="#38CE51"/>
<path fill-rule="evenodd" clip-rule="evenodd" d="M74.4161 37.9058C74.4161 37.8338 74.4095 37.7644 74.3988 37.6964C74.3961 37.6818 74.3935 37.6684 74.3908 37.6538V37.6524C74.2641 36.9658 73.6801 36.2418 73.1708 35.6898C72.6615 36.2418 72.0775 36.9658 71.9508 37.6524L71.9495 37.6538C71.9481 37.6684 71.9455 37.6818 71.9428 37.6964C71.9308 37.7644 71.9255 37.8351 71.9255 37.9058C71.9255 38.6004 72.4828 39.1631 73.1708 39.1631C73.8588 39.1631 74.4161 38.6004 74.4161 37.9058Z" fill="#0075C9"/>
<path fill-rule="evenodd" clip-rule="evenodd" d="M68.3018 32.5578V40.2885L69.6232 38.9672V33.8778H76.7178V40.9738H71.6285L70.3098 42.2952H78.0405V32.5578H68.3018Z" fill="#0075C9"/>
<path fill-rule="evenodd" clip-rule="evenodd" d="M51.8685 93.0349C51.8685 92.9629 51.8619 92.8936 51.8512 92.8256C51.8485 92.8109 51.8459 92.7976 51.8432 92.7829V92.7816C51.7165 92.0949 51.1325 91.3709 50.6232 90.8189C50.1139 91.3709 49.5299 92.0949 49.4032 92.7816L49.4019 92.7829C49.4005 92.7976 49.3979 92.8109 49.3952 92.8256C49.3832 92.8936 49.3779 92.9642 49.3779 93.0349C49.3779 93.7296 49.9352 94.2922 50.6232 94.2922C51.3112 94.2922 51.8685 93.7296 51.8685 93.0349Z" fill="white"/>
<path fill-rule="evenodd" clip-rule="evenodd" d="M45.7541 87.6872V95.4179L47.0755 94.0966V89.0072H54.1701V96.1032H49.0808L47.7621 97.4246H55.4928V87.6872H45.7541Z" fill="white"/>
<path d="M53.6117 62.8563V67.9563H52.9975V62.8563H53.6117ZM53.4657 66.0239L53.21 66.0139C53.2122 65.7682 53.2487 65.5413 53.3196 65.3333C53.3904 65.123 53.49 64.9403 53.6184 64.7854C53.7468 64.6305 53.8995 64.5109 54.0766 64.4268C54.2559 64.3405 54.454 64.2973 54.6709 64.2973C54.848 64.2973 55.0074 64.3217 55.1491 64.3704C55.2907 64.4168 55.4114 64.4921 55.511 64.5961C55.6128 64.7002 55.6903 64.8352 55.7434 65.0012C55.7965 65.165 55.8231 65.3653 55.8231 65.6022V67.9563H55.2055V65.5956C55.2055 65.4074 55.1778 65.2569 55.1225 65.144C55.0672 65.0289 54.9864 64.9459 54.8801 64.895C54.7739 64.8418 54.6433 64.8153 54.4883 64.8153C54.3356 64.8153 54.1961 64.8474 54.07 64.9116C53.946 64.9758 53.8386 65.0643 53.7479 65.1772C53.6593 65.2901 53.5896 65.4196 53.5387 65.5657C53.49 65.7096 53.4657 65.8623 53.4657 66.0239ZM58.2469 64.3637V64.8352H56.3045V64.3637H58.2469ZM56.9619 63.4905H57.5762V67.0665C57.5762 67.1882 57.595 67.2801 57.6326 67.342C57.6703 67.404 57.719 67.445 57.7787 67.4649C57.8385 67.4848 57.9027 67.4948 57.9713 67.4948C58.0222 67.4948 58.0754 67.4903 58.1307 67.4815C58.1882 67.4704 58.2314 67.4616 58.2602 67.4549L58.2635 67.9563C58.2148 67.9718 58.1506 67.9862 58.0709 67.9995C57.9935 68.015 57.8994 68.0227 57.7887 68.0227C57.6382 68.0227 57.4998 67.9928 57.3737 67.9331C57.2475 67.8733 57.1468 67.7737 57.0715 67.6342C56.9985 67.4926 56.9619 67.3022 56.9619 67.0631V63.4905ZM60.4715 64.3637V64.8352H58.5291V64.3637H60.4715ZM59.1866 63.4905H59.8008V67.0665C59.8008 67.1882 59.8196 67.2801 59.8573 67.342C59.8949 67.404 59.9436 67.445 60.0033 67.4649C60.0631 67.4848 60.1273 67.4948 60.1959 67.4948C60.2468 67.4948 60.3 67.4903 60.3553 67.4815C60.4129 67.4704 60.456 67.4616 60.4848 67.4549L60.4881 67.9563C60.4394 67.9718 60.3752 67.9862 60.2955 67.9995C60.2181 68.015 60.124 68.0227 60.0133 68.0227C59.8628 68.0227 59.7244 67.9928 59.5983 67.9331C59.4721 67.8733 59.3714 67.7737 59.2961 67.6342C59.2231 67.4926 59.1866 67.3022 59.1866 67.0631V63.4905ZM61.8063 65.0543V69.3375H61.1887V64.3637H61.7532L61.8063 65.0543ZM64.2268 66.1301V66.1999C64.2268 66.4611 64.1958 66.7034 64.1338 66.927C64.0718 67.1484 63.9811 67.3409 63.8616 67.5047C63.7442 67.6685 63.5992 67.7958 63.4266 67.8866C63.2539 67.9773 63.0558 68.0227 62.8323 68.0227C62.6043 68.0227 62.4028 67.9851 62.228 67.9098C62.0531 67.8346 61.9048 67.725 61.783 67.5811C61.6613 67.4372 61.5639 67.2646 61.4908 67.0631C61.42 66.8617 61.3713 66.6348 61.3448 66.3825V66.0106C61.3713 65.745 61.4211 65.507 61.4942 65.2967C61.5672 65.0864 61.6635 64.9071 61.783 64.7588C61.9048 64.6083 62.052 64.4943 62.2246 64.4168C62.3973 64.3372 62.5965 64.2973 62.8223 64.2973C63.0481 64.2973 63.2484 64.3416 63.4233 64.4301C63.5981 64.5165 63.7453 64.6404 63.8649 64.802C63.9844 64.9636 64.0741 65.1573 64.1338 65.3831C64.1958 65.6066 64.2268 65.8556 64.2268 66.1301ZM63.6092 66.1999V66.1301C63.6092 65.9508 63.5904 65.7826 63.5528 65.6254C63.5151 65.4661 63.4565 65.3266 63.3768 65.2071C63.2993 65.0853 63.1997 64.9902 63.078 64.9215C62.9562 64.8507 62.8112 64.8153 62.643 64.8153C62.4881 64.8153 62.353 64.8418 62.2379 64.895C62.125 64.9481 62.0287 65.02 61.9491 65.1108C61.8694 65.1993 61.8041 65.3012 61.7532 65.4163C61.7045 65.5292 61.6679 65.6465 61.6436 65.7682V66.6282C61.6879 66.7831 61.7498 66.9292 61.8295 67.0665C61.9092 67.2015 62.0155 67.3111 62.1483 67.3952C62.2811 67.4771 62.4482 67.518 62.6496 67.518C62.8157 67.518 62.9584 67.4837 63.078 67.4151C63.1997 67.3443 63.2993 67.248 63.3768 67.1262C63.4565 67.0045 63.5151 66.865 63.5528 66.7079C63.5904 66.5485 63.6092 66.3792 63.6092 66.1999ZM67.1022 67.0034C67.1022 66.9148 67.0823 66.8329 67.0424 66.7577C67.0048 66.6802 66.9262 66.6105 66.8067 66.5485C66.6894 66.4843 66.5123 66.429 66.2754 66.3825C66.0762 66.3404 65.8958 66.2906 65.7342 66.2331C65.5748 66.1755 65.4387 66.1058 65.3258 66.0239C65.2151 65.942 65.1299 65.8457 65.0701 65.735C65.0104 65.6243 64.9805 65.4948 64.9805 65.3465C64.9805 65.2049 65.0115 65.0709 65.0735 64.9448C65.1377 64.8186 65.2273 64.7068 65.3424 64.6094C65.4597 64.512 65.6003 64.4357 65.7641 64.3803C65.9279 64.325 66.1105 64.2973 66.3119 64.2973C66.5997 64.2973 66.8454 64.3482 67.0491 64.45C67.2527 64.5519 67.4088 64.688 67.5172 64.8584C67.6257 65.0267 67.6799 65.2137 67.6799 65.4196H67.0657C67.0657 65.32 67.0358 65.2237 66.976 65.1307C66.9185 65.0355 66.8332 64.957 66.7203 64.895C66.6097 64.833 66.4735 64.802 66.3119 64.802C66.1415 64.802 66.0032 64.8286 65.8969 64.8817C65.7929 64.9326 65.7165 64.9979 65.6678 65.0776C65.6213 65.1573 65.5981 65.2414 65.5981 65.3299C65.5981 65.3963 65.6091 65.4561 65.6313 65.5092C65.6556 65.5601 65.6977 65.6077 65.7575 65.652C65.8172 65.6941 65.9013 65.7339 66.0098 65.7715C66.1183 65.8092 66.2566 65.8468 66.4248 65.8844C66.7192 65.9508 66.9616 66.0305 67.152 66.1235C67.3423 66.2165 67.484 66.3305 67.577 66.4655C67.67 66.6005 67.7164 66.7643 67.7164 66.9569C67.7164 67.114 67.6832 67.2579 67.6168 67.3885C67.5526 67.5191 67.4586 67.632 67.3346 67.7272C67.2129 67.8202 67.0668 67.8932 66.8963 67.9463C66.7281 67.9972 66.5388 68.0227 66.3285 68.0227C66.012 68.0227 65.7442 67.9663 65.525 67.8534C65.3059 67.7405 65.1399 67.5944 65.027 67.4151C64.9141 67.2358 64.8576 67.0465 64.8576 66.8473H65.4752C65.4841 67.0155 65.5328 67.1495 65.6213 67.2491C65.7099 67.3465 65.8183 67.4162 65.9467 67.4583C66.0751 67.4981 66.2024 67.518 66.3285 67.518C66.4968 67.518 66.6373 67.4959 66.7502 67.4516C66.8653 67.4073 66.9528 67.3465 67.0125 67.269C67.0723 67.1915 67.1022 67.103 67.1022 67.0034ZM68.4967 67.6309C68.4967 67.5269 68.5288 67.4394 68.593 67.3686C68.6594 67.2956 68.7546 67.259 68.8785 67.259C69.0025 67.259 69.0966 67.2956 69.1608 67.3686C69.2272 67.4394 69.2604 67.5269 69.2604 67.6309C69.2604 67.7327 69.2272 67.8191 69.1608 67.8899C69.0966 67.9607 69.0025 67.9961 68.8785 67.9961C68.7546 67.9961 68.6594 67.9607 68.593 67.8899C68.5288 67.8191 68.4967 67.7327 68.4967 67.6309ZM68.5 64.6991C68.5 64.595 68.5321 64.5076 68.5963 64.4368C68.6627 64.3637 68.7579 64.3272 68.8819 64.3272C69.0058 64.3272 69.0999 64.3637 69.1641 64.4368C69.2305 64.5076 69.2637 64.595 69.2637 64.6991C69.2637 64.8009 69.2305 64.8872 69.1641 64.9581C69.0999 65.0289 69.0058 65.0643 68.8819 65.0643C68.7579 65.0643 68.6627 65.0289 68.5963 64.9581C68.5321 64.8872 68.5 64.8009 68.5 64.6991ZM72.3084 63.1219L70.293 68.3713H69.7651L71.7838 63.1219H72.3084ZM74.3737 63.1219L72.3582 68.3713H71.8303L73.8491 63.1219H74.3737ZM75.6553 65.0776V67.9563H75.0377V64.3637H75.6221L75.6553 65.0776ZM75.5291 66.0239L75.2436 66.0139C75.2458 65.7682 75.2779 65.5413 75.3399 65.3333C75.4019 65.123 75.4937 64.9403 75.6155 64.7854C75.7372 64.6305 75.8888 64.5109 76.0703 64.4268C76.2519 64.3405 76.4621 64.2973 76.7012 64.2973C76.8694 64.2973 77.0244 64.3217 77.166 64.3704C77.3077 64.4168 77.4306 64.491 77.5346 64.5928C77.6386 64.6946 77.7194 64.8252 77.777 64.9846C77.8345 65.144 77.8633 65.3366 77.8633 65.5624V67.9563H77.2491V65.5922C77.2491 65.4041 77.217 65.2536 77.1528 65.1407C77.0908 65.0278 77.0022 64.9459 76.8871 64.895C76.772 64.8418 76.637 64.8153 76.4821 64.8153C76.3005 64.8153 76.1489 64.8474 76.0272 64.9116C75.9054 64.9758 75.808 65.0643 75.735 65.1772C75.6619 65.2901 75.6088 65.4196 75.5756 65.5657C75.5446 65.7096 75.5291 65.8623 75.5291 66.0239ZM77.8567 65.6852L77.445 65.8114C77.4472 65.6144 77.4793 65.4251 77.5412 65.2436C77.6054 65.0621 77.6973 64.9005 77.8168 64.7588C77.9386 64.6172 78.088 64.5054 78.2651 64.4235C78.4422 64.3394 78.6447 64.2973 78.8727 64.2973C79.0653 64.2973 79.2357 64.3228 79.384 64.3737C79.5345 64.4246 79.6607 64.5032 79.7625 64.6094C79.8666 64.7135 79.9451 64.8474 79.9983 65.0112C80.0514 65.175 80.078 65.3698 80.078 65.5956V67.9563H79.4604V65.5889C79.4604 65.3875 79.4283 65.2314 79.3641 65.1208C79.3021 65.0079 79.2136 64.9293 79.0985 64.885C78.9856 64.8385 78.8505 64.8153 78.6934 64.8153C78.5584 64.8153 78.4388 64.8385 78.3348 64.885C78.2308 64.9315 78.1433 64.9957 78.0725 65.0776C78.0017 65.1573 77.9474 65.2491 77.9098 65.3532C77.8744 65.4572 77.8567 65.5679 77.8567 65.6852ZM81.675 64.3637V67.9563H81.0574V64.3637H81.675ZM81.011 63.4108C81.011 63.3112 81.0408 63.2271 81.1006 63.1584C81.1626 63.0898 81.2533 63.0555 81.3729 63.0555C81.4902 63.0555 81.5798 63.0898 81.6418 63.1584C81.706 63.2271 81.7381 63.3112 81.7381 63.4108C81.7381 63.506 81.706 63.5879 81.6418 63.6565C81.5798 63.7229 81.4902 63.7561 81.3729 63.7561C81.2533 63.7561 81.1626 63.7229 81.1006 63.6565C81.0408 63.5879 81.011 63.506 81.011 63.4108ZM84.0989 67.518C84.2449 67.518 84.38 67.4881 84.5039 67.4284C84.6279 67.3686 84.7297 67.2867 84.8094 67.1827C84.8891 67.0764 84.9345 66.9558 84.9455 66.8208H85.5299C85.5188 67.0333 85.4469 67.2314 85.3141 67.4151C85.1835 67.5966 85.0119 67.7438 84.7994 67.8567C84.5869 67.9674 84.3534 68.0227 84.0989 68.0227C83.8288 68.0227 83.5931 67.9751 83.3916 67.8799C83.1924 67.7847 83.0264 67.6542 82.8936 67.4881C82.763 67.3221 82.6645 67.1318 82.5981 66.917C82.5339 66.7001 82.5018 66.471 82.5018 66.2297V66.0903C82.5018 65.849 82.5339 65.621 82.5981 65.4063C82.6645 65.1894 82.763 64.9979 82.8936 64.8319C83.0264 64.6659 83.1924 64.5353 83.3916 64.4401C83.5931 64.3449 83.8288 64.2973 84.0989 64.2973C84.38 64.2973 84.6257 64.3549 84.836 64.47C85.0463 64.5829 85.2112 64.7378 85.3307 64.9348C85.4524 65.1296 85.5188 65.351 85.5299 65.5989H84.9455C84.9345 65.4506 84.8924 65.3167 84.8194 65.1971C84.7485 65.0776 84.6511 64.9824 84.5272 64.9116C84.4054 64.8385 84.2627 64.802 84.0989 64.802C83.9107 64.802 83.7524 64.8396 83.6241 64.9149C83.4979 64.9879 83.3972 65.0875 83.3219 65.2137C83.2489 65.3377 83.1957 65.476 83.1625 65.6288C83.1315 65.7793 83.116 65.9331 83.116 66.0903V66.2297C83.116 66.3869 83.1315 66.5418 83.1625 66.6946C83.1935 66.8473 83.2455 66.9857 83.3186 67.1096C83.3938 67.2336 83.4946 67.3332 83.6207 67.4084C83.7491 67.4815 83.9085 67.518 84.0989 67.518ZM86.8348 64.9282V67.9563H86.2205V64.3637H86.8182L86.8348 64.9282ZM87.9571 64.3438L87.9537 64.9149C87.9028 64.9038 87.8541 64.8972 87.8076 64.895C87.7634 64.8905 87.7125 64.8883 87.6549 64.8883C87.5132 64.8883 87.3882 64.9105 87.2797 64.9547C87.1712 64.999 87.0794 65.061 87.0041 65.1407C86.9289 65.2204 86.8691 65.3155 86.8248 65.4262C86.7828 65.5347 86.7551 65.6542 86.7418 65.7848L86.5692 65.8844C86.5692 65.6675 86.5902 65.4639 86.6323 65.2735C86.6765 65.0831 86.744 64.9149 86.8348 64.7688C86.9255 64.6205 87.0407 64.5054 87.1801 64.4235C87.3218 64.3394 87.49 64.2973 87.6848 64.2973C87.7291 64.2973 87.78 64.3028 87.8375 64.3139C87.8951 64.3228 87.9349 64.3327 87.9571 64.3438ZM88.2957 66.1999V66.1235C88.2957 65.8645 88.3334 65.6243 88.4086 65.403C88.4839 65.1794 88.5923 64.9857 88.734 64.8219C88.8757 64.6559 89.0472 64.5275 89.2487 64.4368C89.4501 64.3438 89.6759 64.2973 89.926 64.2973C90.1783 64.2973 90.4052 64.3438 90.6067 64.4368C90.8103 64.5275 90.983 64.6559 91.1246 64.8219C91.2685 64.9857 91.3781 65.1794 91.4533 65.403C91.5286 65.6243 91.5662 65.8645 91.5662 66.1235V66.1999C91.5662 66.4588 91.5286 66.699 91.4533 66.9204C91.3781 67.1417 91.2685 67.3354 91.1246 67.5014C90.983 67.6652 90.8114 67.7936 90.61 67.8866C90.4108 67.9773 90.185 68.0227 89.9326 68.0227C89.6803 68.0227 89.4534 67.9773 89.252 67.8866C89.0505 67.7936 88.8779 67.6652 88.734 67.5014C88.5923 67.3354 88.4839 67.1417 88.4086 66.9204C88.3334 66.699 88.2957 66.4588 88.2957 66.1999ZM88.91 66.1235V66.1999C88.91 66.3792 88.931 66.5485 88.9731 66.7079C89.0151 66.865 89.0782 67.0045 89.1623 67.1262C89.2487 67.248 89.356 67.3443 89.4844 67.4151C89.6128 67.4837 89.7622 67.518 89.9326 67.518C90.1009 67.518 90.2481 67.4837 90.3742 67.4151C90.5026 67.3443 90.6089 67.248 90.693 67.1262C90.7771 67.0045 90.8402 66.865 90.8823 66.7079C90.9265 66.5485 90.9487 66.3792 90.9487 66.1999V66.1235C90.9487 65.9464 90.9265 65.7793 90.8823 65.6221C90.8402 65.4627 90.776 65.3222 90.6897 65.2004C90.6056 65.0765 90.4993 64.9791 90.3709 64.9083C90.2448 64.8374 90.0964 64.802 89.926 64.802C89.7578 64.802 89.6095 64.8374 89.4811 64.9083C89.3549 64.9791 89.2487 65.0765 89.1623 65.2004C89.0782 65.3222 89.0151 65.4627 88.9731 65.6221C88.931 65.7793 88.91 65.9464 88.91 66.1235ZM93.0039 62.8563V67.9563H92.3864V62.8563H93.0039ZM94.6574 64.3637V67.9563H94.0399V64.3637H94.6574ZM93.9934 63.4108C93.9934 63.3112 94.0233 63.2271 94.083 63.1584C94.145 63.0898 94.2358 63.0555 94.3553 63.0555C94.4726 63.0555 94.5623 63.0898 94.6242 63.1584C94.6884 63.2271 94.7205 63.3112 94.7205 63.4108C94.7205 63.506 94.6884 63.5879 94.6242 63.6565C94.5623 63.7229 94.4726 63.7561 94.3553 63.7561C94.2358 63.7561 94.145 63.7229 94.083 63.6565C94.0233 63.5879 93.9934 63.506 93.9934 63.4108ZM97.1477 64.3637V64.8352H95.2053V64.3637H97.1477ZM95.8627 63.4905H96.477V67.0665C96.477 67.1882 96.4958 67.2801 96.5334 67.342C96.5711 67.404 96.6198 67.445 96.6795 67.4649C96.7393 67.4848 96.8035 67.4948 96.8721 67.4948C96.923 67.4948 96.9761 67.4903 97.0315 67.4815C97.089 67.4704 97.1322 67.4616 97.161 67.4549L97.1643 67.9563C97.1156 67.9718 97.0514 67.9862 96.9717 67.9995C96.8942 68.015 96.8002 68.0227 96.6895 68.0227C96.539 68.0227 96.4006 67.9928 96.2744 67.9331C96.1483 67.8733 96.0476 67.7737 95.9723 67.6342C95.8992 67.4926 95.8627 67.3022 95.8627 67.0631V63.4905ZM97.8781 67.6309C97.8781 67.5269 97.9102 67.4394 97.9744 67.3686C98.0408 67.2956 98.136 67.259 98.26 67.259C98.3839 67.259 98.478 67.2956 98.5422 67.3686C98.6086 67.4394 98.6418 67.5269 98.6418 67.6309C98.6418 67.7327 98.6086 67.8191 98.5422 67.8899C98.478 67.9607 98.3839 67.9961 98.26 67.9961C98.136 67.9961 98.0408 67.9607 97.9744 67.8899C97.9102 67.8191 97.8781 67.7327 97.8781 67.6309ZM101.099 67.518C101.245 67.518 101.38 67.4881 101.504 67.4284C101.628 67.3686 101.73 67.2867 101.809 67.1827C101.889 67.0764 101.934 66.9558 101.946 66.8208H102.53C102.519 67.0333 102.447 67.2314 102.314 67.4151C102.183 67.5966 102.012 67.7438 101.799 67.8567C101.587 67.9674 101.353 68.0227 101.099 68.0227C100.829 68.0227 100.593 67.9751 100.392 67.8799C100.192 67.7847 100.026 67.6542 99.8936 67.4881C99.763 67.3221 99.6645 67.1318 99.5981 66.917C99.5339 66.7001 99.5018 66.471 99.5018 66.2297V66.0903C99.5018 65.849 99.5339 65.621 99.5981 65.4063C99.6645 65.1894 99.763 64.9979 99.8936 64.8319C100.026 64.6659 100.192 64.5353 100.392 64.4401C100.593 64.3449 100.829 64.2973 101.099 64.2973C101.38 64.2973 101.626 64.3549 101.836 64.47C102.046 64.5829 102.211 64.7378 102.331 64.9348C102.452 65.1296 102.519 65.351 102.53 65.5989H101.946C101.934 65.4506 101.892 65.3167 101.819 65.1971C101.749 65.0776 101.651 64.9824 101.527 64.9116C101.405 64.8385 101.263 64.802 101.099 64.802C100.911 64.802 100.752 64.8396 100.624 64.9149C100.498 64.9879 100.397 65.0875 100.322 65.2137C100.249 65.3377 100.196 65.476 100.163 65.6288C100.132 65.7793 100.116 65.9331 100.116 66.0903V66.2297C100.116 66.3869 100.132 66.5418 100.163 66.6946C100.194 66.8473 100.246 66.9857 100.319 67.1096C100.394 67.2336 100.495 67.3332 100.621 67.4084C100.749 67.4815 100.908 67.518 101.099 67.518ZM103.058 66.1999V66.1235C103.058 65.8645 103.095 65.6243 103.171 65.403C103.246 65.1794 103.354 64.9857 103.496 64.8219C103.638 64.6559 103.809 64.5275 104.011 64.4368C104.212 64.3438 104.438 64.2973 104.688 64.2973C104.94 64.2973 105.167 64.3438 105.369 64.4368C105.572 64.5275 105.745 64.6559 105.887 64.8219C106.031 64.9857 106.14 65.1794 106.215 65.403C106.291 65.6243 106.328 65.8645 106.328 66.1235V66.1999C106.328 66.4588 106.291 66.699 106.215 66.9204C106.14 67.1417 106.031 67.3354 105.887 67.5014C105.745 67.6652 105.574 67.7936 105.372 67.8866C105.173 67.9773 104.947 68.0227 104.695 68.0227C104.442 68.0227 104.216 67.9773 104.014 67.8866C103.813 67.7936 103.64 67.6652 103.496 67.5014C103.354 67.3354 103.246 67.1417 103.171 66.9204C103.095 66.699 103.058 66.4588 103.058 66.1999ZM103.672 66.1235V66.1999C103.672 66.3792 103.693 66.5485 103.735 66.7079C103.777 66.865 103.84 67.0045 103.924 67.1262C104.011 67.248 104.118 67.3443 104.247 67.4151C104.375 67.4837 104.524 67.518 104.695 67.518C104.863 67.518 105.01 67.4837 105.136 67.4151C105.265 67.3443 105.371 67.248 105.455 67.1262C105.539 67.0045 105.602 66.865 105.644 66.7079C105.689 66.5485 105.711 66.3792 105.711 66.1999V66.1235C105.711 65.9464 105.689 65.7793 105.644 65.6221C105.602 65.4627 105.538 65.3222 105.452 65.2004C105.368 65.0765 105.261 64.9791 105.133 64.9083C105.007 64.8374 104.859 64.802 104.688 64.802C104.52 64.802 104.372 64.8374 104.243 64.9083C104.117 64.9791 104.011 65.0765 103.924 65.2004C103.84 65.3222 103.777 65.4627 103.735 65.6221C103.693 65.7793 103.672 65.9464 103.672 66.1235ZM107.71 65.0776V67.9563H107.092V64.3637H107.676L107.71 65.0776ZM107.583 66.0239L107.298 66.0139C107.3 65.7682 107.332 65.5413 107.394 65.3333C107.456 65.123 107.548 64.9403 107.67 64.7854C107.791 64.6305 107.943 64.5109 108.125 64.4268C108.306 64.3405 108.516 64.2973 108.755 64.2973C108.924 64.2973 109.079 64.3217 109.22 64.3704C109.362 64.4168 109.485 64.491 109.589 64.5928C109.693 64.6946 109.774 64.8252 109.831 64.9846C109.889 65.144 109.918 65.3366 109.918 65.5624V67.9563H109.303V65.5922C109.303 65.4041 109.271 65.2536 109.207 65.1407C109.145 65.0278 109.057 64.9459 108.941 64.895C108.826 64.8418 108.691 64.8153 108.536 64.8153C108.355 64.8153 108.203 64.8474 108.081 64.9116C107.96 64.9758 107.862 65.0643 107.789 65.1772C107.716 65.2901 107.663 65.4196 107.63 65.5657C107.599 65.7096 107.583 65.8623 107.583 66.0239ZM109.911 65.6852L109.499 65.8114C109.501 65.6144 109.534 65.4251 109.596 65.2436C109.66 65.0621 109.752 64.9005 109.871 64.7588C109.993 64.6172 110.142 64.5054 110.319 64.4235C110.496 64.3394 110.699 64.2973 110.927 64.2973C111.12 64.2973 111.29 64.3228 111.438 64.3737C111.589 64.4246 111.715 64.5032 111.817 64.6094C111.921 64.7135 111.999 64.8474 112.053 65.0112C112.106 65.175 112.132 65.3698 112.132 65.5956V67.9563H111.515V65.5889C111.515 65.3875 111.483 65.2314 111.418 65.1208C111.356 65.0079 111.268 64.9293 111.153 64.885C111.04 64.8385 110.905 64.8153 110.748 64.8153C110.613 64.8153 110.493 64.8385 110.389 64.885C110.285 64.9315 110.198 64.9957 110.127 65.0776C110.056 65.1573 110.002 65.2491 109.964 65.3532C109.929 65.4572 109.911 65.5679 109.911 65.6852Z" fill="#58595B"/>
<path d="M82.8659 35.1898H83.3529L84.595 38.2809L85.8346 35.1898H86.3242L84.7825 38.9814H84.4023L82.8659 35.1898ZM82.707 35.1898H83.1367L83.207 37.5023V38.9814H82.707V35.1898ZM86.0508 35.1898H86.4805V38.9814H85.9805V37.5023L86.0508 35.1898ZM87.8138 36.1637V38.9814H87.3294V36.1637H87.8138ZM87.293 35.4163C87.293 35.3382 87.3164 35.2722 87.3633 35.2184C87.4119 35.1646 87.4831 35.1377 87.5768 35.1377C87.6688 35.1377 87.7391 35.1646 87.7878 35.2184C87.8381 35.2722 87.8633 35.3382 87.8633 35.4163C87.8633 35.491 87.8381 35.5552 87.7878 35.609C87.7391 35.6611 87.6688 35.6872 87.5768 35.6872C87.4831 35.6872 87.4119 35.6611 87.3633 35.609C87.3164 35.5552 87.293 35.491 87.293 35.4163ZM89.7148 38.6377C89.8294 38.6377 89.9353 38.6143 90.0325 38.5674C90.1298 38.5205 90.2096 38.4563 90.2721 38.3747C90.3346 38.2913 90.3702 38.1967 90.3789 38.0908H90.8372C90.8286 38.2575 90.7721 38.4129 90.668 38.557C90.5655 38.6993 90.431 38.8148 90.2643 38.9033C90.0977 38.9901 89.9145 39.0335 89.7148 39.0335C89.503 39.0335 89.3181 38.9962 89.1602 38.9215C89.0039 38.8469 88.8737 38.7445 88.7695 38.6143C88.6671 38.484 88.5898 38.3347 88.5378 38.1663C88.4874 37.9962 88.4622 37.8165 88.4622 37.6273V37.5179C88.4622 37.3287 88.4874 37.1498 88.5378 36.9814C88.5898 36.8113 88.6671 36.6611 88.7695 36.5309C88.8737 36.4007 89.0039 36.2983 89.1602 36.2236C89.3181 36.149 89.503 36.1117 89.7148 36.1117C89.9353 36.1117 90.128 36.1568 90.293 36.2471C90.4579 36.3356 90.5872 36.4571 90.681 36.6117C90.7765 36.7644 90.8286 36.938 90.8372 37.1325H90.3789C90.3702 37.0162 90.3372 36.9111 90.2799 36.8174C90.2244 36.7236 90.148 36.649 90.0508 36.5934C89.9553 36.5361 89.8433 36.5075 89.7148 36.5075C89.5673 36.5075 89.4431 36.537 89.3424 36.596C89.2435 36.6533 89.1645 36.7314 89.1055 36.8304C89.0482 36.9276 89.0065 37.0361 88.9805 37.1559C88.9562 37.274 88.944 37.3946 88.944 37.5179V37.6273C88.944 37.7505 88.9562 37.8721 88.9805 37.9919C89.0048 38.1117 89.0456 38.2202 89.1029 38.3174C89.1619 38.4146 89.2409 38.4927 89.3398 38.5518C89.4405 38.609 89.5655 38.6377 89.7148 38.6377ZM91.8607 36.6064V38.9814H91.3789V36.1637H91.8477L91.8607 36.6064ZM92.7409 36.1481L92.7383 36.596C92.6983 36.5873 92.6602 36.5821 92.6237 36.5804C92.589 36.5769 92.549 36.5752 92.5039 36.5752C92.3928 36.5752 92.2947 36.5926 92.2096 36.6273C92.1246 36.662 92.0525 36.7106 91.9935 36.7731C91.9345 36.8356 91.8876 36.9103 91.8529 36.9971C91.8199 37.0821 91.7982 37.1759 91.7878 37.2783L91.6523 37.3564C91.6523 37.1863 91.6688 37.0266 91.7018 36.8773C91.7365 36.728 91.7895 36.596 91.8607 36.4814C91.9319 36.3651 92.0221 36.2748 92.1315 36.2106C92.2426 36.1446 92.3746 36.1117 92.5273 36.1117C92.5621 36.1117 92.602 36.116 92.6471 36.1247C92.6923 36.1316 92.7235 36.1394 92.7409 36.1481ZM93.0065 37.6038V37.5439C93.0065 37.3408 93.036 37.1525 93.095 36.9788C93.1541 36.8035 93.2391 36.6516 93.3503 36.5231C93.4614 36.3929 93.5959 36.2922 93.7539 36.221C93.9119 36.1481 94.089 36.1117 94.2852 36.1117C94.4831 36.1117 94.661 36.1481 94.819 36.221C94.9787 36.2922 95.1141 36.3929 95.2253 36.5231C95.3381 36.6516 95.424 36.8035 95.4831 36.9788C95.5421 37.1525 95.5716 37.3408 95.5716 37.5439V37.6038C95.5716 37.807 95.5421 37.9953 95.4831 38.1689C95.424 38.3426 95.3381 38.4945 95.2253 38.6247C95.1141 38.7531 94.9796 38.8538 94.8216 38.9268C94.6654 38.9979 94.4883 39.0335 94.2904 39.0335C94.0924 39.0335 93.9145 38.9979 93.7565 38.9268C93.5985 38.8538 93.4631 38.7531 93.3503 38.6247C93.2391 38.4945 93.1541 38.3426 93.095 38.1689C93.036 37.9953 93.0065 37.807 93.0065 37.6038ZM93.4883 37.5439V37.6038C93.4883 37.7445 93.5048 37.8773 93.5378 38.0023C93.5707 38.1255 93.6202 38.2349 93.6862 38.3304C93.7539 38.4259 93.8381 38.5014 93.9388 38.557C94.0395 38.6108 94.1567 38.6377 94.2904 38.6377C94.4223 38.6377 94.5378 38.6108 94.6367 38.557C94.7374 38.5014 94.8207 38.4259 94.8867 38.3304C94.9527 38.2349 95.0022 38.1255 95.0352 38.0023C95.0699 37.8773 95.0872 37.7445 95.0872 37.6038V37.5439C95.0872 37.4051 95.0699 37.274 95.0352 37.1507C95.0022 37.0257 94.9518 36.9155 94.8841 36.82C94.8181 36.7228 94.7348 36.6464 94.6341 36.5908C94.5352 36.5353 94.4188 36.5075 94.2852 36.5075C94.1532 36.5075 94.0369 36.5353 93.9362 36.5908C93.8372 36.6464 93.7539 36.7228 93.6862 36.82C93.6202 36.9155 93.5707 37.0257 93.5378 37.1507C93.5048 37.274 93.4883 37.4051 93.4883 37.5439ZM96.6992 34.9814V38.9814H96.2148V34.9814H96.6992ZM97.9961 36.1637V38.9814H97.5117V36.1637H97.9961ZM97.4753 35.4163C97.4753 35.3382 97.4987 35.2722 97.5456 35.2184C97.5942 35.1646 97.6654 35.1377 97.7591 35.1377C97.8511 35.1377 97.9214 35.1646 97.97 35.2184C98.0204 35.2722 98.0456 35.3382 98.0456 35.4163C98.0456 35.491 98.0204 35.5552 97.97 35.609C97.9214 35.6611 97.8511 35.6872 97.7591 35.6872C97.6654 35.6872 97.5942 35.6611 97.5456 35.609C97.4987 35.5552 97.4753 35.491 97.4753 35.4163ZM99.9492 36.1637V36.5335H98.4258V36.1637H99.9492ZM98.9414 35.4788H99.4232V38.2835C99.4232 38.379 99.4379 38.4511 99.4674 38.4997C99.497 38.5483 99.5352 38.5804 99.582 38.596C99.6289 38.6117 99.6792 38.6195 99.7331 38.6195C99.773 38.6195 99.8147 38.616 99.8581 38.609C99.9032 38.6004 99.9371 38.5934 99.9596 38.5882L99.9622 38.9814C99.924 38.9936 99.8737 39.0049 99.8112 39.0153C99.7504 39.0275 99.6766 39.0335 99.5898 39.0335C99.4718 39.0335 99.3633 39.0101 99.2643 38.9632C99.1654 38.9163 99.0864 38.8382 99.0273 38.7288C98.97 38.6177 98.9414 38.4684 98.9414 38.2809V35.4788Z" fill="#58595B"/>
</svg>
