<svg width="126" height="126" viewBox="0 0 126 126" fill="none" xmlns="http://www.w3.org/2000/svg">
<path fill-rule="evenodd" clip-rule="evenodd" d="M0 0.285934V62.8153V125.343H125.057V62.8153V0.285934H0Z" fill="#0075C9"/>
<path fill-rule="evenodd" clip-rule="evenodd" d="M99.4179 85.689H25.6405C23.4312 85.689 21.6405 83.8983 21.6405 81.689V43.941C21.6405 41.7316 23.4312 39.941 25.6405 39.941H99.4179C101.627 39.941 103.418 41.7316 103.418 43.941V81.689C103.418 83.8983 101.627 85.689 99.4179 85.689Z" fill="white"/>
<path d="M30.503 75.9789C30.5 76.0484 30.4894 76.1182 30.4713 76.1885C30.4531 76.258 30.4259 76.3218 30.3897 76.38C30.3534 76.4382 30.3062 76.485 30.248 76.5205C30.1906 76.5552 30.1211 76.5726 30.0395 76.5726C29.9874 76.5726 29.9417 76.5636 29.9024 76.5454C29.8639 76.5265 29.8322 76.4997 29.8072 76.465C29.7831 76.4302 29.7661 76.3883 29.7562 76.3392C29.7472 76.2901 29.7457 76.2353 29.7517 76.1749L29.8095 75.5471H29.9761L29.9183 76.1749C29.9138 76.23 29.9149 76.275 29.9217 76.3097C29.9292 76.3445 29.9406 76.3713 29.9557 76.3902C29.9708 76.4083 29.9878 76.4208 30.0067 76.4276C30.0263 76.4344 30.0452 76.4378 30.0633 76.4378C30.1087 76.4378 30.1491 76.4261 30.1846 76.4027C30.2201 76.3785 30.2499 76.3456 30.2741 76.3041C30.299 76.2618 30.3183 76.213 30.3319 76.1579C30.3455 76.102 30.3538 76.0423 30.3568 75.9789C30.3621 75.8663 30.3568 75.7628 30.3409 75.6684C30.3258 75.574 30.2998 75.4901 30.2628 75.4168C30.2265 75.3435 30.1789 75.2816 30.12 75.231C30.0611 75.1804 29.9908 75.1418 29.9092 75.1154C29.8276 75.089 29.7343 75.0757 29.6293 75.0757C29.5342 75.0757 29.4461 75.0905 29.3653 75.1199C29.2852 75.1486 29.2131 75.1902 29.1489 75.2446C29.0854 75.299 29.0307 75.3643 28.9846 75.4406C28.9393 75.5169 28.9034 75.603 28.8769 75.699C28.8512 75.7942 28.8361 75.8969 28.8316 76.0072C28.8263 76.1205 28.8324 76.2248 28.8497 76.3199C28.8671 76.4144 28.8951 76.4986 28.9336 76.5726C28.9729 76.6474 29.0224 76.7105 29.082 76.7619C29.1417 76.814 29.2108 76.8533 29.2894 76.8797C29.368 76.9069 29.4556 76.9205 29.5523 76.9205C29.6188 76.9205 29.686 76.9126 29.754 76.8967C29.8227 76.8808 29.8801 76.8593 29.9262 76.8321L29.9693 76.9613C29.9164 76.9953 29.8503 77.0206 29.771 77.0372C29.6924 77.0538 29.618 77.0621 29.5478 77.0621C29.4329 77.0621 29.3279 77.0463 29.2327 77.0145C29.1383 76.9836 29.0545 76.9379 28.9812 76.8774C28.9087 76.8178 28.8482 76.7449 28.7999 76.6587C28.7515 76.5734 28.716 76.4759 28.6934 76.3664C28.6707 76.2569 28.662 76.1371 28.6673 76.0072C28.6726 75.8833 28.6911 75.7666 28.7228 75.657C28.7553 75.5475 28.7995 75.4482 28.8554 75.359C28.9113 75.2699 28.9778 75.1932 29.0548 75.129C29.1326 75.064 29.2199 75.0142 29.3166 74.9794C29.414 74.9447 29.5198 74.9273 29.6339 74.9273C29.7502 74.9273 29.8556 74.9432 29.95 74.9749C30.0444 75.0066 30.1272 75.0523 30.1982 75.112C30.2699 75.1717 30.3292 75.2446 30.3761 75.3307C30.4229 75.4168 30.4569 75.5143 30.4781 75.6231C30.5 75.7318 30.5083 75.8504 30.503 75.9789ZM29.3393 76.0752C29.334 76.1281 29.334 76.1753 29.3393 76.2168C29.3445 76.2584 29.3547 76.2935 29.3698 76.3222C29.385 76.3509 29.4046 76.3728 29.4288 76.3879C29.4537 76.4023 29.4828 76.4095 29.516 76.4095C29.5379 76.4095 29.561 76.4042 29.5851 76.3936C29.6093 76.3823 29.6331 76.3649 29.6565 76.3415C29.6799 76.318 29.7019 76.2875 29.7223 76.2497C29.7427 76.2119 29.7596 76.1666 29.7732 76.1137L29.848 76.1953C29.8307 76.2572 29.808 76.3116 29.78 76.3585C29.7528 76.4053 29.7223 76.4446 29.6883 76.4763C29.6543 76.508 29.618 76.5322 29.5795 76.5488C29.5417 76.5647 29.5032 76.5726 29.4639 76.5726C29.4088 76.5726 29.3604 76.5609 29.3189 76.5375C29.2773 76.5133 29.2437 76.4793 29.218 76.4355C29.1923 76.3917 29.1742 76.3396 29.1636 76.2791C29.1538 76.218 29.1523 76.15 29.1591 76.0752C29.1659 75.9959 29.1799 75.9226 29.201 75.8553C29.2222 75.7881 29.2482 75.7281 29.2792 75.6752C29.3109 75.6223 29.3464 75.5774 29.3857 75.5403C29.4257 75.5033 29.4681 75.4754 29.5126 75.4565C29.5572 75.4368 29.6029 75.427 29.6497 75.427C29.7313 75.427 29.7955 75.4391 29.8424 75.4633C29.8892 75.4867 29.9338 75.5147 29.9761 75.5471L29.8798 75.6593C29.8579 75.6382 29.8291 75.6185 29.7936 75.6004C29.7581 75.5823 29.7162 75.5732 29.6679 75.5732C29.6263 75.5732 29.5874 75.5838 29.5511 75.6049C29.5149 75.6261 29.482 75.6578 29.4526 75.7001C29.4239 75.7424 29.3997 75.7949 29.38 75.8576C29.3604 75.9196 29.3468 75.9921 29.3393 76.0752ZM30.9891 75.5664V76.5488H30.7783V75.3228H30.9778L30.9891 75.5664ZM30.946 75.8893L30.8486 75.8859C30.8493 75.8021 30.8603 75.7247 30.8815 75.6536C30.9026 75.5819 30.934 75.5196 30.9755 75.4667C31.0171 75.4138 31.0688 75.373 31.1307 75.3443C31.1927 75.3148 31.2645 75.3001 31.346 75.3001C31.4035 75.3001 31.4563 75.3084 31.5047 75.325C31.553 75.3409 31.595 75.3662 31.6305 75.401C31.666 75.4357 31.6935 75.4803 31.7132 75.5347C31.7328 75.5891 31.7426 75.6548 31.7426 75.7318V76.5488H31.533V75.742C31.533 75.6778 31.5221 75.6265 31.5001 75.5879C31.479 75.5494 31.4488 75.5214 31.4095 75.5041C31.3702 75.4859 31.3241 75.4769 31.2713 75.4769C31.2093 75.4769 31.1576 75.4878 31.116 75.5097C31.0745 75.5316 31.0412 75.5619 31.0163 75.6004C30.9914 75.6389 30.9732 75.6831 30.9619 75.733C30.9513 75.7821 30.946 75.8342 30.946 75.8893ZM31.7404 75.7738L31.5999 75.8168C31.6006 75.7496 31.6116 75.685 31.6327 75.6231C31.6546 75.5611 31.686 75.506 31.7268 75.4576C31.7683 75.4093 31.8193 75.3711 31.8797 75.3432C31.9402 75.3145 32.0093 75.3001 32.0871 75.3001C32.1528 75.3001 32.211 75.3088 32.2616 75.3262C32.313 75.3435 32.356 75.3704 32.3908 75.4066C32.4263 75.4421 32.4531 75.4878 32.4712 75.5437C32.4894 75.5996 32.4984 75.6661 32.4984 75.7432V76.5488H32.2877V75.7409C32.2877 75.6722 32.2767 75.6189 32.2548 75.5811C32.2337 75.5426 32.2034 75.5158 32.1642 75.5007C32.1256 75.4848 32.0796 75.4769 32.0259 75.4769C31.9798 75.4769 31.939 75.4848 31.9035 75.5007C31.868 75.5165 31.8382 75.5384 31.814 75.5664C31.7899 75.5936 31.7713 75.6249 31.7585 75.6604C31.7464 75.696 31.7404 75.7337 31.7404 75.7738ZM33.0435 75.3228V76.5488H32.8327V75.3228H33.0435ZM32.8169 74.9976C32.8169 74.9636 32.8271 74.9349 32.8474 74.9114C32.8686 74.888 32.8996 74.8763 32.9404 74.8763C32.9804 74.8763 33.011 74.888 33.0321 74.9114C33.0541 74.9349 33.065 74.9636 33.065 74.9976C33.065 75.03 33.0541 75.058 33.0321 75.0814C33.011 75.1041 32.9804 75.1154 32.9404 75.1154C32.8996 75.1154 32.8686 75.1041 32.8474 75.0814C32.8271 75.058 32.8169 75.03 32.8169 74.9976ZM33.8707 76.3993C33.9205 76.3993 33.9666 76.3891 34.0089 76.3687C34.0512 76.3483 34.086 76.3203 34.1132 76.2848C34.1404 76.2485 34.1558 76.2074 34.1596 76.1613H34.3591C34.3553 76.2338 34.3307 76.3014 34.2854 76.3641C34.2408 76.4261 34.1823 76.4763 34.1098 76.5148C34.0372 76.5526 33.9575 76.5715 33.8707 76.5715C33.7785 76.5715 33.6981 76.5552 33.6293 76.5228C33.5613 76.4903 33.5047 76.4457 33.4593 76.3891C33.4148 76.3324 33.3812 76.2674 33.3585 76.1942C33.3366 76.1201 33.3256 76.0419 33.3256 75.9596V75.912C33.3256 75.8297 33.3366 75.7519 33.3585 75.6786C33.3812 75.6045 33.4148 75.5392 33.4593 75.4825C33.5047 75.4259 33.5613 75.3813 33.6293 75.3488C33.6981 75.3164 33.7785 75.3001 33.8707 75.3001C33.9666 75.3001 34.0505 75.3198 34.1222 75.359C34.194 75.3976 34.2503 75.4504 34.2911 75.5177C34.3326 75.5842 34.3553 75.6597 34.3591 75.7443H34.1596C34.1558 75.6937 34.1415 75.648 34.1166 75.6072C34.0924 75.5664 34.0591 75.5339 34.0168 75.5097C33.9753 75.4848 33.9266 75.4723 33.8707 75.4723C33.8065 75.4723 33.7524 75.4852 33.7086 75.5109C33.6656 75.5358 33.6312 75.5698 33.6055 75.6129C33.5806 75.6552 33.5625 75.7024 33.5511 75.7545C33.5406 75.8059 33.5353 75.8584 33.5353 75.912V75.9596C33.5353 76.0132 33.5406 76.0661 33.5511 76.1182C33.5617 76.1704 33.5795 76.2176 33.6044 76.2599C33.6301 76.3022 33.6644 76.3362 33.7075 76.3619C33.7513 76.3868 33.8057 76.3993 33.8707 76.3993ZM34.8044 75.5154V76.5488H34.5947V75.3228H34.7987L34.8044 75.5154ZM35.1874 75.316L35.1862 75.5109C35.1689 75.5071 35.1523 75.5048 35.1364 75.5041C35.1213 75.5026 35.1039 75.5018 35.0843 75.5018C35.0359 75.5018 34.9932 75.5094 34.9562 75.5245C34.9192 75.5396 34.8879 75.5607 34.8622 75.5879C34.8365 75.6151 34.8161 75.6476 34.801 75.6854C34.7866 75.7224 34.7772 75.7632 34.7726 75.8078L34.7137 75.8418C34.7137 75.7677 34.7209 75.6982 34.7353 75.6333C34.7504 75.5683 34.7734 75.5109 34.8044 75.461C34.8353 75.4104 34.8746 75.3711 34.9222 75.3432C34.9706 75.3145 35.028 75.3001 35.0945 75.3001C35.1096 75.3001 35.1269 75.302 35.1466 75.3058C35.1662 75.3088 35.1798 75.3122 35.1874 75.316ZM35.303 75.9494V75.9233C35.303 75.835 35.3158 75.753 35.3415 75.6774C35.3672 75.6011 35.4042 75.535 35.4525 75.4791C35.5009 75.4225 35.5594 75.3787 35.6282 75.3477C35.6969 75.316 35.774 75.3001 35.8593 75.3001C35.9454 75.3001 36.0229 75.316 36.0916 75.3477C36.1611 75.3787 36.22 75.4225 36.2684 75.4791C36.3175 75.535 36.3549 75.6011 36.3806 75.6774C36.4063 75.753 36.4191 75.835 36.4191 75.9233V75.9494C36.4191 76.0378 36.4063 76.1197 36.3806 76.1953C36.3549 76.2708 36.3175 76.3369 36.2684 76.3936C36.22 76.4495 36.1615 76.4933 36.0928 76.525C36.0248 76.556 35.9477 76.5715 35.8616 76.5715C35.7755 76.5715 35.698 76.556 35.6293 76.525C35.5606 76.4933 35.5016 76.4495 35.4525 76.3936C35.4042 76.3369 35.3672 76.2708 35.3415 76.1953C35.3158 76.1197 35.303 76.0378 35.303 75.9494ZM35.5126 75.9233V75.9494C35.5126 76.0106 35.5198 76.0684 35.5341 76.1228C35.5485 76.1764 35.57 76.224 35.5987 76.2655C35.6282 76.3071 35.6648 76.34 35.7086 76.3641C35.7524 76.3875 35.8034 76.3993 35.8616 76.3993C35.919 76.3993 35.9692 76.3875 36.0123 76.3641C36.0561 76.34 36.0924 76.3071 36.1211 76.2655C36.1498 76.224 36.1713 76.1764 36.1857 76.1228C36.2008 76.0684 36.2083 76.0106 36.2083 75.9494V75.9233C36.2083 75.8629 36.2008 75.8059 36.1857 75.7522C36.1713 75.6978 36.1494 75.6499 36.12 75.6083C36.0912 75.566 36.055 75.5328 36.0112 75.5086C35.9681 75.4844 35.9175 75.4723 35.8593 75.4723C35.8019 75.4723 35.7513 75.4844 35.7075 75.5086C35.6644 75.5328 35.6282 75.566 35.5987 75.6083C35.57 75.6499 35.5485 75.6978 35.5341 75.7522C35.5198 75.8059 35.5126 75.8629 35.5126 75.9233ZM36.9097 74.8083V76.5488H36.699V74.8083H36.9097ZM37.4741 75.3228V76.5488H37.2633V75.3228H37.4741ZM37.2474 74.9976C37.2474 74.9636 37.2576 74.9349 37.278 74.9114C37.2992 74.888 37.3301 74.8763 37.3709 74.8763C37.411 74.8763 37.4416 74.888 37.4627 74.9114C37.4846 74.9349 37.4956 74.9636 37.4956 74.9976C37.4956 75.03 37.4846 75.058 37.4627 75.0814C37.4416 75.1041 37.411 75.1154 37.3709 75.1154C37.3301 75.1154 37.2992 75.1041 37.278 75.0814C37.2576 75.058 37.2474 75.03 37.2474 74.9976ZM38.3239 75.3228V75.4837H37.661V75.3228H38.3239ZM37.8854 75.0248H38.095V76.2451C38.095 76.2867 38.1014 76.318 38.1143 76.3392C38.1271 76.3603 38.1437 76.3743 38.1641 76.3811C38.1845 76.3879 38.2064 76.3913 38.2299 76.3913C38.2472 76.3913 38.2654 76.3898 38.2842 76.3868C38.3039 76.383 38.3186 76.38 38.3284 76.3777L38.3296 76.5488C38.313 76.5541 38.291 76.559 38.2638 76.5636C38.2374 76.5688 38.2053 76.5715 38.1675 76.5715C38.1162 76.5715 38.0689 76.5613 38.0259 76.5409C37.9828 76.5205 37.9485 76.4865 37.9228 76.4389C37.8978 76.3906 37.8854 76.3256 37.8854 76.244V75.0248Z" fill="#58595B"/>
<path d="M28.9548 70.9202H29.3533L29.9401 72.5974L30.5268 70.9202H30.9254L30.1001 73.2046H29.78L28.9548 70.9202ZM28.7398 70.9202H29.1368L29.2089 72.555V73.2046H28.7398V70.9202ZM30.7434 70.9202H31.1419V73.2046H30.6712V72.555L30.7434 70.9202ZM32.055 70.9202V73.2046H31.5859V70.9202H32.055ZM33.8201 72.4468H34.2892C34.2798 72.6005 34.2374 72.737 34.1621 72.8563C34.0878 72.9755 33.9838 73.0686 33.8499 73.1356C33.717 73.2025 33.557 73.236 33.3698 73.236C33.2233 73.236 33.0921 73.2109 32.976 73.1607C32.8599 73.1094 32.7605 73.0362 32.6779 72.941C32.5963 72.8458 32.5341 72.7308 32.4912 72.5958C32.4483 72.4609 32.4268 72.3098 32.4268 72.1424V71.984C32.4268 71.8166 32.4488 71.6655 32.4927 71.5305C32.5377 71.3946 32.6015 71.279 32.6841 71.1838C32.7678 71.0886 32.8677 71.0154 32.9838 70.9641C33.0999 70.9129 33.2296 70.8873 33.3729 70.8873C33.5633 70.8873 33.7238 70.9218 33.8546 70.9908C33.9864 71.0598 34.0884 71.155 34.1605 71.2764C34.2337 71.3977 34.2777 71.5358 34.2923 71.6906H33.8216C33.8164 71.5985 33.7981 71.5206 33.7667 71.4568C33.7353 71.3919 33.6878 71.3433 33.6239 71.3109C33.5612 71.2774 33.4775 71.2607 33.3729 71.2607C33.2945 71.2607 33.226 71.2753 33.1674 71.3046C33.1088 71.3339 33.0597 71.3783 33.0199 71.438C32.9802 71.4976 32.9503 71.5729 32.9305 71.6639C32.9116 71.7538 32.9022 71.8595 32.9022 71.9808V72.1424C32.9022 72.2606 32.9111 72.3647 32.9289 72.4546C32.9467 72.5435 32.9739 72.6189 33.0105 72.6806C33.0481 72.7412 33.0963 72.7873 33.1548 72.8186C33.2145 72.849 33.2861 72.8641 33.3698 72.8641C33.4681 72.8641 33.5492 72.8484 33.613 72.8171C33.6768 72.7857 33.7254 72.7391 33.7589 72.6774C33.7934 72.6157 33.8138 72.5388 33.8201 72.4468ZM34.5983 70.9202H35.4502C35.6249 70.9202 35.775 70.9464 35.9005 70.9987C36.027 71.051 36.1243 71.1284 36.1923 71.2309C36.2603 71.3334 36.2943 71.4594 36.2943 71.609C36.2943 71.7314 36.2734 71.8365 36.2315 71.9243C36.1907 72.0111 36.1327 72.0838 36.0574 72.1424C35.9831 72.1999 35.8958 72.246 35.7954 72.2805L35.6463 72.3589H34.9058L34.9026 71.9918H35.4533C35.536 71.9918 35.6045 71.9772 35.6589 71.9479C35.7133 71.9186 35.7541 71.8778 35.7812 71.8255C35.8095 71.7732 35.8236 71.7125 35.8236 71.6435C35.8236 71.5703 35.81 71.507 35.7828 71.4536C35.7556 71.4003 35.7143 71.3595 35.6589 71.3313C35.6034 71.303 35.5339 71.2889 35.4502 71.2889H35.0689V73.2046H34.5983V70.9202ZM35.8754 73.2046L35.3545 72.1863L35.8518 72.1832L36.379 73.1826V73.2046H35.8754ZM38.5332 72.0091V72.1173C38.5332 72.2909 38.5096 72.4468 38.4626 72.5849C38.4155 72.7229 38.3491 72.8406 38.2633 72.9379C38.1775 73.0341 38.075 73.1078 37.9558 73.1591C37.8376 73.2103 37.7063 73.236 37.562 73.236C37.4187 73.236 37.2874 73.2103 37.1682 73.1591C37.05 73.1078 36.9475 73.0341 36.8607 72.9379C36.7739 72.8406 36.7064 72.7229 36.6583 72.5849C36.6112 72.4468 36.5877 72.2909 36.5877 72.1173V72.0091C36.5877 71.8344 36.6112 71.6785 36.6583 71.5415C36.7054 71.4034 36.7718 71.2858 36.8575 71.1885C36.9444 71.0912 37.0469 71.017 37.1651 70.9657C37.2843 70.9145 37.4156 70.8888 37.5589 70.8888C37.7032 70.8888 37.8345 70.9145 37.9527 70.9657C38.0719 71.017 38.1744 71.0912 38.2602 71.1885C38.347 71.2858 38.4139 71.4034 38.461 71.5415C38.5091 71.6785 38.5332 71.8344 38.5332 72.0091ZM38.0578 72.1173V72.0059C38.0578 71.8846 38.0468 71.7779 38.0248 71.6859C38.0029 71.5938 37.9704 71.5164 37.9276 71.4536C37.8847 71.3909 37.8324 71.3438 37.7707 71.3124C37.709 71.28 37.6384 71.2638 37.5589 71.2638C37.4794 71.2638 37.4088 71.28 37.3471 71.3124C37.2864 71.3438 37.2346 71.3909 37.1917 71.4536C37.1499 71.5164 37.118 71.5938 37.096 71.6859C37.0741 71.7779 37.0631 71.8846 37.0631 72.0059V72.1173C37.0631 72.2376 37.0741 72.3443 37.096 72.4374C37.118 72.5294 37.1504 72.6073 37.1933 72.6711C37.2362 72.7339 37.2885 72.7815 37.3502 72.8139C37.4119 72.8463 37.4825 72.8626 37.562 72.8626C37.6415 72.8626 37.7121 72.8463 37.7738 72.8139C37.8355 72.7815 37.8873 72.7339 37.9291 72.6711C37.971 72.6073 38.0029 72.5294 38.0248 72.4374C38.0468 72.3443 38.0578 72.2376 38.0578 72.1173ZM40.3406 72.8375V73.2046H39.1906V72.8375H40.3406ZM39.3428 70.9202V73.2046H38.8721V70.9202H39.3428ZM41.111 70.9202V73.2046H40.6418V70.9202H41.111ZM42.5261 70.9202V73.2046H42.057V70.9202H42.5261ZM43.229 70.9202V71.2889H41.3651V70.9202H43.229Z" fill="#0075C9"/>
<path fill-rule="evenodd" clip-rule="evenodd" d="M49.0307 56.4953C49.0307 62.2779 44.344 66.9646 38.5613 66.9646C32.7787 66.9646 28.092 62.2779 28.092 56.4953C28.092 50.7126 32.7787 46.0259 38.5613 46.0259C44.344 46.0259 49.0307 50.7126 49.0307 56.4953Z" fill="#DADFE5"/>
<path fill-rule="evenodd" clip-rule="evenodd" d="M48.5877 56.4953C48.5877 62.0326 44.0984 66.522 38.5611 66.522C33.0237 66.522 28.5357 62.0326 28.5357 56.4953C28.5357 50.958 33.0237 46.4686 38.5611 46.4686C44.0984 46.4686 48.5877 50.958 48.5877 56.4953Z" fill="white"/>
<path fill-rule="evenodd" clip-rule="evenodd" d="M39.8067 56.9747C39.8067 56.9027 39.8 56.8334 39.7893 56.7654C39.7867 56.7507 39.784 56.7374 39.7813 56.7227V56.7214C39.6547 56.0347 39.0707 55.3107 38.5613 54.7587C38.052 55.3107 37.468 56.0347 37.3413 56.7214L37.34 56.7227C37.3387 56.7374 37.336 56.7507 37.3333 56.7654C37.3213 56.8334 37.316 56.9041 37.316 56.9747C37.316 57.6694 37.8733 58.2321 38.5613 58.2321C39.2493 58.2321 39.8067 57.6694 39.8067 56.9747Z" fill="#0075C9"/>
<path fill-rule="evenodd" clip-rule="evenodd" d="M33.6924 51.6267V59.3573L35.0137 58.036V52.9467H42.1084V60.0427H37.0191L35.7004 61.364H43.4311V51.6267H33.6924Z" fill="#0075C9"/>
<path d="M57.0049 58.2863H56.5007V58.0828H57.0049C57.1026 58.0828 57.1816 58.0673 57.2421 58.0362C57.3026 58.005 57.3467 57.9618 57.3743 57.9065C57.4028 57.8512 57.4171 57.7882 57.4171 57.7173C57.4171 57.6525 57.4028 57.5916 57.3743 57.5346C57.3467 57.4775 57.3026 57.4317 57.2421 57.3972C57.1816 57.3618 57.1026 57.344 57.0049 57.344H56.5591V59.0264H56.3089V57.1393H57.0049C57.1475 57.1393 57.268 57.1639 57.3665 57.2131C57.465 57.2624 57.5398 57.3306 57.5908 57.4179C57.6417 57.5043 57.6672 57.6033 57.6672 57.7147C57.6672 57.8357 57.6417 57.9389 57.5908 58.0245C57.5398 58.11 57.465 58.1753 57.3665 58.2202C57.268 58.2643 57.1475 58.2863 57.0049 58.2863ZM57.8655 58.3407V58.3109C57.8655 58.2098 57.8802 58.1161 57.9096 58.0297C57.939 57.9424 57.9813 57.8668 58.0366 57.8029C58.0919 57.7381 58.1589 57.6879 58.2375 57.6525C58.3161 57.6162 58.4043 57.5981 58.5019 57.5981C58.6004 57.5981 58.689 57.6162 58.7676 57.6525C58.8471 57.6879 58.9145 57.7381 58.9698 57.8029C59.026 57.8668 59.0687 57.9424 59.0981 58.0297C59.1275 58.1161 59.1422 58.2098 59.1422 58.3109V58.3407C59.1422 58.4418 59.1275 58.5356 59.0981 58.622C59.0687 58.7084 59.026 58.784 58.9698 58.8488C58.9145 58.9127 58.8475 58.9629 58.7689 58.9991C58.6911 59.0346 58.603 59.0523 58.5045 59.0523C58.406 59.0523 58.3174 59.0346 58.2388 58.9991C58.1602 58.9629 58.0928 58.9127 58.0366 58.8488C57.9813 58.784 57.939 58.7084 57.9096 58.622C57.8802 58.5356 57.8655 58.4418 57.8655 58.3407ZM58.1053 58.3109V58.3407C58.1053 58.4107 58.1135 58.4768 58.1299 58.539C58.1463 58.6004 58.171 58.6548 58.2038 58.7023C58.2375 58.7499 58.2794 58.7875 58.3295 58.8151C58.3796 58.8419 58.438 58.8553 58.5045 58.8553C58.5702 58.8553 58.6276 58.8419 58.6769 58.8151C58.727 58.7875 58.7685 58.7499 58.8013 58.7023C58.8341 58.6548 58.8588 58.6004 58.8752 58.539C58.8925 58.4768 58.9011 58.4107 58.9011 58.3407V58.3109C58.9011 58.2418 58.8925 58.1766 58.8752 58.1152C58.8588 58.053 58.8337 57.9981 58.8 57.9506C58.7672 57.9022 58.7257 57.8642 58.6756 57.8366C58.6263 57.8089 58.5684 57.7951 58.5019 57.7951C58.4362 57.7951 58.3783 57.8089 58.3282 57.8366C58.279 57.8642 58.2375 57.9022 58.2038 57.9506C58.171 57.9981 58.1463 58.053 58.1299 58.1152C58.1135 58.1766 58.1053 58.2418 58.1053 58.3109ZM60.2594 58.6544C60.2594 58.6198 60.2516 58.5879 60.2361 58.5585C60.2214 58.5282 60.1907 58.501 60.1441 58.4768C60.0983 58.4518 60.0291 58.4302 59.9367 58.412C59.8589 58.3956 59.7885 58.3762 59.7254 58.3537C59.6632 58.3312 59.6101 58.304 59.566 58.272C59.5228 58.2401 59.4895 58.2025 59.4662 58.1593C59.4429 58.1161 59.4312 58.0655 59.4312 58.0076C59.4312 57.9523 59.4433 57.9001 59.4675 57.8508C59.4926 57.8016 59.5275 57.7579 59.5725 57.7199C59.6183 57.6819 59.6731 57.6521 59.7371 57.6305C59.801 57.6089 59.8723 57.5981 59.9509 57.5981C60.0633 57.5981 60.1592 57.6179 60.2387 57.6577C60.3182 57.6974 60.3791 57.7506 60.4214 57.8171C60.4638 57.8828 60.4849 57.9558 60.4849 58.0362H60.2452C60.2452 57.9973 60.2335 57.9597 60.2102 57.9234C60.1877 57.8862 60.1544 57.8556 60.1104 57.8314C60.0672 57.8072 60.014 57.7951 59.9509 57.7951C59.8844 57.7951 59.8304 57.8054 59.7889 57.8262C59.7483 57.8461 59.7185 57.8715 59.6995 57.9027C59.6813 57.9338 59.6723 57.9666 59.6723 58.0012C59.6723 58.0271 59.6766 58.0504 59.6852 58.0711C59.6947 58.091 59.7112 58.1096 59.7345 58.1269C59.7578 58.1433 59.7907 58.1588 59.833 58.1735C59.8753 58.1882 59.9293 58.2029 59.995 58.2176C60.1099 58.2435 60.2045 58.2746 60.2788 58.3109C60.3532 58.3472 60.4085 58.3917 60.4447 58.4444C60.481 58.4971 60.4992 58.5611 60.4992 58.6362C60.4992 58.6976 60.4862 58.7538 60.4603 58.8047C60.4352 58.8557 60.3985 58.8998 60.3501 58.9369C60.3026 58.9732 60.2456 59.0017 60.179 59.0225C60.1134 59.0424 60.0395 59.0523 59.9574 59.0523C59.8339 59.0523 59.7293 59.0303 59.6438 58.9862C59.5582 58.9421 59.4934 58.8851 59.4493 58.8151C59.4053 58.7451 59.3832 58.6712 59.3832 58.5935H59.6243C59.6278 58.6591 59.6468 58.7114 59.6813 58.7503C59.7159 58.7883 59.7583 58.8155 59.8084 58.832C59.8585 58.8475 59.9082 58.8553 59.9574 58.8553C60.0231 58.8553 60.078 58.8466 60.122 58.8294C60.167 58.8121 60.2011 58.7883 60.2244 58.7581C60.2477 58.7278 60.2594 58.6933 60.2594 58.6544ZM61.4013 57.624V57.808H60.6431V57.624H61.4013ZM60.8997 57.2831H61.1395V58.679C61.1395 58.7265 61.1468 58.7624 61.1615 58.7866C61.1762 58.8108 61.1952 58.8268 61.2185 58.8345C61.2418 58.8423 61.2669 58.8462 61.2937 58.8462C61.3136 58.8462 61.3343 58.8445 61.3559 58.841C61.3784 58.8367 61.3952 58.8332 61.4065 58.8307L61.4077 59.0264C61.3887 59.0324 61.3637 59.038 61.3326 59.0432C61.3023 59.0493 61.2656 59.0523 61.2224 59.0523C61.1636 59.0523 61.1096 59.0406 61.0604 59.0173C61.0111 58.994 60.9718 58.9551 60.9424 58.9006C60.9139 58.8453 60.8997 58.771 60.8997 58.6777V57.2831ZM62.4991 58.6544C62.4991 58.6198 62.4913 58.5879 62.4757 58.5585C62.461 58.5282 62.4304 58.501 62.3837 58.4768C62.3379 58.4518 62.2688 58.4302 62.1763 58.412C62.0986 58.3956 62.0281 58.3762 61.9651 58.3537C61.9029 58.3312 61.8497 58.304 61.8056 58.272C61.7624 58.2401 61.7292 58.2025 61.7058 58.1593C61.6825 58.1161 61.6709 58.0655 61.6709 58.0076C61.6709 57.9523 61.683 57.9001 61.7071 57.8508C61.7322 57.8016 61.7672 57.7579 61.8121 57.7199C61.8579 57.6819 61.9128 57.6521 61.9767 57.6305C62.0407 57.6089 62.112 57.5981 62.1906 57.5981C62.3029 57.5981 62.3988 57.6179 62.4783 57.6577C62.5578 57.6974 62.6187 57.7506 62.6611 57.8171C62.7034 57.8828 62.7246 57.9558 62.7246 58.0362H62.4848C62.4848 57.9973 62.4731 57.9597 62.4498 57.9234C62.4273 57.8862 62.3941 57.8556 62.35 57.8314C62.3068 57.8072 62.2537 57.7951 62.1906 57.7951C62.1241 57.7951 62.0701 57.8054 62.0286 57.8262C61.988 57.8461 61.9582 57.8715 61.9391 57.9027C61.921 57.9338 61.9119 57.9666 61.9119 58.0012C61.9119 58.0271 61.9162 58.0504 61.9249 58.0711C61.9344 58.091 61.9508 58.1096 61.9741 58.1269C61.9975 58.1433 62.0303 58.1588 62.0726 58.1735C62.115 58.1882 62.169 58.2029 62.2347 58.2176C62.3496 58.2435 62.4442 58.2746 62.5185 58.3109C62.5928 58.3472 62.6481 58.3917 62.6844 58.4444C62.7207 58.4971 62.7388 58.5611 62.7388 58.6362C62.7388 58.6976 62.7259 58.7538 62.7 58.8047C62.6749 58.8557 62.6382 58.8998 62.5898 58.9369C62.5423 58.9732 62.4852 59.0017 62.4187 59.0225C62.353 59.0424 62.2792 59.0523 62.1971 59.0523C62.0735 59.0523 61.969 59.0303 61.8834 58.9862C61.7979 58.9421 61.7331 58.8851 61.689 58.8151C61.6449 58.7451 61.6229 58.6712 61.6229 58.5935H61.864C61.8674 58.6591 61.8864 58.7114 61.921 58.7503C61.9556 58.7883 61.9979 58.8155 62.048 58.832C62.0981 58.8475 62.1478 58.8553 62.1971 58.8553C62.2627 58.8553 62.3176 58.8466 62.3617 58.8294C62.4066 58.8121 62.4407 58.7883 62.4641 58.7581C62.4874 58.7278 62.4991 58.6933 62.4991 58.6544Z" fill="#58595B"/>
<path d="M57.9529 53.8677L57.5401 53.769L57.6891 52.4446H59.157V52.8627H58.1144L58.0498 53.4424C58.0845 53.422 58.1371 53.4005 58.2077 53.3778C58.2783 53.3538 58.3573 53.3419 58.4446 53.3419C58.5714 53.3419 58.6839 53.3616 58.782 53.4011C58.8801 53.4406 58.9632 53.498 59.0314 53.5734C59.1008 53.6487 59.1535 53.7409 59.1894 53.8497C59.2252 53.9586 59.2432 54.0818 59.2432 54.2194C59.2432 54.3355 59.2252 54.4461 59.1894 54.5514C59.1535 54.6555 59.099 54.7488 59.026 54.8314C58.9531 54.9127 58.8615 54.9767 58.7515 55.0234C58.6414 55.0701 58.511 55.0934 58.3602 55.0934C58.2478 55.0934 58.1389 55.0766 58.0336 55.0431C57.9295 55.0096 57.8356 54.96 57.7519 54.8942C57.6693 54.8284 57.6029 54.7488 57.5527 54.6555C57.5036 54.561 57.4779 54.4533 57.4755 54.3325H57.9888C57.9959 54.4067 58.0151 54.4707 58.0462 54.5245C58.0785 54.5771 58.121 54.6178 58.1736 54.6465C58.2263 54.6752 58.2879 54.6896 58.3585 54.6896C58.4243 54.6896 58.4805 54.677 58.5271 54.6519C58.5738 54.6268 58.6115 54.5921 58.6402 54.5478C58.6689 54.5024 58.6899 54.4497 58.703 54.3899C58.7174 54.3289 58.7246 54.2631 58.7246 54.1925C58.7246 54.1219 58.7162 54.0579 58.6994 54.0005C58.6827 53.9431 58.657 53.8934 58.6223 53.8515C58.5876 53.8097 58.5433 53.7773 58.4895 53.7546C58.4368 53.7319 58.3752 53.7205 58.3046 53.7205C58.2089 53.7205 58.1347 53.7355 58.0821 53.7654C58.0306 53.7953 57.9876 53.8294 57.9529 53.8677ZM61.4075 54.0812V54.4868H59.5249L59.4998 54.1728L60.5891 52.4446H61.0001L60.555 53.1893L60.0131 54.0812H61.4075ZM61.1114 52.4446V55.0575H60.5945V52.4446H61.1114Z" fill="#58595B"/>
<path d="M69.1483 57.1393V59.0264H68.8981V57.1393H69.1483ZM69.9389 57.9882V58.193H69.0938V57.9882H69.9389ZM70.0672 57.1393V57.344H69.0938V57.1393H70.0672ZM70.237 58.3407V58.3109C70.237 58.2098 70.2517 58.1161 70.281 58.0297C70.3104 57.9424 70.3528 57.8668 70.4081 57.8029C70.4634 57.7381 70.5303 57.6879 70.609 57.6525C70.6876 57.6162 70.7757 57.5981 70.8734 57.5981C70.9719 57.5981 71.0604 57.6162 71.1391 57.6525C71.2186 57.6879 71.286 57.7381 71.3413 57.8029C71.3974 57.8668 71.4402 57.9424 71.4696 58.0297C71.4989 58.1161 71.5136 58.2098 71.5136 58.3109V58.3407C71.5136 58.4418 71.4989 58.5356 71.4696 58.622C71.4402 58.7084 71.3974 58.784 71.3413 58.8488C71.286 58.9127 71.219 58.9629 71.1404 58.9991C71.0626 59.0346 70.9745 59.0523 70.876 59.0523C70.7775 59.0523 70.6889 59.0346 70.6103 58.9991C70.5316 58.9629 70.4642 58.9127 70.4081 58.8488C70.3528 58.784 70.3104 58.7084 70.281 58.622C70.2517 58.5356 70.237 58.4418 70.237 58.3407ZM70.4768 58.3109V58.3407C70.4768 58.4107 70.485 58.4768 70.5014 58.539C70.5178 58.6004 70.5424 58.6548 70.5753 58.7023C70.609 58.7499 70.6509 58.7875 70.701 58.8151C70.7511 58.8419 70.8094 58.8553 70.876 58.8553C70.9416 58.8553 70.9991 58.8419 71.0483 58.8151C71.0985 58.7875 71.1399 58.7499 71.1728 58.7023C71.2056 58.6548 71.2302 58.6004 71.2466 58.539C71.2639 58.4768 71.2726 58.4107 71.2726 58.3407V58.3109C71.2726 58.2418 71.2639 58.1766 71.2466 58.1152C71.2302 58.053 71.2052 57.9981 71.1715 57.9506C71.1386 57.9022 71.0972 57.8642 71.047 57.8366C70.9978 57.8089 70.9399 57.7951 70.8734 57.7951C70.8077 57.7951 70.7498 57.8089 70.6997 57.8366C70.6504 57.8642 70.609 57.9022 70.5753 57.9506C70.5424 57.9981 70.5178 58.053 70.5014 58.1152C70.485 58.1766 70.4768 58.2418 70.4768 58.3109ZM72.0748 57.0356V59.0264H71.8338V57.0356H72.0748ZM72.7203 57.0356V59.0264H72.4792V57.0356H72.7203ZM73.0417 58.3407V58.3109C73.0417 58.2098 73.0564 58.1161 73.0858 58.0297C73.1152 57.9424 73.1575 57.8668 73.2128 57.8029C73.2681 57.7381 73.3351 57.6879 73.4137 57.6525C73.4923 57.6162 73.5805 57.5981 73.6781 57.5981C73.7766 57.5981 73.8652 57.6162 73.9438 57.6525C74.0233 57.6879 74.0907 57.7381 74.146 57.8029C74.2022 57.8668 74.2449 57.9424 74.2743 58.0297C74.3037 58.1161 74.3184 58.2098 74.3184 58.3109V58.3407C74.3184 58.4418 74.3037 58.5356 74.2743 58.622C74.2449 58.7084 74.2022 58.784 74.146 58.8488C74.0907 58.9127 74.0237 58.9629 73.9451 58.9991C73.8673 59.0346 73.7792 59.0523 73.6807 59.0523C73.5822 59.0523 73.4936 59.0346 73.415 58.9991C73.3364 58.9629 73.269 58.9127 73.2128 58.8488C73.1575 58.784 73.1152 58.7084 73.0858 58.622C73.0564 58.5356 73.0417 58.4418 73.0417 58.3407ZM73.2815 58.3109V58.3407C73.2815 58.4107 73.2897 58.4768 73.3061 58.539C73.3225 58.6004 73.3472 58.6548 73.38 58.7023C73.4137 58.7499 73.4556 58.7875 73.5057 58.8151C73.5558 58.8419 73.6142 58.8553 73.6807 58.8553C73.7464 58.8553 73.8038 58.8419 73.8531 58.8151C73.9032 58.7875 73.9447 58.7499 73.9775 58.7023C74.0103 58.6548 74.035 58.6004 74.0514 58.539C74.0687 58.4768 74.0773 58.4107 74.0773 58.3407V58.3109C74.0773 58.2418 74.0687 58.1766 74.0514 58.1152C74.035 58.053 74.0099 57.9981 73.9762 57.9506C73.9434 57.9022 73.9019 57.8642 73.8518 57.8366C73.8025 57.8089 73.7446 57.7951 73.6781 57.7951C73.6124 57.7951 73.5545 57.8089 73.5044 57.8366C73.4552 57.8642 73.4137 57.9022 73.38 57.9506C73.3472 57.9981 73.3225 58.053 73.3061 58.1152C73.2897 58.1766 73.2815 58.2418 73.2815 58.3109ZM74.9742 58.7775L75.3345 57.624H75.4926L75.4615 57.8534L75.0947 59.0264H74.9405L74.9742 58.7775ZM74.7318 57.624L75.039 58.7905L75.061 59.0264H74.899L74.4921 57.624H74.7318ZM75.8374 58.7814L76.1303 57.624H76.3688L75.9618 59.0264H75.8011L75.8374 58.7814ZM75.5276 57.624L75.8802 58.7581L75.9204 59.0264H75.7674L75.3903 57.8508L75.3591 57.624H75.5276ZM77.197 59.0523C77.0994 59.0523 77.0108 59.0359 76.9313 59.003C76.8527 58.9693 76.7848 58.9222 76.7278 58.8618C76.6717 58.8013 76.6285 58.7296 76.5982 58.6466C76.568 58.5637 76.5528 58.4729 76.5528 58.3744V58.32C76.5528 58.2059 76.5697 58.1044 76.6034 58.0154C76.6371 57.9256 76.6829 57.8495 76.7408 57.7873C76.7987 57.7251 76.8643 57.678 76.9378 57.646C77.0112 57.6141 77.0873 57.5981 77.1659 57.5981C77.2661 57.5981 77.3525 57.6154 77.4251 57.6499C77.4986 57.6845 77.5586 57.7329 77.6053 57.7951C77.6519 57.8564 77.6865 57.929 77.709 58.0128C77.7314 58.0958 77.7427 58.1865 77.7427 58.285V58.3926H76.6954V58.1969H77.5029V58.1787C77.4994 58.1165 77.4865 58.056 77.464 57.9973C77.4424 57.9385 77.4078 57.8901 77.3603 57.8521C77.3128 57.8141 77.248 57.7951 77.1659 57.7951C77.1115 57.7951 77.0613 57.8067 77.0156 57.8301C76.9698 57.8525 76.9304 57.8862 76.8976 57.9312C76.8648 57.9761 76.8393 58.031 76.8211 58.0958C76.803 58.1606 76.7939 58.2353 76.7939 58.32V58.3744C76.7939 58.441 76.803 58.5036 76.8211 58.5624C76.8401 58.6203 76.8674 58.6712 76.9028 58.7153C76.9391 58.7594 76.9827 58.7939 77.0337 58.819C77.0855 58.8441 77.1443 58.8566 77.21 58.8566C77.2946 58.8566 77.3664 58.8393 77.4251 58.8047C77.4839 58.7702 77.5353 58.7239 77.5794 58.6661L77.7245 58.7814C77.6943 58.8272 77.6558 58.8708 77.6092 58.9123C77.5625 58.9538 77.505 58.9875 77.4368 59.0134C77.3694 59.0393 77.2895 59.0523 77.197 59.0523ZM78.2624 57.8443V59.0264H78.0226V57.624H78.2559L78.2624 57.8443ZM78.7005 57.6162L78.6992 57.8391C78.6793 57.8348 78.6603 57.8322 78.6421 57.8314C78.6249 57.8296 78.605 57.8288 78.5825 57.8288C78.5272 57.8288 78.4784 57.8374 78.4361 57.8547C78.3937 57.872 78.3579 57.8962 78.3285 57.9273C78.2991 57.9584 78.2758 57.9955 78.2585 58.0387C78.2421 58.0811 78.2313 58.1277 78.2261 58.1787L78.1587 58.2176C78.1587 58.1329 78.1669 58.0534 78.1833 57.9791C78.2006 57.9048 78.227 57.8391 78.2624 57.7821C78.2978 57.7242 78.3428 57.6793 78.3972 57.6473C78.4525 57.6145 78.5182 57.5981 78.5942 57.5981C78.6115 57.5981 78.6313 57.6002 78.6538 57.6046C78.6763 57.608 78.6918 57.6119 78.7005 57.6162ZM79.7386 58.6544C79.7386 58.6198 79.7309 58.5879 79.7153 58.5585C79.7006 58.5282 79.67 58.501 79.6233 58.4768C79.5775 58.4518 79.5084 58.4302 79.4159 58.412C79.3382 58.3956 79.2677 58.3762 79.2047 58.3537C79.1424 58.3312 79.0893 58.304 79.0452 58.272C79.002 58.2401 78.9688 58.2025 78.9454 58.1593C78.9221 58.1161 78.9104 58.0655 78.9104 58.0076C78.9104 57.9523 78.9225 57.9001 78.9467 57.8508C78.9718 57.8016 79.0068 57.7579 79.0517 57.7199C79.0975 57.6819 79.1524 57.6521 79.2163 57.6305C79.2803 57.6089 79.3515 57.5981 79.4302 57.5981C79.5425 57.5981 79.6384 57.6179 79.7179 57.6577C79.7974 57.6974 79.8583 57.7506 79.9007 57.8171C79.943 57.8828 79.9642 57.9558 79.9642 58.0362H79.7244C79.7244 57.9973 79.7127 57.9597 79.6894 57.9234C79.6669 57.8862 79.6337 57.8556 79.5896 57.8314C79.5464 57.8072 79.4933 57.7951 79.4302 57.7951C79.3636 57.7951 79.3096 57.8054 79.2682 57.8262C79.2276 57.8461 79.1977 57.8715 79.1787 57.9027C79.1606 57.9338 79.1515 57.9666 79.1515 58.0012C79.1515 58.0271 79.1558 58.0504 79.1645 58.0711C79.174 58.091 79.1904 58.1096 79.2137 58.1269C79.2371 58.1433 79.2699 58.1588 79.3122 58.1735C79.3546 58.1882 79.4086 58.2029 79.4742 58.2176C79.5892 58.2435 79.6838 58.2746 79.7581 58.3109C79.8324 58.3472 79.8877 58.3917 79.924 58.4444C79.9603 58.4971 79.9784 58.5611 79.9784 58.6362C79.9784 58.6976 79.9655 58.7538 79.9395 58.8047C79.9145 58.8557 79.8778 58.8998 79.8294 58.9369C79.7818 58.9732 79.7248 59.0017 79.6583 59.0225C79.5926 59.0424 79.5187 59.0523 79.4367 59.0523C79.3131 59.0523 79.2085 59.0303 79.123 58.9862C79.0375 58.9421 78.9727 58.8851 78.9286 58.8151C78.8845 58.7451 78.8625 58.6712 78.8625 58.5935H79.1036C79.107 58.6591 79.126 58.7114 79.1606 58.7503C79.1951 58.7883 79.2375 58.8155 79.2876 58.832C79.3377 58.8475 79.3874 58.8553 79.4367 58.8553C79.5023 58.8553 79.5572 58.8466 79.6013 58.8294C79.6462 58.8121 79.6803 58.7883 79.7036 58.7581C79.727 58.7278 79.7386 58.6933 79.7386 58.6544Z" fill="#58595B"/>
<path d="M71.6547 53.8677L71.242 53.769L71.3909 52.4446H72.8589V52.8627H71.8162L71.7516 53.4424C71.7863 53.422 71.839 53.4005 71.9095 53.3778C71.9801 53.3538 72.0591 53.3419 72.1464 53.3419C72.2733 53.3419 72.3857 53.3616 72.4838 53.4011C72.5819 53.4406 72.6651 53.498 72.7333 53.5734C72.8027 53.6487 72.8553 53.7409 72.8912 53.8497C72.9271 53.9586 72.945 54.0818 72.945 54.2194C72.945 54.3355 72.9271 54.4461 72.8912 54.5514C72.8553 54.6555 72.8009 54.7488 72.7279 54.8314C72.6549 54.9127 72.5634 54.9767 72.4533 55.0234C72.3432 55.0701 72.2128 55.0934 72.0621 55.0934C71.9496 55.0934 71.8408 55.0766 71.7355 55.0431C71.6314 55.0096 71.5375 54.96 71.4537 54.8942C71.3712 54.8284 71.3048 54.7488 71.2545 54.6555C71.2055 54.561 71.1797 54.4533 71.1774 54.3325H71.6906C71.6978 54.4067 71.7169 54.4707 71.748 54.5245C71.7803 54.5771 71.8228 54.6178 71.8755 54.6465C71.9281 54.6752 71.9897 54.6896 72.0603 54.6896C72.1261 54.6896 72.1823 54.677 72.229 54.6519C72.2756 54.6268 72.3133 54.5921 72.342 54.5478C72.3708 54.5024 72.3917 54.4497 72.4049 54.3899C72.4192 54.3289 72.4264 54.2631 72.4264 54.1925C72.4264 54.1219 72.418 54.0579 72.4013 54.0005C72.3845 53.9431 72.3588 53.8934 72.3241 53.8515C72.2894 53.8097 72.2451 53.7773 72.1913 53.7546C72.1387 53.7319 72.077 53.7205 72.0065 53.7205C71.9107 53.7205 71.8366 53.7355 71.7839 53.7654C71.7325 53.7953 71.6894 53.8294 71.6547 53.8677ZM75.0375 53.5213V53.9736C75.0375 54.1698 75.0166 54.3391 74.9747 54.4814C74.9328 54.6226 74.8724 54.7387 74.7935 54.8296C74.7157 54.9193 74.623 54.9857 74.5153 55.0288C74.4076 55.0719 74.288 55.0934 74.1564 55.0934C74.0511 55.0934 73.953 55.0802 73.8621 55.0539C73.7711 55.0264 73.6892 54.9839 73.6162 54.9265C73.5444 54.8691 73.4822 54.7967 73.4296 54.7093C73.3781 54.6208 73.3386 54.5155 73.3111 54.3935C73.2836 54.2715 73.2699 54.1315 73.2699 53.9736V53.5213C73.2699 53.3251 73.2908 53.157 73.3327 53.017C73.3757 52.8759 73.4362 52.7604 73.5139 52.6707C73.5929 52.581 73.6862 52.5152 73.7939 52.4733C73.9016 52.4302 74.0212 52.4087 74.1528 52.4087C74.2581 52.4087 74.3556 52.4224 74.4453 52.4499C74.5362 52.4763 74.6182 52.5175 74.6912 52.5738C74.7642 52.63 74.8264 52.7024 74.8778 52.7909C74.9293 52.8783 74.9687 52.9829 74.9963 53.105C75.0238 53.2258 75.0375 53.3646 75.0375 53.5213ZM74.5189 54.0418V53.4513C74.5189 53.3568 74.5135 53.2743 74.5027 53.2037C74.4932 53.1331 74.4782 53.0733 74.4579 53.0242C74.4375 52.974 74.4124 52.9333 74.3825 52.9022C74.3526 52.8711 74.3185 52.8483 74.2802 52.834C74.2419 52.8196 74.1995 52.8125 74.1528 52.8125C74.0942 52.8125 74.0421 52.8238 73.9967 52.8466C73.9524 52.8693 73.9147 52.9058 73.8836 52.956C73.8525 53.0051 73.8286 53.0709 73.8118 53.1534C73.7963 53.2348 73.7885 53.3341 73.7885 53.4513V54.0418C73.7885 54.1363 73.7933 54.2194 73.8028 54.2912C73.8136 54.363 73.8292 54.4246 73.8495 54.476C73.871 54.5263 73.8962 54.5676 73.9249 54.5999C73.9548 54.631 73.9889 54.6537 74.0272 54.6681C74.0667 54.6824 74.1097 54.6896 74.1564 54.6896C74.2138 54.6896 74.2647 54.6782 74.3089 54.6555C74.3544 54.6316 74.3927 54.5945 74.4238 54.5442C74.4561 54.4928 74.48 54.4258 74.4956 54.3432C74.5111 54.2607 74.5189 54.1602 74.5189 54.0418ZM75.9815 52.4446V55.0575H75.4431V52.4446H75.9815ZM77.5464 52.4446L76.5109 53.7349L75.9133 54.3773L75.8164 53.8677L76.2202 53.3149L76.886 52.4446H77.5464ZM76.9344 55.0575L76.1645 53.8497L76.5629 53.5159L77.5715 55.0575H76.9344Z" fill="#58595B"/>
<path d="M84.2055 57.1393V59.0264H83.9553V57.1393H84.2055ZM84.9961 57.9882V58.193H84.151V57.9882H84.9961ZM85.1244 57.1393V57.344H84.151V57.1393H85.1244ZM85.2942 58.3407V58.3109C85.2942 58.2098 85.3089 58.1161 85.3382 58.0297C85.3676 57.9424 85.41 57.8668 85.4653 57.8029C85.5206 57.7381 85.5875 57.6879 85.6662 57.6525C85.7448 57.6162 85.8329 57.5981 85.9306 57.5981C86.0291 57.5981 86.1176 57.6162 86.1963 57.6525C86.2757 57.6879 86.3431 57.7381 86.3984 57.8029C86.4546 57.8668 86.4974 57.9424 86.5268 58.0297C86.5561 58.1161 86.5708 58.2098 86.5708 58.3109V58.3407C86.5708 58.4418 86.5561 58.5356 86.5268 58.622C86.4974 58.7084 86.4546 58.784 86.3984 58.8488C86.3431 58.9127 86.2762 58.9629 86.1975 58.9991C86.1198 59.0346 86.0316 59.0523 85.9331 59.0523C85.8346 59.0523 85.7461 59.0346 85.6674 58.9991C85.5888 58.9629 85.5214 58.9127 85.4653 58.8488C85.41 58.784 85.3676 58.7084 85.3382 58.622C85.3089 58.5356 85.2942 58.4418 85.2942 58.3407ZM85.5339 58.3109V58.3407C85.5339 58.4107 85.5422 58.4768 85.5586 58.539C85.575 58.6004 85.5996 58.6548 85.6325 58.7023C85.6662 58.7499 85.7081 58.7875 85.7582 58.8151C85.8083 58.8419 85.8666 58.8553 85.9331 58.8553C85.9988 58.8553 86.0563 58.8419 86.1055 58.8151C86.1556 58.7875 86.1971 58.7499 86.23 58.7023C86.2628 58.6548 86.2874 58.6004 86.3038 58.539C86.3211 58.4768 86.3298 58.4107 86.3298 58.3407V58.3109C86.3298 58.2418 86.3211 58.1766 86.3038 58.1152C86.2874 58.053 86.2624 57.9981 86.2287 57.9506C86.1958 57.9022 86.1543 57.8642 86.1042 57.8366C86.055 57.8089 85.9971 57.7951 85.9306 57.7951C85.8649 57.7951 85.807 57.8089 85.7569 57.8366C85.7076 57.8642 85.6662 57.9022 85.6325 57.9506C85.5996 57.9981 85.575 58.053 85.5586 58.1152C85.5422 58.1766 85.5339 58.2418 85.5339 58.3109ZM87.132 57.0356V59.0264H86.891V57.0356H87.132ZM87.7775 57.0356V59.0264H87.5364V57.0356H87.7775ZM88.0989 58.3407V58.3109C88.0989 58.2098 88.1136 58.1161 88.143 58.0297C88.1724 57.9424 88.2147 57.8668 88.27 57.8029C88.3253 57.7381 88.3923 57.6879 88.4709 57.6525C88.5495 57.6162 88.6377 57.5981 88.7353 57.5981C88.8338 57.5981 88.9224 57.6162 89.001 57.6525C89.0805 57.6879 89.1479 57.7381 89.2032 57.8029C89.2594 57.8668 89.3021 57.9424 89.3315 58.0297C89.3609 58.1161 89.3756 58.2098 89.3756 58.3109V58.3407C89.3756 58.4418 89.3609 58.5356 89.3315 58.622C89.3021 58.7084 89.2594 58.784 89.2032 58.8488C89.1479 58.9127 89.0809 58.9629 89.0023 58.9991C88.9245 59.0346 88.8364 59.0523 88.7379 59.0523C88.6394 59.0523 88.5508 59.0346 88.4722 58.9991C88.3936 58.9629 88.3262 58.9127 88.27 58.8488C88.2147 58.784 88.1724 58.7084 88.143 58.622C88.1136 58.5356 88.0989 58.4418 88.0989 58.3407ZM88.3387 58.3109V58.3407C88.3387 58.4107 88.3469 58.4768 88.3633 58.539C88.3797 58.6004 88.4044 58.6548 88.4372 58.7023C88.4709 58.7499 88.5128 58.7875 88.5629 58.8151C88.613 58.8419 88.6714 58.8553 88.7379 58.8553C88.8036 58.8553 88.861 58.8419 88.9103 58.8151C88.9604 58.7875 89.0019 58.7499 89.0347 58.7023C89.0675 58.6548 89.0922 58.6004 89.1086 58.539C89.1259 58.4768 89.1345 58.4107 89.1345 58.3407V58.3109C89.1345 58.2418 89.1259 58.1766 89.1086 58.1152C89.0922 58.053 89.0671 57.9981 89.0334 57.9506C89.0006 57.9022 88.9591 57.8642 88.909 57.8366C88.8597 57.8089 88.8018 57.7951 88.7353 57.7951C88.6696 57.7951 88.6117 57.8089 88.5616 57.8366C88.5124 57.8642 88.4709 57.9022 88.4372 57.9506C88.4044 57.9981 88.3797 58.053 88.3633 58.1152C88.3469 58.1766 88.3387 58.2418 88.3387 58.3109ZM90.0314 58.7775L90.3917 57.624H90.5498L90.5187 57.8534L90.1519 59.0264H89.9977L90.0314 58.7775ZM89.789 57.624L90.0962 58.7905L90.1182 59.0264H89.9562L89.5492 57.624H89.789ZM90.8946 58.7814L91.1875 57.624H91.426L91.019 59.0264H90.8583L90.8946 58.7814ZM90.5848 57.624L90.9374 58.7581L90.9775 59.0264H90.8246L90.4474 57.8508L90.4163 57.624H90.5848ZM91.9328 57.624V59.0264H91.6917V57.624H91.9328ZM91.6735 57.252C91.6735 57.2131 91.6852 57.1803 91.7085 57.1535C91.7327 57.1267 91.7682 57.1133 91.8148 57.1133C91.8606 57.1133 91.8956 57.1267 91.9198 57.1535C91.9449 57.1803 91.9574 57.2131 91.9574 57.252C91.9574 57.2892 91.9449 57.3211 91.9198 57.3479C91.8956 57.3738 91.8606 57.3868 91.8148 57.3868C91.7682 57.3868 91.7327 57.3738 91.7085 57.3479C91.6852 57.3211 91.6735 57.2892 91.6735 57.252ZM92.5575 57.9234V59.0264H92.3177V57.624H92.5445L92.5575 57.9234ZM92.5005 58.272L92.4007 58.2682C92.4015 58.1722 92.4158 58.0837 92.4434 58.0025C92.4711 57.9204 92.51 57.8491 92.5601 57.7886C92.6102 57.7281 92.6698 57.6815 92.7389 57.6486C92.8089 57.6149 92.8863 57.5981 92.9709 57.5981C93.0401 57.5981 93.1023 57.6076 93.1576 57.6266C93.2129 57.6447 93.26 57.6741 93.2988 57.7147C93.3386 57.7553 93.3688 57.808 93.3896 57.8728C93.4103 57.9368 93.4207 58.015 93.4207 58.1074V59.0264H93.1796V58.1048C93.1796 58.0314 93.1688 57.9726 93.1472 57.9286C93.1256 57.8836 93.0941 57.8512 93.0526 57.8314C93.0111 57.8106 92.9601 57.8003 92.8996 57.8003C92.84 57.8003 92.7856 57.8128 92.7363 57.8378C92.688 57.8629 92.646 57.8975 92.6106 57.9415C92.5761 57.9856 92.5488 58.0362 92.529 58.0932C92.51 58.1493 92.5005 58.209 92.5005 58.272ZM94.6934 57.624H94.9112V58.9966C94.9112 59.1201 94.8861 59.2255 94.836 59.3128C94.7859 59.4001 94.7159 59.4662 94.626 59.5111C94.537 59.5569 94.4342 59.5798 94.3176 59.5798C94.2692 59.5798 94.2122 59.572 94.1465 59.5565C94.0817 59.5418 94.0177 59.5163 93.9547 59.48C93.8925 59.4446 93.8402 59.3966 93.7978 59.3361L93.9236 59.1936C93.9823 59.2644 94.0437 59.3137 94.1076 59.3413C94.1724 59.369 94.2364 59.3828 94.2994 59.3828C94.3755 59.3828 94.4411 59.3685 94.4964 59.34C94.5517 59.3115 94.5945 59.2692 94.6248 59.213C94.6559 59.1577 94.6714 59.0894 94.6714 59.0082V57.9325L94.6934 57.624ZM93.7279 58.3407V58.3135C93.7279 58.2064 93.7404 58.1092 93.7654 58.0219C93.7914 57.9338 93.8281 57.8582 93.8756 57.7951C93.924 57.732 93.9823 57.6836 94.0506 57.6499C94.1188 57.6154 94.1957 57.5981 94.2813 57.5981C94.3694 57.5981 94.4463 57.6136 94.512 57.6447C94.5785 57.675 94.6347 57.7195 94.6805 57.7782C94.7271 57.8361 94.7639 57.9061 94.7907 57.9882C94.8174 58.0703 94.836 58.1632 94.8464 58.2669V58.3861C94.8369 58.4889 94.8183 58.5814 94.7907 58.6635C94.7639 58.7455 94.7271 58.8155 94.6805 58.8734C94.6347 58.9313 94.5785 58.9758 94.512 59.0069C94.4455 59.0372 94.3677 59.0523 94.2787 59.0523C94.1949 59.0523 94.1188 59.0346 94.0506 58.9991C93.9832 58.9637 93.9253 58.914 93.8769 58.8501C93.8285 58.7862 93.7914 58.711 93.7654 58.6246C93.7404 58.5373 93.7279 58.4427 93.7279 58.3407ZM93.9676 58.3135V58.3407C93.9676 58.4107 93.9745 58.4764 93.9884 58.5377C94.0031 58.5991 94.0251 58.6531 94.0545 58.6998C94.0847 58.7464 94.1232 58.7831 94.1698 58.8099C94.2165 58.8358 94.2722 58.8488 94.337 58.8488C94.4165 58.8488 94.4822 58.832 94.534 58.7983C94.5859 58.7646 94.6269 58.7201 94.6572 58.6648C94.6883 58.6095 94.7125 58.5494 94.7297 58.4846V58.1722C94.7202 58.1247 94.7055 58.0789 94.6857 58.0349C94.6667 57.9899 94.6416 57.9502 94.6105 57.9156C94.5803 57.8802 94.5427 57.8521 94.4977 57.8314C94.4528 57.8106 94.4001 57.8003 94.3396 57.8003C94.2739 57.8003 94.2173 57.8141 94.1698 57.8417C94.1232 57.8685 94.0847 57.9057 94.0545 57.9532C94.0251 57.9999 94.0031 58.0543 93.9884 58.1165C93.9745 58.1779 93.9676 58.2435 93.9676 58.3135Z" fill="#58595B"/>
<path d="M89.2804 52.4446V52.7227L88.2701 55.0575H87.7245L88.7349 52.8483H87.4338V52.4446H89.2804ZM90.9494 52.4176H91.0248V52.8304H90.9943C90.8579 52.8304 90.7364 52.8507 90.63 52.8914C90.5235 52.9321 90.4332 52.9901 90.359 53.0655C90.286 53.1397 90.2298 53.2294 90.1903 53.3347C90.152 53.44 90.1329 53.5578 90.1329 53.6882V54.1225C90.1329 54.2158 90.1418 54.2984 90.1598 54.3702C90.1789 54.4408 90.2058 54.5 90.2405 54.5478C90.2764 54.5945 90.3183 54.6298 90.3662 54.6537C90.414 54.6764 90.4679 54.6878 90.5277 54.6878C90.5839 54.6878 90.6347 54.6758 90.6802 54.6519C90.7269 54.628 90.7664 54.5945 90.7987 54.5514C90.8322 54.5072 90.8573 54.4557 90.874 54.3971C90.892 54.3373 90.9009 54.2721 90.9009 54.2015C90.9009 54.1309 90.892 54.0657 90.874 54.0059C90.8573 53.946 90.8322 53.8946 90.7987 53.8515C90.7652 53.8073 90.7245 53.7732 90.6766 53.7492C90.6288 53.7253 90.5749 53.7133 90.5151 53.7133C90.4338 53.7133 90.362 53.7325 90.2998 53.7708C90.2387 53.8079 90.1909 53.8557 90.1562 53.9143C90.1215 53.973 90.1029 54.0346 90.1006 54.0992L89.9444 53.9987C89.948 53.9066 89.9672 53.8192 90.0019 53.7367C90.0377 53.6541 90.0868 53.5811 90.149 53.5177C90.2124 53.4531 90.2884 53.4029 90.3769 53.367C90.4655 53.3299 90.5654 53.3114 90.6766 53.3114C90.7987 53.3114 90.9057 53.3347 90.9979 53.3813C91.0912 53.428 91.1689 53.492 91.2312 53.5734C91.2934 53.6547 91.34 53.7486 91.3711 53.8551C91.4022 53.9616 91.4178 54.0753 91.4178 54.1961C91.4178 54.3229 91.3969 54.4408 91.355 54.5496C91.3143 54.6585 91.2551 54.7536 91.1773 54.835C91.1007 54.9163 91.0086 54.9797 90.9009 55.0252C90.7933 55.0707 90.6724 55.0934 90.5384 55.0934C90.3997 55.0934 90.2734 55.0683 90.1598 55.018C90.0473 54.9666 89.9504 54.8948 89.8691 54.8027C89.7877 54.7105 89.7249 54.6011 89.6806 54.4743C89.6376 54.3474 89.616 54.2087 89.616 54.0579V53.8569C89.616 53.6463 89.6465 53.4537 89.7075 53.2791C89.7698 53.1032 89.8589 52.9512 89.9749 52.8232C90.091 52.694 90.231 52.5941 90.3949 52.5235C90.5588 52.4529 90.7436 52.4176 90.9494 52.4176Z" fill="#58595B"/>
</svg>
