<svg width="256" height="140" viewBox="0 0 256 140" fill="none" xmlns="http://www.w3.org/2000/svg">
<path d="M256 139.994H0V-0.00634766H256V139.994Z" fill="white"/>
<path fill-rule="evenodd" clip-rule="evenodd" d="M95.8485 71.0483H95.8925L100.457 59.0616H103.819V74.6616H101.658V61.6176H101.614L96.4819 74.6616H95.1059L89.9952 61.6176H89.9512V74.6616H87.8552V59.0616H91.2179L95.8485 71.0483Z" fill="#0075C9"/>
<path fill-rule="evenodd" clip-rule="evenodd" d="M109.127 74.6616H106.964V59.0617H109.127V74.6616Z" fill="#0075C9"/>
<path fill-rule="evenodd" clip-rule="evenodd" d="M126.316 72.2376C125.704 73.075 124.91 73.755 123.934 74.2763C122.96 74.7976 121.788 75.0576 120.418 75.0576C119.24 75.0576 118.152 74.8563 117.154 74.4523C116.157 74.0483 115.297 73.483 114.577 72.755C113.856 72.0296 113.292 71.1616 112.884 70.155C112.476 69.1496 112.273 68.0443 112.273 66.8403C112.273 65.6203 112.481 64.5083 112.894 63.5016C113.31 62.4963 113.885 61.6363 114.621 60.923C115.356 60.2123 116.225 59.6563 117.23 59.2603C118.236 58.863 119.328 58.6656 120.506 58.6656C121.03 58.6656 121.561 58.7163 122.101 58.819C122.638 58.9216 123.157 59.0763 123.652 59.2816C124.146 59.487 124.598 59.7416 125.005 60.0416C125.413 60.343 125.762 60.6923 126.053 61.0883L124.35 62.411C123.972 61.8816 123.437 61.4456 122.745 61.1003C122.053 60.755 121.306 60.5816 120.506 60.5816C119.602 60.5816 118.792 60.747 118.072 61.0776C117.35 61.4083 116.734 61.8603 116.225 62.4323C115.716 63.0056 115.322 63.6696 115.046 64.427C114.769 65.183 114.632 65.9883 114.632 66.8403C114.632 67.7216 114.765 68.5443 115.036 69.307C115.305 70.071 115.69 70.7363 116.193 71.3016C116.696 71.867 117.306 72.3123 118.028 72.635C118.748 72.9576 119.553 73.119 120.441 73.119C121.314 73.119 122.108 72.943 122.821 72.5896C123.534 72.2376 124.125 71.7243 124.59 71.0483L126.316 72.2376Z" fill="#0075C9"/>
<path fill-rule="evenodd" clip-rule="evenodd" d="M131.361 74.6616H129.199V59.0616H134.157C134.899 59.0616 135.605 59.139 136.275 59.2923C136.945 59.447 137.53 59.6936 138.033 60.031C138.535 60.3696 138.931 60.8136 139.223 61.3643C139.514 61.915 139.661 62.587 139.661 63.3803C139.661 64.5256 139.311 65.4523 138.611 66.1563C137.913 66.8616 137.01 67.3096 135.903 67.5003L140.229 74.6616H137.607L133.675 67.7203H131.361V74.6616ZM131.361 65.8923H133.851C134.361 65.8923 134.833 65.8483 135.27 65.759C135.707 65.671 136.089 65.5283 136.417 65.3296C136.743 65.1323 137.003 64.875 137.191 64.559C137.381 64.243 137.475 63.8496 137.475 63.3803C137.475 62.911 137.381 62.5176 137.191 62.2016C137.003 61.8856 136.751 61.6323 136.438 61.4403C136.126 61.251 135.758 61.1136 135.335 61.0336C134.914 60.9523 134.469 60.9123 134.003 60.9123H131.361V65.8923Z" fill="#0075C9"/>
<path fill-rule="evenodd" clip-rule="evenodd" d="M159.186 66.8394C159.186 68.0448 158.978 69.1501 158.563 70.1554C158.148 71.1621 157.576 72.0288 156.848 72.7554C156.12 73.4821 155.255 74.0488 154.25 74.4528C153.246 74.8554 152.152 75.0581 150.974 75.0581C149.795 75.0581 148.706 74.8554 147.708 74.4528C146.711 74.0488 145.848 73.4821 145.12 72.7554C144.392 72.0288 143.824 71.1621 143.416 70.1554C143.01 69.1501 142.806 68.0448 142.806 66.8394C142.806 65.6208 143.01 64.5088 143.416 63.5021C143.824 62.4954 144.392 61.6354 145.12 60.9234C145.848 60.2114 146.711 59.6568 147.708 59.2594C148.706 58.8634 149.795 58.6648 150.974 58.6648C152.152 58.6648 153.246 58.8634 154.25 59.2594C155.255 59.6568 156.12 60.2114 156.848 60.9234C157.576 61.6354 158.148 62.4954 158.563 63.5021C158.978 64.5088 159.186 65.6208 159.186 66.8394ZM156.848 66.8394C156.848 65.9888 156.71 65.1834 156.434 64.4261C156.158 63.6701 155.764 63.0048 155.255 62.4328C154.744 61.8608 154.13 61.4088 153.41 61.0781C152.688 60.7474 151.876 60.5821 150.974 60.5821C150.086 60.5821 149.282 60.7474 148.56 61.0781C147.839 61.4088 147.228 61.8608 146.726 62.4328C146.223 63.0048 145.834 63.6701 145.556 64.4261C145.28 65.1834 145.143 65.9888 145.143 66.8394C145.143 67.7061 145.28 68.5221 145.556 69.2861C145.834 70.0488 146.227 70.7141 146.736 71.2794C147.246 71.8448 147.858 72.2901 148.571 72.6128C149.284 72.9354 150.086 73.0981 150.974 73.0981C151.862 73.0981 152.67 72.9354 153.399 72.6128C154.126 72.2901 154.744 71.8448 155.255 71.2794C155.764 70.7141 156.158 70.0488 156.434 69.2861C156.71 68.5221 156.848 67.7061 156.848 66.8394Z" fill="#0075C9"/>
<path fill-rule="evenodd" clip-rule="evenodd" d="M164.493 72.723H171.394V74.6616H162.331V59.0616H164.493V72.723Z" fill="#0075C9"/>
<path fill-rule="evenodd" clip-rule="evenodd" d="M176.701 74.6616H174.54V59.0617H176.701V74.6616Z" fill="#0075C9"/>
<path fill-rule="evenodd" clip-rule="evenodd" d="M186.967 74.6616H184.805V60.979H179.847V59.0616H191.924V60.979H186.967V74.6616Z" fill="#0075C9"/>
<path fill-rule="evenodd" clip-rule="evenodd" d="M74.0659 67.202C74.0659 67.0873 74.0552 66.9753 74.0379 66.866C74.0339 66.8433 74.0299 66.822 74.0259 66.7993V66.7953C73.8232 65.6967 72.8872 64.5367 72.0699 63.6513C71.2539 64.5367 70.3179 65.6967 70.1152 66.7953V66.7993C70.1112 66.822 70.1072 66.8433 70.1032 66.866C70.0845 66.9753 70.0752 67.0887 70.0752 67.202C70.0752 68.314 70.9685 69.2153 72.0699 69.2153C73.1725 69.2153 74.0659 68.314 74.0659 67.202Z" fill="#0075C9"/>
<path fill-rule="evenodd" clip-rule="evenodd" d="M64.2701 59.062V71.4486L66.3875 69.33V61.1753H77.7541V72.546H69.6008L67.4861 74.6606H79.8715V59.062H64.2701Z" fill="#0075C9"/>
<path d="M256.133 9.07764H229.223V-0.00634766H256.133V9.07764Z" fill="#FFF200"/>
<path d="M232.499 2.21061H233.505L234.567 4.80221H234.612L235.675 2.21061H236.68V6.06787H235.889V3.55726H235.857L234.859 6.04904H234.321L233.322 3.54784H233.29V6.06787H232.499V2.21061ZM240.897 4.13924C240.897 4.55987 240.817 4.91772 240.658 5.21279C240.5 5.50787 240.284 5.73325 240.01 5.88895C239.737 6.04339 239.431 6.12061 239.091 6.12061C238.748 6.12061 238.44 6.04276 238.168 5.88706C237.895 5.73137 237.68 5.50598 237.522 5.21091C237.364 4.91584 237.285 4.55862 237.285 4.13924C237.285 3.71861 237.364 3.36076 237.522 3.06569C237.68 2.77062 237.895 2.54586 238.168 2.39142C238.44 2.23572 238.748 2.15787 239.091 2.15787C239.431 2.15787 239.737 2.23572 240.01 2.39142C240.284 2.54586 240.5 2.77062 240.658 3.06569C240.817 3.36076 240.897 3.71861 240.897 4.13924ZM240.07 4.13924C240.07 3.86677 240.029 3.63699 239.948 3.44991C239.867 3.26282 239.754 3.12093 239.607 3.02425C239.46 2.92757 239.288 2.87923 239.091 2.87923C238.894 2.87923 238.722 2.92757 238.575 3.02425C238.428 3.12093 238.314 3.26282 238.232 3.44991C238.152 3.63699 238.111 3.86677 238.111 4.13924C238.111 4.41171 238.152 4.64149 238.232 4.82858C238.314 5.01566 238.428 5.15755 238.575 5.25423C238.722 5.35091 238.894 5.39925 239.091 5.39925C239.288 5.39925 239.46 5.35091 239.607 5.25423C239.754 5.15755 239.867 5.01566 239.948 4.82858C240.029 4.64149 240.07 4.41171 240.07 4.13924ZM241.178 2.88299V2.21061H244.346V2.88299H243.165V6.06787H242.359V2.88299H241.178ZM245.683 2.21061V6.06787H244.868V2.21061H245.683ZM249.899 4.13924C249.899 4.55987 249.819 4.91772 249.66 5.21279C249.501 5.50787 249.285 5.73325 249.012 5.88895C248.739 6.04339 248.433 6.12061 248.093 6.12061C247.75 6.12061 247.442 6.04276 247.17 5.88706C246.897 5.73137 246.682 5.50598 246.524 5.21091C246.366 4.91584 246.286 4.55862 246.286 4.13924C246.286 3.71861 246.366 3.36076 246.524 3.06569C246.682 2.77062 246.897 2.54586 247.17 2.39142C247.442 2.23572 247.75 2.15787 248.093 2.15787C248.433 2.15787 248.739 2.23572 249.012 2.39142C249.285 2.54586 249.501 2.77062 249.66 3.06569C249.819 3.36076 249.899 3.71861 249.899 4.13924ZM249.072 4.13924C249.072 3.86677 249.031 3.63699 248.95 3.44991C248.869 3.26282 248.756 3.12093 248.609 3.02425C248.462 2.92757 248.29 2.87923 248.093 2.87923C247.895 2.87923 247.723 2.92757 247.577 3.02425C247.43 3.12093 247.315 3.26282 247.234 3.44991C247.153 3.63699 247.113 3.86677 247.113 4.13924C247.113 4.41171 247.153 4.64149 247.234 4.82858C247.315 5.01566 247.43 5.15755 247.577 5.25423C247.723 5.35091 247.895 5.39925 248.093 5.39925C248.29 5.39925 248.462 5.35091 248.609 5.25423C248.756 5.15755 248.869 5.01566 248.95 4.82858C249.031 4.64149 249.072 4.41171 249.072 4.13924ZM253.729 2.21061V6.06787H253.025L251.347 3.64013H251.318V6.06787H250.503V2.21061H251.219L252.884 4.63647H252.917V2.21061H253.729Z" fill="black"/>
</svg>
