<svg width="69" height="17" viewBox="0 0 69 17" fill="none" xmlns="http://www.w3.org/2000/svg">
<path d="M56.0621 0.367093C54.8554 0.813068 54.3832 1.20658 53.8847 2.12476C53.0977 3.64632 53.7011 5.71879 55.2227 6.71568C55.931 7.18788 58.8429 7.50269 59.9447 7.24035C60.6006 7.08295 60.6268 7.03048 60.5481 5.16788L60.4694 3.27905L59.1053 3.20034C57.846 3.12164 57.7149 3.17411 57.7149 3.64632C57.7149 4.09229 57.8723 4.19723 58.5019 4.19723C59.2364 4.19723 59.2889 4.27593 59.2889 5.14165V6.08606L57.6624 5.98113C56.3245 5.87619 55.9572 5.74502 55.4325 5.14165C54.5406 4.09229 54.6193 2.85931 55.6424 1.99359C56.3507 1.39021 56.6918 1.31151 58.3707 1.31151C60.3645 1.31151 60.8892 1.04917 60.3383 0.393327C59.9185 -0.105115 57.4263 -0.105115 56.0621 0.367093Z" fill="#FFD008"/>
<path d="M61.9644 0.314607C61.4922 0.786816 61.5184 6.66319 61.9906 7.0567C62.6727 7.60761 62.9612 6.82059 62.9612 4.48578V2.22968L65.5584 4.82682C67.0537 6.29592 68.2867 7.34527 68.4441 7.24033C68.9163 6.95176 68.8376 0.367075 68.3654 0.183438C67.762 -0.0526662 67.6833 0.235906 67.6833 2.67565C67.6833 3.93487 67.6309 4.98423 67.5784 4.98423C67.4997 4.98423 66.3192 3.85617 64.955 2.49201C63.5646 1.12786 62.4103 -0.00019857 62.3579 -0.00019857C62.3054 -0.00019857 62.148 0.13097 61.9644 0.314607Z" fill="#FFD008"/>
<path d="M6.74209 0.445925C6.63715 0.524626 6.55845 2.46593 6.55845 4.74827C6.55845 9.39165 6.66339 9.18178 4.45975 9.18178C2.85949 9.18178 2.36104 8.99815 2.36104 8.36854C2.36104 7.94879 2.15117 7.87009 1.18052 7.87009C0 7.87009 0 7.87009 0 8.78828C0 10.1524 0.603378 10.3623 4.45975 10.3623C7.18806 10.3623 7.89638 10.2836 8.47352 9.8901L9.18183 9.44412V4.8532V0.262288H8.05378C7.42417 0.262288 6.82079 0.34099 6.74209 0.445925Z" fill="#FFD008"/>
<path d="M22.2988 4.72192C22.2988 9.96868 22.3513 10.0736 24.791 10.3622C26.6012 10.5983 29.7755 10.4147 30.7723 9.99491L31.4807 9.70634V6.84685C31.4807 3.33152 31.5069 3.35776 27.6243 3.20036L24.9222 3.09542V1.67879V0.262169H23.6105H22.2988V4.72192ZM29.0672 6.66322C29.1459 9.07673 29.0672 9.18166 27.0996 9.18166C24.9484 9.18166 24.9222 9.15543 24.9222 6.84685C24.9222 5.7188 25.0009 4.72192 25.1058 4.61698C25.2108 4.51205 26.129 4.48581 27.1521 4.51205L28.9885 4.59075L29.0672 6.66322Z" fill="#FFD008"/>
<path d="M12.7772 3.41031C11.7278 3.72512 11.2819 4.17109 11.2819 4.87941C11.2819 5.45655 11.3868 5.50902 12.4099 5.50902C13.2494 5.50902 13.5904 5.37785 13.8528 4.98434C14.1414 4.51213 14.4037 4.43343 15.9515 4.51213C17.6829 4.59083 17.7092 4.59083 17.7879 5.37785L17.8666 6.16486L15.2956 6.1911C11.859 6.1911 11.0195 6.61084 11.0195 8.26357C11.0195 9.23422 11.1245 9.49656 11.7016 9.86383C12.4886 10.3885 15.7416 10.6508 17.9715 10.3623C20.1751 10.0999 20.4637 9.70643 20.4637 6.87318C20.4637 4.19733 20.2538 3.75135 18.7585 3.41031C17.473 3.09551 13.7741 3.12174 12.7772 3.41031ZM17.4206 7.50279C17.6567 7.58149 17.8403 7.92253 17.8403 8.26357C17.8403 8.99811 17.3943 9.18175 15.7416 9.18175C15.0333 9.18175 14.2988 9.10305 14.0627 9.02435C13.5642 8.84071 13.5117 7.71266 13.984 7.52902C14.4562 7.31915 16.9484 7.31915 17.4206 7.50279Z" fill="#FFD008"/>
<path d="M35.2309 3.41017C33.6568 3.77744 33.5781 3.96108 33.5781 7.2403V10.231H34.8898H36.1753L36.254 7.39771L36.3327 4.59069L37.382 4.45952C38.2215 4.35458 38.4576 4.22341 38.5101 3.72497C38.5888 3.2003 38.5101 3.14783 37.3296 3.17406C36.6475 3.2003 35.6768 3.30523 35.2309 3.41017Z" fill="#FFD008"/>
<path d="M40.6885 3.48905C38.9046 4.11866 38.8783 5.50905 40.636 5.50905C41.423 5.50905 41.7641 5.37788 41.9739 4.98437C42.21 4.5384 42.5248 4.4597 43.9152 4.4597C45.6467 4.4597 46.3025 4.80074 46.1189 5.64022C46.0664 5.95502 45.5417 6.05996 43.3643 6.11243C39.9802 6.2436 39.3505 6.5584 39.3505 8.2636C39.3505 10.0737 39.9802 10.3623 43.9415 10.3623C46.5386 10.3623 47.2469 10.2836 47.8241 9.8901C48.5061 9.44412 48.5324 9.36542 48.5324 6.82074C48.5324 4.27606 48.5061 4.19736 47.8241 3.75138C46.9321 3.14801 42.0526 2.96437 40.6885 3.48905ZM45.9352 7.76516C46.1713 8.05373 46.1976 8.28983 45.9877 8.60464C45.7778 8.94568 45.3056 9.05061 43.9415 9.05061C42.5773 9.05061 42.1051 8.94568 41.8952 8.60464C41.3705 7.79139 42.1051 7.34542 43.9415 7.34542C45.122 7.34542 45.6729 7.45035 45.9352 7.76516Z" fill="#FFD008"/>
<path d="M0 15.5041C0 16.3698 0.0787014 16.5534 0.472209 16.4747C0.787014 16.4222 0.944417 16.1074 0.996885 15.3991C1.07559 14.5596 0.996885 14.4285 0.55091 14.4285C0.0787014 14.4285 0 14.5859 0 15.5041Z" fill="#FFD008"/>
<path d="M3.20002 15.3991C3.25249 16.1861 3.38366 16.396 3.8034 16.396C4.22314 16.396 4.35431 16.1861 4.40678 15.3991C4.48548 14.5072 4.43301 14.4285 3.8034 14.4285C3.17379 14.4285 3.12132 14.5072 3.20002 15.3991Z" fill="#FFD008"/>
<path d="M6.55859 15.5039C6.55859 16.4484 6.61106 16.5533 7.16197 16.4746C7.63418 16.4221 7.76535 16.2123 7.81782 15.399C7.89652 14.5071 7.84405 14.4284 7.24067 14.4284C6.61106 14.4284 6.55859 14.5333 6.55859 15.5039Z" fill="#FFD008"/>
<path d="M9.76019 15.3991C9.83889 16.2648 9.9176 16.396 10.4947 16.396C11.0719 16.396 11.1506 16.2648 11.2293 15.3991C11.308 14.4809 11.2818 14.4285 10.4947 14.4285C9.70773 14.4285 9.68149 14.4809 9.76019 15.3991Z" fill="#FFD008"/>
<path d="M13.1172 15.5043C13.1172 16.5012 13.1434 16.5536 13.8517 16.4749C14.4551 16.3962 14.56 16.2651 14.6387 15.3993C14.7174 14.4812 14.6912 14.4287 13.9304 14.4287C13.1434 14.4287 13.1172 14.4812 13.1172 15.5043Z" fill="#FFD008"/>
<path d="M16.3165 15.3991C16.3952 16.3173 16.4739 16.396 17.1822 16.396C17.8905 16.396 17.9692 16.3173 18.0479 15.3991C18.1266 14.4285 18.1266 14.4285 17.1822 14.4285C16.2378 14.4285 16.2378 14.4285 16.3165 15.3991Z" fill="#FFD008"/>
<path d="M19.6758 15.5038C19.6758 16.5269 19.702 16.5532 20.5415 16.4745C21.3023 16.3958 21.381 16.3171 21.4597 15.3989C21.5384 14.4545 21.5384 14.4282 20.6202 14.4282C19.702 14.4282 19.6758 14.4545 19.6758 15.5038Z" fill="#FFD008"/>
<path d="M22.8756 15.3991C22.9543 16.3435 23.0067 16.396 23.8725 16.396C24.7382 16.396 24.7906 16.3435 24.8693 15.3991L24.948 14.4285H23.8725H22.7969L22.8756 15.3991Z" fill="#FFD008"/>
<path d="M26.2857 15.3991C26.3644 16.3435 26.4169 16.396 27.2826 16.396C28.1483 16.396 28.2008 16.3435 28.2795 15.3991L28.3582 14.4285H27.2826H26.207L26.2857 15.3991Z" fill="#FFD008"/>
<path d="M29.6445 15.5039V16.5532L30.6414 16.4745C31.5596 16.3958 31.6121 16.3434 31.6908 15.3989L31.7695 14.4283H30.7201H29.6445V15.5039Z" fill="#FFD008"/>
<path d="M32.8443 15.3991C32.923 16.3698 32.9493 16.396 33.9724 16.396C34.9955 16.396 35.0217 16.3698 35.1004 15.3991L35.1791 14.4285H33.9724H32.7656L32.8443 15.3991Z" fill="#FFD008"/>
<path d="M36.2545 15.3991L36.3332 16.396H48.4007H60.4683L60.547 15.3991L60.6257 14.4285H48.4007H36.1758L36.2545 15.3991Z" fill="#FFD008"/>
</svg>
