<svg width="334" height="80" viewBox="0 0 334 80" fill="none" xmlns="http://www.w3.org/2000/svg">
<path d="M35.4959 54.2302L28.4786 38.5049L27.4866 36.0689L26.6333 38.2435L19.4506 54.2302L18.2292 56.8662L0.333252 20.2195H10.7479L11.1106 21.0089L17.9359 35.6049L18.3306 36.6555L18.5226 36.2649H18.4946L27.4599 16.5569L36.5199 36.2382L36.7533 36.8249L37.2453 35.6742L44.2999 20.2195H54.6772L36.6839 56.8662L35.4959 54.2302Z" fill="white"/>
<path d="M61.616 20.2197H71.2734V53.2393H61.616V20.2197ZM60.6947 8.48275C60.6947 7.71742 60.836 6.99218 61.1254 6.31218C61.3867 5.62951 61.8187 5.0278 62.4067 4.49447C62.9347 3.94913 63.5494 3.53098 64.256 3.25098C64.8667 2.95765 65.592 2.81478 66.4267 2.81478C67.1974 2.81478 67.932 2.94785 68.6347 3.21452C69.2774 3.47186 69.888 3.89392 70.48 4.46192C71.0307 5.04058 71.4387 5.63826 71.7054 6.28093C71.9667 6.98226 72.0947 7.71742 72.0947 8.48275C72.0947 10.1081 71.5587 11.4754 70.48 12.5687C69.888 13.1287 69.264 13.536 68.6027 13.8213C67.8774 14.1106 67.156 14.2523 66.4267 14.2523C65.7067 14.2523 64.9667 14.1007 64.224 13.7887C63.4934 13.4807 62.8787 13.0695 62.3747 12.5361C61.8467 12.0401 61.4334 11.4191 61.1254 10.6911C60.836 10.0337 60.6947 9.30542 60.6947 8.48275Z" fill="white"/>
<path d="M82.1655 7.29926L91.8509 0.969921V53.2393H82.1655V7.29926Z" fill="white"/>
<path d="M124.562 36.6293C124.562 35.1426 124.406 33.876 124.098 32.8413C123.769 31.7866 123.309 30.896 122.713 30.176C122.121 29.5053 121.418 28.9826 120.606 28.588C119.77 28.2426 118.783 28.064 117.637 28.064C116.566 28.064 115.575 28.2426 114.671 28.588C113.794 29.028 113.074 29.5893 112.499 30.268C111.839 31.0853 111.357 31.9933 111.05 33.008C110.719 34.2613 110.554 35.5493 110.554 36.8946C110.554 38.4053 110.719 39.704 111.05 40.7826C111.334 41.8386 111.785 42.724 112.399 43.4493C112.973 44.1746 113.675 44.7026 114.51 45.0333C115.387 45.404 116.374 45.588 117.475 45.588C118.549 45.588 119.509 45.3906 120.345 45C121.179 44.652 121.914 44.0733 122.551 43.2573C123.162 42.504 123.671 41.5626 124.066 40.416C124.397 39.3413 124.562 38.08 124.562 36.6293ZM134.054 0.970627V53.24H124.397V51.4533C123.585 52.1426 122.79 52.6746 122.023 53.0426C121.055 53.5053 120.069 53.86 119.054 54.0986C117.934 54.336 116.829 54.46 115.726 54.46C113.463 54.46 111.379 54.056 109.466 53.24C107.557 52.4453 105.931 51.2426 104.591 49.6133C103.201 47.9933 102.195 46.0893 101.558 43.9133C100.897 41.7826 100.571 39.3746 100.571 36.6933C100.571 34.128 100.91 31.796 101.59 29.704C102.297 27.5773 103.325 25.7133 104.689 24.1066C106.097 22.4333 107.699 21.1986 109.498 20.3853C111.279 19.568 113.298 19.164 115.566 19.164C116.773 19.164 118.026 19.3066 119.321 19.592C120.527 19.8986 121.615 20.344 122.583 20.9133C123.13 21.244 123.735 21.68 124.397 22.2253V7.29996L134.054 0.970627Z" fill="white"/>
<path d="M153.575 36.6286C153.575 39.4606 154.249 41.6673 155.585 43.2566V43.2886C156.268 44.1046 157.025 44.6686 157.861 44.9993C158.673 45.39 159.637 45.5873 160.763 45.5873C162.956 45.5873 164.627 44.8766 165.769 43.4486C166.344 42.7926 166.803 41.906 167.151 40.782C167.463 39.662 167.615 38.3633 167.615 36.894C167.615 35.4166 167.449 34.1273 167.119 33.0073C166.793 31.9513 166.32 31.038 165.705 30.2673C165.068 29.542 164.343 28.982 163.529 28.5873C162.607 28.242 161.616 28.0633 160.565 28.0633C158.32 28.0633 156.617 28.766 155.452 30.1753C154.795 31.0046 154.332 31.8966 154.071 32.8406C153.74 33.938 153.575 35.206 153.575 36.6286ZM144.115 20.2193H153.809V22.2633C154.249 21.826 154.851 21.3726 155.617 20.9126C156.608 20.3433 157.705 19.898 158.917 19.5913C160.188 19.306 161.455 19.1633 162.704 19.1633C164.903 19.1633 166.904 19.5673 168.703 20.3846C170.46 21.198 172.076 22.4326 173.545 24.106C174.908 25.778 175.932 27.642 176.611 29.7033C177.276 31.8193 177.597 34.15 177.597 36.6926C177.597 39.374 177.276 41.782 176.611 43.9126C175.977 46.0513 174.977 47.942 173.613 49.6126H173.581C172.196 51.2606 170.571 52.4726 168.703 53.2393C166.793 54.0553 164.704 54.4593 162.443 54.4593C161.317 54.4593 160.212 54.3353 159.109 54.098C158.081 53.8593 157.091 53.5046 156.144 53.042C155.287 52.6006 154.511 52.078 153.809 51.4526V65.3606L144.115 71.6953V20.2193Z" fill="white"/>
<path d="M194.626 38.6346C194.626 39.9893 194.759 41.1226 195.02 42.068C195.24 42.8853 195.59 43.5413 196.072 44.0466C196.49 44.528 197.095 44.8773 197.89 45.1026C198.679 45.3866 199.711 45.524 200.988 45.524C202.236 45.524 203.274 45.3866 204.086 45.1026C204.852 44.8773 205.454 44.528 205.894 44.0466C206.354 43.5413 206.707 42.8853 206.95 42.068C207.216 41.1226 207.344 39.9893 207.344 38.6346V20.22H217.002V36.564C217.002 39.6213 216.694 42.2466 216.079 44.4373C215.442 46.7733 214.478 48.6453 213.178 50.0773C211.879 51.5693 210.19 52.6786 208.102 53.4C206.059 54.1106 203.714 54.46 201.047 54.46C198.344 54.46 195.962 54.1106 193.896 53.4C191.794 52.72 190.087 51.6333 188.792 50.1466C187.494 48.7373 186.53 46.8453 185.891 44.4733C185.282 42.2826 184.97 39.64 184.97 36.564V20.22H194.626V38.6346Z" fill="white"/>
<path d="M225.713 20.2193H234.976V22.7846C235.874 21.9539 236.834 21.2699 237.844 20.7433C238.881 20.2433 240.042 19.8473 241.337 19.5539C242.718 19.2966 244.049 19.1633 245.325 19.1633C246.509 19.1633 247.634 19.2646 248.69 19.4579C249.764 19.6539 250.76 19.9526 251.654 20.3526C252.573 20.7886 253.39 21.3059 254.088 21.8939C254.8 22.5139 255.418 23.2299 255.965 24.0419C256.258 24.5473 256.52 25.0753 256.764 25.6166C256.956 26.1486 257.14 26.7419 257.29 27.3979C257.42 28.0406 257.521 28.8699 257.589 29.9033C257.654 30.9406 257.685 32.1433 257.685 33.4979V53.2393H247.924V36.3019C247.924 34.3419 247.826 32.7633 247.597 31.5513C247.381 30.4553 247.102 29.6646 246.776 29.1779C246.426 28.7433 245.95 28.3979 245.357 28.1593C244.637 27.8939 243.742 27.7606 242.69 27.7606C241.942 27.7606 241.268 27.8286 240.681 27.9619C240.084 28.0899 239.52 28.2833 238.964 28.5233C238.413 28.7846 237.945 29.0859 237.55 29.4126C237.197 29.7206 236.853 30.1059 236.526 30.5646L236.494 30.5913C236.293 30.8619 236.132 31.1846 235.998 31.5513C235.848 31.9513 235.724 32.3726 235.636 32.8406C235.572 33.3646 235.504 34.0619 235.438 34.9153C235.397 36.0126 235.374 37.0686 235.374 38.0793V53.2393H225.713V20.2193Z" fill="white"/>
<path d="M288.745 29.776C288.198 29.372 287.629 29.0506 287.033 28.7853C286.445 28.524 285.789 28.316 285.092 28.16C284.436 28.0266 283.733 27.9626 282.981 27.9626C281.75 27.9626 280.644 28.16 279.657 28.5506C278.708 28.9306 277.872 29.5 277.146 30.2666H277.184C276.412 31.1026 275.857 32.016 275.53 33.008C275.154 34.104 274.972 35.3106 274.972 36.6293C274.972 38.0373 275.154 39.3 275.53 40.4146C275.857 41.4533 276.412 42.352 277.184 43.1226C277.862 43.876 278.708 44.436 279.721 44.8346C280.745 45.212 281.948 45.3906 283.31 45.3906C284.054 45.3906 284.757 45.3266 285.417 45.1973C286.078 45.0653 286.68 44.8586 287.234 44.5733C287.386 44.416 287.634 44.2706 287.974 44.1093C288.318 43.9586 288.593 43.78 288.809 43.5813C289.581 42.9493 290.265 42.3333 290.852 41.7493C291.458 41.1733 292.041 40.4613 292.637 39.6266V51.724L291.944 52.12C291.154 52.5786 290.438 52.9173 289.801 53.1426C289.098 53.4 288.332 53.6466 287.501 53.8626C286.766 54.0466 285.968 54.1853 285.092 54.2906C284.174 54.4053 283.316 54.46 282.553 54.46C280.048 54.46 277.72 54.056 275.568 53.24C273.461 52.472 271.588 51.2426 269.964 49.5493C268.334 47.9426 267.104 46.052 266.273 43.848C265.457 41.7826 265.052 39.4413 265.052 36.8253C265.052 34.26 265.465 31.8866 266.31 29.7026C267.141 27.624 268.417 25.732 270.129 24.0426C271.8 22.396 273.741 21.1746 275.962 20.3853C278.092 19.568 280.52 19.164 283.246 19.164C284.141 19.164 284.945 19.2093 285.656 19.2973C286.661 19.4213 287.405 19.5453 287.892 19.6546C288.593 19.8346 289.301 20.0506 290.002 20.316C290.594 20.56 291.237 20.8586 291.944 21.2066L292.637 21.596V33.3653C292.041 32.552 291.458 31.9013 290.874 31.4013C290.288 30.9106 289.581 30.368 288.745 29.776Z" fill="white"/>
<path d="M301.349 7.29926L310.612 0.969921V22.7846C311.538 21.9326 312.506 21.2526 313.516 20.7433C314.568 20.2193 315.72 19.8259 316.973 19.5539C318.405 19.2966 319.732 19.1633 320.957 19.1633C322.173 19.1633 323.297 19.2659 324.358 19.4579C325.39 19.6553 326.368 19.9526 327.286 20.3526H327.322C328.286 20.8299 329.1 21.3539 329.76 21.8939C330.421 22.4446 331.036 23.1606 331.601 24.0433C331.894 24.5019 332.165 25.0299 332.432 25.6166C332.652 26.1913 332.821 26.7873 332.954 27.3979C333.082 28.0419 333.184 28.8713 333.253 29.9033C333.298 31.2713 333.317 32.4659 333.317 33.4979V53.2393H323.624V36.3019C323.624 34.4526 323.509 32.8699 323.265 31.5513C323.045 30.4553 322.769 29.6646 322.448 29.1779C322.09 28.7433 321.618 28.3979 321.025 28.1606C320.324 27.8939 319.433 27.7619 318.354 27.7619C317.606 27.7619 316.926 27.8286 316.308 27.9619C315.78 28.0913 315.214 28.2833 314.604 28.5233C314.072 28.7846 313.613 29.0873 313.213 29.4126C312.773 29.7886 312.437 30.1753 312.194 30.5646L312.158 30.5926C311.961 30.8633 311.8 31.1846 311.666 31.5513C311.516 31.8859 311.401 32.3139 311.332 32.8406H311.304C311.194 33.3659 311.129 34.0619 311.106 34.9166C311.061 35.4673 311.042 36.5179 311.042 38.0793V53.2393H301.349V7.29926Z" fill="white"/>
<path d="M176.679 72.8463C176.679 70.0837 175.764 68.9357 173.108 68.9357H171.332V76.757H173.108C175.764 76.757 176.679 75.609 176.679 72.8463ZM179.421 72.8463C179.421 76.8823 177.377 79.125 173.36 79.125H168.588V66.569H173.36C177.377 66.569 179.421 68.8117 179.421 72.8463Z" fill="white"/>
<path d="M190.815 76.757V79.125H181.83V66.569H190.638V68.937H184.572V71.6637H189.739V73.8503H184.572V76.757H190.815Z" fill="white"/>
<path d="M203.231 75.5021C203.231 77.9755 200.953 79.2861 198.082 79.2861C195.033 79.2861 193.077 77.7608 192.917 75.0168H195.75C195.947 76.1288 196.541 77.0261 198.118 77.0261C199.535 77.0261 200.397 76.3075 200.397 75.4661C200.397 74.5501 199.841 74.1741 198.567 73.9408L196.917 73.6355C194.818 73.2235 193.205 72.3795 193.205 70.0301C193.205 67.8595 195.051 66.4061 197.885 66.4061C200.719 66.4061 202.674 67.6981 202.89 70.2635H200.073C199.929 69.1688 199.177 68.6661 197.885 68.6661C196.541 68.6661 196.002 69.5275 196.002 70.1008C196.002 70.6941 196.271 71.2501 197.329 71.4475L199.266 71.8421C202.119 72.4155 203.231 73.4021 203.231 75.5021Z" fill="white"/>
<path d="M205.727 66.569H208.472V79.125H205.727V66.569Z" fill="white"/>
<path d="M222.32 73.0795C222.32 77.1341 220.742 79.2861 216.921 79.2861C213.316 79.2861 210.966 76.9901 210.966 72.8461C210.966 68.6848 213.352 66.4061 216.76 66.4061C219.253 66.4061 221.477 67.7181 221.909 70.2995H219.2C218.714 69.2941 218.052 68.7741 216.813 68.7741C214.913 68.7741 213.837 70.3355 213.837 72.8461C213.837 75.3035 214.877 76.9195 216.921 76.9195C218.662 76.9195 219.646 76.2368 219.826 74.3728H217.225V72.2368H222.32V73.0795Z" fill="white"/>
<path d="M235.507 79.125H232.62L227.704 71.125H227.651V79.125H224.906V66.569H227.687L232.708 74.7303H232.762V66.569H235.507V79.125Z" fill="white"/>
<path d="M247.208 69.4385C247.208 69.9758 247.513 70.4065 248.284 71.2678C249.612 70.5505 249.809 69.9585 249.809 69.4385C249.809 68.7932 249.378 68.2372 248.553 68.2372C247.657 68.2372 247.208 68.8105 247.208 69.4385ZM250.258 76.5598L247.637 73.7438C246.706 74.3545 246.525 75.0345 246.525 75.4838C246.525 76.3812 247.316 77.0972 248.517 77.0972C249.11 77.0972 249.72 76.9185 250.258 76.5598ZM252.642 79.1252L251.872 78.2998C250.885 79.0172 249.72 79.3398 248.5 79.3398C246.006 79.3398 243.692 78.0492 243.692 75.5372C243.692 73.6892 245.217 72.8292 246.345 72.2732C245.538 71.2865 245.037 70.3892 245.037 69.3852C245.037 67.7878 246.024 66.3172 248.553 66.3172C250.993 66.3172 251.997 67.7878 251.997 69.3852C251.997 70.8198 251.137 71.8238 249.576 72.6678L251.692 74.9452C252.016 74.2825 252.23 73.4572 252.249 72.5225H254.617C254.473 74.2998 254.006 75.6812 253.342 76.7398L255.549 79.1252H252.642Z" fill="white"/>
<path d="M271.642 72.8463C271.642 70.0837 270.727 68.9357 268.073 68.9357H266.295V76.757H268.073C270.727 76.757 271.642 75.609 271.642 72.8463ZM274.387 72.8463C274.387 76.8823 272.341 79.125 268.323 79.125H263.553V66.569H268.323C272.341 66.569 274.387 68.8117 274.387 72.8463Z" fill="white"/>
<path d="M276.793 66.569H279.539V79.125H276.793V66.569Z" fill="white"/>
<path d="M293.387 73.0795C293.387 77.1341 291.808 79.2861 287.988 79.2861C284.383 79.2861 282.033 76.9901 282.033 72.8461C282.033 68.6848 284.419 66.4061 287.827 66.4061C290.32 66.4061 292.544 67.7181 292.976 70.2995H290.267C289.781 69.2941 289.119 68.7741 287.88 68.7741C285.98 68.7741 284.904 70.3355 284.904 72.8461C284.904 75.3035 285.944 76.9195 287.988 76.9195C289.729 76.9195 290.713 76.2368 290.893 74.3728H288.292V72.2368H293.387V73.0795Z" fill="white"/>
<path d="M295.973 66.569H298.719V79.125H295.973V66.569Z" fill="white"/>
<path d="M310.916 68.9357H307.311V79.125H304.565V68.9357H300.944V66.569H310.916V68.9357Z" fill="white"/>
<path d="M318.541 74.765L316.892 69.9583L315.259 74.765H318.541ZM319.224 76.7743H314.579L313.769 79.125H310.811L315.671 66.569H318.128L322.972 79.125H320.031L319.224 76.7743Z" fill="white"/>
<path d="M333.667 76.757V79.125H325.2V66.569H327.944V76.757H333.667Z" fill="white"/>
</svg>
