<svg width="334" height="80" viewBox="0 0 334 80" fill="none" xmlns="http://www.w3.org/2000/svg">
<g clip-path="url(#clip0_434_351)">
<path d="M35.4957 54.2304L28.4784 38.5051L27.4864 36.0691L26.6331 38.2437L19.4504 54.2304L18.229 56.8664L0.333008 20.2197H10.7477L11.1104 21.0091L17.9357 35.6051L18.3304 36.6557L18.5224 36.2651H18.4944L27.4597 16.5571L36.5197 36.2384L36.7531 36.8251L37.2451 35.6744L44.2997 20.2197H54.677L36.6837 56.8664L35.4957 54.2304Z" fill="black"/>
<path d="M61.6156 20.2199H71.273V53.2395H61.6156V20.2199ZM60.6943 8.48291C60.6943 7.71758 60.8356 6.99234 61.125 6.31234C61.3863 5.62967 61.8183 5.02796 62.4063 4.49463C62.9343 3.94929 63.549 3.53114 64.2556 3.25114C64.8663 2.95781 65.5916 2.81494 66.4263 2.81494C67.197 2.81494 67.9316 2.94801 68.6343 3.21468C69.277 3.47202 69.8876 3.89408 70.4796 4.46208C71.0303 5.04074 71.4383 5.63842 71.705 6.28109C71.9663 6.98242 72.0943 7.71758 72.0943 8.48291C72.0943 10.1083 71.5583 11.4756 70.4796 12.5689C69.8876 13.1289 69.2636 13.5362 68.6023 13.8215C67.877 14.1108 67.1556 14.2525 66.4263 14.2525C65.7063 14.2525 64.9663 14.1009 64.2236 13.7889C63.493 13.4809 62.8783 13.0697 62.3743 12.5363C61.8463 12.0403 61.433 11.4193 61.125 10.6913C60.8356 10.0339 60.6943 9.30558 60.6943 8.48291Z" fill="black"/>
<path d="M82.165 7.29907L91.8504 0.969727V53.2391H82.165V7.29907Z" fill="black"/>
<path d="M124.562 36.6294C124.562 35.1427 124.406 33.8761 124.098 32.8414C123.769 31.7867 123.309 30.8961 122.713 30.1761C122.121 29.5054 121.418 28.9827 120.606 28.5881C119.77 28.2427 118.783 28.0641 117.637 28.0641C116.566 28.0641 115.575 28.2427 114.671 28.5881C113.794 29.0281 113.074 29.5894 112.499 30.2681C111.839 31.0854 111.357 31.9934 111.05 33.0081C110.719 34.2614 110.554 35.5494 110.554 36.8947C110.554 38.4054 110.719 39.7041 111.05 40.7827C111.334 41.8387 111.785 42.7241 112.399 43.4494C112.973 44.1747 113.675 44.7027 114.51 45.0334C115.387 45.4041 116.374 45.5881 117.475 45.5881C118.549 45.5881 119.509 45.3907 120.345 45.0001C121.179 44.6521 121.914 44.0734 122.551 43.2574C123.162 42.5041 123.671 41.5627 124.066 40.4161C124.397 39.3414 124.562 38.0801 124.562 36.6294ZM134.054 0.970703V53.2401H124.397V51.4534C123.585 52.1427 122.79 52.6747 122.023 53.0427C121.055 53.5054 120.069 53.8601 119.054 54.0987C117.934 54.3361 116.829 54.4601 115.726 54.4601C113.463 54.4601 111.379 54.0561 109.466 53.2401C107.557 52.4454 105.931 51.2427 104.591 49.6134C103.201 47.9934 102.195 46.0894 101.558 43.9134C100.897 41.7827 100.571 39.3747 100.571 36.6934C100.571 34.1281 100.91 31.7961 101.59 29.7041C102.297 27.5774 103.325 25.7134 104.689 24.1067C106.097 22.4334 107.699 21.1987 109.498 20.3854C111.279 19.5681 113.298 19.1641 115.566 19.1641C116.773 19.1641 118.026 19.3067 119.321 19.5921C120.527 19.8987 121.615 20.3441 122.583 20.9134C123.13 21.2441 123.735 21.6801 124.397 22.2254V7.30004L134.054 0.970703Z" fill="black"/>
<path d="M153.575 36.6284C153.575 39.4604 154.249 41.6671 155.585 43.2564V43.2884C156.268 44.1044 157.025 44.6684 157.861 44.9991C158.673 45.3898 159.637 45.5871 160.763 45.5871C162.956 45.5871 164.627 44.8764 165.769 43.4484C166.344 42.7924 166.803 41.9058 167.151 40.7818C167.463 39.6618 167.615 38.3631 167.615 36.8938C167.615 35.4164 167.449 34.1271 167.119 33.0071C166.793 31.9511 166.32 31.0378 165.705 30.2671C165.068 29.5418 164.343 28.9818 163.529 28.5871C162.607 28.2418 161.616 28.0631 160.565 28.0631C158.32 28.0631 156.617 28.7658 155.452 30.1751C154.795 31.0044 154.332 31.8964 154.071 32.8404C153.74 33.9378 153.575 35.2058 153.575 36.6284ZM144.115 20.2191H153.809V22.2631C154.249 21.8258 154.851 21.3724 155.617 20.9124C156.608 20.3431 157.705 19.8978 158.917 19.5911C160.188 19.3058 161.455 19.1631 162.704 19.1631C164.903 19.1631 166.904 19.5671 168.703 20.3844C170.46 21.1978 172.076 22.4324 173.545 24.1058C174.908 25.7778 175.932 27.6418 176.611 29.7031C177.276 31.8191 177.597 34.1498 177.597 36.6924C177.597 39.3738 177.276 41.7818 176.611 43.9124C175.977 46.0511 174.977 47.9418 173.613 49.6124H173.581C172.196 51.2604 170.571 52.4724 168.703 53.2391C166.793 54.0551 164.704 54.4591 162.443 54.4591C161.317 54.4591 160.212 54.3351 159.109 54.0978C158.081 53.8591 157.091 53.5044 156.144 53.0418C155.287 52.6004 154.511 52.0778 153.809 51.4524V65.3604L144.115 71.6951V20.2191Z" fill="black"/>
<path d="M194.626 38.6348C194.626 39.9895 194.759 41.1228 195.02 42.0682C195.24 42.8855 195.59 43.5415 196.072 44.0468C196.49 44.5282 197.095 44.8775 197.89 45.1028C198.679 45.3868 199.711 45.5242 200.988 45.5242C202.236 45.5242 203.274 45.3868 204.086 45.1028C204.852 44.8775 205.454 44.5282 205.894 44.0468C206.354 43.5415 206.707 42.8855 206.95 42.0682C207.216 41.1228 207.344 39.9895 207.344 38.6348V20.2202H217.002V36.5642C217.002 39.6215 216.694 42.2468 216.079 44.4375C215.442 46.7735 214.478 48.6455 213.178 50.0775C211.879 51.5695 210.19 52.6788 208.102 53.4002C206.059 54.1108 203.714 54.4602 201.047 54.4602C198.344 54.4602 195.962 54.1108 193.896 53.4002C191.794 52.7202 190.087 51.6335 188.792 50.1468C187.494 48.7375 186.53 46.8455 185.891 44.4735C185.282 42.2828 184.97 39.6402 184.97 36.5642V20.2202H194.626V38.6348Z" fill="black"/>
<path d="M225.713 20.2191H234.976V22.7844C235.874 21.9537 236.834 21.2697 237.844 20.7431C238.881 20.2431 240.042 19.8471 241.337 19.5537C242.718 19.2964 244.049 19.1631 245.325 19.1631C246.509 19.1631 247.634 19.2644 248.69 19.4577C249.764 19.6537 250.76 19.9524 251.654 20.3524C252.573 20.7884 253.39 21.3057 254.088 21.8937C254.8 22.5137 255.418 23.2297 255.965 24.0417C256.258 24.5471 256.52 25.0751 256.764 25.6164C256.956 26.1484 257.14 26.7417 257.29 27.3977C257.42 28.0404 257.521 28.8697 257.589 29.9031C257.654 30.9404 257.685 32.1431 257.685 33.4977V53.2391H247.924V36.3017C247.924 34.3417 247.826 32.7631 247.597 31.5511C247.381 30.4551 247.102 29.6644 246.776 29.1777C246.426 28.7431 245.95 28.3977 245.357 28.1591C244.637 27.8937 243.742 27.7604 242.69 27.7604C241.942 27.7604 241.268 27.8284 240.681 27.9617C240.084 28.0897 239.52 28.2831 238.964 28.5231C238.413 28.7844 237.945 29.0857 237.55 29.4124C237.197 29.7204 236.853 30.1057 236.526 30.5644L236.494 30.5911C236.293 30.8617 236.132 31.1844 235.998 31.5511C235.848 31.9511 235.724 32.3724 235.636 32.8404C235.572 33.3644 235.504 34.0617 235.438 34.9151C235.397 36.0124 235.374 37.0684 235.374 38.0791V53.2391H225.713V20.2191Z" fill="black"/>
<path d="M288.745 29.7761C288.198 29.3721 287.629 29.0507 287.033 28.7854C286.445 28.5241 285.789 28.3161 285.092 28.1601C284.436 28.0267 283.733 27.9627 282.981 27.9627C281.75 27.9627 280.644 28.1601 279.657 28.5507C278.708 28.9307 277.872 29.5001 277.146 30.2667H277.184C276.412 31.1027 275.857 32.0161 275.53 33.0081C275.154 34.1041 274.972 35.3107 274.972 36.6294C274.972 38.0374 275.154 39.3001 275.53 40.4147C275.857 41.4534 276.412 42.3521 277.184 43.1227C277.862 43.8761 278.708 44.4361 279.721 44.8347C280.745 45.2121 281.948 45.3907 283.31 45.3907C284.054 45.3907 284.757 45.3267 285.417 45.1974C286.078 45.0654 286.68 44.8587 287.234 44.5734C287.386 44.4161 287.634 44.2707 287.974 44.1094C288.318 43.9587 288.593 43.7801 288.809 43.5814C289.581 42.9494 290.265 42.3334 290.852 41.7494C291.458 41.1734 292.041 40.4614 292.637 39.6267V51.7241L291.944 52.1201C291.154 52.5787 290.438 52.9174 289.801 53.1427C289.098 53.4001 288.332 53.6467 287.501 53.8627C286.766 54.0467 285.968 54.1854 285.092 54.2907C284.174 54.4054 283.316 54.4601 282.553 54.4601C280.048 54.4601 277.72 54.0561 275.568 53.2401C273.461 52.4721 271.588 51.2427 269.964 49.5494C268.334 47.9427 267.104 46.0521 266.273 43.8481C265.457 41.7827 265.052 39.4414 265.052 36.8254C265.052 34.2601 265.465 31.8867 266.31 29.7027C267.141 27.6241 268.417 25.7321 270.129 24.0427C271.8 22.3961 273.741 21.1747 275.962 20.3854C278.092 19.5681 280.52 19.1641 283.246 19.1641C284.141 19.1641 284.945 19.2094 285.656 19.2974C286.661 19.4214 287.405 19.5454 287.892 19.6547C288.593 19.8347 289.301 20.0507 290.002 20.3161C290.594 20.5601 291.237 20.8587 291.944 21.2067L292.637 21.5961V33.3654C292.041 32.5521 291.458 31.9014 290.874 31.4014C290.288 30.9107 289.581 30.3681 288.745 29.7761Z" fill="black"/>
<path d="M301.349 7.29907L310.612 0.969727V22.7844C311.538 21.9324 312.506 21.2524 313.516 20.7431C314.568 20.2191 315.72 19.8257 316.973 19.5537C318.405 19.2964 319.732 19.1631 320.957 19.1631C322.173 19.1631 323.297 19.2657 324.358 19.4577C325.39 19.6551 326.368 19.9524 327.286 20.3524H327.322C328.286 20.8297 329.1 21.3537 329.76 21.8937C330.421 22.4444 331.036 23.1604 331.601 24.0431C331.894 24.5017 332.165 25.0297 332.432 25.6164C332.652 26.1911 332.821 26.7871 332.954 27.3977C333.082 28.0417 333.184 28.8711 333.253 29.9031C333.298 31.2711 333.317 32.4657 333.317 33.4977V53.2391H323.624V36.3017C323.624 34.4524 323.509 32.8697 323.265 31.5511C323.045 30.4551 322.769 29.6644 322.448 29.1777C322.09 28.7431 321.618 28.3977 321.025 28.1604C320.324 27.8937 319.433 27.7617 318.354 27.7617C317.606 27.7617 316.926 27.8284 316.308 27.9617C315.78 28.0911 315.214 28.2831 314.604 28.5231C314.072 28.7844 313.613 29.0871 313.213 29.4124C312.773 29.7884 312.437 30.1751 312.194 30.5644L312.158 30.5924C311.961 30.8631 311.8 31.1844 311.666 31.5511C311.516 31.8857 311.401 32.3137 311.332 32.8404H311.304C311.194 33.3657 311.129 34.0617 311.106 34.9164C311.061 35.4671 311.042 36.5177 311.042 38.0791V53.2391H301.349V7.29907Z" fill="black"/>
<path d="M176.679 72.8461C176.679 70.0835 175.764 68.9355 173.108 68.9355H171.332V76.7569H173.108C175.764 76.7569 176.679 75.6088 176.679 72.8461ZM179.421 72.8461C179.421 76.8821 177.377 79.1248 173.36 79.1248H168.588V66.5688H173.36C177.377 66.5688 179.421 68.8115 179.421 72.8461Z" fill="black"/>
<path d="M190.815 76.7569V79.1248H181.83V66.5688H190.638V68.9368H184.572V71.6635H189.739V73.8502H184.572V76.7569H190.815Z" fill="black"/>
<path d="M203.231 75.5023C203.231 77.9757 200.953 79.2863 198.082 79.2863C195.033 79.2863 193.077 77.761 192.917 75.017H195.75C195.947 76.129 196.541 77.0263 198.118 77.0263C199.535 77.0263 200.397 76.3077 200.397 75.4663C200.397 74.5503 199.841 74.1743 198.567 73.941L196.917 73.6357C194.818 73.2237 193.205 72.3797 193.205 70.0303C193.205 67.8597 195.051 66.4062 197.885 66.4062C200.719 66.4062 202.674 67.6982 202.89 70.2636H200.073C199.929 69.1689 199.177 68.6663 197.885 68.6663C196.541 68.6663 196.002 69.5277 196.002 70.101C196.002 70.6943 196.271 71.2503 197.329 71.4477L199.266 71.8423C202.119 72.4157 203.231 73.4023 203.231 75.5023Z" fill="black"/>
<path d="M205.727 66.5688H208.472V79.1248H205.727V66.5688Z" fill="black"/>
<path d="M222.32 73.0797C222.32 77.1343 220.742 79.2863 216.921 79.2863C213.316 79.2863 210.966 76.9903 210.966 72.8463C210.966 68.685 213.352 66.4062 216.76 66.4062C219.253 66.4062 221.477 67.7183 221.909 70.2997H219.2C218.714 69.2943 218.052 68.7743 216.813 68.7743C214.913 68.7743 213.837 70.3357 213.837 72.8463C213.837 75.3037 214.877 76.9197 216.921 76.9197C218.662 76.9197 219.646 76.237 219.826 74.373H217.225V72.237H222.32V73.0797Z" fill="black"/>
<path d="M235.507 79.1248H232.62L227.704 71.1248H227.651V79.1248H224.906V66.5688H227.687L232.708 74.7301H232.762V66.5688H235.507V79.1248Z" fill="black"/>
<path d="M247.208 69.4387C247.208 69.976 247.513 70.4067 248.284 71.268C249.612 70.5507 249.809 69.9587 249.809 69.4387C249.809 68.7934 249.378 68.2374 248.553 68.2374C247.657 68.2374 247.208 68.8107 247.208 69.4387ZM250.258 76.56L247.637 73.744C246.706 74.3547 246.525 75.0347 246.525 75.484C246.525 76.3814 247.316 77.0974 248.517 77.0974C249.11 77.0974 249.72 76.9187 250.258 76.56ZM252.642 79.1254L251.872 78.3C250.885 79.0174 249.72 79.34 248.5 79.34C246.006 79.34 243.692 78.0494 243.692 75.5374C243.692 73.6894 245.217 72.8294 246.345 72.2734C245.538 71.2867 245.037 70.3894 245.037 69.3854C245.037 67.788 246.024 66.3174 248.553 66.3174C250.993 66.3174 251.997 67.788 251.997 69.3854C251.997 70.82 251.137 71.824 249.576 72.668L251.692 74.9454C252.016 74.2827 252.23 73.4574 252.249 72.5227H254.617C254.473 74.3 254.006 75.6814 253.342 76.74L255.549 79.1254H252.642Z" fill="black"/>
<path d="M271.642 72.8461C271.642 70.0835 270.727 68.9355 268.073 68.9355H266.295V76.7569H268.073C270.727 76.7569 271.642 75.6088 271.642 72.8461ZM274.387 72.8461C274.387 76.8821 272.341 79.1248 268.323 79.1248H263.553V66.5688H268.323C272.341 66.5688 274.387 68.8115 274.387 72.8461Z" fill="black"/>
<path d="M276.793 66.5688H279.539V79.1248H276.793V66.5688Z" fill="black"/>
<path d="M293.387 73.0797C293.387 77.1343 291.808 79.2863 287.988 79.2863C284.383 79.2863 282.033 76.9903 282.033 72.8463C282.033 68.685 284.419 66.4062 287.827 66.4062C290.32 66.4062 292.544 67.7183 292.976 70.2997H290.267C289.781 69.2943 289.119 68.7743 287.88 68.7743C285.98 68.7743 284.904 70.3357 284.904 72.8463C284.904 75.3037 285.944 76.9197 287.988 76.9197C289.729 76.9197 290.713 76.237 290.893 74.373H288.292V72.237H293.387V73.0797Z" fill="black"/>
<path d="M295.973 66.5688H298.719V79.1248H295.973V66.5688Z" fill="black"/>
<path d="M310.916 68.9355H307.311V79.1248H304.565V68.9355H300.944V66.5688H310.916V68.9355Z" fill="black"/>
<path d="M318.541 74.7648L316.892 69.9581L315.259 74.7648H318.541ZM319.224 76.7741H314.579L313.769 79.1248H310.811L315.671 66.5688H318.128L322.972 79.1248H320.031L319.224 76.7741Z" fill="black"/>
<path d="M333.667 76.7569V79.1248H325.2V66.5688H327.944V76.7569H333.667Z" fill="black"/>
</g>
<defs>
<clipPath id="clip0_434_351">
<rect width="334" height="80" fill="white"/>
</clipPath>
</defs>
</svg>
